<?xml version="1.0" encoding="utf-8"?>
<!-- Generator: Adobe Illustrator 15.1.0, SVG Export Plug-In  -->
<!DOCTYPE svg PUBLIC "-//W3C//DTD SVG 1.1//EN" "http://www.w3.org/Graphics/SVG/1.1/DTD/svg11.dtd" [
	<!ENTITY ns_flows "http://ns.adobe.com/Flows/1.0/">
]>
<svg version="1.1"
	 xmlns="http://www.w3.org/2000/svg" xmlns:xlink="http://www.w3.org/1999/xlink" xmlns:a="http://ns.adobe.com/AdobeSVGViewerExtensions/3.0/"
	 x="0px" y="0px" width="66px" height="58px" viewBox="-1 -0.338 66 58"
	 overflow="visible" enable-background="new -1 -0.338 66 58" xml:space="preserve">
<defs>
</defs>
<g>
	<g>
		<g>
			<defs>
				<filter id="Adobe_OpacityMaskFilter" filterUnits="userSpaceOnUse" x="52.594" y="13.435" width="5.716" height="16.409">
					
						<feColorMatrix  type="matrix" values="-1 0 0 0 1  0 -1 0 0 1  0 0 -1 0 1  0 0 0 1 0" color-interpolation-filters="sRGB" result="source"/>
					<feFlood  style="flood-color:white;flood-opacity:1" result="back"/>
					<feBlend  in="source" in2="back" mode="normal"/>
				</filter>
			</defs>
			<mask maskUnits="userSpaceOnUse" x="52.594" y="13.435" width="5.716" height="16.409" id="SVGID_1_">
				<g filter="url(#Adobe_OpacityMaskFilter)">
					<circle fill="#FFFFFF" cx="55.452" cy="16.509" r="2.106"/>
					<rect x="53.929" y="7.969" fill="#FFFFFF" width="2.955" height="7.656"/>
				</g>
			</mask>
			<path mask="url(#SVGID_1_)" fill="#FFFFFF" d="M55.45,29.843L55.45,29.843c-0.219,0-0.426-0.102-0.559-0.276l-2.151-2.799
				c-0.12-0.157-0.17-0.357-0.135-0.552l2.15-12.201c0.061-0.336,0.352-0.582,0.694-0.582s0.635,0.246,0.694,0.582l2.154,12.201
				c0.034,0.195-0.015,0.396-0.137,0.553l-2.153,2.797C55.875,29.742,55.669,29.843,55.45,29.843z M54.048,26.156l1.402,1.825
				l1.405-1.826l-1.405-7.957L54.048,26.156z"/>
			<g>
				<path fill="#FFFFFF" d="M55.45,19.32c-1.549,0-2.81-1.262-2.81-2.812c0-1.551,1.261-2.812,2.81-2.812
					c1.552,0,2.813,1.262,2.813,2.812C58.264,18.058,57.002,19.32,55.45,19.32z M55.45,15.107c-0.771,0-1.399,0.628-1.399,1.402
					c0,0.773,0.628,1.4,1.399,1.4c0.774,0,1.403-0.627,1.403-1.4C56.854,15.735,56.225,15.107,55.45,15.107z"/>
			</g>
			<g>
				<g>
					<path fill="#FFFFFF" d="M55.453,12.313c-3.395,0-6.156-2.762-6.156-6.158C49.297,2.761,52.059,0,55.453,0
						s6.156,2.761,6.156,6.155C61.609,9.551,58.848,12.313,55.453,12.313z M55.453,1.41c-2.617,0-4.746,2.128-4.746,4.745
						c0,2.619,2.129,4.748,4.746,4.748s4.746-2.129,4.746-4.748C60.199,3.538,58.07,1.41,55.453,1.41z"/>
					<path fill="#FFFFFF" d="M63.102,39.905H47.805c-0.389,0-0.705-0.315-0.705-0.704V20.721c0-4.132,3.361-7.494,7.492-7.494h1.722
						c4.132,0,7.493,3.361,7.493,7.494v18.479C63.807,39.589,63.49,39.905,63.102,39.905z M48.51,38.494h13.887V20.721
						c0-3.354-2.729-6.084-6.083-6.084h-1.722c-3.354,0-6.082,2.73-6.082,6.084V38.494z"/>
					<g>
						<path fill="#FFFFFF" d="M51.828,56.316c-0.389,0-0.705-0.314-0.705-0.703V39.201c0-0.391,0.316-0.707,0.705-0.707
							c0.39,0,0.705,0.316,0.705,0.707v16.412C52.533,56.001,52.218,56.316,51.828,56.316z"/>
						<path fill="#FFFFFF" d="M59.08,56.316c-0.389,0-0.705-0.314-0.705-0.703V39.201c0-0.391,0.316-0.707,0.705-0.707
							s0.705,0.316,0.705,0.707v16.412C59.785,56.001,59.469,56.316,59.08,56.316z"/>
					</g>
				</g>
				<g>
					<path fill="#FFFFFF" d="M31.644,21.25c-3.281,0-5.95-2.669-5.95-5.95c0-3.283,2.669-5.953,5.95-5.953
						c3.282,0,5.952,2.67,5.952,5.953C37.596,18.582,34.926,21.25,31.644,21.25z M31.644,10.757c-2.503,0-4.541,2.038-4.541,4.543
						c0,2.504,2.037,4.541,4.541,4.541c2.504,0,4.542-2.037,4.542-4.541C36.186,12.795,34.148,10.757,31.644,10.757z"/>
					<path fill="#FFFFFF" d="M38.902,39.905H24.386c-0.39,0-0.705-0.315-0.705-0.704V28.475c0-3.424,2.786-6.21,6.209-6.21h3.508
						c3.424,0,6.21,2.786,6.21,6.21v10.726C39.608,39.589,39.293,39.905,38.902,39.905z M25.091,38.494h13.106V28.475
						c0-2.646-2.152-4.798-4.799-4.798H29.89c-2.646,0-4.799,2.152-4.799,4.798V38.494z"/>
					<g>
						<path fill="#FFFFFF" d="M28.221,56.316c-0.39,0-0.705-0.314-0.705-0.703V39.201c0-0.391,0.315-0.707,0.705-0.707
							s0.705,0.316,0.705,0.707v16.412C28.926,56.001,28.61,56.316,28.221,56.316z"/>
						<path fill="#FFFFFF" d="M35.066,56.316c-0.39,0-0.705-0.314-0.705-0.703V39.111c0-0.391,0.315-0.705,0.705-0.705
							s0.705,0.314,0.705,0.705v16.502C35.771,56.001,35.456,56.316,35.066,56.316z"/>
					</g>
				</g>
				<path fill="#FFFFFF" d="M4.665,56.316c-0.389,0-0.705-0.314-0.705-0.703V39.201c0-0.391,0.316-0.707,0.705-0.707
					c0.39,0,0.706,0.316,0.706,0.707v16.412C5.371,56.001,5.055,56.316,4.665,56.316z"/>
				<path fill="#FFFFFF" d="M11.919,56.316c-0.39,0-0.705-0.314-0.705-0.703V39.201c0-0.391,0.315-0.707,0.705-0.707
					c0.389,0,0.705,0.316,0.705,0.707v16.412C12.624,56.001,12.308,56.316,11.919,56.316z"/>
				<path fill="#FFFFFF" d="M15.286,39.905H1.299c-0.215,0-0.418-0.097-0.552-0.266c-0.133-0.169-0.184-0.389-0.135-0.599
					l2.034-8.815l-2.621-9.446C0.009,20.719,0,20.653,0,20.591v-0.224c0-4.017,2.667-6.933,6.342-6.933h3.899
					c3.674,0,6.341,2.916,6.341,6.933v0.224c0,0.062-0.008,0.126-0.025,0.188l-2.619,9.446l2.035,8.815
					c0.047,0.21-0.002,0.43-0.136,0.599C15.704,39.808,15.5,39.905,15.286,39.905z M2.186,38.494h12.214l-1.875-8.125
					c-0.026-0.114-0.024-0.234,0.007-0.347l2.641-9.655c0-3.252-2.028-5.523-4.931-5.523H6.342c-2.903,0-4.933,2.271-4.933,5.523
					v0.127l2.643,9.528c0.031,0.112,0.033,0.232,0.007,0.347L2.186,38.494z"/>
				<path fill="#FFFFFF" d="M13.211,30.916H3.373c-0.389,0-0.705-0.316-0.705-0.705c0-0.39,0.316-0.706,0.705-0.706h9.838
					c0.389,0,0.706,0.316,0.706,0.706C13.917,30.599,13.6,30.916,13.211,30.916z"/>
				<path fill="#FFFFFF" d="M8.293,20.526c-0.257,0-0.494-0.141-0.618-0.367L4.776,14.89c-0.188-0.341-0.063-0.77,0.278-0.958
					c0.34-0.186,0.769-0.063,0.957,0.278l2.282,4.147l2.279-4.146c0.188-0.341,0.616-0.467,0.958-0.279
					c0.341,0.188,0.466,0.617,0.279,0.957l-2.898,5.27C8.787,20.385,8.55,20.526,8.293,20.526z"/>
				<path fill="#FFFFFF" d="M8.293,12.467c-3.396,0-6.159-2.761-6.159-6.157c0-3.395,2.763-6.156,6.159-6.156
					c3.394,0,6.155,2.761,6.155,6.156C14.448,9.706,11.687,12.467,8.293,12.467z M8.293,1.564c-2.618,0-4.749,2.129-4.749,4.747
					c0,2.617,2.13,4.747,4.749,4.747c2.616,0,4.746-2.13,4.746-4.747C13.039,3.693,10.909,1.564,8.293,1.564z"/>
			</g>
		</g>
	</g>
</g>
</svg>
