<?xml version="1.0" encoding="utf-8"?>
<!-- Generator: Adobe Illustrator 15.1.0, SVG Export Plug-In  -->
<!DOCTYPE svg PUBLIC "-//W3C//DTD SVG 1.1//EN" "http://www.w3.org/Graphics/SVG/1.1/DTD/svg11.dtd" [
	<!ENTITY ns_flows "http://ns.adobe.com/Flows/1.0/">
]>
<svg version="1.1"
	 xmlns="http://www.w3.org/2000/svg" xmlns:xlink="http://www.w3.org/1999/xlink" xmlns:a="http://ns.adobe.com/AdobeSVGViewerExtensions/3.0/"
	 x="0px" y="0px" width="36px" height="36px" viewBox="-1.124 -1.58 36 36"
	 overflow="visible" enable-background="new -1.124 -1.58 36 36" xml:space="preserve">
<defs>
</defs>
<path fill="#989798" d="M33.914,0l-5.979,3.834l0.92,1.438l2.716-1.738l-1.268,7.285C26.889,3.64,18.549-0.033,10.83,2.571
	C6.803,3.936,3.545,6.78,1.661,10.584c-1.887,3.812-2.178,8.123-0.812,12.146c2.236,6.624,8.449,10.812,15.092,10.812
	c1.688,0,3.4-0.269,5.085-0.839l-0.545-1.613c-7.429,2.505-15.511-1.49-18.017-8.907c-1.215-3.591-0.96-7.438,0.727-10.84
	c1.683-3.397,4.593-5.938,8.187-7.154c6.969-2.351,14.519,1.025,17.495,7.576l-6.546-0.94l1.833-1.384l-1.031-1.358l-5.09,3.847
	l13.417,1.931l-0.003-0.011l0.052,0.011L33.914,0z"/>
</svg>
