<?xml version="1.0" encoding="utf-8"?>
<!-- Generator: Adobe Illustrator 15.1.0, SVG Export Plug-In . SVG Version: 6.00 Build 0)  -->
<!DOCTYPE svg PUBLIC "-//W3C//DTD SVG 1.1//EN" "http://www.w3.org/Graphics/SVG/1.1/DTD/svg11.dtd">
<svg version="1.1" id="Layer_1" xmlns="http://www.w3.org/2000/svg" xmlns:xlink="http://www.w3.org/1999/xlink" x="0px" y="0px"
	 width="11px" height="11px" viewBox="0 0 11 11" enable-background="new 0 0 11 11" xml:space="preserve">
<g>
	<g>
		<path fill-rule="evenodd" clip-rule="evenodd" fill="#788080" d="M5.503,0C2.446,0,0,2.479,0,5.536S2.446,11,5.503,11
			C8.561,11,11,8.594,11,5.536S8.561,0,5.503,0z M5.503,9.903c-2.453,0-4.41-1.916-4.41-4.369s1.957-4.441,4.41-4.441
			s4.402,1.988,4.402,4.441S7.956,9.903,5.503,9.903z"/>
	</g>
</g>
<polygon fill-rule="evenodd" clip-rule="evenodd" fill="#788080" points="8.045,7.316 6,5.354 6,2 5,2 5,6 5.247,6 7.331,8 "/>
</svg>
