<?xml version="1.0" encoding="utf-8"?>
<!-- Generator: Adobe Illustrator 15.0.2, SVG Export Plug-In . SVG Version: 6.00 Build 0)  -->
<!DOCTYPE svg PUBLIC "-//W3C//DTD SVG 1.1//EN" "http://www.w3.org/Graphics/SVG/1.1/DTD/svg11.dtd">
<svg version="1.1" id="Layer_1" xmlns="http://www.w3.org/2000/svg" xmlns:xlink="http://www.w3.org/1999/xlink" x="0px" y="0px"
	 width="19px" height="19px" viewBox="0 0 19 19" enable-background="new 0 0 19 19" xml:space="preserve">
<linearGradient id="SVGID_1_" gradientUnits="userSpaceOnUse" x1="9.5005" y1="19" x2="9.5005" y2="4.882812e-04">
	<stop  offset="0" style="stop-color:#E28890"/>
	<stop  offset="1" style="stop-color:#EB9B7B"/>
</linearGradient>
<path fill="url(#SVGID_1_)" d="M9.5,19C4.262,19,0,14.738,0,9.5S4.262,0,9.5,0S19,4.262,19,9.5S14.738,19,9.5,19z M9.5,1
	C4.812,1,1,4.813,1,9.5C1,14.187,4.812,18,9.5,18c4.687,0,8.5-3.813,8.5-8.5C18,4.813,14.187,1,9.5,1z M14.16,13.453L10.207,9.5
	l3.953-3.953L13.453,4.84L9.5,8.793L5.547,4.84L4.84,5.547L8.793,9.5L4.84,13.453l0.707,0.707L9.5,10.207l3.953,3.953L14.16,13.453z
	"/>
</svg>
