<?xml version="1.0" standalone="no"?>
<!DOCTYPE svg PUBLIC "-//W3C//DTD SVG 1.1//EN" "http://www.w3.org/Graphics/SVG/1.1/DTD/svg11.dtd" >
<svg xmlns="http://www.w3.org/2000/svg">
<metadata>
This is a custom SVG webfont generated by Font Squirrel.
Copyright   : Copyright c 2003 by Bitstream Inc All Rights ReservedDejaVu changes are in public domain
Foundry     : DejaVu fonts team
Foundry URL : httpdejavusourceforgenet
</metadata>
<defs>
<font id="webfontfJNKZzKX" horiz-adv-x="1232" >
<font-face units-per-em="2048" ascent="1556" descent="-492" />
<missing-glyph horiz-adv-x="500" />
<glyph unicode="&#xfedf;&#xfe82;" arabic-form="isolated" d="M-106 1507v125l160 123q102 -80 170 -102q49 -14 96 -15q55 0 100 17q109 41 195 117v-125q-88 -63 -180 -93q-68 -23 -121 -22q-43 0 -111 16q-76 18 -143 88zM178 1409h180l426 -958q28 43 50 98q37 139 36 321v686h185v-722q0 -299 -140 -519q-51 -82 -133 -155 q-205 -180 -362 -180q-102 0 -180 32v185q102 -33 180 -33q115 0 250 151z" />
<glyph unicode="&#xfee0;&#xfe82;" arabic-form="final" d="M-193 1507v125l160 123q102 -80 170 -102q49 -14 96 -15q55 0 100 17q109 41 195 117v-125q-88 -63 -180 -93q-68 -23 -121 -22q-43 0 -111 16q-76 18 -143 88zM94 1409h180l426 -958q28 43 50 98q37 139 36 321v686h185v-956q0 -178 33 -258q66 -158 145 -158h104v-184 h-129q-174 0 -276 244q-16 35 -17 71q-55 -88 -133 -155q-201 -180 -362 -180q-102 0 -180 32v185q102 -33 180 -33q115 0 250 151z" />
<glyph unicode="&#xfedf;&#xfe84;" arabic-form="isolated" d="M82 1513v101l78 18q-45 23 -59 55q-16 33 -17 82q4 96 58 139q53 45 149 45q59 0 115 -32v-101q-51 33 -115 33q-68 0 -84 -16q-29 -33 -28 -60q0 -76 94 -102q34 -9 153 18v-102zM178 1409h180l426 -958q28 43 50 98q37 139 36 321v686h185v-722q0 -299 -140 -519 q-51 -82 -133 -155q-205 -180 -362 -180q-102 0 -180 32v185q102 -33 180 -33q115 0 250 151z" />
<glyph unicode="&#xfee0;&#xfe84;" arabic-form="final" d="M-33 1513v101l78 18q-45 23 -59 55q-16 33 -17 82q4 96 58 139q53 45 149 45q59 0 115 -32v-101q-51 33 -115 33q-68 0 -84 -16q-29 -33 -28 -60q0 -76 94 -102q34 -9 153 18v-102zM94 1409h180l426 -958q28 43 50 98q37 139 36 321v686h185v-956q0 -178 33 -258 q66 -158 145 -158h104v-184h-129q-174 0 -276 244q-16 35 -17 71q-55 -88 -133 -155q-201 -180 -362 -180q-102 0 -180 32v185q102 -33 180 -33q115 0 250 151z" />
<glyph unicode="&#xfedf;&#xfe88;" arabic-form="isolated" d="M133 -502v101l78 18q-45 23 -59 55q-16 33 -17 82q4 96 58 139q53 45 149 45q59 0 115 -32v-101q-51 33 -115 33q-68 0 -84 -16q-29 -33 -28 -60q0 -76 94 -102q34 -9 153 18v-102zM178 1409h180l426 -958q28 43 50 98q37 139 36 321v686h185v-722q0 -299 -140 -519 q-51 -82 -133 -155q-205 -180 -362 -180q-102 0 -180 32v185q102 -33 180 -33q115 0 250 151z" />
<glyph unicode="&#xfee0;&#xfe88;" arabic-form="final" d="M133 -502v101l78 18q-45 23 -59 55q-16 33 -17 82q4 96 58 139q53 45 149 45q59 0 115 -32v-101q-51 33 -115 33q-68 0 -84 -16q-29 -33 -28 -60q0 -76 94 -102q34 -9 153 18v-102zM94 1409h180l426 -958q28 43 50 98q37 139 36 321v686h185v-956q0 -178 33 -258 q66 -158 145 -158h104v-184h-129q-174 0 -276 244q-16 35 -17 71q-55 -88 -133 -155q-201 -180 -362 -180q-102 0 -180 32v185q102 -33 180 -33q115 0 250 151z" />
<glyph unicode="&#xfedf;&#xfe8e;" arabic-form="isolated" d="M178 1409h180l426 -958q28 43 50 98q37 139 36 321v686h185v-722q0 -299 -140 -519q-51 -82 -133 -155q-205 -180 -362 -180q-102 0 -180 32v185q102 -33 180 -33q115 0 250 151z" />
<glyph unicode="&#xfee0;&#xfe8e;" arabic-form="final" d="M94 1409h180l426 -958q28 43 50 98q37 139 36 321v686h185v-956q0 -178 33 -258q66 -158 145 -158h104v-184h-129q-174 0 -276 244q-16 35 -17 71q-55 -88 -133 -155q-201 -180 -362 -180q-102 0 -180 32v185q102 -33 180 -33q115 0 250 151z" />
<glyph unicode="&#x67b;" arabic-form="isolated" d="M70 319q0 59 41 187h184q-43 -137 -43 -187q0 -106 117 -137q98 -25 229 -24q188 0 295 63q123 78 123 182q0 59 -27 136h185q27 -76 26 -203q0 -123 -166 -244q-154 -113 -432 -112q-225 0 -377 57q-155 57 -155 282zM543 -250v150h150v-150h-150zM543 -350h150v-150 h-150v150z" />
<glyph unicode="&#x67b;" arabic-form="final" d="M70 319q0 59 41 187h184q-43 -137 -43 -187q0 -106 117 -137q98 -25 225 -24q70 0 199 55q86 37 131 88q55 63 55 122.5t-29 117.5h185q18 -74 18 -166q0 -100 25 -152q18 -39 43 -39h32v-184h-75q-52 0 -99 43q-41 41 -63 123q-96 -86 -185 -129q-115 -57 -288 -57 q-180 0 -318 57q-155 63 -155 282zM508 -250v150h150v-150h-150zM508 -350h150v-150h-150v150z" />
<glyph unicode="&#x67b;" arabic-form="initial" d="M-20 0v184h157q287 0 330 43q49 49 49 156v217h184v-217q0 -186 -92 -297q-72 -86 -415 -86h-213zM524 -250v150h150v-150h-150zM524 -350h150v-150h-150v150z" />
<glyph unicode="&#x67b;" arabic-form="medial" d="M-20 0v184h280q164 0 207 43q47 47 47 156v217h184v-217q0 -106 50 -156q43 -43 206 -43h299v-184h-354q-213 0 -293 86q-78 -86 -291 -86h-335zM524 -250v150h150v-150h-150zM524 -350h150v-150h-150v150z" />
<glyph unicode="&#x67e;" arabic-form="isolated" d="M70 319q0 59 41 187h184q-43 -137 -43 -187q0 -106 117 -137q98 -25 229 -24q188 0 295 63q123 78 123 182q0 59 -27 136h185q27 -76 26 -203q0 -123 -166 -244q-154 -113 -432 -112q-225 0 -377 57q-155 57 -155 282zM444 -250h150v150h-150v-150zM569 -350v-150h149 v150h-149zM694 -250h149v150h-149v-150z" />
<glyph unicode="&#x67e;" arabic-form="final" d="M70 319q0 59 41 187h184q-43 -137 -43 -187q0 -106 117 -137q98 -25 225 -24q70 0 199 55q86 37 131 88q55 63 55 122.5t-29 117.5h185q18 -74 18 -166q0 -100 25 -152q18 -39 43 -39h32v-184h-75q-52 0 -99 43q-41 41 -63 123q-96 -86 -185 -129q-115 -57 -288 -57 q-180 0 -318 57q-155 63 -155 282zM377 -250h150v150h-150v-150zM502 -350v-150h149v150h-149zM627 -250h149v150h-149v-150z" />
<glyph unicode="&#x67e;" arabic-form="initial" d="M-20 0v184h157q287 0 330 43q49 49 49 156v217h184v-217q0 -186 -92 -297q-72 -86 -415 -86h-213zM395 -250h150v150h-150v-150zM520 -350v-150h149v150h-149zM645 -250h149v150h-149v-150z" />
<glyph unicode="&#x67e;" arabic-form="medial" d="M-20 0v184h280q164 0 207 43q47 47 47 156v217h184v-217q0 -106 50 -156q43 -43 206 -43h299v-184h-354q-213 0 -293 86q-78 -86 -291 -86h-335zM395 -250h150v150h-150v-150zM520 -350v-150h149v150h-149zM645 -250h149v150h-149v-150z" />
<glyph unicode="&#x680;" arabic-form="isolated" d="M70 319q0 59 41 187h184q-43 -137 -43 -187q0 -106 117 -137q98 -25 229 -24q188 0 295 63q123 78 123 182q0 59 -27 136h185q27 -76 26 -203q0 -123 -166 -244q-154 -113 -432 -112q-225 0 -377 57q-155 57 -155 282zM403 -250v150h150v-150h-150zM403 -350h150v-150 h-150v150zM653 -250v150h149v-150h-149zM653 -350h149v-150h-149v150z" />
<glyph unicode="&#x680;" arabic-form="final" d="M70 319q0 59 41 187h184q-43 -137 -43 -187q0 -106 117 -137q98 -25 225 -24q70 0 199 55q86 37 131 88q55 63 55 122.5t-29 117.5h185q18 -74 18 -166q0 -100 25 -152q18 -39 43 -39h32v-184h-75q-52 0 -99 43q-41 41 -63 123q-96 -86 -185 -129q-115 -57 -288 -57 q-180 0 -318 57q-155 63 -155 282zM371 -250v150h150v-150h-150zM371 -350h150v-150h-150v150zM621 -250v150h149v-150h-149zM621 -350h149v-150h-149v150z" />
<glyph unicode="&#x680;" arabic-form="initial" d="M-20 0v184h157q287 0 330 43q49 49 49 156v217h184v-217q0 -186 -92 -297q-72 -86 -415 -86h-213zM379 -250v150h150v-150h-150zM379 -350h150v-150h-150v150zM629 -250v150h149v-150h-149zM629 -350h149v-150h-149v150z" />
<glyph unicode="&#x680;" arabic-form="medial" d="M-20 0v184h280q164 0 207 43q47 47 47 156v217h184v-217q0 -106 50 -156q43 -43 206 -43h299v-184h-354q-213 0 -293 86q-78 -86 -291 -86h-335zM408 -250v150h150v-150h-150zM408 -350h150v-150h-150v150zM658 -250v150h149v-150h-149zM658 -350h149v-150h-149v150z" />
<glyph unicode="&#x67a;" arabic-form="isolated" d="M70 319q0 59 41 187h184q-43 -137 -43 -187q0 -106 117 -137q98 -25 229 -24q188 0 295 63q123 78 123 182q0 59 -27 136h185q27 -76 26 -203q0 -123 -166 -244q-154 -113 -432 -112q-225 0 -377 57q-155 57 -155 282zM567 807v150h150v-150h-150zM567 707h150v-150h-150 v150z" />
<glyph unicode="&#x67a;" arabic-form="final" d="M70 319q0 59 41 187h184q-43 -137 -43 -187q0 -106 117 -137q98 -25 225 -24q70 0 199 55q86 37 131 88q55 63 55 122.5t-29 117.5h185q18 -74 18 -166q0 -100 25 -152q18 -39 43 -39h32v-184h-75q-52 0 -99 43q-41 41 -63 123q-96 -86 -185 -129q-115 -57 -288 -57 q-180 0 -318 57q-155 63 -155 282zM512 813v150h150v-150h-150zM512 713h150v-150h-150v150z" />
<glyph unicode="&#x67a;" arabic-form="initial" d="M-20 0v184h157q287 0 330 43q49 49 49 156v217h184v-217q0 -186 -92 -297q-72 -86 -415 -86h-213zM528 993v150h150v-150h-150zM528 893h150v-150h-150v150z" />
<glyph unicode="&#x67a;" arabic-form="medial" d="M-20 0v184h280q164 0 207 43q47 47 47 156v217h184v-217q0 -106 50 -156q43 -43 206 -43h299v-184h-354q-213 0 -293 86q-78 -86 -291 -86h-335zM526 983v150h150v-150h-150zM526 883h150v-150h-150v150z" />
<glyph unicode="&#x67f;" arabic-form="isolated" d="M70 319q0 59 41 187h184q-43 -137 -43 -187q0 -106 117 -137q98 -25 229 -24q188 0 295 63q123 78 123 182q0 59 -27 136h185q27 -76 26 -203q0 -123 -166 -244q-154 -113 -432 -112q-225 0 -377 57q-155 57 -155 282zM403 899v150h150v-150h-150zM403 799h150v-150h-150 v150zM653 899v150h149v-150h-149zM653 799h149v-150h-149v150z" />
<glyph unicode="&#x67f;" arabic-form="final" d="M385 899v150h150v-150h-150zM385 799h150v-150h-150v150zM635 899v150h149v-150h-149zM635 799h149v-150h-149v150zM70 319q0 59 41 187h184q-43 -137 -43 -187q0 -106 117 -137q98 -25 225 -24q70 0 199 55q86 37 131 88q55 63 55 122.5t-29 117.5h185q18 -74 18 -166 q0 -100 25 -152q18 -39 43 -39h32v-184h-75q-52 0 -99 43q-41 41 -63 123q-96 -86 -185 -129q-115 -57 -288 -57q-180 0 -318 57q-155 63 -155 282z" />
<glyph unicode="&#x67f;" arabic-form="initial" d="M-20 0v184h157q287 0 330 43q49 49 49 156v217h184v-217q0 -186 -92 -297q-72 -86 -415 -86h-213zM399 995v150h150v-150h-150zM399 895h150v-150h-150v150zM649 995v150h149v-150h-149zM649 895h149v-150h-149v150z" />
<glyph unicode="&#x67f;" arabic-form="medial" d="M-20 0v184h280q164 0 207 43q47 47 47 156v217h184v-217q0 -106 50 -156q43 -43 206 -43h299v-184h-354q-213 0 -293 86q-78 -86 -291 -86h-335zM395 997v150h150v-150h-150zM395 897h150v-150h-150v150zM645 997v150h149v-150h-149zM645 897h149v-150h-149v150z" />
<glyph unicode="&#x679;" arabic-form="isolated" d="M70 319q0 59 41 187h184q-43 -137 -43 -187q0 -106 117 -137q98 -25 229 -24q188 0 295 63q123 78 123 182q0 59 -27 136h185q27 -76 26 -203q0 -123 -166 -244q-154 -113 -432 -112q-225 0 -377 57q-155 57 -155 282zM432 612v100h80v400h103v-322q37 72 141 113 q59 23 131 -2q66 -25 66 -107q0 -92 -64 -141q-53 -41 -170 -41h-174h-113zM641 712h56q80 0 100 13q51 33 51 55q0 33 -29 47q-4 0 -13 -4t-26.5 -10t-31.5 -13q-52 -20 -107 -88z" />
<glyph unicode="&#x679;" arabic-form="final" d="M407 596v100h80v400h103v-322q37 72 141 113q59 23 131 -2q66 -25 66 -107q0 -92 -64 -141q-53 -41 -170 -41h-174h-113zM616 696h56q80 0 100 13q51 33 51 55q0 33 -29 47q-4 0 -13 -4t-26.5 -10t-31.5 -13q-52 -20 -107 -88zM70 319q0 59 41 187h184q-43 -137 -43 -187 q0 -106 117 -137q98 -25 225 -24q70 0 199 55q86 37 131 88q55 63 55 122.5t-29 117.5h185q18 -74 18 -166q0 -100 25 -152q18 -39 43 -39h32v-184h-75q-52 0 -99 43q-41 41 -63 123q-96 -86 -185 -129q-115 -57 -288 -57q-180 0 -318 57q-155 63 -155 282z" />
<glyph unicode="&#x679;" arabic-form="initial" d="M-20 0v184h157q287 0 330 43q49 49 49 156v217h184v-217q0 -186 -92 -297q-72 -86 -415 -86h-213zM432 770v100h80v400h103v-322q37 72 141 113q59 23 131 -2q66 -25 66 -107q0 -92 -64 -141q-53 -41 -170 -41h-174h-113zM641 870h56q80 0 100 13q51 33 51 55 q0 33 -29 47q-4 0 -13 -4t-26.5 -10t-31.5 -13q-52 -20 -107 -88z" />
<glyph unicode="&#x679;" arabic-form="medial" d="M-20 0v184h280q164 0 207 43q47 47 47 156v217h184v-217q0 -106 50 -156q43 -43 206 -43h299v-184h-354q-213 0 -293 86q-78 -86 -291 -86h-335zM448 784v100h80v400h103v-322q37 72 141 113q59 23 131 -2q66 -25 66 -107q0 -92 -64 -141q-53 -41 -170 -41h-174h-113z M657 884h56q80 0 100 13q51 33 51 55q0 33 -29 47q-4 0 -13 -4t-26.5 -10t-31.5 -13q-52 -20 -107 -88z" />
<glyph unicode="&#x6a4;" arabic-form="isolated" d="M-74 313q-4 141 33 232h184q-35 -90 -34 -232q0 -145 118 -190q92 -35 222 -35q125 0 210 23q186 49 238 77q66 41 102 144q-63 -76 -186 -76q-133 0 -207 68q-98 86 -98 217q0 49 8 96q22 147 172 215q78 37 156 37q88 0 155 -51q94 -70 142 -174q23 -55 22 -191 q0 -326 -98 -403q-104 -84 -272 -121q-182 -41 -344 -41q-160 0 -277 41q-244 90 -246 364zM698 559q0 -80 56 -117q41 -27 82 -26q72 0 96 24q41 45 41 119q0 55 -68 111q-35 27 -74 24q-52 0 -92 -43q-41 -45 -41 -92zM629 993v150h150v-150h-150zM754 1243v149h149v-149 h-149zM879 993v150h149v-150h-149z" />
<glyph unicode="&#x6a4;" arabic-form="final" d="M643 887v150h150v-150h-150zM768 1137v149h149v-149h-149zM893 887v150h149v-150h-149zM-150 313q0 141 64 232h184q-66 -96 -65 -232q0 -125 170 -192q78 -31 200 -31q111 0 265 60q-39 33 -64 69q-82 121 -82 234q0 29 4 65q23 158 209 232q61 23 111 22q84 0 164 -49 q138 -83 153 -234q4 -49 4 -67q0 -131 -80 -238h17h149v-184h-153q-106 0 -217 37q-57 -31 -178 -70q-178 -53 -308 -57q-138 -3 -252 37q-293 102 -295 366zM711 446q0 -43 41 -108q51 -80 131 -115q104 63 104 174q0 20 -6 47q-16 72 -66 111q-34 25 -73 25q-20 0 -45 -11 q-61 -25 -80 -86q-6 -19 -6 -37z" />
<glyph unicode="&#x6a4;" arabic-form="initial" d="M299 1151v150h150v-150h-150zM424 1401v149h149v-149h-149zM549 1151v150h149v-150h-149zM-20 0v184h241q78 0 236 23q78 12 139 104q29 45 45 99q-63 -55 -160 -58q-129 -2 -209 68q-98 86 -98 217q0 55 8 94q23 150 174 217q77 37 154 37q92 0 156 -49q96 -72 143 -174 q23 -55 22 -193q0 -205 -77 -350q-74 -137 -199 -180q-104 -39 -254 -39h-321zM365 655q0 -80 55 -116q43 -27 82 -27q72 0 96 25q41 45 41 120q0 57 -66 111q-29 23 -75 23q-52 0 -92 -43q-41 -42 -41 -93z" />
<glyph unicode="&#x6a4;" arabic-form="medial" d="M406 897v150h150v-150h-150zM531 1147v149h149v-149h-149zM656 897v150h149v-150h-149zM-20 0v184h227q150 0 184 17q-25 33 -65 116q-20 43 -21 123q0 49 8 92q20 141 209 230q29 14 94 14q68 0 97 -14q182 -80 207 -230q8 -43 8 -92q0 -72 -23 -123q-29 -70 -63 -116 q33 -16 186 -17h225v-184h-315q-137 0 -322 57q-180 -57 -319 -57h-317zM494 446q0 -45 24 -96q31 -70 98 -90q63 20 101 90q23 45 22 96q0 25 -10 52q-23 49 -80 84q-25 10 -33 10q-12 0 -32 -10q-55 -31 -80 -84q-10 -25 -10 -52z" />
<glyph unicode="&#x6a6;" arabic-form="isolated" d="M-74 313q-4 141 33 232h184q-35 -90 -34 -232q0 -145 118 -190q92 -35 222 -35q125 0 210 23q186 49 238 77q66 41 102 144q-63 -76 -186 -76q-133 0 -207 68q-98 86 -98 217q0 49 8 96q22 147 172 215q78 37 156 37q88 0 155 -51q94 -70 142 -174q23 -55 22 -191 q0 -326 -98 -403q-104 -84 -272 -121q-182 -41 -344 -41q-160 0 -277 41q-244 90 -246 364zM698 559q0 -80 56 -117q41 -27 82 -26q72 0 96 24q41 45 41 119q0 55 -68 111q-35 27 -74 24q-52 0 -92 -43q-41 -45 -41 -92zM647 1255v150h150v-150h-150zM647 1155h150v-150 h-150v150zM897 1255v150h149v-150h-149zM897 1155h149v-150h-149v150z" />
<glyph unicode="&#x6a6;" arabic-form="final" d="M651 1141v150h150v-150h-150zM651 1041h150v-150h-150v150zM901 1141v150h149v-150h-149zM901 1041h149v-150h-149v150zM-150 313q0 141 64 232h184q-66 -96 -65 -232q0 -125 170 -192q78 -31 200 -31q111 0 265 60q-39 33 -64 69q-82 121 -82 234q0 29 4 65 q23 158 209 232q61 23 111 22q84 0 164 -49q138 -83 153 -234q4 -49 4 -67q0 -131 -80 -238h17h149v-184h-153q-106 0 -217 37q-57 -31 -178 -70q-178 -53 -308 -57q-138 -3 -252 37q-293 102 -295 366zM711 446q0 -43 41 -108q51 -80 131 -115q104 63 104 174q0 20 -6 47 q-16 72 -66 111q-34 25 -73 25q-20 0 -45 -11q-61 -25 -80 -86q-6 -19 -6 -37z" />
<glyph unicode="&#x6a6;" arabic-form="initial" d="M299 1401v150h150v-150h-150zM299 1301h150v-150h-150v150zM549 1401v150h149v-150h-149zM549 1301h149v-150h-149v150zM-20 0v184h241q78 0 236 23q78 12 139 104q29 45 45 99q-63 -55 -160 -58q-129 -2 -209 68q-98 86 -98 217q0 55 8 94q23 150 174 217q77 37 154 37 q92 0 156 -49q96 -72 143 -174q23 -55 22 -193q0 -205 -77 -350q-74 -137 -199 -180q-104 -39 -254 -39h-321zM365 655q0 -80 55 -116q43 -27 82 -27q72 0 96 25q41 45 41 120q0 57 -66 111q-29 23 -75 23q-52 0 -92 -43q-41 -42 -41 -93z" />
<glyph unicode="&#x6a6;" arabic-form="medial" d="M410 1161v150h150v-150h-150zM410 1061h150v-150h-150v150zM660 1161v150h149v-150h-149zM660 1061h149v-150h-149v150zM-20 0v184h227q150 0 184 17q-25 33 -65 116q-20 43 -21 123q0 49 8 92q20 141 209 230q29 14 94 14q68 0 97 -14q182 -80 207 -230q8 -43 8 -92 q0 -72 -23 -123q-29 -70 -63 -116q33 -16 186 -17h225v-184h-315q-137 0 -322 57q-180 -57 -319 -57h-317zM494 446q0 -45 24 -96q31 -70 98 -90q63 20 101 90q23 45 22 96q0 25 -10 52q-23 49 -80 84q-25 10 -33 10q-12 0 -32 -10q-55 -31 -80 -84q-10 -25 -10 -52z" />
<glyph unicode="&#x684;" arabic-form="isolated" d="M88 623v184q272 63 471 63q279 0 488 -55v-153q-297 12 -508 -166q-225 -188 -226 -437q0 -133 74 -229q131 -166 406 -166q188 0 403 119v-184q-151 -98 -399 -99q-362 -4 -533 195q-131 150 -131 373q0 258 211 481q95 101 234 153q-88 2 -261 -20q-129 -18 -229 -59z M635 174v150h150v-150h-150zM635 74h150v-150h-150v150z" />
<glyph unicode="&#x684;" arabic-form="final" d="M88 623v184q272 63 471 63q279 0 488 -55v-153q-109 -4 -140 -13l29 -92q51 -158 123 -254q88 -119 174 -119h41v-184h-49q-129 0 -252 150q-82 100 -144 256l-79 192q-115 -25 -211 -102q-225 -184 -226 -437q0 -137 74 -229q131 -166 406 -166q188 0 403 119v-184 q-151 -98 -399 -99q-362 -4 -533 195q-131 150 -131 373q0 258 211 481q95 101 234 153q-88 2 -261 -20q-129 -18 -229 -59zM559 125v150h150v-150h-150zM559 25h150v-150h-150v150z" />
<glyph unicode="&#x684;" arabic-form="initial" d="M352 -201v150h150v-150h-150zM352 -301h150v-150h-150v150zM-20 0v184h100q225 0 356 72q104 59 219 164q96 88 197 121q-164 43 -186 47q-94 20 -267 35q-82 6 -241 0v184q94 8 145 8q158 0 336 -35q258 -53 477 -149v-156q-76 -25 -164 -76q-162 -96 -239 -163 q-139 -125 -221 -156q-221 -80 -383 -80h-129z" />
<glyph unicode="&#x684;" arabic-form="medial" d="M524 -201v150h150v-150h-150zM524 -301h150v-150h-150v150zM-20 0v184h100q225 0 356 72q104 59 219 164q96 88 197 121q-164 43 -186 47q-94 20 -267 35q-82 6 -241 0v184q94 8 145 8q158 0 336 -35q258 -53 477 -149v-156q-72 -25 -137 -59q53 -84 80 -113 q104 -119 158 -119h59v-184h-80q-152 0 -274 168q-57 80 -101 151q-68 -45 -108 -83q-139 -125 -221 -156q-221 -80 -383 -80h-129z" />
<glyph unicode="&#x683;" arabic-form="isolated" d="M88 623v184q272 63 471 63q279 0 488 -55v-153q-297 12 -508 -166q-225 -188 -226 -437q0 -133 74 -229q131 -166 406 -166q188 0 403 119v-184q-151 -98 -399 -99q-362 -4 -533 195q-131 150 -131 373q0 258 211 481q95 101 234 153q-88 2 -261 -20q-129 -18 -229 -59z M649 25v150h150v-150h-150zM899 25v150h149v-150h-149z" />
<glyph unicode="&#x683;" arabic-form="final" d="M88 623v184q272 63 471 63q279 0 488 -55v-153q-109 -4 -140 -13l29 -92q51 -158 123 -254q88 -119 174 -119h41v-184h-49q-129 0 -252 150q-82 100 -144 256l-79 192q-115 -25 -211 -102q-225 -184 -226 -437q0 -137 74 -229q131 -166 406 -166q188 0 403 119v-184 q-151 -98 -399 -99q-362 -4 -533 195q-131 150 -131 373q0 258 211 481q95 101 234 153q-88 2 -261 -20q-129 -18 -229 -59zM551 -25v150h150v-150h-150zM801 -25v150h149v-150h-149z" />
<glyph unicode="&#x683;" arabic-form="initial" d="M188 -201v150h150v-150h-150zM438 -201v150h149v-150h-149zM-20 0v184h100q225 0 356 72q104 59 219 164q96 88 197 121q-164 43 -186 47q-94 20 -267 35q-82 6 -241 0v184q94 8 145 8q158 0 336 -35q258 -53 477 -149v-156q-76 -25 -164 -76q-162 -96 -239 -163 q-139 -125 -221 -156q-221 -80 -383 -80h-129z" />
<glyph unicode="&#x683;" arabic-form="medial" d="M399 -201v150h150v-150h-150zM649 -201v150h149v-150h-149zM-20 0v184h100q225 0 356 72q104 59 219 164q96 88 197 121q-164 43 -186 47q-94 20 -267 35q-82 6 -241 0v184q94 8 145 8q158 0 336 -35q258 -53 477 -149v-156q-72 -25 -137 -59q53 -84 80 -113 q104 -119 158 -119h59v-184h-80q-152 0 -274 168q-57 80 -101 151q-68 -45 -108 -83q-139 -125 -221 -156q-221 -80 -383 -80h-129z" />
<glyph unicode="&#x686;" arabic-form="isolated" d="M88 623v184q272 63 471 63q279 0 488 -55v-153q-297 12 -508 -166q-225 -188 -226 -437q0 -133 74 -229q131 -166 406 -166q188 0 403 119v-184q-151 -98 -399 -99q-362 -4 -533 195q-131 150 -131 373q0 258 211 481q95 101 234 153q-88 2 -261 -20q-129 -18 -229 -59z M555 150h150v150h-150v-150zM680 50v-150h149v150h-149zM805 150h149v150h-149v-150z" />
<glyph unicode="&#x686;" arabic-form="final" d="M88 623v184q272 63 471 63q279 0 488 -55v-153q-109 -4 -140 -13l29 -92q51 -158 123 -254q88 -119 174 -119h41v-184h-49q-129 0 -252 150q-82 100 -144 256l-79 192q-115 -25 -211 -102q-225 -184 -226 -437q0 -137 74 -229q131 -166 406 -166q188 0 403 119v-184 q-151 -98 -399 -99q-362 -4 -533 195q-131 150 -131 373q0 258 211 481q95 101 234 153q-88 2 -261 -20q-129 -18 -229 -59zM453 66h150v150h-150v-150zM578 -34v-150h149v150h-149zM703 66h149v150h-149v-150z" />
<glyph unicode="&#x686;" arabic-form="initial" d="M240 -240h150v150h-150v-150zM365 -340v-150h149v150h-149zM490 -240h149v150h-149v-150zM-20 0v184h100q225 0 356 72q104 59 219 164q96 88 197 121q-164 43 -186 47q-94 20 -267 35q-82 6 -241 0v184q94 8 145 8q158 0 336 -35q258 -53 477 -149v-156 q-76 -25 -164 -76q-162 -96 -239 -163q-139 -125 -221 -156q-221 -80 -383 -80h-129z" />
<glyph unicode="&#x686;" arabic-form="medial" d="M399 -201h150v150h-150v-150zM524 -301v-150h149v150h-149zM649 -201h149v150h-149v-150zM-20 0v184h100q225 0 356 72q104 59 219 164q96 88 197 121q-164 43 -186 47q-94 20 -267 35q-82 6 -241 0v184q94 8 145 8q158 0 336 -35q258 -53 477 -149v-156 q-72 -25 -137 -59q53 -84 80 -113q104 -119 158 -119h59v-184h-80q-152 0 -274 168q-57 80 -101 151q-68 -45 -108 -83q-139 -125 -221 -156q-221 -80 -383 -80h-129z" />
<glyph unicode="&#x687;" arabic-form="isolated" d="M88 623v184q272 63 471 63q279 0 488 -55v-153q-297 12 -508 -166q-225 -188 -226 -437q0 -133 74 -229q131 -166 406 -166q188 0 403 119v-184q-151 -98 -399 -99q-362 -4 -533 195q-131 150 -131 373q0 258 211 481q95 101 234 153q-88 2 -261 -20q-129 -18 -229 -59z M561 174v150h150v-150h-150zM561 74h150v-150h-150v150zM811 174v150h149v-150h-149zM811 74h149v-150h-149v150z" />
<glyph unicode="&#x687;" arabic-form="final" d="M88 623v184q272 63 471 63q279 0 488 -55v-153q-109 -4 -140 -13l29 -92q51 -158 123 -254q88 -119 174 -119h41v-184h-49q-129 0 -252 150q-82 100 -144 256l-79 192q-115 -25 -211 -102q-225 -184 -226 -437q0 -137 74 -229q131 -166 406 -166q188 0 403 119v-184 q-151 -98 -399 -99q-362 -4 -533 195q-131 150 -131 373q0 258 211 481q95 101 234 153q-88 2 -261 -20q-129 -18 -229 -59zM453 94v150h150v-150h-150zM453 -6h150v-150h-150v150zM703 94v150h149v-150h-149zM703 -6h149v-150h-149v150z" />
<glyph unicode="&#x687;" arabic-form="initial" d="M252 -240v150h150v-150h-150zM252 -340h150v-150h-150v150zM502 -240v150h149v-150h-149zM502 -340h149v-150h-149v150zM-20 0v184h100q225 0 356 72q104 59 219 164q96 88 197 121q-164 43 -186 47q-94 20 -267 35q-82 6 -241 0v184q94 8 145 8q158 0 336 -35 q258 -53 477 -149v-156q-76 -25 -164 -76q-162 -96 -239 -163q-139 -125 -221 -156q-221 -80 -383 -80h-129z" />
<glyph unicode="&#x687;" arabic-form="medial" d="M399 -201v150h150v-150h-150zM399 -301h150v-150h-150v150zM649 -201v150h149v-150h-149zM649 -301h149v-150h-149v150zM-20 0v184h100q225 0 356 72q104 59 219 164q96 88 197 121q-164 43 -186 47q-94 20 -267 35q-82 6 -241 0v184q94 8 145 8q158 0 336 -35 q258 -53 477 -149v-156q-72 -25 -137 -59q53 -84 80 -113q104 -119 158 -119h59v-184h-80q-152 0 -274 168q-57 80 -101 151q-68 -45 -108 -83q-139 -125 -221 -156q-221 -80 -383 -80h-129z" />
<glyph unicode="&#x698;" arabic-form="isolated" d="M-51 -319q446 0 663 126q256 147 289 347q10 66 10 131q0 125 -53 262h184q49 -117 50 -250q0 -90 -9 -145q-41 -332 -370 -504q-270 -141 -764 -152v185zM721 678v150h150v-150h-150zM846 928v149h149v-149h-149zM971 678v150h149v-150h-149z" />
<glyph unicode="&#x698;" arabic-form="final" d="M604 692v150h150v-150h-150zM729 942v149h149v-149h-149zM854 692v150h149v-150h-149zM-160 -315q449 0 664 127q256 152 289 346q10 66 10 131q0 125 -53 262h184q29 -104 33 -143q8 -102 84 -181q43 -43 143 -43h59v-184h-114q-131 0 -181 61q-59 -254 -354 -409 q-285 -152 -764 -152v185z" />
<glyph unicode="&#x691;" arabic-form="isolated" d="M698 680v100h80v400h103v-322q37 72 141 113q59 23 131 -2q66 -25 66 -107q0 -92 -64 -141q-53 -41 -170 -41h-174h-113zM907 780h56q80 0 100 13q51 33 51 55q0 33 -29 47q-4 0 -13 -4t-26.5 -10t-31.5 -13q-52 -20 -107 -88zM-51 -319q446 0 663 126q256 147 289 347 q10 66 10 131q0 125 -53 262h184q49 -117 50 -250q0 -90 -9 -145q-41 -332 -370 -504q-270 -141 -764 -152v185z" />
<glyph unicode="&#x691;" arabic-form="final" d="M589 657v100h80v400h103v-322q37 72 141 113q59 23 131 -2q66 -25 66 -107q0 -92 -64 -141q-53 -41 -170 -41h-174h-113zM798 757h56q80 0 100 13q51 33 51 55q0 33 -29 47q-4 0 -13 -4t-26.5 -10t-31.5 -13q-52 -20 -107 -88zM-160 -315q449 0 664 127q256 152 289 346 q10 66 10 131q0 125 -53 262h184q29 -104 33 -143q8 -102 84 -181q43 -43 143 -43h59v-184h-114q-131 0 -181 61q-59 -254 -354 -409q-285 -152 -764 -152v185z" />
<glyph unicode="&#x6a9;" arabic-form="isolated" d="M10 307q0 141 64 232h182q-63 -94 -63 -232q0 -120 202 -190q82 -29 156 -29q160 0 270 53q106 51 162 113q53 59 53 141q0 55 -96 162l-182 203q-61 68 -62 139q0 84 19 115q45 80 131 143l526 399v-208l-407 -320q-70 -55 -70 -100q0 -65 31 -99l147 -161 q143 -156 144 -267q0 -158 -105 -274q-84 -94 -246 -170q-96 -45 -307 -45q-113 0 -219 31q-330 98 -330 364z" />
<glyph unicode="&#x6a9;" arabic-form="final" d="M-125 307q0 141 64 232h184q-66 -96 -66 -232q0 -120 203 -190q82 -29 156 -29q160 0 270.5 53.5t163.5 112.5q51 57 51 90q0 51 -41 117l-182 299q-61 100 -62 139q0 84 19 115q45 80 131 143l526 399v-208l-407 -320q-72 -55 -72 -100q0 -80 18 -107l357 -573 q39 -63 80 -64h39v-184h-43q-63 0 -97 18q-61 31 -82 60l-71 104q-25 -51 -74 -90q-80 -74 -209 -135q-96 -45 -305 -45q-115 0 -221 31q-330 98 -330 364z" />
<glyph unicode="&#x6a9;" arabic-form="initial" d="M-20 0v184h403q145 0 192 105q16 39 17 71q0 70 -55 136l-310 378q-51 63 -51 144q0 27 10 67q31 117 136 160l745 311v-186l-596 -250q-70 -31 -90 -69q-6 -12 -6 -37q0 -33 31 -70l274 -330q102 -125 102 -245q0 -111 -61 -213q-96 -156 -320 -156h-421z" />
<glyph unicode="&#x6a9;" arabic-form="medial" d="M-20 0v184h411q150 0 195 105q16 39 16 71q0 74 -53 136l-311 378q-49 61 -50 144q0 27 11 67q31 117 133 160l745 311v-186l-596 -250q-72 -31 -92 -69q-4 -8 -4 -37q0 -33 31 -70l581 -704q18 -20 62 -39q45 -16 106 -17h88v-184h-131q-66 0 -125 25q-100 43 -135 84 l-96 118q-4 -10 -39 -71q-96 -156 -315 -156h-432z" />
<glyph unicode="&#x6af;" arabic-form="isolated" d="M10 307q0 141 64 232h182q-63 -94 -63 -232q0 -120 202 -190q82 -29 156 -29q160 0 270 53q106 51 162 113q53 59 53 141q0 55 -96 162l-182 203q-61 68 -62 139q0 84 19 115q45 80 131 143l526 399v-208l-407 -320q-70 -55 -70 -100q0 -65 31 -99l147 -161 q143 -156 144 -267q0 -158 -105 -274q-84 -94 -246 -170q-96 -45 -307 -45q-113 0 -219 31q-330 98 -330 364zM684 1155v178l694 528v-178z" />
<glyph unicode="&#x6af;" arabic-form="final" d="M596 1159v178l694 528v-178zM-125 307q0 141 64 232h184q-66 -96 -66 -232q0 -120 203 -190q82 -29 156 -29q160 0 270.5 53.5t163.5 112.5q51 57 51 90q0 51 -41 117l-182 299q-61 100 -62 139q0 84 19 115q45 80 131 143l526 399v-208l-407 -320q-72 -55 -72 -100 q0 -80 18 -107l357 -573q39 -63 80 -64h39v-184h-43q-63 0 -97 18q-61 31 -82 60l-71 104q-25 -51 -74 -90q-80 -74 -209 -135q-96 -45 -305 -45q-115 0 -221 31q-330 98 -330 364z" />
<glyph unicode="&#x6af;" arabic-form="initial" d="M143 1268v178l924 403v-178zM-20 0v184h403q145 0 192 105q16 39 17 71q0 70 -55 136l-310 378q-51 63 -51 144q0 27 10 67q31 117 136 160l745 311v-186l-596 -250q-70 -31 -90 -69q-6 -12 -6 -37q0 -33 31 -70l274 -330q102 -125 102 -245q0 -111 -61 -213 q-96 -156 -320 -156h-421z" />
<glyph unicode="&#x6af;" arabic-form="medial" d="M156 1268v178l924 403v-178zM-20 0v184h411q150 0 195 105q16 39 16 71q0 74 -53 136l-311 378q-49 61 -50 144q0 27 11 67q31 117 133 160l745 311v-186l-596 -250q-72 -31 -92 -69q-4 -8 -4 -37q0 -33 31 -70l581 -704q18 -20 62 -39q45 -16 106 -17h88v-184h-131 q-66 0 -125 25q-100 43 -135 84l-96 118q-4 -10 -39 -71q-96 -156 -315 -156h-432z" />
<glyph unicode="&#x6ba;" arabic-form="isolated" d="M53 127q0 172 53 315h185q-55 -176 -55 -315q0 -180 161 -248q57 -25 187 -24q84 0 145 20q158 53 215 217q35 100 35 195q0 254 -70 401h185q72 -162 71 -432q0 -190 -100 -352q-70 -113 -213 -176q-143 -59 -268 -60q-174 0 -295 64q-236 121 -236 395z" />
<glyph unicode="&#x6ba;" arabic-form="final" d="M-43 -43q0 172 53 315h185q-55 -174 -56 -315q0 -180 160 -248q53 -23 186 -22q92 0 148 18q156 51 215 219q33 92 33 213q0 186 -101 387h185l51 -137q33 -80 65 -139q33 -63 121 -64h51v-184h-94q-86 0 -100 47q-6 -174 -90 -311q-68 -113 -213 -176q-143 -59 -271 -60 q-174 0 -295 64q-233 120 -233 393z" />
<glyph unicode="&#x6be;" arabic-form="isolated" d="M0 227q0 74 16 129h185q-14 -55 -15 -102q0 -41 29 -53q49 -16 86 -17q70 0 129 11q-41 92 -59 174q-18 78 -19 143q0 84 45 166q49 90 125 82q-37 35 -125 51v186q221 -70 441 -247q262 -215 319 -431q14 -49 14 -108q0 -102 -41 -166q-74 -113 -247 -113 q-129 0 -285 109q-123 -41 -266 -41q-145 0 -213 37q-119 65 -119 190zM522 506q0 -31 6 -68q23 -117 90 -170q35 27 70 92q39 70 39 134q0 47 -14 81q-23 53 -80 54q-68 0 -88 -45q-23 -45 -23 -78zM756 147q53 -47 100 -47q127 0 143 68q6 31 7 63q0 63 -33 138 q-27 68 -96 139q6 -37 6 -76q0 -138 -99 -252z" />
<glyph unicode="&#x6be;" arabic-form="final" d="M0 227q0 74 16 129h185q-14 -55 -15 -102q0 -41 29 -53q49 -16 86 -17q41 0 152 17q-61 72 -82 168q-18 78 -19 143q0 84 45 166q49 90 125 82q-37 35 -125 51v186q209 -63 441 -247q249 -200 319 -431q23 -76 10 -135h99v-184h-375q-193 0 -264 51q-129 -51 -295 -51 q-145 0 -213 37q-119 65 -119 190zM522 506q0 -31 6 -68q23 -117 90 -170q35 27 70 92q39 70 39 134q0 47 -14 81q-23 53 -80 54q-68 0 -88 -45q-23 -45 -23 -78zM791 188q27 -20 65 -20q131 0 143 65q6 33 0 64q-6 37 -26 72q-55 100 -96 139q12 -96 -9 -180 q-22 -89 -77 -140z" />
<glyph unicode="&#x6be;" arabic-form="initial" d="M-20 0v184h145q68 0 131 11q-45 102 -61 174q-18 78 -19 143q0 84 45 166q49 90 125 82q-37 35 -125 51v186q221 -70 441 -247q262 -215 319 -431q14 -49 14 -108q0 -102 -41 -166q-74 -113 -247 -113q-129 0 -285 109q-123 -41 -266 -41h-176zM346 506q0 -31 6 -68 q23 -117 90 -170q35 27 70 92q39 70 39 134q0 47 -14 81q-23 53 -80 54q-68 0 -88 -45q-23 -45 -23 -78zM580 147q53 -47 102 -47q126 0 141 68q6 31 6 63q0 63 -32 138q-27 68 -97 139q6 -37 7 -76q0 -138 -99 -252z" />
<glyph unicode="&#x6be;" arabic-form="medial" d="M-20 0v184h237q66 0 131 17q-61 72 -82 168q-16 68 -16 143q0 84 45 166q49 90 125 82q-37 35 -125 51v186q207 -63 438 -247q249 -200 320 -431q25 -80 12 -135h201v-184h-480q-193 0 -264 51q-133 -51 -295 -51h-247zM418 506q0 -18 8 -68q23 -119 88 -170q35 27 70 92 q39 70 39 134q0 47 -15 81q-23 53 -80 54q-68 0 -88 -45q-22 -45 -22 -78zM686 188q27 -20 68 -20q129 0 141 65q6 33 0 64q-6 37 -27 72q-55 100 -96 139q12 -96 -8 -180q-23 -89 -78 -140z" />
<glyph unicode="&#x649;" arabic-form="initial" d="M-20 0v184h157q287 0 330 43q49 49 49 156v217h184v-217q0 -186 -92 -297q-72 -86 -415 -86h-213z" />
<glyph unicode="&#x649;" arabic-form="medial" d="M-20 0v184h280q164 0 207 43q47 47 47 156v217h184v-217q0 -106 50 -156q43 -43 206 -43h299v-184h-354q-213 0 -293 86q-78 -86 -291 -86h-335z" />
<glyph unicode="&#x6cc;" arabic-form="isolated" d="M25 123q0 117 63 229h184q-66 -135 -65 -229q2 -145 166 -193q70 -20 157 -20q119 0 230 35q104 33 172 112q57 70 57 107q0 47 -26 88q-33 49 -166 108q-96 43 -97 175q0 150 95 210q80 51 174 52q141 0 196 -74q49 -65 68 -203h-184q0 61 -19 86q-27 33 -65 31 q-23 -4 -45 -23q-35 -31 -35 -88q0 -41 125 -84q90 -31 145 -135q33 -61 33 -151q0 -78 -43 -144q-133 -195 -357 -243q-178 -37 -270 -37q-129 0 -201 24q-292 105 -292 367z" />
<glyph unicode="&#x6cc;" arabic-form="final" d="M-131 18q-6 98 29 230h178q-27 -86 -27 -197q0 -106 144 -131q68 -12 182 -12q135 0 186 16q129 37 150 51q57 43 57 76q-4 45 -10 55q-29 43 -47 62q-45 49 -45 106q0 78 41 125q74 90 163 109q27 6 74 6q131 0 176 -137q66 -193 99 -193h34v-184h-34q-127 0 -195 172 q-66 166 -94 166q-31 0 -49 -19q-20 -18 -21 -49q0 -8 41 -71q53 -88 53 -148q0 -82 -77 -166q-106 -113 -285 -137q-135 -20 -215 -20q-121 0 -268 36q-228 55 -240 254z" />
<glyph unicode="&#x6cc;" arabic-form="initial" d="M391 -299v150h150v-150h-150zM641 -299v150h149v-150h-149zM-20 0v184h157q287 0 330 43q49 49 49 156v217h184v-217q0 -186 -92 -297q-72 -86 -415 -86h-213z" />
<glyph unicode="&#x6cc;" arabic-form="medial" d="M403 -299v150h150v-150h-150zM653 -299v150h149v-150h-149zM-20 0v184h280q164 0 207 43q47 47 47 156v217h184v-217q0 -106 50 -156q43 -43 206 -43h299v-184h-354q-213 0 -293 86q-78 -86 -291 -86h-335z" />
<glyph unicode="&#xfe70;" arabic-form="isolated" d="M324 1210v111l583 129v-111zM324 1450v111l583 129v-111z" />
<glyph unicode="&#xfe71;" arabic-form="medial" d="M324 1210v111l583 129v-111zM324 1450v111l583 129v-111zM-20 0v184h1273v-184h-1273z" />
<glyph unicode="&#xfe72;" arabic-form="isolated" d="M324 1518h90q0 -98 12 -123q37 -74 84 -74q59 0 119 59q37 37 57 78q-29 6 -55 21q-109 59 -109 149q0 88 68 139q29 23 92 23q72 0 113 -41q55 -55 55 -131q0 -41 -12 -78q6 0 17 -1t15 -1h37v-111q-51 0 -65 3l-51 6q-25 -61 -103 -140q-83 -86 -178 -86 q-115 0 -170 154q-16 43 -16 154zM635 1628q0 -35 43 -53q8 -4 24.5 -9t22.5 -7q0 2 2 7t2 7q10 25 10 45q0 33 -16 47t-37 14q-25 0 -35 -10q-16 -10 -16 -41z" />
<glyph unicode="&#xfe74;" arabic-form="isolated" d="M324 -139l583 129v-111l-583 -129v111zM324 -381l583 131v-110l-583 -129v108z" />
<glyph unicode="&#xfe76;" arabic-form="isolated" d="M324 1210v111l583 129v-111z" />
<glyph unicode="&#xfe77;" arabic-form="medial" d="M-20 0v184h1273v-184h-1273zM324 1210v111l583 129v-111z" />
<glyph unicode="&#xfe78;" arabic-form="isolated" d="M324 1208v111q154 0 292 108q14 12 41 39q-6 2 -26 13q-109 55 -109 149q0 88 68 139q29 23 92 23q72 0 113 -41q55 -55 55 -131q0 -35 -14 -78q6 0 17 -1t17 -1h37v-111q-45 0 -65.5 2.5t-57.5 6.5q-41 -59 -112 -105q-201 -123 -348 -123zM635 1628q0 -35 43 -53 q8 -4 24.5 -9t22.5 -7q0 2 2 7t2 7q10 25 10 45q0 33 -16 47q-14 14 -37 14q-25 0 -35 -10q-16 -10 -16 -41z" />
<glyph unicode="&#xfe79;" arabic-form="medial" d="M-20 0v184h1273v-184h-1273zM324 1208v111q154 0 292 108q14 12 41 39q-6 2 -26 13q-109 55 -109 149q0 88 68 139q29 23 92 23q72 0 113 -41q55 -55 55 -131q0 -35 -14 -78q6 0 17 -1t17 -1h37v-111q-45 0 -65.5 2.5t-57.5 6.5q-41 -59 -112 -105q-201 -123 -348 -123z M635 1628q0 -35 43 -53q8 -4 24.5 -9t22.5 -7q0 2 2 7t2 7q10 25 10 45q0 33 -16 47q-14 14 -37 14q-25 0 -35 -10q-16 -10 -16 -41z" />
<glyph unicode="&#xfe7a;" arabic-form="isolated" d="M324 -170l583 129v-109l-583 -131v111z" />
<glyph unicode="&#xfe7b;" arabic-form="medial" d="M-20 0v184h1273v-184h-1273zM324 -170l583 129v-109l-583 -131v111z" />
<glyph unicode="&#xfe7c;" arabic-form="isolated" d="M303 1450q0 104 16 209h99q-12 -127 -12 -182q3 -83 24 -117q18 -29 70 -6q61 25 65 194q2 55 2 170h97q0 -53 2 -90q16 -199 90 -194q70 0 69 174q0 114 -12 172h102q14 -74 13 -189q-4 -133 -27 -186q-37 -88 -129 -100q-70 -8 -100 24q-27 29 -39 82q-14 -74 -49 -115 q-59 -70 -125 -69q-80 -2 -121 63q-35 51 -35 160z" />
<glyph unicode="&#xfe7d;" arabic-form="medial" d="M-20 0v184h1273v-184h-1273zM303 1450q0 104 16 209h99q-12 -127 -12 -182q3 -83 24 -117q18 -29 70 -6q61 25 65 194q2 55 2 170h97q0 -53 2 -90q16 -199 90 -194q70 0 69 174q0 114 -12 172h102q14 -74 13 -189q-4 -133 -27 -186q-37 -88 -129 -100q-70 -8 -100 24 q-27 29 -39 82q-14 -74 -49 -115q-59 -70 -125 -69q-80 -2 -121 63q-35 51 -35 160z" />
<glyph unicode="&#xfe7e;" arabic-form="isolated" d="M342 1523.5q0 114.5 80 194.5t194.5 80t194.5 -80t80 -194.5t-80 -194.5t-194.5 -80t-194.5 80t-80 194.5zM465 1523.5q0 -65.5 43 -108.5t108.5 -43t108.5 43t43 109q0 63 -43 106q-45 45 -109 45q-66 0 -108.5 -43t-42.5 -108.5z" />
<glyph unicode="&#xfe7f;" arabic-form="medial" d="M342 1523.5q0 114.5 80 194.5t194.5 80t194.5 -80t80 -194.5t-80 -194.5t-194.5 -80t-194.5 80t-80 194.5zM465 1523.5q0 -65.5 43 -108.5t108.5 -43t108.5 43t43 109q0 63 -43 106q-45 45 -109 45q-66 0 -108.5 -43t-42.5 -108.5zM-20 0v184h1273v-184h-1273z" />
<glyph unicode="&#x621;" arabic-form="isolated" d="M434 86v174q33 4 129 33q82 27 121 51q-141 25 -192 100q-53 82 -54 164q0 70 21 140q31 119 133 182q94 59 196 59q117 0 201 -20v-187q-104 31 -170 29q-47 0 -100 -27q-94 -49 -94 -159q0 -115 198 -164q57 -14 115 0q72 18 131 53v-184q-82 -57 -295 -140 q-229 -88 -340 -104z" />
<glyph unicode="&#x622;" arabic-form="isolated" d="M524 0v1556h185v-1556h-185zM256 1659v125l160 123q102 -80 170 -102q49 -14 96 -15q55 0 100 17q109 41 195 117v-125q-88 -63 -180 -93q-68 -23 -121 -22q-43 0 -111 16q-76 18 -143 88z" />
<glyph unicode="&#x622;" arabic-form="final" d="M256 1659v125l160 123q102 -80 170 -102q49 -14 96 -15q55 0 100 17q109 41 195 117v-125q-88 -63 -180 -93q-68 -23 -121 -22q-43 0 -111 16q-76 18 -143 88zM588 371v1185h184v-1173q0 -106 49 -156q43 -43 226 -43h206v-184h-264q-233 0 -313 92q-88 101 -88 279z" />
<glyph unicode="&#x623;" arabic-form="isolated" d="M524 0v1556h185v-1556h-185zM434 1665v101l78 18q-45 23 -59 55q-16 33 -17 82q4 96 58 139q53 45 149 45q59 0 115 -32v-101q-51 33 -115 33q-68 0 -84 -16q-29 -33 -28 -60q0 -76 94 -102q34 -9 153 18v-102z" />
<glyph unicode="&#x623;" arabic-form="final" d="M483 1665v101l78 18q-45 23 -59 55q-16 33 -17 82q4 96 58 139q53 45 149 45q59 0 115 -32v-101q-51 33 -115 33q-68 0 -84 -16q-29 -33 -28 -60q0 -76 94 -102q34 -9 153 18v-102zM588 371v1185h184v-1173q0 -106 49 -156q43 -43 226 -43h206v-184h-264q-233 0 -313 92 q-88 101 -88 279z" />
<glyph unicode="&#x624;" arabic-form="isolated" d="M76 -315q375 0 532 75q223 104 273 242q-106 2 -162 10q-138 25 -191 68q-117 98 -116 235q0 219 211 308q53 23 118 22q96 0 162 -49q131 -92 156 -234q16 -90 16 -178q0 -295 -172 -469q-47 -47 -231 -129q-190 -86 -596 -86v185zM606 326q0 -55 51 -99q45 -39 240 -43 q0 184 -86 242q-41 27 -74 27q-63 0 -106 -58q-25 -34 -25 -69zM540 763v101l78 18q-45 23 -59 55q-16 33 -17 82q4 96 58 139q53 45 149 45q59 0 115 -32v-101q-51 33 -115 33q-68 0 -84 -16q-29 -33 -28 -60q0 -76 94 -102q34 -9 153 18v-102z" />
<glyph unicode="&#x624;" arabic-form="final" d="M493 763v101l78 18q-45 23 -59 55q-16 33 -17 82q4 96 58 139q53 45 149 45q59 0 115 -32v-101q-51 33 -115 33q-68 0 -84 -16q-29 -33 -28 -60q0 -76 94 -102q34 -9 153 18v-102zM90 -315q362 0 494 75q168 94 229 242q-109 2 -164 10q-135 25 -188 68q-109 90 -117 223 q-2 23 8 88q29 158 203 232q53 23 125 22q92 -4 156 -49q132 -92 153 -234q16 -109 19 -178h245v-184h-194h-70q-25 -156 -153 -285q-82 -82 -189 -129q-190 -86 -557 -86v185zM543 356q-18 -74 47 -129q45 -39 237 -43q0 72 -16 133q-25 78 -70 109q-61 39 -118 16 q-68 -27 -80 -86z" />
<glyph unicode="&#x625;" arabic-form="isolated" d="M524 0v1556h185v-1556h-185zM438 -502v101l78 18q-45 23 -59 55q-16 33 -17 82q4 96 58 139q53 45 149 45q59 0 115 -32v-101q-51 33 -115 33q-68 0 -84 -16q-29 -33 -28 -60q0 -76 94 -102q34 -9 153 18v-102z" />
<glyph unicode="&#x625;" arabic-form="final" d="M530 -502v101l78 18q-45 23 -59 55q-16 33 -17 82q4 96 58 139q53 45 149 45q59 0 115 -32v-101q-51 33 -115 33q-68 0 -84 -16q-29 -33 -28 -60q0 -76 94 -102q34 -9 153 18v-102zM588 371v1185h184v-1173q0 -106 49 -156q43 -43 226 -43h206v-184h-264q-233 0 -313 92 q-88 101 -88 279z" />
<glyph unicode="&#x626;" arabic-form="isolated" d="M25 123q0 117 63 229h184q-66 -135 -65 -229q2 -145 166 -193q70 -20 157 -20q119 0 230 35q104 33 172 112q57 70 57 107q0 47 -26 88q-33 49 -166 108q-96 43 -97 175q0 150 95 210q80 51 174 52q141 0 196 -74q49 -65 68 -203h-184q0 61 -19 86q-27 33 -65 31 q-23 -4 -45 -23q-35 -31 -35 -88q0 -41 125 -84q90 -31 145 -135q33 -61 33 -151q0 -78 -43 -144q-133 -195 -357 -243q-178 -37 -270 -37q-129 0 -201 24q-292 105 -292 367zM276 669v101l78 18q-45 23 -59 55q-16 33 -17 82q4 96 58 139q53 45 149 45q59 0 115 -32v-101 q-51 33 -115 33q-68 0 -84 -16q-29 -33 -28 -60q0 -76 94 -102q34 -9 153 18v-102z" />
<glyph unicode="&#x626;" arabic-form="final" d="M159 421v101l78 18q-45 23 -59 55q-16 33 -17 82q4 96 58 139q53 45 149 45q59 0 115 -32v-101q-51 33 -115 33q-68 0 -84 -16q-29 -33 -28 -60q0 -76 94 -102q34 -9 153 18v-102zM-131 18q-6 98 29 230h178q-27 -86 -27 -197q0 -106 144 -131q68 -12 182 -12 q135 0 186 16q129 37 150 51q57 43 57 76q-4 45 -10 55q-29 43 -47 62q-45 49 -45 106q0 78 41 125q74 90 163 109q27 6 74 6q131 0 176 -137q66 -193 99 -193h34v-184h-34q-127 0 -195 172q-66 166 -94 166q-31 0 -49 -19q-20 -18 -21 -49q0 -8 41 -71q53 -88 53 -148 q0 -82 -77 -166q-106 -113 -285 -137q-135 -20 -215 -20q-121 0 -268 36q-228 55 -240 254z" />
<glyph unicode="&#x626;" arabic-form="initial" d="M421 815v101l78 18q-45 23 -59 55q-16 33 -17 82q4 96 58 139q53 45 149 45q59 0 115 -32v-101q-51 33 -115 33q-68 0 -84 -16q-29 -33 -28 -60q0 -76 94 -102q34 -9 153 18v-102zM-20 0v184h157q287 0 330 43q49 49 49 156v217h184v-217q0 -186 -92 -297 q-72 -86 -415 -86h-213z" />
<glyph unicode="&#x626;" arabic-form="medial" d="M444 815v101l78 18q-45 23 -59 55q-16 33 -17 82q4 96 58 139q53 45 149 45q59 0 115 -32v-101q-51 33 -115 33q-68 0 -84 -16q-29 -33 -28 -60q0 -76 94 -102q34 -9 153 18v-102zM-20 0v184h280q164 0 207 43q47 47 47 156v217h184v-217q0 -106 50 -156q43 -43 206 -43 h299v-184h-354q-213 0 -293 86q-78 -86 -291 -86h-335z" />
<glyph unicode="&#x627;" arabic-form="isolated" d="M524 0v1556h185v-1556h-185z" />
<glyph unicode="&#x627;" arabic-form="final" d="M588 371v1185h184v-1173q0 -106 49 -156q43 -43 226 -43h206v-184h-264q-233 0 -313 92q-88 101 -88 279z" />
<glyph unicode="&#x628;" arabic-form="isolated" d="M70 319q0 59 41 187h184q-43 -137 -43 -187q0 -106 117 -137q98 -25 229 -24q188 0 295 63q123 78 123 182q0 59 -27 136h185q27 -76 26 -203q0 -123 -166 -244q-154 -113 -432 -112q-225 0 -377 57q-155 57 -155 282zM539 -350v150h150v-150h-150z" />
<glyph unicode="&#x628;" arabic-form="final" d="M465 -350v150h150v-150h-150zM70 319q0 59 41 187h184q-43 -137 -43 -187q0 -106 117 -137q98 -25 225 -24q70 0 199 55q86 37 131 88q55 63 55 122.5t-29 117.5h185q18 -74 18 -166q0 -100 25 -152q18 -39 43 -39h32v-184h-75q-52 0 -99 43q-41 41 -63 123 q-96 -86 -185 -129q-115 -57 -288 -57q-180 0 -318 57q-155 63 -155 282z" />
<glyph unicode="&#x628;" arabic-form="initial" d="M-20 0v184h157q287 0 330 43q49 49 49 156v217h184v-217q0 -186 -92 -297q-72 -86 -415 -86h-213zM504 -299v150h150v-150h-150z" />
<glyph unicode="&#x628;" arabic-form="medial" d="M-20 0v184h280q164 0 207 43q47 47 47 156v217h184v-217q0 -106 50 -156q43 -43 206 -43h299v-184h-354q-213 0 -293 86q-78 -86 -291 -86h-335zM532 -299v150h150v-150h-150z" />
<glyph unicode="&#x629;" arabic-form="isolated" d="M221 291q0 181 37 258q82 184 231 184q199 0 381 -160q141 -123 142 -272q0 -199 -150 -274q-162 -84 -297 -84q-94 0 -176 34q-168 74 -168 314zM401 274q0 -80 58 -124q61 -45 112 -46q94 0 185 58q76 47 75 131q0 76 -65 141q-125 121 -240 121q-66 0 -100 -88 q-25 -68 -25 -193zM362 899v150h150v-150h-150zM612 899v150h149v-150h-149z" />
<glyph unicode="&#x629;" arabic-form="final" d="M455 899v150h150v-150h-150zM705 899v150h149v-150h-149zM242 285q0 174 204 301q104 66 261 82q0 12 -3.5 39.5l-5.5 42.5h185q0 -168 37 -342q20 -98 77 -181q31 -43 144 -43h112v-184h-168q-92 0 -163 51q-43 29 -82 90q-138 -74 -295 -73q-53 0 -115 16 q-188 49 -188 201zM410 295q0 -43 90 -68q88 -25 272 56q-14 39 -27 90q-12 49 -24 151q-120 -12 -203 -80q-110 -90 -108 -149z" />
<glyph unicode="&#x62a;" arabic-form="isolated" d="M70 319q0 59 41 187h184q-43 -137 -43 -187q0 -106 117 -137q98 -25 229 -24q188 0 295 63q123 78 123 182q0 59 -27 136h185q27 -76 26 -203q0 -123 -166 -244q-154 -113 -432 -112q-225 0 -377 57q-155 57 -155 282zM446 649v150h150v-150h-150zM696 649v150h149v-150 h-149z" />
<glyph unicode="&#x62a;" arabic-form="final" d="M412 649v150h150v-150h-150zM662 649v150h149v-150h-149zM70 319q0 59 41 187h184q-43 -137 -43 -187q0 -106 117 -137q98 -25 225 -24q70 0 199 55q86 37 131 88q55 63 55 122.5t-29 117.5h185q18 -74 18 -166q0 -100 25 -152q18 -39 43 -39h32v-184h-75q-52 0 -99 43 q-41 41 -63 123q-96 -86 -185 -129q-115 -57 -288 -57q-180 0 -318 57q-155 63 -155 282z" />
<glyph unicode="&#x62a;" arabic-form="initial" d="M403 850v150h150v-150h-150zM653 850v150h149v-150h-149zM-20 0v184h157q287 0 330 43q49 49 49 156v217h184v-217q0 -186 -92 -297q-72 -86 -415 -86h-213z" />
<glyph unicode="&#x62a;" arabic-form="medial" d="M403 850v150h150v-150h-150zM653 850v150h149v-150h-149zM-20 0v184h280q164 0 207 43q47 47 47 156v217h184v-217q0 -106 50 -156q43 -43 206 -43h299v-184h-354q-213 0 -293 86q-78 -86 -291 -86h-335z" />
<glyph unicode="&#x62b;" arabic-form="isolated" d="M70 319q0 59 41 187h184q-43 -137 -43 -187q0 -106 117 -137q98 -25 229 -24q188 0 295 63q123 78 123 182q0 59 -27 136h185q27 -76 26 -203q0 -123 -166 -244q-154 -113 -432 -112q-225 0 -377 57q-155 57 -155 282zM442 649v150h150v-150h-150zM567 899v149h149v-149 h-149zM692 649v150h149v-150h-149z" />
<glyph unicode="&#x62b;" arabic-form="final" d="M424 649v150h150v-150h-150zM549 899v149h149v-149h-149zM674 649v150h149v-150h-149zM70 319q0 59 41 187h184q-43 -137 -43 -187q0 -106 117 -137q98 -25 225 -24q70 0 199 55q86 37 131 88q55 63 55 122.5t-29 117.5h185q18 -74 18 -166q0 -100 25 -152q18 -39 43 -39 h32v-184h-75q-52 0 -99 43q-41 41 -63 123q-96 -86 -185 -129q-115 -57 -288 -57q-180 0 -318 57q-155 63 -155 282z" />
<glyph unicode="&#x62b;" arabic-form="initial" d="M-20 0v184h157q287 0 330 43q49 49 49 156v217h184v-217q0 -186 -92 -297q-72 -86 -415 -86h-213zM412 850v150h150v-150h-150zM537 1100v149h149v-149h-149zM662 850v150h149v-150h-149z" />
<glyph unicode="&#x62b;" arabic-form="medial" d="M-20 0v184h280q164 0 207 43q47 47 47 156v217h184v-217q0 -106 50 -156q43 -43 206 -43h299v-184h-354q-213 0 -293 86q-78 -86 -291 -86h-335zM412 811v150h150v-150h-150zM537 1061v149h149v-149h-149zM662 811v150h149v-150h-149z" />
<glyph unicode="&#x62c;" arabic-form="isolated" d="M88 623v184q272 63 471 63q279 0 488 -55v-153q-297 12 -508 -166q-225 -188 -226 -437q0 -133 74 -229q131 -166 406 -166q188 0 403 119v-184q-151 -98 -399 -99q-362 -4 -533 195q-131 150 -131 373q0 258 211 481q95 101 234 153q-88 2 -261 -20q-129 -18 -229 -59z M672 25v150h150v-150h-150z" />
<glyph unicode="&#x62c;" arabic-form="final" d="M625 -49v150h150v-150h-150zM88 623v184q272 63 471 63q279 0 488 -55v-153q-109 -4 -140 -13l29 -92q51 -158 123 -254q88 -119 174 -119h41v-184h-49q-129 0 -252 150q-82 100 -144 256l-79 192q-115 -25 -211 -102q-225 -184 -226 -437q0 -137 74 -229 q131 -166 406 -166q188 0 403 119v-184q-151 -98 -399 -99q-362 -4 -533 195q-131 150 -131 373q0 258 211 481q95 101 234 153q-88 2 -261 -20q-129 -18 -229 -59z" />
<glyph unicode="&#x62c;" arabic-form="initial" d="M524 -299v150h150v-150h-150zM-20 0v184h100q225 0 356 72q104 59 219 164q96 88 197 121q-164 43 -186 47q-94 20 -267 35q-82 6 -241 0v184q94 8 145 8q158 0 336 -35q258 -53 477 -149v-156q-76 -25 -164 -76q-162 -96 -239 -163q-139 -125 -221 -156 q-221 -80 -383 -80h-129z" />
<glyph unicode="&#x62c;" arabic-form="medial" d="M524 -299v150h150v-150h-150zM-20 0v184h100q225 0 356 72q104 59 219 164q96 88 197 121q-164 43 -186 47q-94 20 -267 35q-82 6 -241 0v184q94 8 145 8q158 0 336 -35q258 -53 477 -149v-156q-72 -25 -137 -59q53 -84 80 -113q104 -119 158 -119h59v-184h-80 q-152 0 -274 168q-57 80 -101 151q-68 -45 -108 -83q-139 -125 -221 -156q-221 -80 -383 -80h-129z" />
<glyph unicode="&#x62d;" arabic-form="isolated" d="M88 623v184q272 63 471 63q279 0 488 -55v-153q-297 12 -508 -166q-225 -188 -226 -437q0 -133 74 -229q131 -166 406 -166q188 0 403 119v-184q-151 -98 -399 -99q-362 -4 -533 195q-131 150 -131 373q0 258 211 481q95 101 234 153q-88 2 -261 -20q-129 -18 -229 -59z " />
<glyph unicode="&#x62d;" arabic-form="final" d="M88 623v184q272 63 471 63q279 0 488 -55v-153q-109 -4 -140 -13l29 -92q51 -158 123 -254q88 -119 174 -119h41v-184h-49q-129 0 -252 150q-82 100 -144 256l-79 192q-115 -25 -211 -102q-225 -184 -226 -437q0 -137 74 -229q131 -166 406 -166q188 0 403 119v-184 q-151 -98 -399 -99q-362 -4 -533 195q-131 150 -131 373q0 258 211 481q95 101 234 153q-88 2 -261 -20q-129 -18 -229 -59z" />
<glyph unicode="&#x62d;" arabic-form="initial" d="M-20 0v184h100q225 0 356 72q104 59 219 164q96 88 197 121q-164 43 -186 47q-94 20 -267 35q-82 6 -241 0v184q94 8 145 8q158 0 336 -35q258 -53 477 -149v-156q-76 -25 -164 -76q-162 -96 -239 -163q-139 -125 -221 -156q-221 -80 -383 -80h-129z" />
<glyph unicode="&#x62d;" arabic-form="medial" d="M-20 0v184h100q225 0 356 72q104 59 219 164q96 88 197 121q-164 43 -186 47q-94 20 -267 35q-82 6 -241 0v184q94 8 145 8q158 0 336 -35q258 -53 477 -149v-156q-72 -25 -137 -59q53 -84 80 -113q104 -119 158 -119h59v-184h-80q-152 0 -274 168q-57 80 -101 151 q-68 -45 -108 -83q-139 -125 -221 -156q-221 -80 -383 -80h-129z" />
<glyph unicode="&#x62e;" arabic-form="isolated" d="M88 623v184q272 63 471 63q279 0 488 -55v-153q-297 12 -508 -166q-225 -188 -226 -437q0 -133 74 -229q131 -166 406 -166q188 0 403 119v-184q-151 -98 -399 -99q-362 -4 -533 195q-131 150 -131 373q0 258 211 481q95 101 234 153q-88 2 -261 -20q-129 -18 -229 -59z M475 1051v150h150v-150h-150z" />
<glyph unicode="&#x62e;" arabic-form="final" d="M471 1051v150h150v-150h-150zM88 623v184q272 63 471 63q279 0 488 -55v-153q-109 -4 -140 -13l29 -92q51 -158 123 -254q88 -119 174 -119h41v-184h-49q-129 0 -252 150q-82 100 -144 256l-79 192q-115 -25 -211 -102q-225 -184 -226 -437q0 -137 74 -229 q131 -166 406 -166q188 0 403 119v-184q-151 -98 -399 -99q-362 -4 -533 195q-131 150 -131 373q0 258 211 481q95 101 234 153q-88 2 -261 -20q-129 -18 -229 -59z" />
<glyph unicode="&#x62e;" arabic-form="initial" d="M524 950v150h150v-150h-150zM-20 0v184h100q225 0 356 72q104 59 219 164q96 88 197 121q-164 43 -186 47q-94 20 -267 35q-82 6 -241 0v184q94 8 145 8q158 0 336 -35q258 -53 477 -149v-156q-76 -25 -164 -76q-162 -96 -239 -163q-139 -125 -221 -156 q-221 -80 -383 -80h-129z" />
<glyph unicode="&#x62e;" arabic-form="medial" d="M524 950v150h150v-150h-150zM-20 0v184h100q225 0 356 72q104 59 219 164q96 88 197 121q-164 43 -186 47q-94 20 -267 35q-82 6 -241 0v184q94 8 145 8q158 0 336 -35q258 -53 477 -149v-156q-72 -25 -137 -59q53 -84 80 -113q104 -119 158 -119h59v-184h-80 q-152 0 -274 168q-57 80 -101 151q-68 -45 -108 -83q-139 -125 -221 -156q-221 -80 -383 -80h-129z" />
<glyph unicode="&#x62f;" arabic-form="isolated" d="M231 0v184q113 -43 248 -43q80 0 117 11q172 49 207 159q8 25 8 70q0 94 -59 194q-76 123 -240 299h227q108 -108 179 -239q82 -150 81 -256q0 -100 -30 -174q-80 -195 -342 -236q-61 -8 -142 -8q-143 0 -254 39z" />
<glyph unicode="&#x62f;" arabic-form="final" d="M231 0q111 -39 254 -39q80 0 142 8q203 31 299 160q98 -129 243 -129h84v184h-28q-100 0 -144 43q-82 82 -82 152q0 106 -81 256q-71 132 -179 239h-227q176 -193 240 -299q59 -98 59 -194q0 -45 -8 -70q-33 -113 -207 -159q-37 -10 -117 -11q-135 0 -248 43v-184z" />
<glyph unicode="&#x630;" arabic-form="isolated" d="M231 0v184q113 -43 248 -43q80 0 117 11q172 49 207 159q8 25 8 70q0 94 -59 194q-76 123 -240 299h227q108 -108 179 -239q82 -150 81 -256q0 -100 -30 -174q-80 -195 -342 -236q-61 -8 -142 -8q-143 0 -254 39zM524 1051v150h150v-150h-150z" />
<glyph unicode="&#x630;" arabic-form="final" d="M532 1051v150h150v-150h-150zM231 0q111 -39 254 -39q80 0 142 8q203 31 299 160q98 -129 243 -129h84v184h-28q-100 0 -144 43q-82 82 -82 152q0 106 -81 256q-71 132 -179 239h-227q176 -193 240 -299q59 -98 59 -194q0 -45 -8 -70q-33 -113 -207 -159 q-37 -10 -117 -11q-135 0 -248 43v-184z" />
<glyph unicode="&#x631;" arabic-form="isolated" d="M-51 -319q446 0 663 126q256 147 289 347q10 66 10 131q0 125 -53 262h184q49 -117 50 -250q0 -90 -9 -145q-41 -332 -370 -504q-270 -141 -764 -152v185z" />
<glyph unicode="&#x631;" arabic-form="final" d="M-160 -315q449 0 664 127q256 152 289 346q10 66 10 131q0 125 -53 262h184q29 -104 33 -143q8 -102 84 -181q43 -43 143 -43h59v-184h-114q-131 0 -181 61q-59 -254 -354 -409q-285 -152 -764 -152v185z" />
<glyph unicode="&#x632;" arabic-form="isolated" d="M-51 -319q446 0 663 126q256 147 289 347q10 66 10 131q0 125 -53 262h184q49 -117 50 -250q0 -90 -9 -145q-41 -332 -370 -504q-270 -141 -764 -152v185zM860 801v150h150v-150h-150z" />
<glyph unicode="&#x632;" arabic-form="final" d="M752 801v150h150v-150h-150zM-160 -315q449 0 664 127q256 152 289 346q10 66 10 131q0 125 -53 262h184q29 -104 33 -143q8 -102 84 -181q43 -43 143 -43h59v-184h-114q-131 0 -181 61q-59 -254 -354 -409q-285 -152 -764 -152v185z" />
<glyph unicode="&#x633;" arabic-form="isolated" d="M-219 -63q18 233 80 362h164q-88 -221 -82 -362q6 -174 39 -216q47 -59 94 -59q55 0 104 72q35 51 60 172q25 113 22 274q0 88 -16 187l-41 233h160l18 -156q16 -147 37 -180q49 -82 88 -84q46 -3 92 123q37 104 37 297h164q-4 -166 33 -303q31 -121 73 -121 q104 0 105 281v293h164v-342q0 -158 -62 -312q-35 -84 -119 -116q-18 -8 -98 -9q-66 0 -90 25q-66 70 -90 192q-31 -106 -101 -163q-53 -41 -124 -43q-47 -2 -97 77q-8 -166 -37 -262q-37 -120 -98 -196q-71 -92 -184 -93q-96 0 -197 101q-116 115 -98 328z" />
<glyph unicode="&#x633;" arabic-form="final" d="M-297 -63q23 236 82 362h164q-88 -229 -82 -362q10 -174 41 -216q47 -59 92 -59q55 0 104 72q39 55 62 172q25 104 20 274q0 88 -16 187l-41 233h160l16 -156q18 -150 39 -180q49 -82 88 -84q46 -3 92 123q37 104 37 297h164q-4 -166 33 -303q31 -121 73 -121 q106 0 107 281v293h164v-342q0 -139 41 -181q43 -43 102 -43h8v-184h-63q-98 0 -160 96q-31 -98 -102 -116q-31 -8 -109 -9q-66 0 -90 25q-66 70 -90 192q-31 -109 -98 -163q-49 -39 -125 -43q-47 -4 -97 77q-10 -178 -36 -262q-37 -120 -99 -196q-71 -92 -184 -93 q-96 0 -197 101q-118 115 -100 328z" />
<glyph unicode="&#x633;" arabic-form="initial" d="M-20 0h69q102 0 162 37q68 43 88 100q12 -59 57 -96q82 -66 131 -66q70 0 123 43q72 55 103 164q25 -123 90 -192q25 -25 90 -25q80 0 98 8q84 33 119 117q61 154 61 311v342h-163v-292q0 -281 -105 -281q-43 0 -74 121q-39 147 -32 303h-164q0 -193 -37 -297 q-43 -117 -111 -117q-70 0 -92 84q-25 100 -24 180v156h-164v-192q0 -117 -72 -189q-39 -35 -110 -35h-43v-184z" />
<glyph unicode="&#x633;" arabic-form="medial" d="M-20 0v184h43q55 0 86 35q63 70 63 189v192h162v-156q0 -70 26 -180q23 -84 70 -84t90 117q37 104 37 297h164q0 -170 33 -303q29 -121 82 -121q100 0 100 281v292h164v-342q0 -139 43 -180q43 -43 78 -43h32v-184h-63q-100 0 -160 96q-53 -86 -112 -115q-25 -10 -95 -10 q-78 0 -133 74q-41 53 -53 143q-31 -111 -100 -164q-52 -43 -105 -43q-68 0 -104 56q-39 57 -62 106q-23 -59 -90 -100q-57 -37 -127 -37h-69z" />
<glyph unicode="&#x634;" arabic-form="isolated" d="M-219 -63q18 233 80 362h164q-88 -221 -82 -362q6 -174 39 -216q47 -59 94 -59q55 0 104 72q35 51 60 172q25 113 22 274q0 88 -16 187l-41 233h160l18 -156q16 -147 37 -180q49 -82 88 -84q46 -3 92 123q37 104 37 297h164q-4 -166 33 -303q31 -121 73 -121 q104 0 105 281v293h164v-342q0 -158 -62 -312q-35 -84 -119 -116q-18 -8 -98 -9q-66 0 -90 25q-66 70 -90 192q-31 -106 -101 -163q-53 -41 -124 -43q-47 -2 -97 77q-8 -166 -37 -262q-37 -120 -98 -196q-71 -92 -184 -93q-96 0 -197 101q-116 115 -98 328zM309 801v150h150 v-150h-150zM434 1051v149h149v-149h-149zM559 801v150h149v-150h-149z" />
<glyph unicode="&#x634;" arabic-form="final" d="M236 801v150h150v-150h-150zM361 1051v149h149v-149h-149zM486 801v150h149v-150h-149zM-297 -63q23 236 82 362h164q-88 -229 -82 -362q10 -174 41 -216q47 -59 92 -59q55 0 104 72q39 55 62 172q25 104 20 274q0 88 -16 187l-41 233h160l16 -156q18 -150 39 -180 q49 -82 88 -84q46 -3 92 123q37 104 37 297h164q-4 -166 33 -303q31 -121 73 -121q106 0 107 281v293h164v-342q0 -139 41 -181q43 -43 102 -43h8v-184h-63q-98 0 -160 96q-31 -98 -102 -116q-31 -8 -109 -9q-66 0 -90 25q-66 70 -90 192q-31 -109 -98 -163 q-49 -39 -125 -43q-47 -4 -97 77q-10 -178 -36 -262q-37 -120 -99 -196q-71 -92 -184 -93q-96 0 -197 101q-118 115 -100 328z" />
<glyph unicode="&#x634;" arabic-form="initial" d="M406 801v150h150v-150h-150zM531 1051v149h149v-149h-149zM656 801v150h149v-150h-149zM-20 0h69q102 0 162 37q68 43 88 100q12 -59 57 -96q82 -66 131 -66q70 0 123 43q72 55 103 164q25 -123 90 -192q25 -25 90 -25q80 0 98 8q84 33 119 117q61 154 61 311v342h-163 v-292q0 -281 -105 -281q-43 0 -74 121q-39 147 -32 303h-164q0 -193 -37 -297q-43 -117 -111 -117q-70 0 -92 84q-25 100 -24 180v156h-164v-192q0 -117 -72 -189q-39 -35 -110 -35h-43v-184z" />
<glyph unicode="&#x634;" arabic-form="medial" d="M338 801v150h150v-150h-150zM463 1051v149h149v-149h-149zM588 801v150h149v-150h-149zM-20 0v184h43q55 0 86 35q63 70 63 189v192h162v-156q0 -70 26 -180q23 -84 70 -84t90 117q37 104 37 297h164q0 -170 33 -303q29 -121 82 -121q100 0 100 281v292h164v-342 q0 -139 43 -180q43 -43 78 -43h32v-184h-63q-100 0 -160 96q-53 -86 -112 -115q-25 -10 -95 -10q-78 0 -133 74q-41 53 -53 143q-31 -111 -100 -164q-52 -43 -105 -43q-68 0 -104 56q-39 57 -62 106q-23 -59 -90 -100q-57 -37 -127 -37h-69z" />
<glyph unicode="&#x635;" arabic-form="isolated" d="M-240 -72q0 190 101 361h172q-104 -203 -105 -361q0 -147 60 -194q51 -41 110 -39q66 4 105 63q63 106 63 242q0 111 -8 166l-18.5 121.5l-16.5 104.5t-10 59h170q0 -25 12 -70q8 -37 51 -90q66 115 123 186q141 178 297 178q174 0 262 -82q88 -76 89 -198 q0 -190 -185 -299q-129 -76 -254 -76h-219q-39 0 -90 31q-43 25 -43 41q0 -178 -47 -305q-46 -129 -98 -173q-98 -86 -177 -86q-127 0 -221 91q-123 126 -123 329zM584 184h129q141 0 213 45q106 68 106 140q0 45 -41 82q-35 33 -98 32q-70 0 -174 -108q-74 -74 -135 -191z " />
<glyph unicode="&#x635;" arabic-form="final" d="M-315 -72q0 186 102 361h170q-102 -199 -102 -361q0 -147 59 -194q51 -41 111 -39q63 2 102 63q66 106 66 242q0 98 -11 166l-18 121.5t-16.5 104.5t-10.5 59h170q0 -18 15 -70q10 -41 49 -90q70 119 125 186q147 178 297 178q172 0 262 -82q86 -78 86 -198 q0 -52 -31 -123l31 -25q46 -43 73 -43h39v-184h-59q-53 0 -154 94l-28 27q-174 -121 -307 -121h-220q-39 0 -90 31q-45 25 -45 41q0 -170 -47 -305q-47 -131 -96 -173q-100 -86 -176 -86q-131 0 -221 91q-125 124 -125 329zM510 184h129q141 0 213 45q104 66 104 140 q0 45 -38 82q-35 33 -101 32q-70 0 -174 -108q-72 -76 -133 -191z" />
<glyph unicode="&#x635;" arabic-form="initial" d="M-20 0v184h75q43 0 80 43q66 82 66 181v114h184v-78q0 -29 8 -63q10 -45 53 -90q70 119 125 186q147 178 297 178q172 0 262 -82q86 -78 87 -198q0 -190 -185 -299q-129 -76 -252 -76h-219q-74 0 -151 43q-66 35 -105 94q-100 -137 -194 -137h-131zM586 184h129 q141 0 213 45q104 66 104 140q0 45 -39 82q-35 33 -98 32q-72 0 -176 -108q-72 -76 -133 -191z" />
<glyph unicode="&#x635;" arabic-form="medial" d="M-20 0v184h26q31 0 74 45q45 47 45 179v114h182v-78q0 -18 10.5 -63t53.5 -90q70 119 125 186q147 178 297 178q172 0 262 -82q86 -78 86 -198q0 -52 -31 -123l31 -25q46 -43 73 -43h39v-184h-59q-53 0 -154 94l-28 27q-174 -121 -307 -121h-220q-76 0 -151 43 q-66 35 -105 94q-100 -137 -170 -137h-79zM510 184h129q141 0 213 45q104 66 104 140q0 45 -38 82q-35 33 -101 32q-70 0 -174 -108q-72 -76 -133 -191z" />
<glyph unicode="&#x636;" arabic-form="isolated" d="M-240 -72q0 190 101 361h172q-104 -203 -105 -361q0 -147 60 -194q51 -41 110 -39q66 4 105 63q63 106 63 242q0 111 -8 166l-18.5 121.5l-16.5 104.5t-10 59h170q0 -25 12 -70q8 -37 51 -90q66 115 123 186q141 178 297 178q174 0 262 -82q88 -76 89 -198 q0 -190 -185 -299q-129 -76 -254 -76h-219q-39 0 -90 31q-43 25 -43 41q0 -178 -47 -305q-46 -129 -98 -173q-98 -86 -177 -86q-127 0 -221 91q-123 126 -123 329zM584 184h129q141 0 213 45q106 68 106 140q0 45 -41 82q-35 33 -98 32q-70 0 -174 -108q-74 -74 -135 -191z M336 670v150h150v-150h-150z" />
<glyph unicode="&#x636;" arabic-form="final" d="M260 670v150h150v-150h-150zM-315 -72q0 186 102 361h170q-102 -199 -102 -361q0 -147 59 -194q51 -41 111 -39q63 2 102 63q66 106 66 242q0 98 -11 166l-18 121.5t-16.5 104.5t-10.5 59h170q0 -18 15 -70q10 -41 49 -90q70 119 125 186q147 178 297 178q172 0 262 -82 q86 -78 86 -198q0 -52 -31 -123l31 -25q46 -43 73 -43h39v-184h-59q-53 0 -154 94l-28 27q-174 -121 -307 -121h-220q-39 0 -90 31q-45 25 -45 41q0 -170 -47 -305q-47 -131 -96 -173q-100 -86 -176 -86q-131 0 -221 91q-125 124 -125 329zM510 184h129q141 0 213 45 q104 66 104 140q0 45 -38 82q-35 33 -101 32q-70 0 -174 -108q-72 -76 -133 -191z" />
<glyph unicode="&#x636;" arabic-form="initial" d="M342 735v150h150v-150h-150zM-20 0v184h75q43 0 80 43q66 82 66 181v114h184v-78q0 -29 8 -63q10 -45 53 -90q70 119 125 186q147 178 297 178q172 0 262 -82q86 -78 87 -198q0 -190 -185 -299q-129 -76 -252 -76h-219q-74 0 -151 43q-66 35 -105 94q-100 -137 -194 -137 h-131zM586 184h129q141 0 213 45q104 66 104 140q0 45 -39 82q-35 33 -98 32q-72 0 -176 -108q-72 -76 -133 -191z" />
<glyph unicode="&#x636;" arabic-form="medial" d="M307 723v150h150v-150h-150zM-20 0v184h26q31 0 74 45q45 47 45 179v114h182v-78q0 -18 10.5 -63t53.5 -90q70 119 125 186q147 178 297 178q172 0 262 -82q86 -78 86 -198q0 -52 -31 -123l31 -25q46 -43 73 -43h39v-184h-59q-53 0 -154 94l-28 27q-174 -121 -307 -121 h-220q-76 0 -151 43q-66 35 -105 94q-100 -137 -170 -137h-79zM510 184h129q141 0 213 45q104 66 104 140q0 45 -38 82q-35 33 -101 32q-70 0 -174 -108q-72 -76 -133 -191z" />
<glyph unicode="&#x637;" arabic-form="isolated" d="M10 0v184h223v1372h185v-1265q70 119 125 186q141 178 297 178q172 0 262 -82q86 -78 86 -198q0 -190 -184 -299q-129 -76 -252 -76h-519h-223zM555 184h129q141 0 213 45q106 68 107 140q0 45 -39 82q-35 33 -101 32q-70 0 -174 -108q-78 -80 -135 -191z" />
<glyph unicode="&#x637;" arabic-form="final" d="M20 0v184h179v1372h184v-1265q70 119 125 186q147 178 295 178q172 0 262 -82q86 -78 86 -198q0 -55 -41 -123q61 -68 98 -68h45v-184h-59q-90 0 -176 80l-29 24q-125 -104 -274 -104h-516h-179zM520 184h129q141 0 213 45q106 68 107 140q0 45 -41 82q-35 33 -99 32 q-72 0 -176 -108q-72 -76 -133 -191z" />
<glyph unicode="&#x637;" arabic-form="initial" d="M-20 0v184h253v1372h185v-1265q70 119 125 186q141 178 297 178q172 0 262 -82q86 -78 86 -198q0 -190 -184 -299q-129 -76 -252 -76h-519h-253zM555 184h129q141 0 213 45q106 68 107 140q0 45 -39 82q-35 33 -101 32q-70 0 -174 -108q-78 -80 -135 -191z" />
<glyph unicode="&#x637;" arabic-form="medial" d="M-20 0v184h219v1372h184v-1265q70 119 125 186q147 178 295 178q172 0 262 -82q86 -78 86 -198q0 -55 -41 -123q61 -68 98 -68h45v-184h-59q-90 0 -176 80l-29 24q-125 -104 -274 -104h-516h-219zM520 184h129q141 0 213 45q106 68 107 140q0 45 -41 82q-35 33 -99 32 q-72 0 -176 -108q-72 -76 -133 -191z" />
<glyph unicode="&#x638;" arabic-form="isolated" d="M10 0v184h223v1372h185v-1265q70 119 125 186q141 178 297 178q172 0 262 -82q86 -78 86 -198q0 -190 -184 -299q-129 -76 -252 -76h-519h-223zM555 184h129q141 0 213 45q106 68 107 140q0 45 -39 82q-35 33 -101 32q-70 0 -174 -108q-78 -80 -135 -191zM580 768v150 h150v-150h-150z" />
<glyph unicode="&#x638;" arabic-form="final" d="M580 768v150h150v-150h-150zM20 0v184h179v1372h184v-1265q70 119 125 186q147 178 295 178q172 0 262 -82q86 -78 86 -198q0 -55 -41 -123q61 -68 98 -68h45v-184h-59q-90 0 -176 80l-29 24q-125 -104 -274 -104h-516h-179zM520 184h129q141 0 213 45q106 68 107 140 q0 45 -41 82q-35 33 -99 32q-72 0 -176 -108q-72 -76 -133 -191z" />
<glyph unicode="&#x638;" arabic-form="initial" d="M580 768v150h150v-150h-150zM-20 0v184h253v1372h185v-1265q70 119 125 186q141 178 297 178q172 0 262 -82q86 -78 86 -198q0 -190 -184 -299q-129 -76 -252 -76h-519h-253zM555 184h129q141 0 213 45q106 68 107 140q0 45 -39 82q-35 33 -101 32q-70 0 -174 -108 q-78 -80 -135 -191z" />
<glyph unicode="&#x638;" arabic-form="medial" d="M580 768v150h150v-150h-150zM-20 0v184h219v1372h184v-1265q70 119 125 186q147 178 295 178q172 0 262 -82q86 -78 86 -198q0 -55 -41 -123q61 -68 98 -68h45v-184h-59q-90 0 -176 80l-29 24q-125 -104 -274 -104h-516h-219zM520 184h129q141 0 213 45q106 68 107 140 q0 45 -41 82q-35 33 -99 32q-72 0 -176 -108q-72 -76 -133 -191z" />
<glyph unicode="&#x639;" arabic-form="isolated" d="M123 0q0 176 86 279q113 131 190 155q-51 2 -98 35q-88 55 -88 184q0 209 205 336q125 78 375 78v-170q-193 0 -312 -66q-92 -53 -92 -155q0 -78 47 -101q43 -23 92 -22q45 0 80 16q166 72 414 99v-185q-274 -25 -510 -174q-209 -133 -209 -315q0 -117 41 -170 q123 -160 459 -160q188 0 403 119v-184q-151 -98 -399 -99q-422 0 -588 189q-96 108 -96 311z" />
<glyph unicode="&#x639;" arabic-form="final" d="M147 0q0 211 189 352q-63 51 -100 121q-29 55 -29 84q0 33 12 74q14 53 121 106q88 45 207 45q121 0 209 -45q100 -51 118 -106q14 -43 15 -74q0 -59 -70 -117q-117 -96 -174 -114q68 -66 156 -103q92 -39 243 -39h224v-184h-207q-329 0 -578 227q-154 -129 -153 -233 q0 -106 41 -170q111 -160 456 -160q190 0 406 119v-184q-151 -98 -399 -99q-430 -4 -588 189q-99 118 -99 311zM444 547q0 -39 70 -103q131 53 135 103q0 31 -47 43q-41 8 -55.5 8t-54.5 -8q-48 -12 -48 -43z" />
<glyph unicode="&#x639;" arabic-form="initial" d="M-20 0v184h81q160 0 363 92q-74 25 -127 84q-88 100 -88 240q0 262 205 389q127 78 374 78v-170q-219 0 -311 -67.5t-92 -196.5t61 -180q82 -70 154 -70q57 0 129 33l289 129v-185l-420 -196q-352 -164 -528 -164h-90z" />
<glyph unicode="&#x639;" arabic-form="medial" d="M-20 0v184h219q109 0 172 39q61 39 98 76q-94 82 -164 174q-31 39 -31 84q0 27 15 74q14 55 119 106q88 45 208 45q119 0 207 -45q102 -53 121 -106q12 -41 12 -74q0 -47 -28 -84q-74 -94 -166 -174q37 -37 98 -76q59 -39 174 -39h219v-184h-241q-201 0 -396 184 q-195 -184 -397 -184h-239zM512 547q0 -31 104 -125q102 94 102.5 125t-46.5 43q-41 8 -56 8q-16 0 -57 -8q-47 -12 -47 -43z" />
<glyph unicode="&#x63a;" arabic-form="isolated" d="M123 0q0 176 86 279q113 131 190 155q-51 2 -98 35q-88 55 -88 184q0 209 205 336q125 78 375 78v-170q-193 0 -312 -66q-92 -53 -92 -155q0 -78 47 -101q43 -23 92 -22q45 0 80 16q166 72 414 99v-185q-274 -25 -510 -174q-209 -133 -209 -315q0 -117 41 -170 q123 -160 459 -160q188 0 403 119v-184q-151 -98 -399 -99q-422 0 -588 189q-96 108 -96 311zM375 1200v150h150v-150h-150z" />
<glyph unicode="&#x63a;" arabic-form="final" d="M469 950v150h150v-150h-150zM147 0q0 211 189 352q-63 51 -100 121q-29 55 -29 84q0 33 12 74q14 53 121 106q88 45 207 45q121 0 209 -45q100 -51 118 -106q14 -43 15 -74q0 -59 -70 -117q-117 -96 -174 -114q68 -66 156 -103q92 -39 243 -39h224v-184h-207 q-329 0 -578 227q-154 -129 -153 -233q0 -106 41 -170q111 -160 456 -160q190 0 406 119v-184q-151 -98 -399 -99q-430 -4 -588 189q-99 118 -99 311zM444 547q0 -39 70 -103q131 53 135 103q0 31 -47 43q-41 8 -55.5 8t-54.5 -8q-48 -12 -48 -43z" />
<glyph unicode="&#x63a;" arabic-form="initial" d="M375 1200v150h150v-150h-150zM-20 0v184h81q160 0 363 92q-74 25 -127 84q-88 100 -88 240q0 262 205 389q127 78 374 78v-170q-219 0 -311 -67.5t-92 -196.5t61 -180q82 -70 154 -70q57 0 129 33l289 129v-185l-420 -196q-352 -164 -528 -164h-90z" />
<glyph unicode="&#x63a;" arabic-form="medial" d="M539 950v150h150v-150h-150zM-20 0v184h219q109 0 172 39q61 39 98 76q-94 82 -164 174q-31 39 -31 84q0 27 15 74q14 55 119 106q88 45 208 45q119 0 207 -45q102 -53 121 -106q12 -41 12 -74q0 -47 -28 -84q-74 -94 -166 -174q37 -37 98 -76q59 -39 174 -39h219v-184 h-241q-201 0 -396 184q-195 -184 -397 -184h-239zM512 547q0 -31 104 -125q102 94 102.5 125t-46.5 43q-41 8 -56 8q-16 0 -57 -8q-47 -12 -47 -43z" />
<glyph unicode="&#x641;" arabic-form="isolated" d="M-74 313q-4 141 33 232h184q-35 -90 -34 -232q0 -145 118 -190q92 -35 222 -35q125 0 210 23q186 49 238 77q66 41 102 144q-63 -76 -186 -76q-133 0 -207 68q-98 86 -98 217q0 49 8 96q22 147 172 215q78 37 156 37q88 0 155 -51q94 -70 142 -174q23 -55 22 -191 q0 -326 -98 -403q-104 -84 -272 -121q-182 -41 -344 -41q-160 0 -277 41q-244 90 -246 364zM698 559q0 -80 56 -117q41 -27 82 -26q72 0 96 24q41 45 41 119q0 55 -68 111q-35 27 -74 24q-52 0 -92 -43q-41 -45 -41 -92zM752 1067v150h150v-150h-150z" />
<glyph unicode="&#x641;" arabic-form="final" d="M758 950v150h150v-150h-150zM-150 313q0 141 64 232h184q-66 -96 -65 -232q0 -125 170 -192q78 -31 200 -31q111 0 265 60q-39 33 -64 69q-82 121 -82 234q0 29 4 65q23 158 209 232q61 23 111 22q84 0 164 -49q138 -83 153 -234q4 -49 4 -67q0 -131 -80 -238h17h149 v-184h-153q-106 0 -217 37q-57 -31 -178 -70q-178 -53 -308 -57q-138 -3 -252 37q-293 102 -295 366zM711 446q0 -43 41 -108q51 -80 131 -115q104 63 104 174q0 20 -6 47q-16 72 -66 111q-34 25 -73 25q-20 0 -45 -11q-61 -25 -80 -86q-6 -19 -6 -37z" />
<glyph unicode="&#x641;" arabic-form="initial" d="M426 1151v150h150v-150h-150zM-20 0v184h241q78 0 236 23q78 12 139 104q29 45 45 99q-63 -55 -160 -58q-129 -2 -209 68q-98 86 -98 217q0 55 8 94q23 150 174 217q77 37 154 37q92 0 156 -49q96 -72 143 -174q23 -55 22 -193q0 -205 -77 -350q-74 -137 -199 -180 q-104 -39 -254 -39h-321zM365 655q0 -80 55 -116q43 -27 82 -27q72 0 96 25q41 45 41 120q0 57 -66 111q-29 23 -75 23q-52 0 -92 -43q-41 -42 -41 -93z" />
<glyph unicode="&#x641;" arabic-form="medial" d="M547 999v150h150v-150h-150zM-20 0v184h227q150 0 184 17q-25 33 -65 116q-20 43 -21 123q0 49 8 92q20 141 209 230q29 14 94 14q68 0 97 -14q182 -80 207 -230q8 -43 8 -92q0 -72 -23 -123q-29 -70 -63 -116q33 -16 186 -17h225v-184h-315q-137 0 -322 57 q-180 -57 -319 -57h-317zM494 446q0 -45 24 -96q31 -70 98 -90q63 20 101 90q23 45 22 96q0 25 -10 52q-23 49 -80 84q-25 10 -33 10q-12 0 -32 -10q-55 -31 -80 -84q-10 -25 -10 -52z" />
<glyph unicode="&#x642;" arabic-form="isolated" d="M31 37q0 182 82 395h184q-84 -184 -88 -340q0 -78 16 -112q86 -176 228 -177q211 2 309 105q203 211 203 520q-66 -76 -185 -76q-135 0 -209 68q-98 86 -98 217q0 47 8 94q23 150 174 217q77 37 154 37q96 0 156 -49q102 -88 143 -211q33 -98 33 -260q0 -250 -47 -395 q-59 -180 -222 -310q-188 -147 -419 -147q-205 0 -344 192q-78 109 -78 232zM664 655q0 -80 55 -116q43 -27 82 -27q72 0 96 25q41 45 41 120q0 57 -66 111q-29 23 -75 23q-52 0 -92 -43q-41 -42 -41 -93zM604 1151v150h150v-150h-150zM854 1151v150h149v-150h-149z" />
<glyph unicode="&#x642;" arabic-form="final" d="M590 874v150h150v-150h-150zM840 874v150h149v-150h-149zM-18 -37q0 168 61 262h184q-61 -106 -61 -262q0 -74 27 -133q59 -131 251 -131q113 0 226 59q156 80 237 252q-65 6 -110 19q-117 33 -179 77q-147 106 -147 293q0 63 6 88q41 166 187 234q41 18 129 18 q113 0 168 -49q100 -92 149 -233q18 -49 25 -273h30h88v-184h-94h-47q-33 -90 -106 -193q-102 -150 -246 -223q-150 -76 -316 -76q-301 2 -395 193q-67 139 -67 262zM657 397q0 -61 58 -104q78 -59 176 -80q18 -4 37.5 -7t21.5 -3q4 131 -16 209q-18 74 -68 110 q-35 25 -71 25q-31 0 -56 -10q-53 -29 -71 -84q-11 -36 -11 -56z" />
<glyph unicode="&#x642;" arabic-form="initial" d="M-20 0v184h241q78 0 236 23q78 12 139 104q29 45 45 99q-63 -55 -160 -58q-129 -2 -209 68q-98 86 -98 217q0 55 8 94q23 150 174 217q77 37 154 37q92 0 156 -49q96 -72 143 -174q23 -55 22 -193q0 -205 -77 -350q-74 -137 -199 -180q-104 -39 -254 -39h-321zM365 655 q0 -80 55 -116q43 -27 82 -27q72 0 96 25q41 45 41 120q0 57 -66 111q-29 23 -75 23q-52 0 -92 -43q-41 -42 -41 -93zM299 1151v150h150v-150h-150zM549 1151v150h149v-150h-149z" />
<glyph unicode="&#x642;" arabic-form="medial" d="M-20 0v184h227q150 0 184 17q-25 33 -65 116q-20 43 -21 123q0 49 8 92q20 141 209 230q29 14 94 14q68 0 97 -14q182 -80 207 -230q8 -43 8 -92q0 -72 -23 -123q-29 -70 -63 -116q33 -16 186 -17h225v-184h-315q-137 0 -322 57q-180 -57 -319 -57h-317zM494 446 q0 -45 24 -96q31 -70 98 -90q63 20 101 90q23 45 22 96q0 25 -10 52q-23 49 -80 84q-25 10 -33 10q-12 0 -32 -10q-55 -31 -80 -84q-10 -25 -10 -52zM406 999v150h150v-150h-150zM656 999v150h149v-150h-149z" />
<glyph unicode="&#x643;" arabic-form="isolated" d="M8 260q0 72 17 127h184q-14 -55 -14 -100q4 -94 153 -140q123 -35 207 -34q131 0 190 26q117 51 201 142q53 57 53 329v946h185v-946q0 -356 -86 -448q-131 -137 -199 -162q-154 -55 -338 -55q-172 -4 -336 55q-217 76 -217 260zM268 582v88q76 -10 115 -11q53 0 117 27 q59 25 59 55q0 37 -78 56q-72 14 -92 45q-31 46 -31 92q4 82 76 119q88 45 201 47v-82q-76 -4 -113 -19q-80 -31 -80 -61.5t15 -46.5q14 -18 80 -27q102 -16 102 -102q0 -109 -88 -152q-80 -39 -160 -39q-76 1 -123 11z" />
<glyph unicode="&#x643;" arabic-form="final" d="M-94 260q0 -184 217 -260q164 -59 336 -55q197 2 301 55q74 43 170 123q115 -123 192 -123h131v184h-75q-27 0 -70 43q-49 49 -49 156v1173h-185v-946q0 -264 -51 -329q-74 -94 -155 -129q-104 -39 -215 -39q-84 0 -207 34q-156 47 -156 140q0 45 14 100h-184 q-14 -49 -14 -127zM166 582v88q76 -10 113 -11q53 0 116 27q61 25 62 55q0 37 -78 56q-72 14 -92 45q-31 46 -31 92q4 82 76 119q88 45 200 47v-82q-76 -4 -112 -19q-80 -31 -80 -61.5t14 -46.5q14 -18 80 -27q102 -16 103 -102q0 -109 -88 -152q-80 -39 -160 -39 q-76 1 -123 11z" />
<glyph unicode="&#x643;" arabic-form="initial" d="M-20 0v184h403q145 0 192 105q16 39 17 71q0 70 -55 136l-310 378q-51 63 -51 144q0 27 10 67q31 117 136 160l745 311v-186l-596 -250q-70 -31 -90 -69q-6 -12 -6 -37q0 -33 31 -70l274 -330q102 -125 102 -245q0 -111 -61 -213q-96 -156 -320 -156h-421z" />
<glyph unicode="&#x643;" arabic-form="medial" d="M-20 0v184h411q150 0 195 105q16 39 16 71q0 74 -53 136l-311 378q-49 61 -50 144q0 27 11 67q31 117 133 160l745 311v-186l-596 -250q-72 -31 -92 -69q-4 -8 -4 -37q0 -33 31 -70l581 -704q18 -20 62 -39q45 -16 106 -17h88v-184h-131q-66 0 -125 25q-100 43 -135 84 l-96 118q-4 -10 -39 -71q-96 -156 -315 -156h-432z" />
<glyph unicode="&#x644;" arabic-form="isolated" d="M68 76q0 141 61 229h184q-63 -113 -63 -229q0 -129 166 -193q43 -16 112 -16q102 0 189 35q100 41 168 172q31 57 30 352v1130h185v-1130q0 -387 -51 -461q-106 -156 -209 -205q-154 -72 -312 -71q-104 0 -219 41q-241 86 -241 346z" />
<glyph unicode="&#x644;" arabic-form="final" d="M10 76q0 -260 244 -346q115 -41 217 -41q127 0 219 32q127 45 234 175q49 61 65 155q76 -51 133 -51h131v184h-75q-43 0 -86 43q-49 49 -50 156v1173h-184v-1130q0 -295 -31 -352q-68 -131 -168 -172q-86 -35 -188 -35q-70 0 -113 16q-166 63 -165 193q0 117 63 229h-182 q-64 -90 -64 -229z" />
<glyph unicode="&#x644;" arabic-form="initial" d="M-20 0v184h526q219 0 262 43q49 49 49 156v1173h184v-1185q0 -174 -88 -279q-80 -92 -352 -92h-581z" />
<glyph unicode="&#x644;" arabic-form="medial" d="M-20 0v184h233q219 0 262 43q49 49 49 156v1173h185v-1173q0 -106 49 -156q43 -43 262 -43h233v-184h-288q-268 0 -349 86q-76 -86 -348 -86h-288z" />
<glyph unicode="&#x645;" arabic-form="isolated" d="M129 0q0 172 121 274q66 55 156 56q-2 29 -3 82q0 150 162 280q76 63 168 64q78 0 158 -37q180 -82 209 -250q8 -41 8 -100q0 -147 -98 -211q-121 -80 -207 -80q-178 -2 -324 78q-49 29 -125 -52q-25 -25 -24 -104v-492h-201v492zM590 387q0 -35 10 -92q117 -41 199 -41 q43 0 63 20q53 59 53 115q0 25 -6 45q-20 86 -80 105q-40 12 -86 12q-59 0 -86 -27q-67 -67 -67 -137z" />
<glyph unicode="&#x645;" arabic-form="final" d="M72 -127q0 174 118 274q63 55 140 56q-2 29 -2 82q0 150 161 280q76 63 168 64q72 0 156 -37q170 -72 211 -250q15 -65 55 -111q41 -47 144 -47h30v-184h-86q-174 0 -204 51q-6 -6 -16.5 -13t-12.5 -7q-131 -80 -209 -80q-209 0 -322 78q-33 23 -106 -52 q-27 -27 -27 -104v-365h-198v365zM514 260q0 -35 10 -92q117 -41 199 -41q43 0 63 20q53 59 54 115q0 25 -6 45q-20 86 -80 105q-40 12 -86 12q-59 0 -86 -27q-68 -67 -68 -137z" />
<glyph unicode="&#x645;" arabic-form="initial" d="M-20 0v184h116q55 0 97 35q41 33 47 84q23 182 155 262q96 55 187 56q70 0 139 -29q188 -78 209 -250q4 -49 4 -78q0 -141 -66 -213q-94 -100 -235 -100q-217 -4 -326 96q-61 -47 -168 -47h-159zM406 199q63 -70 221 -70q47 0 65 18q53 53 53 123q0 18 -6 37 q-20 86 -80 105q-41 12 -77 12q-55 0 -95 -27q-49 -33 -63 -131q-2 -14 -18 -67z" />
<glyph unicode="&#x645;" arabic-form="medial" d="M-20 0v184h141q53 0 94 35q43 33 49 84q23 182 156 262q96 55 186 56q70 0 137 -29q193 -82 211 -250q6 -53 56 -111q37 -47 143 -47h100v-184h-155q-174 0 -205 51q-98 -100 -238 -100q-215 0 -323 96q-61 -47 -168 -47h-184zM430 199q63 -70 221 -70q47 0 66 18 q51 51 51 123q0 25 -4 37q-20 86 -80 105q-41 12 -78 12q-55 0 -94 -27q-47 -31 -66 -131q-4 -28 -16 -67z" />
<glyph unicode="&#x646;" arabic-form="isolated" d="M53 127q0 172 53 315h185q-55 -176 -55 -315q0 -180 161 -248q57 -25 187 -24q84 0 145 20q158 53 215 217q35 100 35 195q0 254 -70 401h185q72 -162 71 -432q0 -190 -100 -352q-70 -113 -213 -176q-143 -59 -268 -60q-174 0 -295 64q-236 121 -236 395zM467 750v150 h150v-150h-150z" />
<glyph unicode="&#x646;" arabic-form="final" d="M375 537v150h150v-150h-150zM-43 -43q0 172 53 315h185q-55 -174 -56 -315q0 -180 160 -248q53 -23 186 -22q92 0 148 18q156 51 215 219q33 92 33 213q0 186 -101 387h185l51 -137q33 -80 65 -139q33 -63 121 -64h51v-184h-94q-86 0 -100 47q-6 -174 -90 -311 q-68 -113 -213 -176q-143 -59 -271 -60q-174 0 -295 64q-233 120 -233 393z" />
<glyph unicode="&#x646;" arabic-form="initial" d="M-20 0v184h157q287 0 330 43q49 49 49 156v217h184v-217q0 -186 -92 -297q-72 -86 -415 -86h-213zM528 850v150h150v-150h-150z" />
<glyph unicode="&#x646;" arabic-form="medial" d="M-20 0v184h280q164 0 207 43q47 47 47 156v217h184v-217q0 -106 50 -156q43 -43 206 -43h299v-184h-354q-213 0 -293 86q-78 -86 -291 -86h-335zM532 850v150h150v-150h-150z" />
<glyph unicode="&#x647;" arabic-form="isolated" d="M221 291q0 181 37 258q82 184 231 184q199 0 381 -160q141 -123 142 -272q0 -199 -150 -274q-162 -84 -297 -84q-94 0 -176 34q-168 74 -168 314zM401 274q0 -80 58 -124q61 -45 112 -46q94 0 185 58q76 47 75 131q0 76 -65 141q-125 121 -240 121q-66 0 -100 -88 q-25 -68 -25 -193z" />
<glyph unicode="&#x647;" arabic-form="final" d="M242 285q0 174 204 301q104 66 261 82q0 12 -3.5 39.5l-5.5 42.5h185q0 -168 37 -342q20 -98 77 -181q31 -43 144 -43h112v-184h-168q-92 0 -163 51q-43 29 -82 90q-138 -74 -295 -73q-53 0 -115 16q-188 49 -188 201zM410 295q0 -43 90 -68q88 -25 272 56q-14 39 -27 90 q-12 49 -24 151q-120 -12 -203 -80q-110 -90 -108 -149z" />
<glyph unicode="&#x647;" arabic-form="initial" d="M-20 0v184h145q68 0 131 11q-45 102 -61 174q-18 78 -19 143q0 84 45 166q49 90 125 82q-37 35 -125 51v186q221 -70 441 -247q262 -215 319 -431q14 -49 14 -108q0 -102 -41 -166q-74 -113 -247 -113q-129 0 -285 109q-123 -41 -266 -41h-176zM346 506q0 -31 6 -68 q23 -117 90 -170q35 27 70 92q39 70 39 134q0 47 -14 81q-23 53 -80 54q-68 0 -88 -45q-23 -45 -23 -78zM580 147q53 -47 102 -47q126 0 141 68q6 31 6 63q0 63 -32 138q-27 68 -97 139q6 -37 7 -76q0 -138 -99 -252z" />
<glyph unicode="&#x647;" arabic-form="medial" d="M-20 0v184h319q8 264 139 391q106 106 238 107q139 0 207 -98q45 -66 45 -181q0 -113 -162 -219h487v-184h-487q162 -106 162 -219q0 -115 -45 -180q-70 -100 -207 -101q-129 0 -238 109q-131 131 -139 391h-319zM483 0q0 -115 39 -188q74 -141 150 -142q84 0 84 113 q0 51 -115 141q-94 76 -137 76h-21zM483 184h21q43 0 137 76q115 90 115 141q0 113 -84 113q-76 0 -150 -141q-39 -74 -39 -189z" />
<glyph unicode="&#x648;" arabic-form="isolated" d="M76 -315q375 0 532 75q223 104 273 242q-106 2 -162 10q-138 25 -191 68q-117 98 -116 235q0 219 211 308q53 23 118 22q96 0 162 -49q131 -92 156 -234q16 -90 16 -178q0 -295 -172 -469q-47 -47 -231 -129q-190 -86 -596 -86v185zM606 326q0 -55 51 -99q45 -39 240 -43 q0 184 -86 242q-41 27 -74 27q-63 0 -106 -58q-25 -34 -25 -69z" />
<glyph unicode="&#x648;" arabic-form="final" d="M90 -315q362 0 494 75q168 94 229 242q-109 2 -164 10q-135 25 -188 68q-109 90 -117 223q-2 23 8 88q29 158 203 232q53 23 125 22q92 -4 156 -49q132 -92 153 -234q16 -109 19 -178h245v-184h-194h-70q-25 -156 -153 -285q-82 -82 -189 -129q-190 -86 -557 -86v185z M543 356q-18 -74 47 -129q45 -39 237 -43q0 72 -16 133q-25 78 -70 109q-61 39 -118 16q-68 -27 -80 -86z" />
<glyph unicode="&#x649;" arabic-form="isolated" d="M25 123q0 117 63 229h184q-66 -135 -65 -229q2 -145 166 -193q70 -20 157 -20q119 0 230 35q104 33 172 112q57 70 57 107q0 47 -26 88q-33 49 -166 108q-96 43 -97 175q0 150 95 210q80 51 174 52q141 0 196 -74q49 -65 68 -203h-184q0 61 -19 86q-27 33 -65 31 q-23 -4 -45 -23q-35 -31 -35 -88q0 -41 125 -84q90 -31 145 -135q33 -61 33 -151q0 -78 -43 -144q-133 -195 -357 -243q-178 -37 -270 -37q-129 0 -201 24q-292 105 -292 367z" />
<glyph unicode="&#x649;" arabic-form="final" d="M-131 18q-6 98 29 230h178q-27 -86 -27 -197q0 -106 144 -131q68 -12 182 -12q135 0 186 16q129 37 150 51q57 43 57 76q-4 45 -10 55q-29 43 -47 62q-45 49 -45 106q0 78 41 125q74 90 163 109q27 6 74 6q131 0 176 -137q66 -193 99 -193h34v-184h-34q-127 0 -195 172 q-66 166 -94 166q-31 0 -49 -19q-20 -18 -21 -49q0 -8 41 -71q53 -88 53 -148q0 -82 -77 -166q-106 -113 -285 -137q-135 -20 -215 -20q-121 0 -268 36q-228 55 -240 254z" />
<glyph unicode="&#x64a;" arabic-form="isolated" d="M25 123q0 117 63 229h184q-66 -135 -65 -229q2 -145 166 -193q70 -20 157 -20q119 0 230 35q104 33 172 112q57 70 57 107q0 47 -26 88q-33 49 -166 108q-96 43 -97 175q0 150 95 210q80 51 174 52q141 0 196 -74q49 -65 68 -203h-184q0 61 -19 86q-27 33 -65 31 q-23 -4 -45 -23q-35 -31 -35 -88q0 -41 125 -84q90 -31 145 -135q33 -61 33 -151q0 -78 -43 -144q-133 -195 -357 -243q-178 -37 -270 -37q-129 0 -201 24q-292 105 -292 367zM344 -500v150h150v-150h-150zM594 -500v150h149v-150h-149z" />
<glyph unicode="&#x64a;" arabic-form="final" d="M-131 18q-6 98 29 230h178q-27 -86 -27 -197q0 -106 144 -131q68 -12 182 -12q135 0 186 16q129 37 150 51q57 43 57 76q-4 45 -10 55q-29 43 -47 62q-45 49 -45 106q0 78 41 125q74 90 163 109q27 6 74 6q131 0 176 -137q66 -193 99 -193h34v-184h-34q-127 0 -195 172 q-66 166 -94 166q-31 0 -49 -19q-20 -18 -21 -49q0 -8 41 -71q53 -88 53 -148q0 -82 -77 -166q-106 -113 -285 -137q-135 -20 -215 -20q-121 0 -268 36q-228 55 -240 254zM193 -500v150h150v-150h-150zM443 -500v150h149v-150h-149z" />
<glyph unicode="&#x64a;" arabic-form="initial" d="M385 -299v150h150v-150h-150zM635 -299v150h149v-150h-149zM-20 0v184h157q287 0 330 43q49 49 49 156v217h184v-217q0 -186 -92 -297q-72 -86 -415 -86h-213z" />
<glyph unicode="&#x64a;" arabic-form="medial" d="M403 -299v150h150v-150h-150zM653 -299v150h149v-150h-149zM-20 0v184h280q164 0 207 43q47 47 47 156v217h184v-217q0 -106 50 -156q43 -43 206 -43h299v-184h-354q-213 0 -293 86q-78 -86 -291 -86h-335z" />
<glyph unicode=" " />
<glyph unicode="!" d="M516 0v254h203v-254h-203zM516 838v655h203v-655l-21 -357h-161z" />
<glyph unicode="&#x22;" d="M338 938v555h174v-555h-174zM721 938v555h174v-555h-174z" />
<glyph unicode="#" d="M2 414v153h297l84 334h-266v154h303l104 415h160l-104 -415h245l105 415h160l-105 -415h244v-154h-281l-84 -334h250v-153h-289l-104 -414h-160l105 414h-246l-105 -414h-159l104 414h-258zM459 567h246l83 334h-245z" />
<glyph unicode="$" d="M190 92v180q109 -66 201 -96q94 -31 201 -35v459q-200 31 -301 123q-100 92 -101 240q0 160 105 251q102 90 297 107v235h100v-235q92 -6 162 -21q74 -14 164 -40v-173q-76 37 -166 66q-84 27 -160 29v-432q209 -31 314 -127q109 -98 108 -252q0 -152 -117 -256 q-115 -102 -305 -113v-303h-100v301q-94 6 -203 29q-88 18 -199 63zM371 973q0 -86 55 -135.5t166 -67.5v414q-100 -2 -162 -62q-59 -55 -59 -149zM692 145q111 3 172 62t62 158q0 94 -56 145q-53 51 -178 70v-435z" />
<glyph unicode="%" d="M33 1112q0 135 92 227.5t227 92.5q70 0 123 -23q57 -25 102.5 -70t69.5 -104q25 -58 25 -123q0 -135 -92.5 -227t-227.5 -92t-227 92t-92 227zM86 561l1042 418l41 -96l-1048 -418zM168 1112q0 -78 53 -131t131 -53q74 0 131 53q53 51 53.5 131t-53.5 131q-57 53 -131 53 q-78 0 -131 -53t-53 -131zM561 319q0 135 92 227.5t226 92.5q65 0 122 -25t103 -69q47 -47 72 -105q25 -59 24 -121q0 -135 -92 -227t-229 -92q-135 0 -228 92q-90 90 -90 227zM696 319.5q0 -79.5 52 -131.5q53 -53 130.5 -53t131 53.5t53.5 131t-53.5 131t-131 53.5 t-130.5 -53q-52 -52 -52 -131.5z" />
<glyph unicode="&#x26;" d="M57 444q0 133 70 254q66 113 207 217q-47 68 -74 142q-25 68 -24 139q0 150 100 238q98 86 272 86q68 0 131 -13q55 -10 135 -34v-183q-53 37 -122 58q-61 18 -131 18q-98 0 -152 -45q-57 -47 -57 -123q0 -55 28 -123q25 -55 107 -168l416 -559q41 51 59 123 q18 74 18 180q0 8 -4 103v6h164v-39q0 -160 -37 -283q-35 -115 -112 -209l170 -229h-213l-78 109q-82 -70 -176 -105q-90 -33 -199 -33q-215 0 -356.5 135t-141.5 338zM233 475q0 -152 101 -250q104 -100 254 -100q43 0 88 12q43 12 90 35q31 16 45 27q12 8 33 24l-428 580 q-94 -74 -137 -154q-46 -82 -46 -174z" />
<glyph unicode="'" d="M528 938v555h174v-555h-174z" />
<glyph unicode="(" d="M426 643q0 221 74 449q72 221 225 462h160q-135 -233 -199 -454q-66 -231 -65.5 -456.5t65.5 -457.5q61 -219 199 -456h-160q-152 238 -225.5 463t-73.5 450z" />
<glyph unicode=")" d="M348 -270q137 244 199 458q66 231 65.5 454.5t-65.5 455.5q-61 219 -199 456h160q154 -242 225 -462q74 -227 74 -449q0 -223 -74 -450q-72 -221 -225 -463h-160z" />
<glyph unicode="*" d="M166 858l358 195l-358 194l57 99l336 -203v377h115v-377l336 203l57 -99l-358 -194l358 -195l-57 -98l-336 203v-377h-115v377l-336 -203z" />
<glyph unicode="+" d="M88 557v170h444v444h168v-444h445v-170h-445v-444h-168v444h-444z" />
<glyph unicode="," d="M403 -287l99 383v207h252v-207l-197 -383h-154z" />
<glyph unicode="-" d="M356 479v164h521v-164h-521z" />
<glyph unicode="." d="M489 0v305h252v-305h-252z" />
<glyph unicode="/" d="M102 -190l787 1683h190l-786 -1683h-191z" />
<glyph unicode="0" d="M133 745.5q0 380.5 123 577.5t360.5 197t360.5 -197t123 -577.5t-123 -577.5t-360.5 -197t-360.5 197t-123 577.5zM336 745.5q0 -315.5 70 -462.5q72 -152 211 -152t210 152q70 147 70 462.5t-70 462.5q-72 152 -211 152t-210 -152q-70 -147 -70 -462.5zM483 750 q0 57 39 96t92 39q57 0 96.5 -39t39.5 -96q0 -55 -39 -94.5t-96.5 -39.5t-94.5 37.5t-37 96.5z" />
<glyph unicode="1" d="M246 1235v184l336 74h202v-1323h310v-170h-824v170h314v1141z" />
<glyph unicode="2" d="M152 0v170l327 348q121 129 193 213q104 127 135 197q35 80 35 155q0 126 -74 197q-72 70 -201 70q-92 0 -190 -33q-106 -35 -213 -100v204q104 49 202.5 74t196.5 25q219 0 352.5 -117t133.5 -305q0 -92 -45 -193q-43 -96 -144 -211q-55 -66 -162 -180l-325 -344h686 v-170h-907z" />
<glyph unicode="3" d="M137 45v201q104 -53 201 -78q106 -27 197 -27q166 0 256 74q88 74 88 217q0 131 -88.5 207t-241.5 76h-154v166h154q139 0 217 61.5t78 169.5q0 117 -72 176q-74 61 -207 62q-94 0 -184 -21q-106 -25 -199 -59v186q131 33 215 47q102 16 168 17q221 0 348 -109 q131 -113 131 -291q0 -119 -69 -205q-68 -84 -199 -116q150 -41 225 -137q78 -100 78 -250q0 -207 -139 -324q-137 -117 -383 -117q-102 0 -211 19q-103 18 -209 55z" />
<glyph unicode="4" d="M102 356v191l600 946h234v-973h199v-164h-199v-356h-201v356h-633zM264 520h471v789z" />
<glyph unicode="5" d="M143 35v205q92 -49 184.5 -74t190.5 -25q170 0 258 88q90 90 90 250q0 158 -94 248t-260 90q-82 0 -158 -18q-77 -18 -147 -56v750h756v-170h-572v-367q47 16 86 23q57 8 88 8q233 0 368.5 -137t135.5 -371q0 -236 -143 -373q-141 -135 -389 -135q-113 0 -218 17 q-96 14 -176 47z" />
<glyph unicode="6" d="M133 745q0 375 146 576q143 199 421 199q78 0 148 -15q68 -14 143 -45v-186q-72 41 -135 57q-71 18 -147 19q-193 0 -291 -144q-98 -145 -99 -426q49 102 134 154q88 53 194 53q213 0 334 -133q119 -131 119 -375q0 -246 -121 -375q-123 -133 -344 -133q-262 0 -381 187 q-121 188 -121 587zM354 479q0 -166 74 -258t203 -92q135 0 203 88q68 90 67.5 262t-67.5 262q-68 88 -203 88q-127 0 -203 -94q-74 -92 -74 -256z" />
<glyph unicode="7" d="M139 1323v170h940v-86l-534 -1407h-211l520 1323h-715z" />
<glyph unicode="8" d="M131 399q0 158 80 260q78 98 229 134q-129 34 -202 122q-72 86 -72 218q0 178 121 282q119 104 329.5 104.5t329.5 -104.5q121 -104 121 -282q0 -131 -72 -218q-74 -89 -202 -122q152 -35 229 -134q80 -102 80 -258q0 -201 -129 -315q-131 -115 -357 -115 q-229 0 -356 113q-129 112 -129 315zM334 420q0 -138 74 -215q74 -76 209 -76t208 76q74 78 74 215t-73.5 213t-209 76t-209 -76t-73.5 -213zM367 1114q0 -119 63.5 -182.5t186 -63.5t186 63.5t63.5 182.5q0 123 -63.5 186.5t-186 63.5t-186 -63.5t-63.5 -186.5z" />
<glyph unicode="9" d="M127 1014q0 244 121 372q123 133 344 134q262 0 381 -187q121 -188 121 -588q0 -375 -146 -575q-143 -199 -422 -199q-78 0 -147 15q-68 14 -143 45v186q72 -41 135 -57q71 -18 147 -19q193 0 291 144q98 145 98 426q-45 -100 -133 -153.5t-194 -53.5q-213 0 -334 133 q-119 131 -119 377zM326 1012q0 -172 67 -262q68 -88 203 -88q127 0 203 94q74 92 73 256q0 166 -73.5 258t-202.5 92q-135 0 -203 -88q-67 -90 -67 -262z" />
<glyph unicode=":" d="M489 0v305h252v-305h-252zM489 760v303h252v-303h-252z" />
<glyph unicode=";" d="M403 -287l99 383v207h252v-207l-197 -383h-154zM489 760v303h252v-303h-252z" />
<glyph unicode="&#x3c;" d="M88 559v166l1057 418v-182l-850 -320l850 -317v-183z" />
<glyph unicode="=" d="M88 352v172h1057v-172h-1057zM88 760v170h1057v-170h-1057z" />
<glyph unicode="&#x3e;" d="M88 141v183l850 317l-850 320v182l1057 -418v-166z" />
<glyph unicode="?" d="M244 1219v188q95 58 190 86q92 27 199 27q184 0 297 -97q111 -96 110 -256q0 -76 -34 -141q-37 -70 -127 -158l-88 -86q-70 -68 -89 -108q-18 -43 -18 -103v-47v-123h-190v154q0 98 30.5 165.5t114.5 151.5l90 89q57 55 86 104q23 39 23 92q0 88 -66 143q-63 55 -174 56 q-76 0 -168 -35q-84 -30 -186 -102zM487 0v254h203v-254h-203z" />
<glyph unicode="@" d="M27 543q0 389 188 620.5t504 231.5q207 0 334 -133q125 -131 125 -357v-770h-144v111q-35 -61 -102 -96q-66 -35 -148 -35q-162 0 -266 121q-106 123 -106 309t106 309q104 121 266 121q78 0 148 -35q63 -33 102 -96v63q0 156 -88 250q-90 96 -233 96 q-246 0 -391.5 -192.5t-145.5 -517.5q0 -330 166 -524.5t438 -194.5q47 0 109 10q49 8 110 31l48 -135q-66 -25 -125 -37q-61 -12 -119 -12q-358 0 -567 233.5t-209 628.5zM567 545q0 -131 64 -207q66 -78 172 -78t172 78q63 76 63 207t-63 207q-66 78 -172.5 77.5 t-171.5 -77.5q-64 -76 -64 -207z" />
<glyph unicode="A" d="M37 0l457 1493h245l457 -1493h-209l-110 389h-523l-108 -389h-209zM403 551h426l-213 764z" />
<glyph unicode="B" d="M166 0v1493h442q229 0 353 -98q125 -100 124 -281q0 -135 -65 -217q-61 -76 -197 -98q147 -20 230 -125q84 -106 84 -264q0 -201 -133 -306q-131 -104 -396 -104h-442zM369 166h239q176 0 250 61q76 63 76 203q0 147 -80 215t-246 68h-239v-547zM369 877h235 q143 0 211 57q66 55 66 180q0 115 -63.5 164t-213.5 49h-235v-450z" />
<glyph unicode="C" d="M139 745q0 365 160 570t444 205q96 0 172 -21q82 -23 158 -61v-207q-74 61 -160 92q-92 33 -170 33q-197 0 -295 -151.5t-98 -459t98.5 -459t294.5 -151.5q80 0 172 33q82 29 158 92v-207q-76 -39 -158 -61q-76 -20 -172 -21q-287 0 -446 203q-158 200 -158 571z" />
<glyph unicode="D" d="M137 0v1493h303q340 0 504 -182q162 -180 162 -566q0 -383 -162 -563q-164 -182 -504 -182h-303zM340 166h96q256 0 356.5 125t100.5 454q0 332 -100.5 457t-356.5 125h-96v-1161z" />
<glyph unicode="E" d="M197 0v1493h886v-170h-684v-442h654v-170h-654v-541h703v-170h-905z" />
<glyph unicode="F" d="M233 0v1493h879v-170h-676v-440h613v-170h-613v-713h-203z" />
<glyph unicode="G" d="M102 745q0 365 160 570t445 205q98 0 180 -27q94 -31 166 -80v-207q-78 76 -166 113q-86 37 -180 37q-199 0 -295 -152q-98 -154 -99 -459q0 -311 94.5 -460.5t294.5 -149.5q72 0 117 15q53 16 92 49v401h-217v166h410v-643q-78 -72 -182 -113q-98 -39 -220 -39 q-285 0 -442 203q-158 204 -158 571z" />
<glyph unicode="H" d="M137 0v1493h203v-612h553v612h203v-1493h-203v711h-553v-711h-203z" />
<glyph unicode="I" d="M201 0v170h313v1153h-313v170h829v-170h-313v-1153h313v-170h-829z" />
<glyph unicode="J" d="M109 61v236q96 -84 188 -121q100 -41 201 -41q145 0 200.5 74t55.5 278v836h-381v170h583v-1006q0 -281 -106 -399q-104 -117 -352 -117q-90 0 -191 23q-92 20 -198 67z" />
<glyph unicode="K" d="M137 0v1493h203v-664l631 664h237l-581 -610l598 -883h-244l-487 748l-154 -164v-584h-203z" />
<glyph unicode="L" d="M215 0v1493h203v-1323h721v-170h-924z" />
<glyph unicode="M" d="M86 0v1493h270l258 -760l260 760h271v-1493h-187v1319l-266 -787h-153l-267 787v-1319h-186z" />
<glyph unicode="N" d="M139 0v1493h256l504 -1229v1229h195v-1493h-256l-504 1229v-1229h-195z" />
<glyph unicode="O" d="M117 745q0 391 123 582q125 193 376.5 193t376.5 -193q123 -190 123 -581.5t-123 -581.5q-125 -193 -377 -193q-254 0 -376.5 190.5t-122.5 583.5zM328 745.5q0 -327.5 67.5 -469t221 -141.5t221 141.5t67.5 469t-67.5 469t-221 141.5t-221 -141.5t-67.5 -469z" />
<glyph unicode="P" d="M197 0v1493h436q252 0 379 -113q129 -115 129 -334t-129 -333q-127 -113 -379 -113h-234v-600h-202zM399 766h234q139 0 219 74q78 72 78 207q0 133 -78 206.5t-219 73.5h-234v-561z" />
<glyph unicode="Q" d="M117 745.5q0 391.5 123 581.5q125 193 376.5 193t376.5 -193q123 -190 123 -582q0 -289 -69 -473q-70 -182 -207 -252l200 -190l-151 -100l-234 243q-2 0 -9 -1t-11 -1h-21q-250 0 -374 193q-123 190 -123 581.5zM328 745.5q0 -327.5 67.5 -469t221 -141.5t221 141.5 t67.5 469t-67.5 469t-221 141.5t-221 -141.5t-67.5 -469z" />
<glyph unicode="R" d="M143 0v1493h416q244 0 377 -111q131 -111 131 -321q0 -150 -80 -242q-80 -94 -227 -114q80 -23 133 -76.5t137 -220.5l203 -408h-217l-178 377q-78 162 -138 207q-63 47 -161 47h-193v-631h-203zM346 797h221q143 0 215 65.5t72 198.5q0 131 -76 199q-78 68 -219 67h-213 v-530z" />
<glyph unicode="S" d="M139 1079q0 200 135 320q137 121 357 121q86 0 180 -19q92 -18 201 -59v-205q-88 55 -185 88q-92 31 -186 31q-145 0 -225 -66q-84 -68 -84 -180q0 -98 55 -151.5t203 -86.5l106 -24q211 -49 305 -154q96 -106 97 -286q0 -213 -131 -324q-135 -113 -385 -113 q-98 0 -211 23q-104 20 -213 67v215q109 -70 217 -106q104 -35 207 -35q152 0 237.5 67.5t85.5 192.5q0 111 -59 170q-61 61 -203 92l-108 25q-205 45 -302 141q-94 94 -94 256z" />
<glyph unicode="T" d="M47 1323v170h1139v-170h-467v-1323h-203v1323h-469z" />
<glyph unicode="U" d="M147 573v920h203v-1012q0 -109 6 -155q6 -49 21 -72q31 -57 92 -88t147 -31t148 31q57 29 92 88q14 23 21 72q6 46 6 153v1014h202v-920q0 -227 -28 -325q-28 -95 -99 -160q-68 -61 -151 -88q-90 -29 -190.5 -29t-190.5 29q-80 25 -152 88q-72 66 -98 160 q-29 102 -29 325z" />
<glyph unicode="V" d="M57 1493h209l350 -1323l351 1323h209l-437 -1493h-245z" />
<glyph unicode="W" d="M0 1493h197l143 -1212l170 802h211l172 -804l143 1214h197l-223 -1493h-191l-203 887l-202 -887h-191z" />
<glyph unicode="X" d="M18 0l500 791l-432 702h217l328 -563l334 563h217l-447 -702l479 -791h-217l-366 643l-395 -643h-218z" />
<glyph unicode="Y" d="M37 1493h215l364 -659l363 659h217l-479 -823v-670h-203v670z" />
<glyph unicode="Z" d="M156 0v154l759 1169h-737v170h969v-154l-780 -1169h802v-170h-1013z" />
<glyph unicode="[" d="M463 -270v1826h424v-143h-240v-1540h240v-143h-424z" />
<glyph unicode="\" d="M102 1493h191l786 -1683h-190z" />
<glyph unicode="]" d="M346 -127h240v1540h-240v143h424v-1826h-424v143z" />
<glyph unicode="^" d="M72 936l456 557h177l456 -557h-178l-367 395l-366 -395h-178z" />
<glyph unicode="_" d="M0 -403h1233v-80h-1233v80z" />
<glyph unicode="`" d="M279 1638h198l281 -376h-154z" />
<glyph unicode="a" d="M133 326q0 186 125 284q123 96 369 97h247v28q0 133 -67.5 194.5t-214.5 61.5q-98 0 -190.5 -26.5t-186.5 -79.5v184q106 41 195 59q92 18 182 19q137 0 237 -41q98 -40 160 -123q39 -51 53 -123q16 -78 17 -221v-639h-185v166q-57 -100 -149 -148q-90 -47 -217 -47 q-170 0 -272.5 96.5t-102.5 258.5zM317 338q0 -102 61.5 -157.5t168.5 -55.5q152 0 239.5 106.5t87.5 290.5v41h-172h-61q-156 0 -242 -57q-82 -55 -82 -168z" />
<glyph unicode="b" d="M193 0v1556h184v-579q43 84 121 127q76 43 180 43q201 0 317.5 -155.5t116.5 -428.5q0 -276 -116.5 -434t-319.5 -158q-98 0 -176 43q-76 43 -123 127v-141h-184zM377 559q0 -207 69 -321q68 -111 203 -111q133 0 201 108.5t68 323.5t-68 323.5t-201 108.5 q-135 0 -203 -110q-69 -115 -69 -322z" />
<glyph unicode="c" d="M195 559q0 276 147 432t406 156q84 0 157 -21q78 -23 156 -65v-193q-80 70 -146 95q-76 29 -167 28q-172 0 -267 -112q-92 -111 -92 -320q0 -203 94 -319q92 -113 265 -113q100 0 172 29q77 31 141 92v-191q-78 -45 -152 -65q-76 -20 -161 -21q-258 0 -405.5 156 t-147.5 432z" />
<glyph unicode="d" d="M123 563q0 272 116.5 428t319.5 156q101 0 178 -43q78 -43 121 -127v579h184v-1556h-184v141q-47 -84 -123 -127t-176 -43q-203 0 -319.5 158t-116.5 434zM317 559q0 -215 68 -323.5t201 -108.5q132 0 202 111q70 109 70 321.5t-70 321.5q-71 111 -202 110 q-133 0 -201 -108.5t-68 -323.5z" />
<glyph unicode="e" d="M123 559q0 270 143 428q143 160 385 160q215 0 338 -145.5t123 -395.5v-90h-797v-6q0 -182 94.5 -282.5t270.5 -100.5q86 0 184 29q109 31 205 84v-183q-111 -45 -203 -65q-94 -20 -188 -21q-260 0 -407.5 156t-147.5 432zM322 659h606q-4 164 -76 248t-209 84 q-133 0 -219 -88q-88 -90 -102 -244z" />
<glyph unicode="f" d="M195 977v143h299v78q0 186 84 270q88 88 264 88h221v-153h-209q-96 0 -137 -41q-39 -39 -39 -143v-99h385v-143h-385v-977h-184v977h-299z" />
<glyph unicode="g" d="M123 569q0 262 116.5 420t313.5 158q109 0 182 -43q78 -45 123 -133v145h184v-1044q0 -254 -118 -381q-121 -131 -351 -131q-82 0 -159 14q-96 18 -166 41v182q98 -46 178 -67q84 -23 147 -23q150 0 217.5 80t67.5 258v8v125q-41 -92 -121 -139q-78 -47 -184 -47 q-197 0 -313.5 157.5t-116.5 419.5zM317 569q0 -207 72 -315.5t207 -108.5q127 0 195 109q68 106 67 315q0 206 -67 314q-68 109 -197 108q-135 0 -207 -108q-70 -107 -70 -314z" />
<glyph unicode="h" d="M195 0v1556h184v-604q49 96 133 146q82 49 199 49q170 0 256 -113q84 -111 84 -340v-694h-185v694q0 150 -53 221.5t-166 71.5q-127 0 -198 -92q-70 -90 -70 -262v-633h-184z" />
<glyph unicode="i" d="M178 0v143h365v834h-287v143h471v-977h365v-143h-914zM543 1323v233h184v-233h-184z" />
<glyph unicode="j" d="M186 -270h234q88 0 135 63q45 59 45 187v997h-317v143h501v-1140q0 -193 -90 -299.5t-254 -106.5h-254v156zM600 1323v233h184v-233h-184z" />
<glyph unicode="k" d="M236 0v1556h190v-901l483 465h224l-441 -422l510 -698h-225l-414 578l-137 -129v-449h-190z" />
<glyph unicode="l" d="M160 1423v144h479v-1161q0 -123 45 -186.5t135 -63.5h215v-156h-233q-168 0 -256 106q-90 109 -90 300v1017h-295z" />
<glyph unicode="m" d="M109 0v1120h167v-96q35 61 82 92q49 31 113 31q76 0 127 -35q49 -35 78 -106q35 74 86 106q53 35 127 35q135 0 190.5 -104.5t55.5 -393.5v-649h-168v641q0 240 -27 295q-27 57 -96 57q-78 0 -108.5 -61.5t-30.5 -290.5v-641h-168v641q0 240 -29 297q-29 55 -102.5 55 t-100.5 -61q-29 -63 -29 -291v-641h-167z" />
<glyph unicode="n" d="M195 0v1120h184v-168q49 96 133 146q82 49 199 49q170 0 256 -113q84 -111 84 -340v-694h-185v694q0 150 -53 221.5t-166 71.5q-127 0 -198 -92q-70 -90 -70 -262v-633h-184z" />
<glyph unicode="o" d="M137 559q0 286 123 436q123 152 356.5 152t356.5 -152q123 -151 123 -436q0 -289 -123 -438.5t-356.5 -149.5t-356.5 149.5t-123 438.5zM332 559q0 -211 71 -323q70 -109 213.5 -109t212.5 109q72 113 72 323q0 215 -71.5 323.5t-213 108.5t-213 -108.5t-71.5 -323.5z " />
<glyph unicode="p" d="M190 -426v1546h185v-143q47 84 122.5 127t176.5 43q203 0 319 -158q115 -154 115 -434q0 -272 -117 -428t-317 -156q-101 0 -178 43q-78 43 -121 127v-567h-185zM375 559q0 -207 69 -321q68 -111 203 -111q133 0 200.5 108.5t67.5 323.5t-67.5 323.5t-200.5 108.5 q-135 0 -203 -110q-69 -115 -69 -322z" />
<glyph unicode="q" d="M137 551q0 276 117 434t317 158q100 0 176 -43t123 -127v143h185v-1546h-185v569q-47 -84 -122 -127q-80 -45 -177 -45q-201 0 -317.5 156t-116.5 428zM332 555q0 -215 67.5 -323.5t200.5 -108.5t201 110q70 115 69.5 322t-69.5 322q-68 111 -201 110.5t-200.5 -109 t-67.5 -323.5z" />
<glyph unicode="r" d="M362 0v1120h185v-219q45 117 141 182q94 63 227 64q76 0 127 -17q61 -20 113 -53v-188q-57 45 -121 67q-59 20 -133 21q-170 0 -262 -109q-92 -106 -92 -311v-557h-185z" />
<glyph unicode="s" d="M213 41v190q109 -55 197 -79q92 -27 178 -27q121 0 188.5 49t67.5 139q0 127 -246 176l-6 3l-70 14q-158 31 -231.5 104.5t-73.5 200.5q0 162 109 248q111 88 311 88q86 0 174 -17q82 -14 162 -49v-180q-86 49 -160 70q-84 23 -162 22q-123 0 -186 -41q-61 -40 -62 -123 q0 -76 46 -112q47 -39 229 -72l74 -14q135 -25 209 -105q70 -76 69 -202q0 -166 -119 -261q-117 -92 -327 -92q-92 0 -174 17q-74 14 -197 53z" />
<glyph unicode="t" d="M131 977v143h299v318h184v-318h418v-143h-418v-608q0 -121 48 -172q47 -49 163 -50h207v-147h-225q-205 0 -293 84q-84 82 -84 285v608h-299z" />
<glyph unicode="u" d="M195 424v694h184v-694q0 -150 53 -221.5t166 -71.5q131 0 199 92q70 94 69 262v633h185v-1118h-185v168q-49 -100 -133 -148q-86 -49 -198 -49q-174 0 -256 113q-84 115 -84 340z" />
<glyph unicode="v" d="M100 1120h191l325 -940l326 940h191l-398 -1120h-237z" />
<glyph unicode="w" d="M0 1120h182l195 -905l160 578h157l162 -578l195 905h182l-262 -1120h-176l-179 614l-178 -614h-176z" />
<glyph unicode="x" d="M76 0l440 584l-401 536h204l297 -405l295 405h207l-401 -536l440 -584h-213l-328 449l-327 -449h-213z" />
<glyph unicode="y" d="M104 1120h195l332 -876l327 876h195l-295 -760l-117 -309q-96 -256 -133 -321q-45 -76 -114 -117q-66 -39 -162 -39h-148v154h109q80 0 127 47q45 45 117 243z" />
<glyph unicode="z" d="M203 0v170l643 805h-619v147h813v-168l-643 -804h643v-150h-837z" />
<glyph unicode="{" d="M221 541v143h62q143 0 194 57q53 59 53 207v240q0 223 84 295q86 74 334 73h64v-143h-70q-139 0 -182 -43t-43 -186v-248q0 -158 -45 -227q-47 -72 -156 -97q109 -27 156 -98q45 -70 45 -227v-248q0 -143 43 -186t182 -43h70v-144h-64q-248 0 -334 74q-84 72 -84 295v239 q0 150 -53 209q-51 57 -194 58h-62z" />
<glyph unicode="|" d="M530 -483v2048h172v-2048h-172z" />
<glyph unicode="}" d="M221 -190h68q139 0 184 45q43 43 43 184v248q0 158 45 227q47 72 156 98q-109 25 -156 97q-45 70 -45 227v248q0 141 -43 184q-45 45 -184 45h-68v143h62q250 0 333.5 -73.5t83.5 -294.5v-240q0 -147 54 -207q51 -57 194 -57h64v-143h-64q-143 0 -194 -58 q-53 -59 -54 -209v-239q0 -221 -84 -295t-333 -74h-62v144z" />
<glyph unicode="~" d="M88 492v174q74 59 152 88q72 27 155 26q53 0 103 -12q68 -16 125 -41q4 -2 32 -14q117 -55 209 -56q72 0 139.5 31t141.5 92v-174q-74 -57 -146 -86q-74 -29 -151 -28q-92 0 -203 51q-6 2 -13 5t-11.5 6t-8.5 3q-72 31 -129 45q-53 12 -102 12q-78 0 -150 -30 q-75 -33 -143 -92z" />
<glyph unicode="&#xa0;" />
<glyph unicode="&#xa1;" d="M516 0v655l21 357h161l21 -357v-655h-203zM516 1239v254h203v-254h-203z" />
<glyph unicode="&#xa2;" d="M213 559q0 250 131 408q131 160 354 178v287h103v-287q63 -4 123 -21q78 -23 137 -47v-172q-70 41 -131 62q-72 25 -129 26v-870q70 6 129 27q61 20 131 63v-172q-59 -25 -137 -47q-59 -16 -123 -21v-286h-103v286q-227 23 -356 178.5t-129 407.5zM406 559 q0 -184 79 -301q82 -119 213 -131v864q-131 -12 -213 -131q-79 -117 -79 -301z" />
<glyph unicode="&#xa3;" d="M139 0v170h236v465h-199v143h199v238q0 254 110.5 379t331.5 125q70 0 133 -15q68 -15 142 -43v-184q-66 45 -125 65q-68 23 -131 23q-131 0 -197 -90q-63 -88 -64 -281v-217h371v-143h-371v-465h537v-170h-973z" />
<glyph unicode="&#xa4;" d="M205 285l166 166q-29 49 -45 98q-14 43 -15 92q0 53 14.5 96t47.5 92l-168 166l94 95l166 -168q49 33 92 47t96 14q49 0 92 -14q49 -16 99 -45l166 166l90 -93l-166 -166q29 -45 45 -96q14 -43 14 -94q0 -53 -14 -96q-12 -39 -47 -90l168 -166l-94 -94l-166 167 q-49 -33 -92 -47t-94.5 -14t-96.5 14.5t-96 42.5l-164 -163zM438 643q0 -92 62 -154q63 -63 153 -63q92 0 153.5 63.5t61.5 153.5t-61.5 151.5t-153.5 61.5t-153.5 -61.5t-61.5 -151.5z" />
<glyph unicode="&#xa5;" d="M37 1493h215l364 -659l363 659h217l-330 -561h252v-111h-315l-86 -151v-35h401v-111h-401v-524h-203v524h-399v111h399v35l-90 151h-309v111h243z" />
<glyph unicode="&#xa6;" d="M530 -350v758h172v-758h-172zM530 674v758h172v-758h-172z" />
<glyph unicode="&#xa7;" d="M199 723q0 90 47 162q47 74 137 121q-55 39 -90 100q-29 51 -29 125q0 129 101 209q102 80 266 80q78 0 149 -15q74 -14 156 -43v-164q-78 37 -154 58q-78 20 -129 20q-98 0 -151 -41t-53 -110q0 -92 204 -205l41 -23q212 -120 277 -196q66 -78 65 -178q0 -90 -45 -160 t-139 -123q63 -55 90 -107q29 -57 29 -118q0 -141 -102.5 -225.5t-274.5 -84.5q-78 0 -150 15q-84 16 -165 43v164q78 -37 161 -58q82 -20 131 -20q102 0 158 43q57 45 57 117q0 102 -221 225l-24 14q-213 119 -279 197q-63 76 -63 178zM362 754q0 -76 70 -144 q72 -70 318 -200q63 49 92 90q31 46 30 92q0 76 -71 143q-70 68 -316 201q-63 -47 -92 -90q-31 -46 -31 -92z" />
<glyph unicode="&#xa8;" d="M319 1350v202h203v-202h-203zM711 1350v202h202v-202h-202z" />
<glyph unicode="&#xa9;" d="M0 741q0 127 45 236q43 102 137 201q88 88 199 135q104 45 235.5 45t235.5 -45q111 -47 199 -135q94 -98 137 -201q45 -109 45 -236q0 -129 -45 -233q-47 -111 -137 -201q-92 -90 -199 -137q-104 -45 -236 -45q-129 0 -233 45q-111 47 -201 137t-137 201q-45 104 -45 233 zM102 741.5q0 -106.5 39 -196.5q41 -94 113 -166q78 -78 166 -115t196 -37t197 37q88 37 166 115q76 76 113 166q39 94 38 196q0 98 -38 197q-37 92 -113 168t-166 113q-89 37 -196.5 36.5t-196.5 -36.5q-90 -37 -166 -113q-70 -70 -113 -168q-39 -90 -39 -196.5zM250 741 q0 172 104 275q102 100 283 100q70 0 119 -10t108 -35v-108q-61 29 -114 41q-66 14 -113 14q-117 0 -184.5 -74t-67.5 -203q0 -133 70 -202q72 -72 200 -72q53 0 107 12q47 10 102 39v-104q-49 -20 -108.5 -32.5t-118.5 -12.5q-180 0 -283 100q-104 100 -104 272z" />
<glyph unicode="&#xaa;" d="M270 950q0 127 92 199q90 70 267 70h182v4q0 90 -59 137q-57 45 -177 45q-53 0 -114 -19q-76 -23 -129 -49v127q57 23 135 41q63 14 131 15q184 0 270 -86t86 -269v-448h-143v112q-49 -63 -115 -98q-63 -33 -147 -33q-131 0 -205 67.5t-74 184.5zM293 469v123h668v-123 h-668zM416 958q0 -61 43 -102q41 -39 116 -39q104 0 170 72t66 186v29h-127q-143 0 -207 -35q-61 -34 -61 -111z" />
<glyph unicode="&#xab;" d="M119 559v82l469 418v-191l-301 -268l301 -268v-191zM573 559v82l469 418v-191l-301 -268l301 -268v-191z" />
<glyph unicode="&#xac;" d="M88 690v172h1057v-491h-168v319h-889z" />
<glyph unicode="&#xad;" d="M356 479v164h521v-164h-521z" />
<glyph unicode="&#xae;" d="M0 741q0 127 45 236q43 102 137 201q88 88 199 135q104 45 235.5 45t235.5 -45q111 -47 199 -135q94 -98 137 -201q45 -109 45 -236q0 -129 -45 -233q-47 -111 -137 -201q-92 -90 -199 -137q-104 -45 -236 -45q-129 0 -233 45q-111 47 -201 137t-137 201q-45 104 -45 233 zM102 741.5q0 -106.5 39 -196.5q41 -94 113 -166q78 -78 166 -115t196 -37t197 37q88 37 166 115q76 76 113 166q39 94 38 196q0 98 -38 197q-37 92 -113 168t-166 113q-89 37 -196.5 36.5t-196.5 -36.5q-90 -37 -166 -113q-70 -70 -113 -168q-39 -90 -39 -196.5zM362 406 v694h238q150 0 219 -49q72 -49 72 -150q0 -71 -43 -117q-43 -45 -125 -61q20 -6 47 -39q41 -51 68 -92l114 -186h-143l-107 174q-51 82 -79.5 102t-75.5 20h-55v-296h-130zM492 784h102q92 0 127 27q37 29 37 90.5t-37 87.5q-35 27 -127 27h-102v-232z" />
<glyph unicode="&#xaf;" d="M317 1378v148h598v-148h-598z" />
<glyph unicode="&#xb0;" d="M299 1200q0 135 92 227.5t225 92.5q65 0 123 -25q61 -27 103 -70q45 -45 69 -102q23 -53 23 -123q0 -131 -92 -223t-227.5 -92t-225.5 90t-90 225zM426 1200q0 -78 55.5 -133t132.5 -55q80 0 136 55q57 57 57 133q0 80 -55.5 135.5t-135.5 55.5t-135 -55.5t-55 -135.5z " />
<glyph unicode="&#xb1;" d="M88 0v170h1057v-170h-1057zM88 672v170h444v329h168v-329h445v-170h-445v-332h-168v332h-444z" />
<glyph unicode="&#xb2;" d="M322 668v110l231 226q104 102 141 157q41 63 41 113q0 59 -51 98t-131 39q-49 0 -104 -18q-66 -23 -121 -54v125q55 23 125 41q57 14 120 15q143 0 228 -66q86 -68 86 -174q0 -58 -37 -117q-41 -63 -156 -176l-211 -205h410v-114h-571z" />
<glyph unicode="&#xb3;" d="M326 694v121q70 -29 125 -41t102 -12q100 0 159.5 41t59.5 108q0 76 -55 113t-164 37h-66v108h74q92 0 141.5 31t49.5 92q0 59 -47 88q-49 31 -136 31q-45 0 -100 -12q-51 -12 -115 -35v121q57 16 127 26q51 8 109 9q145 0 229 -59.5t84 -157.5q0 -68 -45 -117 q-43 -47 -127 -66q94 -20 143.5 -75.5t49.5 -133.5q0 -123 -95 -190q-96 -68 -272 -68q-49 0 -115 11q-58 8 -116 30z" />
<glyph unicode="&#xb4;" d="M475 1262l281 376h198l-325 -376h-154z" />
<glyph unicode="&#xb5;" d="M195 -428v1548h184v-696q0 -143 59 -217q61 -76 172 -76q127 0 191 84q66 88 65 252v653h185v-864q0 -57 16 -86t49 -29q12 0 23 4q15 6 43 19v-148q-39 -23 -72 -34q-29 -10 -68 -11q-63 0 -100 39q-37 41 -49 119q-45 -80 -113 -119q-66 -39 -155 -39q-92 0 -156 37 q-61 35 -107 119v-555h-167z" />
<glyph unicode="&#xb6;" d="M106 1071q0 188 129.5 305t346.5 117h448v-1690h-141v1567h-191v-1567h-141v846q-219 18 -334 127q-117 111 -117 295z" />
<glyph unicode="&#xb7;" d="M489 559v305h252v-305h-252z" />
<glyph unicode="&#xb8;" d="M395 -240q33 -18 72 -24q49 -8 84 -8q57 0 88 24.5t31 69.5q0 29 -23 74q-18 39 -65 104h118q51 -57 82 -115q27 -51 27 -100q0 -90 -59.5 -135t-178.5 -45q-45 0 -88 6q-47 6 -88 18v131z" />
<glyph unicode="&#xb9;" d="M344 1348v116l229 39h138v-725h204v-110h-553v110h205v611z" />
<glyph unicode="&#xba;" d="M244 1108q0 188 102 301q101 111 270 111t271 -111q102 -113 102 -301q0 -190 -100 -299q-102 -111 -272.5 -111t-272.5 111q-100 109 -100 299zM276 469v123h676v-123h-676zM399 1108q0 -139 58 -215q59 -78 159 -78q102 0 160 78t58 215q0 141 -58 217 q-59 78 -159.5 78t-159.5 -78q-58 -76 -58 -217z" />
<glyph unicode="&#xbb;" d="M193 141v191l301 268l-301 268v191l469 -418v-82zM647 141v191l301 268l-301 268v191l469 -418v-82z" />
<glyph unicode="&#xbc;" d="M452 -84v121l363 528h162v-538h116v-111h-116v-186h-138v186h-387zM565 27h274v413zM86 1504v116l229 39h138v-725h204v-110h-553v110h205v611zM27 612l1060 262l27 -108l-1063 -262z" />
<glyph unicode="&#xbd;" d="M86 1504v116l229 39h138v-725h204v-110h-553v110h205v611zM27 612l1060 262l27 -108l-1063 -262zM523 -270v110l231 226q104 102 141 157q41 63 41 113q0 59 -51 98t-131 39q-49 0 -104 -18q-66 -23 -121 -54v125q55 23 125 41q57 14 120 15q143 0 228 -66 q86 -68 86 -174q0 -58 -37 -117q-41 -63 -156 -176l-211 -205h410v-114h-571z" />
<glyph unicode="&#xbe;" d="M452 -84v121l363 528h162v-538h116v-111h-116v-186h-138v186h-387zM565 27h274v413zM99 850v121q70 -29 125 -41t102 -12q100 0 159.5 41t59.5 108q0 76 -55 113t-164 37h-66v108h74q92 0 141.5 31t49.5 92q0 59 -47 88q-49 31 -136 31q-45 0 -100 -12q-51 -12 -115 -35 v121q57 16 127 26q51 8 109 9q145 0 229 -59.5t84 -157.5q0 -68 -45 -117q-43 -47 -127 -66q94 -20 143.5 -75.5t49.5 -133.5q0 -123 -95 -190q-96 -68 -272 -68q-49 0 -115 11q-58 8 -116 30zM27 612l1060 262l27 -108l-1063 -262z" />
<glyph unicode="&#xbf;" d="M193 326q0 76 34 141q37 70 127 158l88 86q68 66 86 106q18 43 19 105v6q2 14 2 41v123h190v-154q0 -98 -30.5 -165.5t-114.5 -151.5l-90 -89q-57 -55 -86 -104q-23 -39 -23 -92q0 -88 66 -143q63 -55 174 -56q76 0 168 35q84 31 186 102v-188q-95 -58 -190 -86 q-92 -27 -199 -27q-184 0 -297 97q-110 94 -110 256zM543 1239v254h202v-254h-202z" />
<glyph unicode="&#xc0;" d="M37 0l457 1493h245l457 -1493h-209l-110 389h-523l-108 -389h-209zM403 551h426l-213 764zM377 1899h184l197 -264h-154z" />
<glyph unicode="&#xc1;" d="M37 0l457 1493h245l457 -1493h-209l-110 389h-523l-108 -389h-209zM403 551h426l-213 764zM475 1635l197 264h186l-229 -264h-154z" />
<glyph unicode="&#xc2;" d="M37 0l457 1493h245l457 -1493h-209l-110 389h-523l-108 -389h-209zM403 551h426l-213 764zM311 1635l211 266h189l211 -266h-140l-166 178l-165 -178h-140z" />
<glyph unicode="&#xc3;" d="M37 0l457 1493h245l457 -1493h-209l-110 389h-523l-108 -389h-209zM403 551h426l-213 764zM287 1667q0 102 51 160q53 59 137 59q39 0 66 -8q39 -12 80 -35l57 -30q23 -12 39 -19q18 -6 33 -6q29 0 51 25q20 23 20 67v6h125q-4 -104 -53 -159q-53 -59 -135 -60 q-37 0 -64 9q-37 10 -82 34l-57 33q-8 6 -41 19q-14 6 -27 6q-34 0 -55 -25q-20 -23 -20 -70v-6h-125z" />
<glyph unicode="&#xc4;" d="M37 0l457 1493h245l457 -1493h-209l-110 389h-523l-108 -389h-209zM403 551h426l-213 764zM319 1667v203h203v-203h-203zM711 1667v203h202v-203h-202z" />
<glyph unicode="&#xc5;" d="M37 0l428 1399q-55 33 -90 94q-33 59 -33 133q0 115 80 195t194.5 80t194.5 -80t80 -195q0 -72 -33 -133q-29 -55 -90 -94l428 -1399h-209l-110 389h-523l-108 -389h-209zM403 551h426l-213 760zM465 1626q0 -61 45 -106t106.5 -45t106.5 45t45 106.5t-45 106.5t-107 45 q-66 0 -108.5 -43t-42.5 -109z" />
<glyph unicode="&#xc6;" d="M0 0l410 1493h751v-170h-338v-442h307v-170h-307v-541h357v-170h-543v383h-352l-101 -383h-184zM328 551h309v772h-107z" />
<glyph unicode="&#xc7;" d="M495 -240q33 -18 72 -24q49 -8 84 -8q57 0 88 24.5t31 69.5q0 29 -23 74q-18 39 -65 104h118q51 -57 82 -115q27 -51 27 -100q0 -90 -59.5 -135t-178.5 -45q-45 0 -88 6q-47 6 -88 18v131zM139 745q0 365 160 570t444 205q96 0 172 -21q82 -23 158 -61v-207 q-74 61 -160 92q-92 33 -170 33q-197 0 -295 -151.5t-98 -459t98.5 -459t294.5 -151.5q80 0 172 33q82 29 158 92v-207q-76 -39 -158 -61q-76 -20 -172 -21q-287 0 -446 203q-158 200 -158 571z" />
<glyph unicode="&#xc8;" d="M197 0v1493h886v-170h-684v-442h654v-170h-654v-541h703v-170h-905zM395 1899h184l197 -264h-154z" />
<glyph unicode="&#xc9;" d="M197 0v1493h886v-170h-684v-442h654v-170h-654v-541h703v-170h-905zM493 1635l197 264h186l-229 -264h-154z" />
<glyph unicode="&#xca;" d="M197 0v1493h886v-170h-684v-442h654v-170h-654v-541h703v-170h-905zM329 1635l211 266h189l211 -266h-140l-166 178l-165 -178h-140z" />
<glyph unicode="&#xcb;" d="M197 0v1493h886v-170h-684v-442h654v-170h-654v-541h703v-170h-905zM337 1667v203h203v-203h-203zM729 1667v203h202v-203h-202z" />
<glyph unicode="&#xcc;" d="M201 0v170h313v1153h-313v170h829v-170h-313v-1153h313v-170h-829zM377 1899h184l197 -264h-154z" />
<glyph unicode="&#xcd;" d="M201 0v170h313v1153h-313v170h829v-170h-313v-1153h313v-170h-829zM475 1635l197 264h186l-229 -264h-154z" />
<glyph unicode="&#xce;" d="M201 0v170h313v1153h-313v170h829v-170h-313v-1153h313v-170h-829zM311 1635l211 266h189l211 -266h-140l-166 178l-165 -178h-140z" />
<glyph unicode="&#xcf;" d="M201 0v170h313v1153h-313v170h829v-170h-313v-1153h313v-170h-829zM319 1667v203h203v-203h-203zM711 1667v203h202v-203h-202z" />
<glyph unicode="&#xd0;" d="M8 709v149h125v635h303q340 0 504 -182q162 -180 162 -566q0 -383 -162 -563q-164 -182 -504 -182h-303v709h-125zM340 166h96q256 0 356.5 125t100.5 454q0 332 -100.5 457t-356.5 125h-96v-469h264v-149h-264v-543z" />
<glyph unicode="&#xd1;" d="M139 0v1493h256l504 -1229v1229h195v-1493h-256l-504 1229v-1229h-195zM287 1671q0 102 51 160q53 59 137 59q39 0 66 -8q39 -12 80 -35l57 -30q23 -12 39 -19q18 -6 33 -6q29 0 51 25q20 23 20 67v6h125q-4 -104 -53 -159q-53 -59 -135 -60q-37 0 -64 9q-37 10 -82 34 l-57 33q-8 6 -41 19q-14 6 -27 6q-34 0 -55 -25q-20 -23 -20 -70v-6h-125z" />
<glyph unicode="&#xd2;" d="M117 745q0 391 123 582q125 193 376.5 193t376.5 -193q123 -190 123 -581.5t-123 -581.5q-125 -193 -377 -193q-254 0 -376.5 190.5t-122.5 583.5zM328 745.5q0 -327.5 67.5 -469t221 -141.5t221 141.5t67.5 469t-67.5 469t-221 141.5t-221 -141.5t-67.5 -469zM377 1899 h184l197 -264h-154z" />
<glyph unicode="&#xd3;" d="M117 745q0 391 123 582q125 193 376.5 193t376.5 -193q123 -190 123 -581.5t-123 -581.5q-125 -193 -377 -193q-254 0 -376.5 190.5t-122.5 583.5zM328 745.5q0 -327.5 67.5 -469t221 -141.5t221 141.5t67.5 469t-67.5 469t-221 141.5t-221 -141.5t-67.5 -469zM475 1635 l197 264h186l-229 -264h-154z" />
<glyph unicode="&#xd4;" d="M117 745q0 391 123 582q125 193 376.5 193t376.5 -193q123 -190 123 -581.5t-123 -581.5q-125 -193 -377 -193q-254 0 -376.5 190.5t-122.5 583.5zM328 745.5q0 -327.5 67.5 -469t221 -141.5t221 141.5t67.5 469t-67.5 469t-221 141.5t-221 -141.5t-67.5 -469zM311 1635 l211 266h189l211 -266h-140l-166 178l-165 -178h-140z" />
<glyph unicode="&#xd5;" d="M117 745q0 391 123 582q125 193 376.5 193t376.5 -193q123 -190 123 -581.5t-123 -581.5q-125 -193 -377 -193q-254 0 -376.5 190.5t-122.5 583.5zM328 745.5q0 -327.5 67.5 -469t221 -141.5t221 141.5t67.5 469t-67.5 469t-221 141.5t-221 -141.5t-67.5 -469zM287 1667 q0 102 51 160q53 59 137 59q39 0 66 -8q39 -12 80 -35l57 -30q23 -12 39 -19q18 -6 33 -6q29 0 51 25q20 23 20 67v6h125q-4 -104 -53 -159q-53 -59 -135 -60q-37 0 -64 9q-37 10 -82 34l-57 33q-8 6 -41 19q-14 6 -27 6q-34 0 -55 -25q-20 -23 -20 -70v-6h-125z" />
<glyph unicode="&#xd6;" d="M117 745q0 391 123 582q125 193 376.5 193t376.5 -193q123 -190 123 -581.5t-123 -581.5q-125 -193 -377 -193q-254 0 -376.5 190.5t-122.5 583.5zM328 745.5q0 -327.5 67.5 -469t221 -141.5t221 141.5t67.5 469t-67.5 469t-221 141.5t-221 -141.5t-67.5 -469zM319 1667 v203h203v-203h-203zM711 1667v203h202v-203h-202z" />
<glyph unicode="&#xd7;" d="M150 293l350 348l-350 350l116 117l350 -350l351 350l116 -117l-350 -350l348 -348l-116 -119l-349 350l-348 -350z" />
<glyph unicode="&#xd8;" d="M8 0l178 252q-35 82 -51 205q-18 132 -18 288q0 391 123 582q125 193 376 193q113 0 201 -41q84 -39 144 -121l139 201l100 -74l-168 -238q39 -80 62 -211q23 -135 22 -291q0 -391 -123 -581q-125 -193 -377 -193q-119 0 -210 41q-90 41 -152 121l-143 -203zM328 686 q0 -98 2 -131q4 -59 8 -84l504 719q-25 80 -82 123q-59 43 -144 43q-160 0 -223 -146q-65 -149 -65 -524zM371 303q31 -76 96 -123q63 -45 149 -45q154 0 221.5 141.5t67.5 468.5q0 111 -6 179q-6 76 -14 112z" />
<glyph unicode="&#xd9;" d="M147 573v920h203v-1012q0 -109 6 -155q6 -49 21 -72q31 -57 92 -88t147 -31t148 31q57 29 92 88q14 23 21 72q6 46 6 153v1014h202v-920q0 -227 -28 -325q-28 -95 -99 -160q-68 -61 -151 -88q-90 -29 -190.5 -29t-190.5 29q-80 25 -152 88q-72 66 -98 160 q-29 102 -29 325zM377 1899h184l197 -264h-154z" />
<glyph unicode="&#xda;" d="M147 573v920h203v-1012q0 -109 6 -155q6 -49 21 -72q31 -57 92 -88t147 -31t148 31q57 29 92 88q14 23 21 72q6 46 6 153v1014h202v-920q0 -227 -28 -325q-28 -95 -99 -160q-68 -61 -151 -88q-90 -29 -190.5 -29t-190.5 29q-80 25 -152 88q-72 66 -98 160 q-29 102 -29 325zM475 1635l197 264h186l-229 -264h-154z" />
<glyph unicode="&#xdb;" d="M147 573v920h203v-1012q0 -109 6 -155q6 -49 21 -72q31 -57 92 -88t147 -31t148 31q57 29 92 88q14 23 21 72q6 46 6 153v1014h202v-920q0 -227 -28 -325q-28 -95 -99 -160q-68 -61 -151 -88q-90 -29 -190.5 -29t-190.5 29q-80 25 -152 88q-72 66 -98 160 q-29 102 -29 325zM311 1635l211 266h189l211 -266h-140l-166 178l-165 -178h-140z" />
<glyph unicode="&#xdc;" d="M147 573v920h203v-1012q0 -109 6 -155q6 -49 21 -72q31 -57 92 -88t147 -31t148 31q57 29 92 88q14 23 21 72q6 46 6 153v1014h202v-920q0 -227 -28 -325q-28 -95 -99 -160q-68 -61 -151 -88q-90 -29 -190.5 -29t-190.5 29q-80 25 -152 88q-72 66 -98 160 q-29 102 -29 325zM319 1667v203h203v-203h-203zM711 1667v203h202v-203h-202z" />
<glyph unicode="&#xdd;" d="M37 1493h215l364 -659l363 659h217l-479 -823v-670h-203v670zM475 1635l197 264h186l-229 -264h-154z" />
<glyph unicode="&#xde;" d="M201 0v1493h202v-270h254q260 0 383 -105q125 -106 125 -323t-125 -324q-123 -104 -383 -104h-254v-367h-202zM403 532h234q156 0 237 66q78 63 78 196.5t-78 196.5q-82 66 -237 66h-234v-525z" />
<glyph unicode="&#xdf;" d="M188 0v1137q0 211 104.5 315t321.5 104q205 0 310 -110q102 -109 106 -328q-160 -16 -239 -76q-84 -61 -84 -161q0 -47 28 -88q25 -35 94 -80l58 -37q154 -94 207 -174q55 -84 55 -199q0 -154 -113 -244q-109 -88 -307 -88q-70 0 -137 13q-70 12 -133 36v164 q84 -33 143 -47q63 -14 125 -14q108 0 172 49q63 49 64 129q0 74 -33 119q-37 51 -152 121l-67 39q-90 53 -138 122q-45 66 -45 146q0 127 80 213t238 121q-4 109 -62 164q-59 57 -174 57q-119 0 -178 -66q-57 -63 -57 -204v-1133h-187z" />
<glyph unicode="&#xe0;" d="M133 326q0 186 125 284q123 96 369 97h247v28q0 133 -67.5 194.5t-214.5 61.5q-98 0 -190.5 -26.5t-186.5 -79.5v184q106 41 195 59q92 18 182 19q137 0 237 -41q98 -40 160 -123q39 -51 53 -123q16 -78 17 -221v-639h-185v166q-57 -100 -149 -148q-90 -47 -217 -47 q-170 0 -272.5 96.5t-102.5 258.5zM317 338q0 -102 61.5 -157.5t168.5 -55.5q152 0 239.5 106.5t87.5 290.5v41h-172h-61q-156 0 -242 -57q-82 -55 -82 -168zM279 1638h198l281 -376h-154z" />
<glyph unicode="&#xe1;" d="M133 326q0 186 125 284q123 96 369 97h247v28q0 133 -67.5 194.5t-214.5 61.5q-98 0 -190.5 -26.5t-186.5 -79.5v184q106 41 195 59q92 18 182 19q137 0 237 -41q98 -40 160 -123q39 -51 53 -123q16 -78 17 -221v-639h-185v166q-57 -100 -149 -148q-90 -47 -217 -47 q-170 0 -272.5 96.5t-102.5 258.5zM317 338q0 -102 61.5 -157.5t168.5 -55.5q152 0 239.5 106.5t87.5 290.5v41h-172h-61q-156 0 -242 -57q-82 -55 -82 -168zM475 1262l281 376h198l-325 -376h-154z" />
<glyph unicode="&#xe2;" d="M133 326q0 186 125 284q123 96 369 97h247v28q0 133 -67.5 194.5t-214.5 61.5q-98 0 -190.5 -26.5t-186.5 -79.5v184q106 41 195 59q92 18 182 19q137 0 237 -41q98 -40 160 -123q39 -51 53 -123q16 -78 17 -221v-639h-185v166q-57 -100 -149 -148q-90 -47 -217 -47 q-170 0 -272.5 96.5t-102.5 258.5zM317 338q0 -102 61.5 -157.5t168.5 -55.5q152 0 239.5 106.5t87.5 290.5v41h-172h-61q-156 0 -242 -57q-82 -55 -82 -168zM297 1262l246 376h147l246 -376h-139l-181 245l-180 -245h-139z" />
<glyph unicode="&#xe3;" d="M133 326q0 186 125 284q123 96 369 97h247v28q0 133 -67.5 194.5t-214.5 61.5q-98 0 -190.5 -26.5t-186.5 -79.5v184q106 41 195 59q92 18 182 19q137 0 237 -41q98 -40 160 -123q39 -51 53 -123q16 -78 17 -221v-639h-185v166q-57 -100 -149 -148q-90 -47 -217 -47 q-170 0 -272.5 96.5t-102.5 258.5zM317 338q0 -102 61.5 -157.5t168.5 -55.5q152 0 239.5 106.5t87.5 290.5v41h-172h-61q-156 0 -242 -57q-82 -55 -82 -168zM287 1309q0 133 53 209q53 74 141 73q43 0 72 -14q35 -18 68 -47l57 -55q16 -16 37 -29q16 -10 30 -10 q39 0 57.5 36.5t18.5 118.5h125q0 -137 -51 -209q-51 -74 -143 -73q-41 0 -70 14q-41 20 -70 47l-57 55q-16 16 -37 29q-16 10 -31 10q-39 0 -57 -37q-14 -31 -18 -118h-125z" />
<glyph unicode="&#xe4;" d="M133 326q0 186 125 284q123 96 369 97h247v28q0 133 -67.5 194.5t-214.5 61.5q-98 0 -190.5 -26.5t-186.5 -79.5v184q106 41 195 59q92 18 182 19q137 0 237 -41q98 -40 160 -123q39 -51 53 -123q16 -78 17 -221v-639h-185v166q-57 -100 -149 -148q-90 -47 -217 -47 q-170 0 -272.5 96.5t-102.5 258.5zM317 338q0 -102 61.5 -157.5t168.5 -55.5q152 0 239.5 106.5t87.5 290.5v41h-172h-61q-156 0 -242 -57q-82 -55 -82 -168zM319 1350v202h203v-202h-203zM711 1350v202h202v-202h-202z" />
<glyph unicode="&#xe5;" d="M133 326q0 186 125 284q123 96 369 97h247v28q0 133 -67.5 194.5t-214.5 61.5q-98 0 -190.5 -26.5t-186.5 -79.5v184q106 41 195 59q92 18 182 19q137 0 237 -41q98 -40 160 -123q39 -51 53 -123q16 -78 17 -221v-639h-185v166q-57 -100 -149 -148q-90 -47 -217 -47 q-170 0 -272.5 96.5t-102.5 258.5zM317 338q0 -102 61.5 -157.5t168.5 -55.5q152 0 239.5 106.5t87.5 290.5v41h-172h-61q-156 0 -242 -57q-82 -55 -82 -168zM342 1524q0 115 80 194.5t194.5 79.5t194.5 -80t80 -194.5t-80 -194.5t-194.5 -80t-194.5 80t-80 195zM465 1523.5 q0 -65.5 43 -108.5t108.5 -43t108.5 43t43 109q0 63 -43 106q-45 45 -109 45q-66 0 -108.5 -43t-42.5 -108.5z" />
<glyph unicode="&#xe6;" d="M41 307q0 172 100 260q102 90 291 90h117v88q0 120 -49 185q-49 63 -144 63q-55 0 -123 -22q-74 -25 -127 -60v168q84 37 144 51q70 16 125 17q92 0 153.5 -31t98.5 -96q33 59 98 94q63 33 156 33q174 0 247 -119q72 -117 72 -424v-90h-491q0 -4 -1 -15.5t-1 -17.5v-51 q0 -160 51 -233q49 -72 162 -72q80 0 143 25q66 25 115 77v-172q-59 -43 -121 -63.5t-137 -20.5q-109 0 -185 41t-106 119q-41 -84 -105 -121q-66 -39 -164 -39q-156 0 -237 86q-82 84 -82 250zM205 311q0 -86 45 -137q43 -49 127 -49q92 0 129 67.5t37 249.5v72h-49 q-170 0 -229.5 -45t-59.5 -158zM709 657h327v52q0 152 -39 217q-39 68 -125 67q-88 0 -124 -67q-39 -72 -39 -226v-43z" />
<glyph unicode="&#xe7;" d="M499 -240q33 -18 72 -24q49 -8 84 -8q57 0 88 24.5t31 69.5q0 29 -23 74q-18 39 -65 104h118q51 -57 82 -115q27 -51 27 -100q0 -90 -59.5 -135t-178.5 -45q-45 0 -88 6q-47 6 -88 18v131zM195 559q0 276 147 432t406 156q84 0 157 -21q78 -23 156 -65v-193 q-80 70 -146 95q-76 29 -167 28q-172 0 -267 -112q-92 -111 -92 -320q0 -203 94 -319q92 -113 265 -113q100 0 172 29q77 31 141 92v-191q-78 -45 -152 -65q-76 -20 -161 -21q-258 0 -405.5 156t-147.5 432z" />
<glyph unicode="&#xe8;" d="M123 559q0 270 143 428q143 160 385 160q215 0 338 -145.5t123 -395.5v-90h-797v-6q0 -182 94.5 -282.5t270.5 -100.5q86 0 184 29q109 31 205 84v-183q-111 -45 -203 -65q-94 -20 -188 -21q-260 0 -407.5 156t-147.5 432zM322 659h606q-4 164 -76 248t-209 84 q-133 0 -219 -88q-88 -90 -102 -244zM293 1638h198l281 -376h-154z" />
<glyph unicode="&#xe9;" d="M123 559q0 270 143 428q143 160 385 160q215 0 338 -145.5t123 -395.5v-90h-797v-6q0 -182 94.5 -282.5t270.5 -100.5q86 0 184 29q109 31 205 84v-183q-111 -45 -203 -65q-94 -20 -188 -21q-260 0 -407.5 156t-147.5 432zM322 659h606q-4 164 -76 248t-209 84 q-133 0 -219 -88q-88 -90 -102 -244zM489 1262l281 376h198l-325 -376h-154z" />
<glyph unicode="&#xea;" d="M123 559q0 270 143 428q143 160 385 160q215 0 338 -145.5t123 -395.5v-90h-797v-6q0 -182 94.5 -282.5t270.5 -100.5q86 0 184 29q109 31 205 84v-183q-111 -45 -203 -65q-94 -20 -188 -21q-260 0 -407.5 156t-147.5 432zM322 659h606q-4 164 -76 248t-209 84 q-133 0 -219 -88q-88 -90 -102 -244zM311 1262l246 376h147l246 -376h-139l-181 245l-180 -245h-139z" />
<glyph unicode="&#xeb;" d="M123 559q0 270 143 428q143 160 385 160q215 0 338 -145.5t123 -395.5v-90h-797v-6q0 -182 94.5 -282.5t270.5 -100.5q86 0 184 29q109 31 205 84v-183q-111 -45 -203 -65q-94 -20 -188 -21q-260 0 -407.5 156t-147.5 432zM322 659h606q-4 164 -76 248t-209 84 q-133 0 -219 -88q-88 -90 -102 -244zM333 1350v202h203v-202h-203zM725 1350v202h202v-202h-202z" />
<glyph unicode="&#xec;" d="M178 0v143h365v834h-287v143h471v-977h365v-143h-914zM279 1638h198l281 -376h-154z" />
<glyph unicode="&#xed;" d="M178 0v143h365v834h-287v143h471v-977h365v-143h-914zM475 1262l281 376h198l-325 -376h-154z" />
<glyph unicode="&#xee;" d="M178 0v143h365v834h-287v143h471v-977h365v-143h-914zM297 1262l246 376h147l246 -376h-139l-181 245l-180 -245h-139z" />
<glyph unicode="&#xef;" d="M178 0v143h365v834h-287v143h471v-977h365v-143h-914zM344 1350v202h203v-202h-203zM736 1350v202h202v-202h-202z" />
<glyph unicode="&#xf0;" d="M137 535q0 268 125 413q126 147 350 148h52q12 0 32 -4q-45 61 -69 90q-55 70 -74 88l-279 -92l-30 98l237 80l-182 200h219l127 -145l289 94l33 -98l-250 -80q199 -213 289 -401q90 -186 90 -391q0 -270 -125 -416q-127 -147 -354.5 -147.5t-354.5 147.5 q-125 146 -125 416zM332 535q0 -195 73.5 -301.5t211 -106.5t211 106.5t73.5 301.5q0 109 -29 213q-25 90 -79 170q-43 14 -76 20q-40 6 -86 6q-147 0 -223 -104q-76 -102 -76 -305z" />
<glyph unicode="&#xf1;" d="M195 0v1120h184v-168q49 96 133 146q82 49 199 49q170 0 256 -113q84 -111 84 -340v-694h-185v694q0 150 -53 221.5t-166 71.5q-127 0 -198 -92q-70 -90 -70 -262v-633h-184zM287 1309q0 133 53 209q53 74 141 73q43 0 72 -14q35 -18 68 -47l57 -55q16 -16 37 -29 q16 -10 30 -10q39 0 57.5 36.5t18.5 118.5h125q0 -137 -51 -209q-51 -74 -143 -73q-41 0 -70 14q-41 20 -70 47l-57 55q-16 16 -37 29q-16 10 -31 10q-39 0 -57 -37q-14 -31 -18 -118h-125z" />
<glyph unicode="&#xf2;" d="M137 559q0 286 123 436q123 152 356.5 152t356.5 -152q123 -151 123 -436q0 -289 -123 -438.5t-356.5 -149.5t-356.5 149.5t-123 438.5zM332 559q0 -211 71 -323q70 -109 213.5 -109t212.5 109q72 113 72 323q0 215 -71.5 323.5t-213 108.5t-213 -108.5t-71.5 -323.5z M279 1638h198l281 -376h-154z" />
<glyph unicode="&#xf3;" d="M137 559q0 286 123 436q123 152 356.5 152t356.5 -152q123 -151 123 -436q0 -289 -123 -438.5t-356.5 -149.5t-356.5 149.5t-123 438.5zM332 559q0 -211 71 -323q70 -109 213.5 -109t212.5 109q72 113 72 323q0 215 -71.5 323.5t-213 108.5t-213 -108.5t-71.5 -323.5z M475 1262l281 376h198l-325 -376h-154z" />
<glyph unicode="&#xf4;" d="M137 559q0 286 123 436q123 152 356.5 152t356.5 -152q123 -151 123 -436q0 -289 -123 -438.5t-356.5 -149.5t-356.5 149.5t-123 438.5zM332 559q0 -211 71 -323q70 -109 213.5 -109t212.5 109q72 113 72 323q0 215 -71.5 323.5t-213 108.5t-213 -108.5t-71.5 -323.5z M297 1262l246 376h147l246 -376h-139l-181 245l-180 -245h-139z" />
<glyph unicode="&#xf5;" d="M137 559q0 286 123 436q123 152 356.5 152t356.5 -152q123 -151 123 -436q0 -289 -123 -438.5t-356.5 -149.5t-356.5 149.5t-123 438.5zM332 559q0 -211 71 -323q70 -109 213.5 -109t212.5 109q72 113 72 323q0 215 -71.5 323.5t-213 108.5t-213 -108.5t-71.5 -323.5z M287 1309q0 133 53 209q53 74 141 73q43 0 72 -14q35 -18 68 -47l57 -55q16 -16 37 -29q16 -10 30 -10q39 0 57.5 36.5t18.5 118.5h125q0 -137 -51 -209q-51 -74 -143 -73q-41 0 -70 14q-41 20 -70 47l-57 55q-16 16 -37 29q-16 10 -31 10q-39 0 -57 -37q-14 -31 -18 -118 h-125z" />
<glyph unicode="&#xf6;" d="M137 559q0 286 123 436q123 152 356.5 152t356.5 -152q123 -151 123 -436q0 -289 -123 -438.5t-356.5 -149.5t-356.5 149.5t-123 438.5zM332 559q0 -211 71 -323q70 -109 213.5 -109t212.5 109q72 113 72 323q0 215 -71.5 323.5t-213 108.5t-213 -108.5t-71.5 -323.5z M319 1350v202h203v-202h-203zM711 1350v202h202v-202h-202z" />
<glyph unicode="&#xf7;" d="M88 557v170h1057v-170h-1057zM494 150v245h245v-245h-245zM494 889v246h245v-246h-245z" />
<glyph unicode="&#xf8;" d="M47 -20l170 200q-37 66 -59 168q-20 94 -21 211q0 286 123 436q123 152 356 152q100 0 179 -27q74 -27 139 -84l147 176l93 -77l-164 -195q41 -61 63.5 -161.5t22.5 -219.5q0 -289 -123 -438.5t-357 -149.5q-109 0 -182 29q-78 31 -135 90l-160 -186zM328 575 q0 -29 8 -106q6 -68 20 -129l461 557q-35 49 -84 72q-51 23 -117 22q-139 0 -213 -106q-75 -111 -75 -310zM414 221q39 -47 86 -71q45 -23 116 -23q143 0 213 109q72 113 72 323q0 51 -6 107q-6 57 -18 114z" />
<glyph unicode="&#xf9;" d="M195 424v694h184v-694q0 -150 53 -221.5t166 -71.5q131 0 199 92q70 94 69 262v633h185v-1118h-185v168q-49 -100 -133 -148q-86 -49 -198 -49q-174 0 -256 113q-84 115 -84 340zM279 1638h198l281 -376h-154z" />
<glyph unicode="&#xfa;" d="M195 424v694h184v-694q0 -150 53 -221.5t166 -71.5q131 0 199 92q70 94 69 262v633h185v-1118h-185v168q-49 -100 -133 -148q-86 -49 -198 -49q-174 0 -256 113q-84 115 -84 340zM475 1262l281 376h198l-325 -376h-154z" />
<glyph unicode="&#xfb;" d="M195 424v694h184v-694q0 -150 53 -221.5t166 -71.5q131 0 199 92q70 94 69 262v633h185v-1118h-185v168q-49 -100 -133 -148q-86 -49 -198 -49q-174 0 -256 113q-84 115 -84 340zM297 1262l246 376h147l246 -376h-139l-181 245l-180 -245h-139z" />
<glyph unicode="&#xfc;" d="M195 424v694h184v-694q0 -150 53 -221.5t166 -71.5q131 0 199 92q70 94 69 262v633h185v-1118h-185v168q-49 -100 -133 -148q-86 -49 -198 -49q-174 0 -256 113q-84 115 -84 340zM319 1350v202h203v-202h-203zM711 1350v202h202v-202h-202z" />
<glyph unicode="&#xfd;" d="M104 1120h195l332 -876l327 876h195l-295 -760l-117 -309q-96 -256 -133 -321q-45 -76 -114 -117q-66 -39 -162 -39h-148v154h109q80 0 127 47q45 45 117 243zM475 1262l281 376h198l-325 -376h-154z" />
<glyph unicode="&#xfe;" d="M190 -426v1993h185v-590q47 84 122.5 127t176.5 43q203 0 319 -158q115 -154 115 -434q0 -272 -117 -428t-317 -156q-101 0 -178 43q-78 43 -121 127v-567h-185zM375 559q0 -207 69 -321q68 -111 203 -111q133 0 200.5 108.5t67.5 323.5t-67.5 323.5t-200.5 108.5 q-135 0 -203 -110q-69 -115 -69 -322z" />
<glyph unicode="&#xff;" d="M104 1120h195l332 -876l327 876h195l-295 -760l-117 -309q-96 -256 -133 -321q-45 -76 -114 -117q-66 -39 -162 -39h-148v154h109q80 0 127 47q45 45 117 243zM319 1350v202h203v-202h-203zM711 1350v202h202v-202h-202z" />
<glyph unicode="&#x100;" d="M317 1692v147h598v-147h-598zM37 0l457 1493h245l457 -1493h-209l-110 389h-523l-108 -389h-209zM403 551h426l-213 764z" />
<glyph unicode="&#x101;" d="M317 1378v148h598v-148h-598zM133 326q0 186 125 284q123 96 369 97h247v28q0 133 -67.5 194.5t-214.5 61.5q-98 0 -190.5 -26.5t-186.5 -79.5v184q106 41 195 59q92 18 182 19q137 0 237 -41q98 -40 160 -123q39 -51 53 -123q16 -78 17 -221v-639h-185v166 q-57 -100 -149 -148q-90 -47 -217 -47q-170 0 -272.5 96.5t-102.5 258.5zM317 338q0 -102 61.5 -157.5t168.5 -55.5q152 0 239.5 106.5t87.5 290.5v41h-172h-61q-156 0 -242 -57q-82 -55 -82 -168z" />
<glyph unicode="&#x102;" d="M303 1901h119q12 -53 61 -82q51 -29 133 -29q84 0 131.5 26.5t63.5 84.5h119q-12 -121 -90 -181q-80 -61 -223.5 -61t-223.5 61q-78 60 -90 181zM37 0l457 1493h245l457 -1493h-209l-110 389h-523l-108 -389h-209zM403 551h426l-213 764z" />
<glyph unicode="&#x103;" d="M303 1608h119q12 -78 59 -113q49 -37 135 -37q84 0 134 37q45 35 61 113h119q-12 -145 -90 -215q-82 -72 -223.5 -72t-223.5 72q-78 70 -90 215zM133 326q0 186 125 284q123 96 369 97h247v28q0 133 -67.5 194.5t-214.5 61.5q-98 0 -190.5 -26.5t-186.5 -79.5v184 q106 41 195 59q92 18 182 19q137 0 237 -41q98 -40 160 -123q39 -51 53 -123q16 -78 17 -221v-639h-185v166q-57 -100 -149 -148q-90 -47 -217 -47q-170 0 -272.5 96.5t-102.5 258.5zM317 338q0 -102 61.5 -157.5t168.5 -55.5q152 0 239.5 106.5t87.5 290.5v41h-172h-61 q-156 0 -242 -57q-82 -55 -82 -168z" />
<glyph unicode="&#x104;" d="M875 -215q0 49 26 100q31 57 82 115h119q-46 -61 -67 -104q-20 -41 -21 -76q0 -49 27 -70q29 -23 82 -22q23 0 63 8q27 6 62 22v-133q-18 -4 -72 -14q-33 -6 -64 -6q-121 0 -180 43q-57 43 -57 137zM37 0l457 1493h245l457 -1493h-209l-110 389h-523l-108 -389h-209z M403 551h426l-213 764z" />
<glyph unicode="&#x105;" d="M764 -215q0 49 26 100q31 57 82 115h119q-46 -61 -67 -104q-20 -41 -21 -76q0 -49 27 -70q29 -23 82 -22q23 0 63 8q27 6 62 22v-133q-18 -4 -72 -14q-33 -6 -64 -6q-121 0 -180 43q-57 43 -57 137zM133 326q0 186 125 284q123 96 369 97h247v28q0 133 -67.5 194.5 t-214.5 61.5q-98 0 -190.5 -26.5t-186.5 -79.5v184q106 41 195 59q92 18 182 19q137 0 237 -41q98 -40 160 -123q39 -51 53 -123q16 -78 17 -221v-639h-185v166q-57 -100 -149 -148q-90 -47 -217 -47q-170 0 -272.5 96.5t-102.5 258.5zM317 338q0 -102 61.5 -157.5 t168.5 -55.5q152 0 239.5 106.5t87.5 290.5v41h-172h-61q-156 0 -242 -57q-82 -55 -82 -168z" />
<glyph unicode="&#x106;" d="M139 745q0 365 160 570t444 205q96 0 172 -21q82 -23 158 -61v-207q-74 61 -160 92q-92 33 -170 33q-197 0 -295 -151.5t-98 -459t98.5 -459t294.5 -151.5q80 0 172 33q82 29 158 92v-207q-76 -39 -158 -61q-76 -20 -172 -21q-287 0 -446 203q-158 200 -158 571z M565 1635l197 264h186l-229 -264h-154z" />
<glyph unicode="&#x107;" d="M195 559q0 276 147 432t406 156q84 0 157 -21q78 -23 156 -65v-193q-80 70 -146 95q-76 29 -167 28q-172 0 -267 -112q-92 -111 -92 -320q0 -203 94 -319q92 -113 265 -113q100 0 172 29q77 31 141 92v-191q-78 -45 -152 -65q-76 -20 -161 -21q-258 0 -405.5 156 t-147.5 432zM565 1262l281 376h198l-325 -376h-154z" />
<glyph unicode="&#x108;" d="M438 1643l211 266h189l211 -266h-140l-166 178l-165 -178h-140zM139 745q0 365 160 570t444 205q96 0 172 -21q82 -23 158 -61v-207q-74 61 -160 92q-92 33 -170 33q-197 0 -295 -151.5t-98 -459t98.5 -459t294.5 -151.5q80 0 172 33q82 29 158 92v-207q-76 -39 -158 -61 q-76 -20 -172 -21q-287 0 -446 203q-158 200 -158 571z" />
<glyph unicode="&#x109;" d="M387 1262l246 376h147l246 -376h-139l-181 245l-180 -245h-139zM195 559q0 276 147 432t406 156q84 0 157 -21q78 -23 156 -65v-193q-80 70 -146 95q-76 29 -167 28q-172 0 -267 -112q-92 -111 -92 -320q0 -203 94 -319q92 -113 265 -113q100 0 172 29q77 31 141 92v-191 q-78 -45 -152 -65q-76 -20 -161 -21q-258 0 -405.5 156t-147.5 432z" />
<glyph unicode="&#x10a;" d="M588 1667v205h207v-205h-207zM139 745q0 365 160 570t444 205q96 0 172 -21q82 -23 158 -61v-207q-74 61 -160 92q-92 33 -170 33q-197 0 -295 -151.5t-98 -459t98.5 -459t294.5 -151.5q80 0 172 33q82 29 158 92v-207q-76 -39 -158 -61q-76 -20 -172 -21 q-287 0 -446 203q-158 200 -158 571z" />
<glyph unicode="&#x10b;" d="M588 1348v204h207v-204h-207zM195 559q0 276 147 432t406 156q84 0 157 -21q78 -23 156 -65v-193q-80 70 -146 95q-76 29 -167 28q-172 0 -267 -112q-92 -111 -92 -320q0 -203 94 -319q92 -113 265 -113q100 0 172 29q77 31 141 92v-191q-78 -45 -152 -65 q-76 -20 -161 -21q-258 0 -405.5 156t-147.5 432z" />
<glyph unicode="&#x10c;" d="M139 745q0 365 160 570t444 205q96 0 172 -21q82 -23 158 -61v-207q-74 61 -160 92q-92 33 -170 33q-197 0 -295 -151.5t-98 -459t98.5 -459t294.5 -151.5q80 0 172 33q82 29 158 92v-207q-76 -39 -158 -61q-76 -20 -172 -21q-287 0 -446 203q-158 200 -158 571z M401 1901h140l165 -178l166 178h140l-211 -266h-189z" />
<glyph unicode="&#x10d;" d="M195 559q0 276 147 432t406 156q84 0 157 -21q78 -23 156 -65v-193q-80 70 -146 95q-76 29 -167 28q-172 0 -267 -112q-92 -111 -92 -320q0 -203 94 -319q92 -113 265 -113q100 0 172 29q77 31 141 92v-191q-78 -45 -152 -65q-76 -20 -161 -21q-258 0 -405.5 156 t-147.5 432zM387 1638h139l180 -245l181 245h139l-246 -376h-147z" />
<glyph unicode="&#x10e;" d="M137 0v1493h303q340 0 504 -182q162 -180 162 -566q0 -383 -162 -563q-164 -182 -504 -182h-303zM340 166h96q256 0 356.5 125t100.5 454q0 332 -100.5 457t-356.5 125h-96v-1161zM233 1895h140l165 -178l166 178h140l-211 -266h-189z" />
<glyph unicode="&#x10f;" d="M1044 1180l70 376h196l-112 -376h-154zM123 563q0 272 116.5 428t319.5 156q101 0 178 -43q78 -43 121 -127v579h184v-1556h-184v141q-47 -84 -123 -127t-176 -43q-203 0 -319.5 158t-116.5 434zM317 559q0 -215 68 -323.5t201 -108.5q132 0 202 111q70 109 70 321.5 t-70 321.5q-71 111 -202 110q-133 0 -201 -108.5t-68 -323.5z" />
<glyph unicode="&#x110;" d="M8 709v149h125v635h303q340 0 504 -182q162 -180 162 -566q0 -383 -162 -563q-164 -182 -504 -182h-303v709h-125zM340 166h96q256 0 356.5 125t100.5 454q0 332 -100.5 457t-356.5 125h-96v-469h264v-149h-264v-543z" />
<glyph unicode="&#x111;" d="M123 563q0 272 116.5 428t319.5 156q101 0 178 -43q78 -43 121 -127v309h-305v121h305v149h184v-149h191v-121h-191v-1286h-184v141q-47 -84 -123 -127t-176 -43q-203 0 -319.5 158t-116.5 434zM317 559q0 -215 68 -323.5t201 -108.5q132 0 202 111q70 109 70 321.5 t-70 321.5q-71 111 -202 110q-133 0 -201 -108.5t-68 -323.5z" />
<glyph unicode="&#x112;" d="M335 1692v147h598v-147h-598zM197 0v1493h886v-170h-684v-442h654v-170h-654v-541h703v-170h-905z" />
<glyph unicode="&#x113;" d="M352 1378v148h598v-148h-598zM123 559q0 270 143 428q143 160 385 160q215 0 338 -145.5t123 -395.5v-90h-797v-6q0 -182 94.5 -282.5t270.5 -100.5q86 0 184 29q109 31 205 84v-183q-111 -45 -203 -65q-94 -20 -188 -21q-260 0 -407.5 156t-147.5 432zM322 659h606 q-4 164 -76 248t-209 84q-133 0 -219 -88q-88 -90 -102 -244z" />
<glyph unicode="&#x114;" d="M321 1901h119q12 -53 61 -82q51 -29 133 -29q84 0 131.5 26.5t63.5 84.5h119q-12 -121 -90 -181q-80 -61 -223.5 -61t-223.5 61q-78 60 -90 181zM197 0v1493h886v-170h-684v-442h654v-170h-654v-541h703v-170h-905z" />
<glyph unicode="&#x115;" d="M317 1608h119q12 -78 59 -113q49 -37 135 -37q84 0 134 37q45 35 61 113h119q-12 -145 -90 -215q-82 -72 -223.5 -72t-223.5 72q-78 70 -90 215zM123 559q0 270 143 428q143 160 385 160q215 0 338 -145.5t123 -395.5v-90h-797v-6q0 -182 94.5 -282.5t270.5 -100.5 q86 0 184 29q109 31 205 84v-183q-111 -45 -203 -65q-94 -20 -188 -21q-260 0 -407.5 156t-147.5 432zM322 659h606q-4 164 -76 248t-209 84q-133 0 -219 -88q-88 -90 -102 -244z" />
<glyph unicode="&#x116;" d="M530 1667v205h207v-205h-207zM197 0v1493h886v-170h-684v-442h654v-170h-654v-541h703v-170h-905z" />
<glyph unicode="&#x117;" d="M526 1348v204h207v-204h-207zM123 559q0 270 143 428q143 160 385 160q215 0 338 -145.5t123 -395.5v-90h-797v-6q0 -182 94.5 -282.5t270.5 -100.5q86 0 184 29q109 31 205 84v-183q-111 -45 -203 -65q-94 -20 -188 -21q-260 0 -407.5 156t-147.5 432zM322 659h606 q-4 164 -76 248t-209 84q-133 0 -219 -88q-88 -90 -102 -244z" />
<glyph unicode="&#x118;" d="M725 -215q0 49 26 100q31 57 82 115h119q-46 -61 -67 -104q-20 -41 -21 -76q0 -49 27 -70q29 -23 82 -22q23 0 63 8q27 6 62 22v-133q-18 -4 -72 -14q-33 -6 -64 -6q-121 0 -180 43q-57 43 -57 137zM197 0v1493h886v-170h-684v-442h654v-170h-654v-541h703v-170h-905z " />
<glyph unicode="&#x119;" d="M666 -215q0 49 26 100q31 57 82 115h119q-46 -61 -67 -104q-20 -41 -21 -76q0 -49 27 -70q29 -23 82 -22q23 0 63 8q27 6 62 22v-133q-18 -4 -72 -14q-33 -6 -64 -6q-121 0 -180 43q-57 43 -57 137zM123 559q0 270 143 428q143 160 385 160q215 0 338 -145.5t123 -395.5 v-90h-797v-6q0 -182 94.5 -282.5t270.5 -100.5q86 0 184 29q109 31 205 84v-183q-111 -45 -203 -65q-94 -20 -188 -21q-260 0 -407.5 156t-147.5 432zM322 659h606q-4 164 -76 248t-209 84q-133 0 -219 -88q-88 -90 -102 -244z" />
<glyph unicode="&#x11a;" d="M197 0v1493h886v-170h-684v-442h654v-170h-654v-541h703v-170h-905zM348 1895h140l165 -178l166 178h140l-211 -266h-189z" />
<glyph unicode="&#x11b;" d="M123 559q0 270 143 428q143 160 385 160q215 0 338 -145.5t123 -395.5v-90h-797v-6q0 -182 94.5 -282.5t270.5 -100.5q86 0 184 29q109 31 205 84v-183q-111 -45 -203 -65q-94 -20 -188 -21q-260 0 -407.5 156t-147.5 432zM322 659h606q-4 164 -76 248t-209 84 q-133 0 -219 -88q-88 -90 -102 -244zM332 1634h139l180 -245l181 245h139l-246 -376h-147z" />
<glyph unicode="&#x11c;" d="M311 1635l211 266h189l211 -266h-140l-166 178l-165 -178h-140zM102 745q0 365 160 570t445 205q98 0 180 -27q94 -31 166 -80v-207q-78 76 -166 113q-86 37 -180 37q-199 0 -295 -152q-98 -154 -99 -459q0 -311 94.5 -460.5t294.5 -149.5q72 0 117 15q53 16 92 49v401 h-217v166h410v-643q-78 -72 -182 -113q-98 -39 -220 -39q-285 0 -442 203q-158 204 -158 571z" />
<glyph unicode="&#x11d;" d="M297 1262l246 376h147l246 -376h-139l-181 245l-180 -245h-139zM123 569q0 262 116.5 420t313.5 158q109 0 182 -43q78 -45 123 -133v145h184v-1044q0 -254 -118 -381q-121 -131 -351 -131q-82 0 -159 14q-96 18 -166 41v182q98 -46 178 -67q84 -23 147 -23 q150 0 217.5 80t67.5 258v8v125q-41 -92 -121 -139q-78 -47 -184 -47q-197 0 -313.5 157.5t-116.5 419.5zM317 569q0 -207 72 -315.5t207 -108.5q127 0 195 109q68 106 67 315q0 206 -67 314q-68 109 -197 108q-135 0 -207 -108q-70 -107 -70 -314z" />
<glyph unicode="&#x11e;" d="M352 1901h119q12 -53 61 -82q51 -29 133 -29q84 0 131.5 26.5t63.5 84.5h119q-12 -121 -90 -181q-80 -61 -223.5 -61t-223.5 61q-78 60 -90 181zM102 745q0 365 160 570t445 205q98 0 180 -27q94 -31 166 -80v-207q-78 76 -166 113q-86 37 -180 37q-199 0 -295 -152 q-98 -154 -99 -459q0 -311 94.5 -460.5t294.5 -149.5q72 0 117 15q53 16 92 49v401h-217v166h410v-643q-78 -72 -182 -113q-98 -39 -220 -39q-285 0 -442 203q-158 204 -158 571z" />
<glyph unicode="&#x11f;" d="M303 1608h119q12 -78 59 -113q49 -37 135 -37q84 0 134 37q45 35 61 113h119q-12 -145 -90 -215q-82 -72 -223.5 -72t-223.5 72q-78 70 -90 215zM123 569q0 262 116.5 420t313.5 158q109 0 182 -43q78 -45 123 -133v145h184v-1044q0 -254 -118 -381q-121 -131 -351 -131 q-82 0 -159 14q-96 18 -166 41v182q98 -46 178 -67q84 -23 147 -23q150 0 217.5 80t67.5 258v8v125q-41 -92 -121 -139q-78 -47 -184 -47q-197 0 -313.5 157.5t-116.5 419.5zM317 569q0 -207 72 -315.5t207 -108.5q127 0 195 109q68 106 67 315q0 206 -67 314 q-68 109 -197 108q-135 0 -207 -108q-70 -107 -70 -314z" />
<glyph unicode="&#x120;" d="M561 1667v205h207v-205h-207zM102 745q0 365 160 570t445 205q98 0 180 -27q94 -31 166 -80v-207q-78 76 -166 113q-86 37 -180 37q-199 0 -295 -152q-98 -154 -99 -459q0 -311 94.5 -460.5t294.5 -149.5q72 0 117 15q53 16 92 49v401h-217v166h410v-643 q-78 -72 -182 -113q-98 -39 -220 -39q-285 0 -442 203q-158 204 -158 571z" />
<glyph unicode="&#x121;" d="M512 1348v204h207v-204h-207zM123 569q0 262 116.5 420t313.5 158q109 0 182 -43q78 -45 123 -133v145h184v-1044q0 -254 -118 -381q-121 -131 -351 -131q-82 0 -159 14q-96 18 -166 41v182q98 -46 178 -67q84 -23 147 -23q150 0 217.5 80t67.5 258v8v125 q-41 -92 -121 -139q-78 -47 -184 -47q-197 0 -313.5 157.5t-116.5 419.5zM317 569q0 -207 72 -315.5t207 -108.5q127 0 195 109q68 106 67 315q0 206 -67 314q-68 109 -197 108q-135 0 -207 -108q-70 -107 -70 -314z" />
<glyph unicode="&#x122;" d="M535 -574l94 346h239l-186 -346h-147zM102 745q0 365 160 570t445 205q98 0 180 -27q94 -31 166 -80v-207q-78 76 -166 113q-86 37 -180 37q-199 0 -295 -152q-98 -154 -99 -459q0 -311 94.5 -460.5t294.5 -149.5q72 0 117 15q53 16 92 49v401h-217v166h410v-643 q-78 -72 -182 -113q-98 -39 -220 -39q-285 0 -442 203q-158 204 -158 571z" />
<glyph unicode="&#x123;" d="M485 1268l186 346h148l-94 -346h-240zM123 569q0 262 116.5 420t313.5 158q109 0 182 -43q78 -45 123 -133v145h184v-1044q0 -254 -118 -381q-121 -131 -351 -131q-82 0 -159 14q-96 18 -166 41v182q98 -46 178 -67q84 -23 147 -23q150 0 217.5 80t67.5 258v8v125 q-41 -92 -121 -139q-78 -47 -184 -47q-197 0 -313.5 157.5t-116.5 419.5zM317 569q0 -207 72 -315.5t207 -108.5q127 0 195 109q68 106 67 315q0 206 -67 314q-68 109 -197 108q-135 0 -207 -108q-70 -107 -70 -314z" />
<glyph unicode="&#x124;" d="M311 1635l211 266h189l211 -266h-140l-166 178l-165 -178h-140zM137 0v1493h203v-612h553v612h203v-1493h-203v711h-553v-711h-203z" />
<glyph unicode="&#x125;" d="M311 1635l211 266h189l211 -266h-140l-166 178l-165 -178h-140zM195 0v1556h184v-604q49 96 133 146q82 49 199 49q170 0 256 -113q84 -111 84 -340v-694h-185v694q0 150 -53 221.5t-166 71.5q-127 0 -198 -92q-70 -90 -70 -262v-633h-184z" />
<glyph unicode="&#x126;" d="M2 1106v164h135v223h203v-223h553v223h203v-223h135v-164h-135v-1106h-203v711h-553v-711h-203v1106h-135zM340 881h553v225h-553v-225z" />
<glyph unicode="&#x127;" d="M70 1270v164h125v122h184v-122h352v-164h-352v-318q49 96 133 146q82 49 199 49q170 0 256 -113q84 -111 84 -340v-694h-185v694q0 150 -53 221.5t-166 71.5q-127 0 -198 -92q-70 -90 -70 -262v-633h-184v1270h-125z" />
<glyph unicode="&#x128;" d="M287 1667q0 102 51 160q53 59 137 59q39 0 66 -8q39 -12 80 -35l57 -30q23 -12 39 -19q18 -6 33 -6q29 0 51 25q20 23 20 67v6h125q-4 -104 -53 -159q-53 -59 -135 -60q-37 0 -64 9q-37 10 -82 34l-57 33q-8 6 -41 19q-14 6 -27 6q-34 0 -55 -25q-20 -23 -20 -70v-6h-125 zM201 0v170h313v1153h-313v170h829v-170h-313v-1153h313v-170h-829z" />
<glyph unicode="&#x129;" d="M287 1309q0 133 53 209q53 74 141 73q43 0 72 -14q35 -18 68 -47l57 -55q16 -16 37 -29q16 -10 30 -10q39 0 57.5 36.5t18.5 118.5h125q0 -137 -51 -209q-51 -74 -143 -73q-41 0 -70 14q-41 20 -70 47l-57 55q-16 16 -37 29q-16 10 -31 10q-39 0 -57 -37 q-14 -31 -18 -118h-125zM178 0v143h365v834h-287v143h471v-977h365v-143h-914z" />
<glyph unicode="&#x12a;" d="M317 1692v147h598v-147h-598zM201 0v170h313v1153h-313v170h829v-170h-313v-1153h313v-170h-829z" />
<glyph unicode="&#x12b;" d="M317 1378v148h598v-148h-598zM178 0v143h365v834h-287v143h471v-977h365v-143h-914z" />
<glyph unicode="&#x12c;" d="M303 1901h119q12 -53 61 -82q51 -29 133 -29q84 0 131.5 26.5t63.5 84.5h119q-12 -121 -90 -181q-80 -61 -223.5 -61t-223.5 61q-78 60 -90 181zM201 0v170h313v1153h-313v170h829v-170h-313v-1153h313v-170h-829z" />
<glyph unicode="&#x12d;" d="M303 1608h119q12 -78 59 -113q49 -37 135 -37q84 0 134 37q45 35 61 113h119q-12 -145 -90 -215q-82 -72 -223.5 -72t-223.5 72q-78 70 -90 215zM178 0v143h365v834h-287v143h471v-977h365v-143h-914z" />
<glyph unicode="&#x12e;" d="M201 0v170h313v1153h-313v170h829v-170h-313v-1153h313v-170h-829zM490 -215q0 49 26 100q31 57 82 115h119q-46 -61 -67 -104q-20 -41 -21 -76q0 -49 27 -70q29 -23 82 -22q23 0 63 8q27 6 62 22v-133q-18 -4 -72 -14q-33 -6 -64 -6q-121 0 -180 43q-57 43 -57 137z" />
<glyph unicode="&#x12f;" d="M178 0v143h365v834h-287v143h471v-977h365v-143h-914zM543 1323v233h184v-233h-184zM500 -215q0 49 26 100q31 57 82 115h119q-46 -61 -67 -104q-20 -41 -21 -76q0 -49 27 -70q29 -23 82 -22q23 0 63 8q27 6 62 22v-133q-18 -4 -72 -14q-33 -6 -64 -6q-121 0 -180 43 q-57 43 -57 137z" />
<glyph unicode="&#x130;" d="M512 1667v205h207v-205h-207zM201 0v170h313v1153h-313v170h829v-170h-313v-1153h313v-170h-829z" />
<glyph unicode="&#x131;" d="M178 0v143h365v834h-287v143h471v-977h365v-143h-914z" />
<glyph unicode="&#x132;" d="M0 0v170h227v1153h-227v170h604v-170h-227v-1153h227v-170h-604zM651 63v236q61 -80 127 -121t137 -41q96 0 138 76q37 74 37 276v836h-259v170h398v-1006q0 -279 -74 -399q-71 -117 -240 -117q-61 0 -129 23q-64 21 -135 67z" />
<glyph unicode="&#x133;" d="M-4 0v143h299v834h-236v143h385v-977h301v-143h-749zM295 1323v233h149v-233h-149zM563 -281h236q89 0 135 62q45 59 45 188v998h-317v143h499v-1141q0 -199 -88 -301q-90 -104 -256 -104h-254v155zM979 1313v231h182v-231h-182z" />
<glyph unicode="&#x134;" d="M358 1635l211 266h189l211 -266h-140l-166 178l-165 -178h-140zM109 61v236q96 -84 188 -121q100 -41 201 -41q145 0 200.5 74t55.5 278v836h-381v170h583v-1006q0 -281 -106 -399q-104 -117 -352 -117q-90 0 -191 23q-92 20 -198 67z" />
<glyph unicode="&#x135;" d="M297 1262l246 376h147l246 -376h-139l-181 245l-180 -245h-139zM186 -270h234q88 0 135 63q45 59 45 187v997h-317v143h501v-1140q0 -193 -90 -299.5t-254 -106.5h-254v156z" />
<glyph unicode="&#x136;" d="M514 -545l94 346h239l-186 -346h-147zM137 0v1493h203v-664l631 664h237l-581 -610l598 -883h-244l-487 748l-154 -164v-584h-203z" />
<glyph unicode="&#x137;" d="M551 -545l94 346h239l-186 -346h-147zM236 0v1556h190v-901l483 465h224l-441 -422l510 -698h-225l-414 578l-137 -129v-449h-190z" />
<glyph unicode="&#x138;" d="M236 0v1120h190v-465l483 465h224l-441 -422l510 -698h-225l-414 578l-137 -129v-449h-190z" />
<glyph unicode="&#x139;" d="M201 1637l197 264h186l-229 -264h-154zM215 0v1493h203v-1323h721v-170h-924z" />
<glyph unicode="&#x13a;" d="M381 1637l197 264h186l-229 -264h-154zM160 1423v144h479v-1161q0 -123 45 -186.5t135 -63.5h215v-156h-233q-168 0 -256 106q-90 109 -90 300v1017h-295z" />
<glyph unicode="&#x13b;" d="M510 -545l94 346h239l-186 -346h-147zM215 0v1493h203v-1323h721v-170h-924z" />
<glyph unicode="&#x13c;" d="M404 -545l94 346h239l-186 -346h-147zM160 1423v144h479v-1161q0 -123 45 -186.5t135 -63.5h215v-156h-233q-168 0 -256 106q-90 109 -90 300v1017h-295z" />
<glyph unicode="&#x13d;" d="M649 1115l70 376h196l-112 -376h-154zM215 0v1493h203v-1323h721v-170h-924z" />
<glyph unicode="&#x13e;" d="M891 1190l70 376h196l-112 -376h-154zM160 1423v144h479v-1161q0 -123 45 -186.5t135 -63.5h215v-156h-233q-168 0 -256 106q-90 109 -90 300v1017h-295z" />
<glyph unicode="&#x13f;" d="M841 692v305h252v-305h-252zM215 0v1493h203v-1323h721v-170h-924z" />
<glyph unicode="&#x140;" d="M960 702v305h252v-305h-252zM160 1423v144h479v-1161q0 -123 45 -186.5t135 -63.5h215v-156h-233q-168 0 -256 106q-90 109 -90 300v1017h-295z" />
<glyph unicode="&#x141;" d="M-10 575l225 158v760h203v-616l315 219l78 -111l-393 -274v-541h721v-170h-924v571l-145 -106z" />
<glyph unicode="&#x142;" d="M76 600l379 264v559h-295v144h479v-578l315 219l80 -110l-395 -275v-417q0 -123 45 -186.5t135 -63.5h215v-156h-233q-168 0 -256 106q-90 109 -90 300v292l-299 -209z" />
<glyph unicode="&#x143;" d="M508 1635l197 264h186l-229 -264h-154zM139 0v1493h256l504 -1229v1229h195v-1493h-256l-504 1229v-1229h-195z" />
<glyph unicode="&#x144;" d="M495 1268l281 376h198l-325 -376h-154zM195 0v1120h184v-168q49 96 133 146q82 49 199 49q170 0 256 -113q84 -111 84 -340v-694h-185v694q0 150 -53 221.5t-166 71.5q-127 0 -198 -92q-70 -90 -70 -262v-633h-184z" />
<glyph unicode="&#x145;" d="M451 -545l94 346h239l-186 -346h-147zM139 0v1493h256l504 -1229v1229h195v-1493h-256l-504 1229v-1229h-195z" />
<glyph unicode="&#x146;" d="M455 -545l94 346h239l-186 -346h-147zM195 0v1120h184v-168q49 96 133 146q82 49 199 49q170 0 256 -113q84 -111 84 -340v-694h-185v694q0 150 -53 221.5t-166 71.5q-127 0 -198 -92q-70 -90 -70 -262v-633h-184z" />
<glyph unicode="&#x147;" d="M139 0v1493h256l504 -1229v1229h195v-1493h-256l-504 1229v-1229h-195zM354 1901h140l165 -178l166 178h140l-211 -266h-189z" />
<glyph unicode="&#x148;" d="M195 0v1120h184v-168q49 96 133 146q82 49 199 49q170 0 256 -113q84 -111 84 -340v-694h-185v694q0 150 -53 221.5t-166 71.5q-127 0 -198 -92q-70 -90 -70 -262v-633h-184zM285 1638h139l180 -245l181 245h139l-246 -376h-147z" />
<glyph unicode="&#x149;" d="M318 0v1120h184v-168q49 96 133 146q82 49 199 49q170 0 256 -113q84 -111 84 -340v-694h-185v694q0 150 -53 221.5t-166 71.5q-127 0 -198 -92q-70 -90 -70 -262v-633h-184zM25 967l98 383v206h252v-206l-197 -383h-153z" />
<glyph unicode="&#x14a;" d="M147 0v1493h201v-199q55 113 148 170q90 57 217 58q186 0 280 -131q92 -129 92 -392v-1019q0 -193 -90 -299q-88 -106 -254 -107h-204v156h165q89 0 136 61q45 63 45 209v1010q0 176 -60 264q-57 84 -182 84q-137 0 -215 -108.5t-78 -311.5v-938h-201z" />
<glyph unicode="&#x14b;" d="M195 0v1120h184v-168q49 96 133 146q82 49 199 49q174 0 256 -113q84 -109 84 -340v-714q0 -197 -88 -299q-88 -106 -256 -107h-205v156h184q89 0 135 61q45 63 45 189v714q0 150 -53 221.5t-166 71.5q-129 0 -198 -90q-70 -94 -70 -264v-633h-184z" />
<glyph unicode="&#x14c;" d="M317 1692v147h598v-147h-598zM117 745q0 391 123 582q125 193 376.5 193t376.5 -193q123 -190 123 -581.5t-123 -581.5q-125 -193 -377 -193q-254 0 -376.5 190.5t-122.5 583.5zM328 745.5q0 -327.5 67.5 -469t221 -141.5t221 141.5t67.5 469t-67.5 469t-221 141.5 t-221 -141.5t-67.5 -469z" />
<glyph unicode="&#x14d;" d="M317 1378v148h598v-148h-598zM137 559q0 286 123 436q123 152 356.5 152t356.5 -152q123 -151 123 -436q0 -289 -123 -438.5t-356.5 -149.5t-356.5 149.5t-123 438.5zM332 559q0 -211 71 -323q70 -109 213.5 -109t212.5 109q72 113 72 323q0 215 -71.5 323.5t-213 108.5 t-213 -108.5t-71.5 -323.5z" />
<glyph unicode="&#x14e;" d="M303 1901h119q12 -53 61 -82q51 -29 133 -29q84 0 131.5 26.5t63.5 84.5h119q-12 -121 -90 -181q-80 -61 -223.5 -61t-223.5 61q-78 60 -90 181zM117 745q0 391 123 582q125 193 376.5 193t376.5 -193q123 -190 123 -581.5t-123 -581.5q-125 -193 -377 -193 q-254 0 -376.5 190.5t-122.5 583.5zM328 745.5q0 -327.5 67.5 -469t221 -141.5t221 141.5t67.5 469t-67.5 469t-221 141.5t-221 -141.5t-67.5 -469z" />
<glyph unicode="&#x14f;" d="M303 1608h119q12 -78 59 -113q49 -37 135 -37q84 0 134 37q45 35 61 113h119q-12 -145 -90 -215q-82 -72 -223.5 -72t-223.5 72q-78 70 -90 215zM137 559q0 286 123 436q123 152 356.5 152t356.5 -152q123 -151 123 -436q0 -289 -123 -438.5t-356.5 -149.5t-356.5 149.5 t-123 438.5zM332 559q0 -211 71 -323q70 -109 213.5 -109t212.5 109q72 113 72 323q0 215 -71.5 323.5t-213 108.5t-213 -108.5t-71.5 -323.5z" />
<glyph unicode="&#x150;" d="M344 1634l197 264h186l-229 -264h-154zM664 1634l196 264h187l-230 -264h-153zM117 745q0 391 123 582q125 193 376.5 193t376.5 -193q123 -190 123 -581.5t-123 -581.5q-125 -193 -377 -193q-254 0 -376.5 190.5t-122.5 583.5zM328 745.5q0 -327.5 67.5 -469t221 -141.5 t221 141.5t67.5 469t-67.5 469t-221 141.5t-221 -141.5t-67.5 -469z" />
<glyph unicode="&#x151;" d="M344 1262l191 376h170l-224 -376h-137zM664 1262l204 376h179l-248 -376h-135zM137 559q0 286 123 436q123 152 356.5 152t356.5 -152q123 -151 123 -436q0 -289 -123 -438.5t-356.5 -149.5t-356.5 149.5t-123 438.5zM332 559q0 -211 71 -323q70 -109 213.5 -109 t212.5 109q72 113 72 323q0 215 -71.5 323.5t-213 108.5t-213 -108.5t-71.5 -323.5z" />
<glyph unicode="&#x152;" d="M72 745q0 416 122.5 582t417.5 166h594v-170h-358v-442h328v-170h-328v-541h369v-170h-605q-295 0 -417.5 165.5t-122.5 579.5zM274 745q0 -348 70 -460q72 -115 246 -115h61v1153h-61q-174 0 -246 -115q-70 -113 -70 -463z" />
<glyph unicode="&#x153;" d="M14 559q0 315 84 451q86 137 275 137q89 0 153 -31q63 -31 111 -96q35 59 102 94q63 33 152 33q178 0 248 -119q72 -121 71 -424v-90h-491v-84q0 -164 49 -235.5t162 -71.5q84 0 145 27q72 31 113 77v-172q-55 -41 -121 -63q-59 -20 -137 -21q-100 0 -172 33 q-68 31 -121 100q-51 -66 -117 -100q-63 -33 -147 -33q-188 0 -275 138q-84 135 -84 450zM190 559q0 -272 39 -352q41 -84 143.5 -84t143.5 84q41 86 41 323q0 289 -41 377t-143.5 88t-143.5 -84q-39 -80 -39 -352zM719 657h328q0 4 1 13.5t1 15.5v29q0 147 -39 213 q-39 68 -127 67q-84 0 -125 -69q-39 -66 -39 -226v-43z" />
<glyph unicode="&#x154;" d="M399 1635l197 264h186l-229 -264h-154zM143 0v1493h416q244 0 377 -111q131 -111 131 -321q0 -150 -80 -242q-80 -94 -227 -114q80 -23 133 -76.5t137 -220.5l203 -408h-217l-178 377q-78 162 -138 207q-63 47 -161 47h-193v-631h-203zM346 797h221q143 0 215 65.5 t72 198.5q0 131 -76 199q-78 68 -219 67h-213v-530z" />
<glyph unicode="&#x155;" d="M682 1268l281 376h198l-325 -376h-154zM362 0v1120h185v-219q45 117 141 182q94 63 227 64q76 0 127 -17q61 -20 113 -53v-188q-57 45 -121 67q-59 20 -133 21q-170 0 -262 -109q-92 -106 -92 -311v-557h-185z" />
<glyph unicode="&#x156;" d="M523 -545l94 346h239l-186 -346h-147zM143 0v1493h416q244 0 377 -111q131 -111 131 -321q0 -150 -80 -242q-80 -94 -227 -114q80 -23 133 -76.5t137 -220.5l203 -408h-217l-178 377q-78 162 -138 207q-63 47 -161 47h-193v-631h-203zM346 797h221q143 0 215 65.5 t72 198.5q0 131 -76 199q-78 68 -219 67h-213v-530z" />
<glyph unicode="&#x157;" d="M287 -545l94 346h239l-186 -346h-147zM362 0v1120h185v-219q45 117 141 182q94 63 227 64q76 0 127 -17q61 -20 113 -53v-188q-57 45 -121 67q-59 20 -133 21q-170 0 -262 -109q-92 -106 -92 -311v-557h-185z" />
<glyph unicode="&#x158;" d="M143 0v1493h416q244 0 377 -111q131 -111 131 -321q0 -150 -80 -242q-80 -94 -227 -114q80 -23 133 -76.5t137 -220.5l203 -408h-217l-178 377q-78 162 -138 207q-63 47 -161 47h-193v-631h-203zM346 797h221q143 0 215 65.5t72 198.5q0 131 -76 199q-78 68 -219 67h-213 v-530zM252 1895h140l165 -178l166 178h140l-211 -266h-189z" />
<glyph unicode="&#x159;" d="M362 0v1120h185v-219q45 117 141 182q94 63 227 64q76 0 127 -17q61 -20 113 -53v-188q-57 45 -121 67q-59 20 -133 21q-170 0 -262 -109q-92 -106 -92 -311v-557h-185zM387 1638h139l180 -245l181 245h139l-246 -376h-147z" />
<glyph unicode="&#x15a;" d="M500 1635l197 264h186l-229 -264h-154zM139 1079q0 200 135 320q137 121 357 121q86 0 180 -19q92 -18 201 -59v-205q-88 55 -185 88q-92 31 -186 31q-145 0 -225 -66q-84 -68 -84 -180q0 -98 55 -151.5t203 -86.5l106 -24q211 -49 305 -154q96 -106 97 -286 q0 -213 -131 -324q-135 -113 -385 -113q-98 0 -211 23q-104 20 -213 67v215q109 -70 217 -106q104 -35 207 -35q152 0 237.5 67.5t85.5 192.5q0 111 -59 170q-61 61 -203 92l-108 25q-205 45 -302 141q-94 94 -94 256z" />
<glyph unicode="&#x15b;" d="M502 1268l281 376h198l-325 -376h-154zM213 41v190q109 -55 197 -79q92 -27 178 -27q121 0 188.5 49t67.5 139q0 127 -246 176l-6 3l-70 14q-158 31 -231.5 104.5t-73.5 200.5q0 162 109 248q111 88 311 88q86 0 174 -17q82 -14 162 -49v-180q-86 49 -160 70 q-84 23 -162 22q-123 0 -186 -41q-61 -40 -62 -123q0 -76 46 -112q47 -39 229 -72l74 -14q135 -25 209 -105q70 -76 69 -202q0 -166 -119 -261q-117 -92 -327 -92q-92 0 -174 17q-74 14 -197 53z" />
<glyph unicode="&#x15c;" d="M311 1635l211 266h189l211 -266h-140l-166 178l-165 -178h-140zM139 1079q0 200 135 320q137 121 357 121q86 0 180 -19q92 -18 201 -59v-205q-88 55 -185 88q-92 31 -186 31q-145 0 -225 -66q-84 -68 -84 -180q0 -98 55 -151.5t203 -86.5l106 -24q211 -49 305 -154 q96 -106 97 -286q0 -213 -131 -324q-135 -113 -385 -113q-98 0 -211 23q-104 20 -213 67v215q109 -70 217 -106q104 -35 207 -35q152 0 237.5 67.5t85.5 192.5q0 111 -59 170q-61 61 -203 92l-108 25q-205 45 -302 141q-94 94 -94 256z" />
<glyph unicode="&#x15d;" d="M297 1262l246 376h147l246 -376h-139l-181 245l-180 -245h-139zM213 41v190q109 -55 197 -79q92 -27 178 -27q121 0 188.5 49t67.5 139q0 127 -246 176l-6 3l-70 14q-158 31 -231.5 104.5t-73.5 200.5q0 162 109 248q111 88 311 88q86 0 174 -17q82 -14 162 -49v-180 q-86 49 -160 70q-84 23 -162 22q-123 0 -186 -41q-61 -40 -62 -123q0 -76 46 -112q47 -39 229 -72l74 -14q135 -25 209 -105q70 -76 69 -202q0 -166 -119 -261q-117 -92 -327 -92q-92 0 -174 17q-74 14 -197 53z" />
<glyph unicode="&#x15e;" d="M395 -240q33 -18 72 -24q49 -8 84 -8q57 0 88 24.5t31 69.5q0 29 -23 74q-18 39 -65 104h118q51 -57 82 -115q27 -51 27 -100q0 -90 -59.5 -135t-178.5 -45q-45 0 -88 6q-47 6 -88 18v131zM139 1079q0 200 135 320q137 121 357 121q86 0 180 -19q92 -18 201 -59v-205 q-88 55 -185 88q-92 31 -186 31q-145 0 -225 -66q-84 -68 -84 -180q0 -98 55 -151.5t203 -86.5l106 -24q211 -49 305 -154q96 -106 97 -286q0 -213 -131 -324q-135 -113 -385 -113q-98 0 -211 23q-104 20 -213 67v215q109 -70 217 -106q104 -35 207 -35q152 0 237.5 67.5 t85.5 192.5q0 111 -59 170q-61 61 -203 92l-108 25q-205 45 -302 141q-94 94 -94 256z" />
<glyph unicode="&#x15f;" d="M395 -240q33 -18 72 -24q49 -8 84 -8q57 0 88 24.5t31 69.5q0 29 -23 74q-18 39 -65 104h118q51 -57 82 -115q27 -51 27 -100q0 -90 -59.5 -135t-178.5 -45q-45 0 -88 6q-47 6 -88 18v131zM213 41v190q109 -55 197 -79q92 -27 178 -27q121 0 188.5 49t67.5 139 q0 127 -246 176l-6 3l-70 14q-158 31 -231.5 104.5t-73.5 200.5q0 162 109 248q111 88 311 88q86 0 174 -17q82 -14 162 -49v-180q-86 49 -160 70q-84 23 -162 22q-123 0 -186 -41q-61 -40 -62 -123q0 -76 46 -112q47 -39 229 -72l74 -14q135 -25 209 -105q70 -76 69 -202 q0 -166 -119 -261q-117 -92 -327 -92q-92 0 -174 17q-74 14 -197 53z" />
<glyph unicode="&#x160;" d="M139 1079q0 200 135 320q137 121 357 121q86 0 180 -19q92 -18 201 -59v-205q-88 55 -185 88q-92 31 -186 31q-145 0 -225 -66q-84 -68 -84 -180q0 -98 55 -151.5t203 -86.5l106 -24q211 -49 305 -154q96 -106 97 -286q0 -213 -131 -324q-135 -113 -385 -113 q-98 0 -211 23q-104 20 -213 67v215q109 -70 217 -106q104 -35 207 -35q152 0 237.5 67.5t85.5 192.5q0 111 -59 170q-61 61 -203 92l-108 25q-205 45 -302 141q-94 94 -94 256zM311 1901h140l165 -178l166 178h140l-211 -266h-189z" />
<glyph unicode="&#x161;" d="M213 41v190q109 -55 197 -79q92 -27 178 -27q121 0 188.5 49t67.5 139q0 127 -246 176l-6 3l-70 14q-158 31 -231.5 104.5t-73.5 200.5q0 162 109 248q111 88 311 88q86 0 174 -17q82 -14 162 -49v-180q-86 49 -160 70q-84 23 -162 22q-123 0 -186 -41q-61 -40 -62 -123 q0 -76 46 -112q47 -39 229 -72l74 -14q135 -25 209 -105q70 -76 69 -202q0 -166 -119 -261q-117 -92 -327 -92q-92 0 -174 17q-74 14 -197 53zM297 1638h139l180 -245l181 245h139l-246 -376h-147z" />
<glyph unicode="&#x162;" d="M395 -240q33 -18 72 -24q49 -8 84 -8q57 0 88 24.5t31 69.5q0 29 -23 74q-18 39 -65 104h118q51 -57 82 -115q27 -51 27 -100q0 -90 -59.5 -135t-178.5 -45q-45 0 -88 6q-47 6 -88 18v131zM47 1323v170h1139v-170h-467v-1323h-203v1323h-469z" />
<glyph unicode="&#x163;" d="M516 -240q33 -18 72 -24q49 -8 84 -8q57 0 88 24.5t31 69.5q0 29 -23 74q-18 39 -65 104h118q51 -57 82 -115q27 -51 27 -100q0 -90 -59.5 -135t-178.5 -45q-45 0 -88 6q-47 6 -88 18v131zM131 977v143h299v318h184v-318h418v-143h-418v-608q0 -121 48 -172 q47 -49 163 -50h207v-147h-225q-205 0 -293 84q-84 82 -84 285v608h-299z" />
<glyph unicode="&#x164;" d="M47 1323v170h1139v-170h-467v-1323h-203v1323h-469zM317 1901h140l165 -178l166 178h140l-211 -266h-189z" />
<glyph unicode="&#x165;" d="M131 977v143h299v318h184v-318h418v-143h-418v-608q0 -121 48 -172q47 -49 163 -50h207v-147h-225q-205 0 -293 84q-84 82 -84 285v608h-299zM751 1287l70 376h196l-112 -376h-154z" />
<glyph unicode="&#x166;" d="M47 1323v170h1139v-170h-467v-575h264v-170h-264v-578h-203v578h-264v170h264v575h-469z" />
<glyph unicode="&#x167;" d="M131 977v143h299v318h184v-318h418v-143h-418v-234h230v-141h-230v-233q0 -121 48 -172q47 -49 163 -50h207v-147h-225q-205 0 -293 84q-84 82 -84 285v233h-229v141h229v234h-299z" />
<glyph unicode="&#x168;" d="M287 1667q0 102 51 160q53 59 137 59q39 0 66 -8q39 -12 80 -35l57 -30q23 -12 39 -19q18 -6 33 -6q29 0 51 25q20 23 20 67v6h125q-4 -104 -53 -159q-53 -59 -135 -60q-37 0 -64 9q-37 10 -82 34l-57 33q-8 6 -41 19q-14 6 -27 6q-34 0 -55 -25q-20 -23 -20 -70v-6h-125 zM147 573v920h203v-1012q0 -109 6 -155q6 -49 21 -72q31 -57 92 -88t147 -31t148 31q57 29 92 88q14 23 21 72q6 46 6 153v1014h202v-920q0 -227 -28 -325q-28 -95 -99 -160q-68 -61 -151 -88q-90 -29 -190.5 -29t-190.5 29q-80 25 -152 88q-72 66 -98 160q-29 102 -29 325z " />
<glyph unicode="&#x169;" d="M287 1309q0 133 53 209q53 74 141 73q43 0 72 -14q35 -18 68 -47l57 -55q16 -16 37 -29q16 -10 30 -10q39 0 57.5 36.5t18.5 118.5h125q0 -137 -51 -209q-51 -74 -143 -73q-41 0 -70 14q-41 20 -70 47l-57 55q-16 16 -37 29q-16 10 -31 10q-39 0 -57 -37 q-14 -31 -18 -118h-125zM195 424v694h184v-694q0 -150 53 -221.5t166 -71.5q131 0 199 92q70 94 69 262v633h185v-1118h-185v168q-49 -100 -133 -148q-86 -49 -198 -49q-174 0 -256 113q-84 115 -84 340z" />
<glyph unicode="&#x16a;" d="M317 1692v147h598v-147h-598zM147 573v920h203v-1012q0 -109 6 -155q6 -49 21 -72q31 -57 92 -88t147 -31t148 31q57 29 92 88q14 23 21 72q6 46 6 153v1014h202v-920q0 -227 -28 -325q-28 -95 -99 -160q-68 -61 -151 -88q-90 -29 -190.5 -29t-190.5 29q-80 25 -152 88 q-72 66 -98 160q-29 102 -29 325z" />
<glyph unicode="&#x16b;" d="M317 1378v148h598v-148h-598zM195 424v694h184v-694q0 -150 53 -221.5t166 -71.5q131 0 199 92q70 94 69 262v633h185v-1118h-185v168q-49 -100 -133 -148q-86 -49 -198 -49q-174 0 -256 113q-84 115 -84 340z" />
<glyph unicode="&#x16c;" d="M303 1901h119q12 -53 61 -82q51 -29 133 -29q84 0 131.5 26.5t63.5 84.5h119q-12 -121 -90 -181q-80 -61 -223.5 -61t-223.5 61q-78 60 -90 181zM147 573v920h203v-1012q0 -109 6 -155q6 -49 21 -72q31 -57 92 -88t147 -31t148 31q57 29 92 88q14 23 21 72q6 46 6 153 v1014h202v-920q0 -227 -28 -325q-28 -95 -99 -160q-68 -61 -151 -88q-90 -29 -190.5 -29t-190.5 29q-80 25 -152 88q-72 66 -98 160q-29 102 -29 325z" />
<glyph unicode="&#x16d;" d="M303 1608h119q12 -78 59 -113q49 -37 135 -37q84 0 134 37q45 35 61 113h119q-12 -145 -90 -215q-82 -72 -223.5 -72t-223.5 72q-78 70 -90 215zM195 424v694h184v-694q0 -150 53 -221.5t166 -71.5q131 0 199 92q70 94 69 262v633h185v-1118h-185v168q-49 -100 -133 -148 q-86 -49 -198 -49q-174 0 -256 113q-84 115 -84 340z" />
<glyph unicode="&#x16e;" d="M147 573v920h203v-1012q0 -109 6 -155q6 -49 21 -72q31 -57 92 -88t147 -31t148 31q57 29 92 88q14 23 21 72q6 46 6 153v1014h202v-920q0 -227 -28 -325q-28 -95 -99 -160q-68 -61 -151 -88q-90 -29 -190.5 -29t-190.5 29q-80 25 -152 88q-72 66 -98 160 q-29 102 -29 325zM352 1860q0 115 80 194.5t194.5 79.5t194.5 -80t80 -194.5t-80 -194.5t-194.5 -80t-194.5 80t-80 195zM475 1859.5q0 -65.5 43 -108.5t108.5 -43t108.5 43t43 109q0 63 -43 106q-45 45 -109 45q-66 0 -108.5 -43t-42.5 -108.5z" />
<glyph unicode="&#x16f;" d="M195 424v694h184v-694q0 -150 53 -221.5t166 -71.5q131 0 199 92q70 94 69 262v633h185v-1118h-185v168q-49 -100 -133 -148q-86 -49 -198 -49q-174 0 -256 113q-84 115 -84 340zM356 1479q0 115 80 194.5t194.5 79.5t194.5 -80t80 -194.5t-80 -194.5t-194.5 -80 t-194.5 80t-80 195zM479 1478.5q0 -65.5 43 -108.5t108.5 -43t108.5 43t43 109q0 63 -43 106q-45 45 -109 45q-66 0 -108.5 -43t-42.5 -108.5z" />
<glyph unicode="&#x170;" d="M344 1634l197 264h186l-229 -264h-154zM664 1634l196 264h187l-230 -264h-153zM147 573v920h203v-1012q0 -109 6 -155q6 -49 21 -72q31 -57 92 -88t147 -31t148 31q57 29 92 88q14 23 21 72q6 46 6 153v1014h202v-920q0 -227 -28 -325q-28 -95 -99 -160q-68 -61 -151 -88 q-90 -29 -190.5 -29t-190.5 29q-80 25 -152 88q-72 66 -98 160q-29 102 -29 325z" />
<glyph unicode="&#x171;" d="M344 1262l191 376h170l-224 -376h-137zM664 1262l204 376h179l-248 -376h-135zM195 424v694h184v-694q0 -150 53 -221.5t166 -71.5q131 0 199 92q70 94 69 262v633h185v-1118h-185v168q-49 -100 -133 -148q-86 -49 -198 -49q-174 0 -256 113q-84 115 -84 340z" />
<glyph unicode="&#x172;" d="M147 573v920h203v-1012q0 -109 6 -155q6 -49 21 -72q31 -57 92 -88t147 -31t148 31q57 29 92 88q14 23 21 72q6 46 6 153v1014h202v-920q0 -227 -28 -325q-28 -95 -99 -160q-68 -61 -151 -88q-90 -29 -190.5 -29t-190.5 29q-80 25 -152 88q-72 66 -98 160 q-29 102 -29 325zM449 -231q0 49 26 100q31 57 82 115h119q-46 -61 -67 -104q-20 -41 -21 -76q0 -49 27 -70q29 -23 82 -22q23 0 63 8q27 6 62 22v-133q-18 -4 -72 -14q-33 -6 -64 -6q-121 0 -180 43q-57 43 -57 137z" />
<glyph unicode="&#x173;" d="M195 424v694h184v-694q0 -150 53 -221.5t166 -71.5q131 0 199 92q70 94 69 262v633h185v-1118h-185v168q-49 -100 -133 -148q-86 -49 -198 -49q-174 0 -256 113q-84 115 -84 340zM828 -215q0 49 26 100q31 57 82 115h119q-46 -61 -67 -104q-20 -41 -21 -76q0 -49 27 -70 q29 -23 82 -22q23 0 63 8q27 6 62 22v-133q-18 -4 -72 -14q-33 -6 -64 -6q-121 0 -180 43q-57 43 -57 137z" />
<glyph unicode="&#x174;" d="M311 1643l211 266h189l211 -266h-140l-166 178l-165 -178h-140zM0 1493h197l143 -1212l170 802h211l172 -804l143 1214h197l-223 -1493h-191l-203 887l-202 -887h-191z" />
<glyph unicode="&#x175;" d="M297 1268l246 376h147l246 -376h-139l-181 245l-180 -245h-139zM0 1120h182l195 -905l160 578h157l162 -578l195 905h182l-262 -1120h-176l-179 614l-178 -614h-176z" />
<glyph unicode="&#x176;" d="M311 1643l211 266h189l211 -266h-140l-166 178l-165 -178h-140zM37 1493h215l364 -659l363 659h217l-479 -823v-670h-203v670z" />
<glyph unicode="&#x177;" d="M309 1268l246 376h147l246 -376h-139l-181 245l-180 -245h-139zM104 1120h195l332 -876l327 876h195l-295 -760l-117 -309q-96 -256 -133 -321q-45 -76 -114 -117q-66 -39 -162 -39h-148v154h109q80 0 127 47q45 45 117 243z" />
<glyph unicode="&#x178;" d="M37 1493h215l364 -659l363 659h217l-479 -823v-670h-203v670zM319 1667v203h203v-203h-203zM711 1667v203h202v-203h-202z" />
<glyph unicode="&#x179;" d="M502 1635l197 264h186l-229 -264h-154zM156 0v154l759 1169h-737v170h969v-154l-780 -1169h802v-170h-1013z" />
<glyph unicode="&#x17a;" d="M561 1268l281 376h198l-325 -376h-154zM203 0v170l643 805h-619v147h813v-168l-643 -804h643v-150h-837z" />
<glyph unicode="&#x17b;" d="M561 1667v205h207v-205h-207zM156 0v154l759 1169h-737v170h969v-154l-780 -1169h802v-170h-1013z" />
<glyph unicode="&#x17c;" d="M512 1348v204h207v-204h-207zM203 0v170l643 805h-619v147h813v-168l-643 -804h643v-150h-837z" />
<glyph unicode="&#x17d;" d="M156 0v154l759 1169h-737v170h969v-154l-780 -1169h802v-170h-1013zM311 1901h140l165 -178l166 178h140l-211 -266h-189z" />
<glyph unicode="&#x17e;" d="M203 0v170l643 805h-619v147h813v-168l-643 -804h643v-150h-837zM297 1638h139l180 -245l181 245h139l-246 -376h-147z" />
<glyph unicode="&#x17f;" d="M195 977v143h299v78q0 186 84 270q88 88 264 88h221v-153h-209q-96 0 -137 -41q-39 -39 -39 -143v-1219h-184v977h-299z" />
<glyph unicode="&#x180;" d="M70 1270v164h123v122h184v-122h2h352v-164h-352h-2v-293q43 84 121 127q76 43 180 43q201 0 317.5 -155.5t116.5 -428.5q0 -276 -116.5 -434t-319.5 -158q-98 0 -176 43q-76 43 -123 127v-141h-184v1270h-123zM377 559q0 -207 69 -321q68 -111 203 -111q133 0 201 108.5 t68 323.5t-68 323.5t-201 108.5q-135 0 -203 -110q-69 -115 -69 -322z" />
<glyph unicode="&#x181;" d="M20 1079v70q0 162 84 252q86 92 234 92h321q231 0 354.5 -98.5t123.5 -280.5q0 -135 -66 -217q-61 -76 -197 -98q150 -23 232 -125q84 -106 84 -264q0 -201 -133 -306q-131 -104 -398 -104h-321v1327q-63 0 -112.5 -43t-49.5 -156v-49h-156zM541 166h118q178 0 252 61.5 t74 202.5q0 150 -78 215q-80 68 -248 68h-118v-547zM541 877h114q145 0 213 57q66 55 66 180q0 115 -65.5 164t-213.5 49h-114v-450z" />
<glyph unicode="&#x182;" d="M166 0v1493h901v-166h-698v-450h235q379 -16 479 -205q53 -102 54 -262q0 -201 -133 -306q-131 -104 -396 -104h-442zM369 166h239q176 0 250 61q76 63 76 203q0 147 -80 215t-246 68h-239v-547z" />
<glyph unicode="&#x183;" d="M193 0v1556h751v-184h-567v-395q43 84 121 127q76 43 180 43q201 0 317.5 -155.5t116.5 -428.5q0 -276 -116.5 -434t-319.5 -158q-98 0 -176 43q-76 43 -123 127v-141h-184zM377 559q0 -207 69 -321q68 -111 203 -111q133 0 201 108.5t68 323.5t-68 323.5t-201 108.5 q-135 0 -203 -110q-69 -115 -69 -322z" />
<glyph unicode="&#x184;" d="M47 1176l371 317v-616h233q381 -16 482 -205q53 -102 53 -262q0 -201 -133 -306q-131 -104 -398 -104h-442v948zM418 166h237q178 0 252 61.5t74 202.5q0 147 -78 213q-82 70 -248 70h-237v-547z" />
<glyph unicode="&#x185;" d="M59 1176l379 380v-579q43 84 121 127q77 43 178 43q201 0 320 -156q115 -154 114 -428q0 -283 -114 -436q-117 -156 -322 -156q-100 0 -176 43q-74 41 -121 127v-141h-184v948zM438 559q0 -211 68 -321q72 -111 205 -111q131 0 198 109q70 111 70 323.5t-70 323.5 q-68 109 -198 108q-133 0 -205 -108q-68 -111 -68 -324z" />
<glyph unicode="&#x186;" d="M139 53v207q76 -63 158 -92q92 -33 172 -33q197 0 295 151.5t98 459t-98 459t-295 151.5q-78 0 -170 -33q-86 -31 -160 -92v207q76 39 158 61q76 20 172 21q285 0 444.5 -205t159.5 -570q0 -371 -158 -571q-160 -203 -446 -203q-96 0 -172 21q-82 22 -158 61z" />
<glyph unicode="&#x187;" d="M59 745q0 295 160 502q160 205 445 205q94 0 170 -20q23 57 63 102q86 104 256 104h21v-155q-83 0 -136 -62q-45 -55 -45 -188v-70q-76 63 -157 92q-92 33 -172 33q-197 0 -295 -151q-98 -150 -99 -392q0 -307 98.5 -458.5t295.5 -151.5q80 0 172 33q82 29 157 92v-207 q-76 -39 -157 -61q-76 -20 -172 -21q-285 0 -445 202.5t-160 571.5z" />
<glyph unicode="&#x188;" d="M94 559.5q0 278.5 146 431.5q147 156 407 156q66 0 137 -17q18 117 80 187q86 104 254 104h21v-155q-89 0 -135 -62q-43 -61 -43 -188v-148q-78 68 -148 95q-76 29 -166 28q-172 0 -266 -112q-92 -111 -92 -320q0 -206 92 -319t266 -113q100 0 172 29q77 31 142 92v-191 q-78 -45 -154 -65.5t-160 -20.5q-260 0 -407 156q-146 154 -146 432.5z" />
<glyph unicode="&#x189;" d="M8 709v149h125v635h303q340 0 504 -182q162 -180 162 -566q0 -383 -162 -563q-164 -182 -504 -182h-303v709h-125zM340 166h96q256 0 356.5 125t100.5 454q0 332 -100.5 457t-356.5 125h-96v-469h264v-149h-264v-543z" />
<glyph unicode="&#x18a;" d="M8 1079v70q0 178 96 262q94 82 222 82h233q340 0 504 -182q162 -180 162 -566q0 -383 -162 -563q-164 -182 -504 -182h-233v1327q-49 0 -113 -47q-49 -37 -49 -152v-49h-156zM528 166h27q256 0 356.5 125t100.5 454q0 332 -100.5 457t-356.5 125h-27v-1161z" />
<glyph unicode="&#x18b;" d="M131 410q0 160 53 262q100 188 480 205h235v450h-698v166h901v-1493h-443q-262 0 -395 104.5t-133 305.5zM334 430q0 -139 76 -203q74 -61 249 -61h240v547h-240q-166 0 -245.5 -68t-79.5 -215z" />
<glyph unicode="&#x18c;" d="M158 563q0 274 114 428q117 156 320 156q101 0 178 -43q80 -45 123 -127v395h-569v184h751v-1556h-182v141q-47 -84 -123 -127q-78 -43 -176 -43q-203 0 -319.5 158t-116.5 434zM350 559q0 -213 70 -323q68 -109 201 -109q135 0 202 111q70 115 70 321.5t-70 321.5 q-68 111 -202 110q-133 0 -201 -108q-70 -111 -70 -324z" />
<glyph unicode="&#x18d;" d="M135 559q0 289 123 438.5t358 149.5q233 0 356.5 -149.5t123.5 -438.5q0 -286 -123 -436q-29 -35 -76 -72q20 -10 59 -49q63 -63 64 -154q0 -133 -119 -217q-119 -82 -315 -82q-104 0 -154 13l-149 35v174q57 -23 135 -39.5t147 -16.5h21l30 2q74 2 134 45l38 27 q27 25 27 72q0 33 -12 51q-18 25 -58 45q-29 14 -129 14q-236 4 -356 152q-125 153 -125 436zM332 559q0 -215 71.5 -323.5t212.5 -108.5q139 0 211 108.5t72 323.5q0 209 -72 322q-70 111 -211 110.5t-213 -110.5q-71 -113 -71 -322z" />
<glyph unicode="&#x18e;" d="M197 0v170h702v541h-653v170h653v442h-684v170h887v-1493h-905z" />
<glyph unicode="&#x18f;" d="M117 745v82h786v9q0 242 -67.5 381t-219.5 139q-80 0 -172 -33q-82 -29 -157 -92v207q76 39 157 61q76 20 172 21q252 0 377 -193q123 -190 123 -581.5t-123 -581.5q-125 -193 -377 -193q-254 0 -376.5 190.5t-122.5 583.5zM332 643q0 -250 69 -377q72 -131 219.5 -131 t210.5 127q61 125 72 381h-571z" />
<glyph unicode="&#x190;" d="M137 412q0 150 78 250q76 96 225 137q-133 35 -200.5 114.5t-67.5 204.5q0 178 131 291q129 111 348 111q66 0 168 -17q84 -14 215 -47v-186q-92 35 -198 59q-90 20 -185 21q-133 0 -207 -62q-72 -59 -71 -176q0 -109 77.5 -170t217.5 -61h153v-166h-153q-154 0 -242 -76 t-88 -207q0 -143 88 -217q90 -74 256 -74q90 0 197 27q96 25 200 78v-201q-104 -37 -210.5 -55.5t-209.5 -18.5q-246 0 -383 117q-139 117 -139 324z" />
<glyph unicode="&#x191;" d="M63 -270h138q89 0 135 61q45 63 45 189v1513h788v-170h-585v-440h524v-170h-524v-733q0 -193 -90 -299q-88 -106 -254 -107h-177v156z" />
<glyph unicode="&#x192;" d="M195 977v143h297v78q0 180 86 272q35 37 98 60q76 27 166 26h10h2h209v-153h-209h-2q-94 0 -135 -41q-39 -43 -39 -143v-99h385v-143h-385v-997q0 -213 -80 -310q-84 -96 -264 -96h-70v156h49q106 0 143.5 49t37.5 201l-2 997h-297z" />
<glyph unicode="&#x193;" d="M51 745q0 360 162 570q160 205 442 205q86 0 181 -27q8 -2 17 -4t17 -6q25 41 35 51q86 104 256 104h21v-155q-83 0 -135 -62q-45 -57 -46 -188v-27q-80 76 -163 113q-86 37 -183 37q-199 0 -295 -152q-98 -154 -98 -459q0 -309 96 -460q94 -150 293 -150q68 0 117 15 q52 15 92 49v401h-217v166h412v-643q-80 -72 -185 -113q-98 -39 -219 -39q-283 0 -440 203q-160 206 -160 571z" />
<glyph unicode="&#x194;" d="M29 1354h215l372 -555l371 555h219l-477 -705q326 -453 326 -844q0 -236 -416 -235q-440 0 -440 235q0 371 293 852zM401 -129q0 -139 217 -139q203 0 203 139q0 324 -221 625q-199 -306 -199 -625z" />
<glyph unicode="&#x195;" d="M66 0v1556h165v-604q76 133 95 146q74 49 159 49q119 0 195 -112.5t76 -340.5v-288h-2q0 -150 34 -201q37 -52 93 -49q18 4 73 75q47 66 47 222v411h166v-411q0 -227 -75.5 -340t-229.5 -113q-127 0 -200.5 96.5t-73.5 309.5v288q0 150 -47 221.5t-115 71.5 q-72 0 -133.5 -92t-61.5 -262v-633h-165z" />
<glyph unicode="&#x196;" d="M201 1323v170h829v-170h-313v-901q0 -125 45 -189q47 -63 135 -63h184v-170h-217q-170 0 -262 106q-88 100 -88 300v917h-313z" />
<glyph unicode="&#x197;" d="M201 0v170h313v408h-262v170h262v575h-313v170h829v-170h-313v-575h2h264v-170h-264h-2v-408h313v-170h-829z" />
<glyph unicode="&#x198;" d="M111 0v1493h202v-664l334 351q160 170 266 182q29 4 41 4q123 0 217 -100l48 -52l-107 -112l-33 37q-45 51 -104 51q-12 0 -37 -4q-66 -16 -174 -131l-164 -172l598 -883h-244l-487 748l-154 -164v-584h-202z" />
<glyph unicode="&#x199;" d="M236 0v1001v150q0 193 90 299q88 106 254 106h204v-155h-184q-88 0 -135 -64q-43 -61 -43 -186h4v-496l483 465h224l-441 -422l510 -698h-225l-414 578l-137 -129v-449h-190z" />
<glyph unicode="&#x19a;" d="M160 1423v144h479v-824h8h221v-141h-221h-8v-196q0 -123 45 -186.5t135 -63.5h215v-156h-233q-168 0 -256 106q-90 109 -90 300v196h-228v141h228v680h-295z" />
<glyph unicode="&#x19b;" d="M49 848l385 264l-174 381h191l129 -281l348 242l80 -108l-371 -259l496 -1087h-191l-321 705l-330 -705h-191l424 913l-32 74l-363 -252z" />
<glyph unicode="&#x19c;" d="M109 471v1022h167v-1014q0 -240 27 -295q27 -57 96 -57q80 0 111 61q29 57 29 291v1014h168v-1014q0 -240 28 -297q27 -55 102.5 -55t102.5 61q29 63 29 291v1014h166v-1493h-166v96q-33 -61 -84 -92q-49 -31 -113 -31q-74 0 -125 35q-53 37 -80 107q-35 -74 -86 -107 q-53 -35 -127 -35q-135 0 -190 104.5t-55 393.5z" />
<glyph unicode="&#x19d;" d="M29 -270q82 0 121 61q41 63 40 189v1513h230l454 -1229v1229h175v-1493h-230l-452 1229v-1249q0 -193 -82 -299q-80 -106 -230 -107h-26v156z" />
<glyph unicode="&#x19e;" d="M195 0v1120h184v-168q49 96 133 146q82 49 199 49q170 0 256 -113q84 -111 84 -340v-1124h-185v1124q0 150 -53 221.5t-166 71.5q-127 0 -198 -92q-70 -90 -70 -262v-633h-184z" />
<glyph unicode="&#x19f;" d="M117 745q0 391 123 582q125 193 376.5 193t376.5 -193q123 -190 123 -581.5t-123 -581.5q-125 -193 -377 -193q-254 0 -376.5 190.5t-122.5 583.5zM330 827h573q-10 268 -65 387q-68 141 -221.5 141.5t-221.5 -141.5q-55 -119 -65 -387zM330 643q10 -254 65 -367 q68 -141 221.5 -141t221.5 141q57 119 65 367h-573z" />
<glyph unicode="&#x1a0;" d="M797 1292v119q61 -46 104 -67q41 -20 74 -21q49 0 70 27q23 29 22 82q0 33 -6 63q-6 27 -22 62h133q4 -18 14 -72q4 -23 4 -64q0 -121 -43 -180q-43 -57 -135 -57q-51 0 -103 27q-53 28 -112 81zM6 745q0 391 123 582q125 193 376.5 193t376.5 -193q123 -190 123 -581.5 t-123 -581.5q-125 -193 -377 -193q-254 0 -376.5 190.5t-122.5 583.5zM217 745.5q0 -327.5 67.5 -469t221 -141.5t221 141.5t67.5 469t-67.5 469t-221 141.5t-221 -141.5t-67.5 -469z" />
<glyph unicode="&#x1a1;" d="M807 872v119q61 -46 104 -67q41 -20 74 -21q49 0 70 27q23 29 22 82q0 33 -6 63q-6 27 -22 62h133q4 -18 14 -72q4 -23 4 -64q0 -121 -43 -180q-43 -57 -135 -57q-51 0 -103 27q-53 28 -112 81zM33 559q0 286 123 436q123 152 356.5 152t356.5 -152q123 -151 123 -436 q0 -289 -123 -438.5t-356.5 -149.5t-356.5 149.5t-123 438.5zM228 559q0 -211 71 -323q70 -109 213.5 -109t212.5 109q72 113 72 323q0 215 -71.5 323.5t-213 108.5t-213 -108.5t-71.5 -323.5z" />
<glyph unicode="&#x1a2;" d="M45 745q0 672 334 760q49 14 115 15q207 0 317 -158l147 131h230v-1493h-174v1229l-180 -160v-905q-113 -193 -340.5 -193t-338 190.5t-110.5 583.5zM236 745.5q0 -331.5 59 -469.5q61 -141 198.5 -141t198.5 141v938q-61 141 -198.5 141.5t-198.5 -141.5 q-59 -137 -59 -468.5z" />
<glyph unicode="&#x1a3;" d="M86 559q0 436 250 551q80 37 180 37q211 0 322 -152v-43l127 111h229v-1493h-174v1229l-182 -158v-518q-111 -152 -322 -152q-233 0 -344 189q-86 147 -86 399zM262 559q0 -396 215 -430q12 -2 39 -2q127 0 193 109v647q-66 109 -193 108q-205 0 -246 -286 q-8 -58 -8 -146z" />
<glyph unicode="&#x1a4;" d="M55 1079v70q0 178 97 262q98 82 223 82h295q403 0 487 -293q20 -76 21 -153q0 -347 -314 -424q-90 -23 -194 -23h-95v-600h-200v1327q-51 0 -115 -47q-47 -35 -47 -152v-49h-158zM575 766h95q209 0 274 158q23 57 23 123q0 133 -78 206.5t-219 73.5h-95v-561z" />
<glyph unicode="&#x1a5;" d="M190 -426v1452q0 301 203 381q65 25 142 25h204v-156h-184q-169 0 -178 -221q0 -6 -1 -14.5t-1 -14.5v-49q92 164 284 170h15q203 0 319 -158q115 -154 115 -434q0 -272 -117 -428t-317 -156q-101 0 -178 43q-78 43 -121 127v-567h-185zM375 559q0 -377 209 -426 q27 -6 63 -6q133 0 200.5 108.5t67.5 323.5q0 416 -251 432h-17q-215 0 -260 -272q-12 -71 -12 -160z" />
<glyph unicode="&#x1a6;" d="M143 0v1493h203v-264h213q244 0 377 -111q131 -111 131 -321q0 -150 -80 -242q-80 -94 -227 -115q82 -23 133 -74t137 -223l203 -407h-217l-178 377q-78 162 -138 206q-63 47 -161 48h-193v-367h-203zM346 532h221q143 0 215 66t72 199q0 131 -76 198q-78 68 -219 68 h-213v-531z" />
<glyph unicode="&#x1a7;" d="M139 408q0 180 97 286q94 104 305 154l106 24q147 33 202.5 86.5t55.5 151.5q0 113 -84 180q-80 66 -225 66q-94 0 -186 -31q-96 -33 -185 -88v205q109 41 201 59q94 18 180 19q219 0 357 -121q135 -120 135 -320q0 -162 -94 -256q-96 -96 -302 -141l-108 -25 q-141 -31 -203 -92q-59 -59 -59 -170q0 -125 86 -192.5t237 -67.5q102 0 207 35q109 37 217 106v-215q-109 -47 -213 -67q-113 -23 -211 -23q-250 0 -385 113q-131 111 -131 324z" />
<glyph unicode="&#x1a8;" d="M213 324q0 127 70 202q74 80 209 105l73 14q182 33 230 72q45 37 45 112q0 83 -62 123q-63 41 -186 41q-80 0 -164 -22q-70 -18 -158 -70v180q80 35 162 49q88 16 174 17q201 0 312 -88q109 -86 108 -248q0 -127 -73.5 -200.5t-231.5 -104.5l-70 -14l-8 -3 q-244 -49 -244 -176q0 -90 68 -139t188 -49q86 0 179 27q88 25 196 79v-190q-121 -39 -196 -53q-82 -16 -175 -17q-211 0 -327 92q-119 95 -119 261z" />
<glyph unicode="&#x1a9;" d="M121 0v170l452 578l-452 575v170h1012v-170h-801l454 -575l-454 -578h801v-170h-1012z" />
<glyph unicode="&#x1aa;" d="M119 1339q0 217 303 217q178 0 262 -96q53 -66 72 -176h190v-154h-180l-2 -1218q0 -106 39 -145q37 -39 135 -39h176v-154h-174q-195 0 -274 86q-88 94 -88 272v1198h-191q-268 0 -268 209zM272 1335q-2 -27 28 -39t89 -12h178q-6 46 -24 68q-35 49 -144 49 q-123 0 -127 -66z" />
<glyph unicode="&#x1ab;" d="M131 977v143h299v318h184v-318h418v-143h-418v-608q0 -121 48 -172q47 -49 163 -50h207v-147v-20q0 -193 -90 -299q-88 -106 -254 -107h-205v156h185q89 0 135 61q45 63 45 189v20h-41q-205 0 -293 84q-84 82 -84 285v608h-299z" />
<glyph unicode="&#x1ac;" d="M47 1079v70q0 178 96 262q94 82 310 82h733v-170h-467v-1323h-203v1323l-63 4q-129 8 -201 -47q-49 -37 -49 -152v-49h-156z" />
<glyph unicode="&#x1ad;" d="M131 977v143h297v31q0 193 90 299q88 106 254 106h207v-155h-186q-88 0 -136 -64q-43 -61 -43 -186v-31h418v-143h-418v-608q0 -121 48 -172q47 -49 163 -50h207v-147h-225q-205 0 -293 84q-84 82 -84 285v608h-299z" />
<glyph unicode="&#x1ae;" d="M47 1323v170h1139v-170h-467v-1343q0 -125 45 -189q47 -61 133 -61h186v-156h-223q-168 0 -256 107q-88 102 -88 299v1343h-469z" />
<glyph unicode="&#x1af;" d="M830 1296v119q61 -46 104 -67q41 -20 74 -21q49 0 70 27q23 29 22 82q0 33 -6 63q-6 27 -22 62h133q4 -18 14 -72q4 -23 4 -64q0 -121 -43 -180q-43 -57 -135 -57q-51 0 -103 27q-53 28 -112 81zM10 573v920h203v-1012q0 -109 6 -155q6 -49 21 -72q31 -57 92 -88t147 -31 t148 31q57 29 92 88q14 23 21 72q6 46 6 153v1014h202v-920q0 -227 -28 -325q-28 -95 -99 -160q-68 -61 -151 -88q-90 -29 -190.5 -29t-190.5 29q-80 25 -152 88q-72 66 -98 160q-29 102 -29 325z" />
<glyph unicode="&#x1b0;" d="M801 872v119q61 -46 104 -67q41 -20 74 -21q49 0 70 27q23 29 22 82q0 33 -6 63q-6 27 -22 62h133q4 -18 14 -72q4 -23 4 -64q0 -121 -43 -180q-43 -57 -135 -57q-51 0 -103 27q-53 28 -112 81zM39 424v694h184v-694q0 -150 53 -221.5t166 -71.5q131 0 199 92 q70 94 69 262v633h185v-1118h-185v168q-49 -100 -133 -148q-86 -49 -198 -49q-174 0 -256 113q-84 115 -84 340z" />
<glyph unicode="&#x1b1;" d="M74 1288v172h463v-172q-119 -76 -186.5 -241.5t-67.5 -384.5q0 -229 90 -362.5t243.5 -133.5t243.5 133t90 363q0 219 -67.5 384.5t-186.5 241.5v172h463v-172h-246q123 -135 179 -278q55 -144 55 -332q0 -311 -143 -494q-143 -184 -385 -184t-386 182q-145 186 -145 496 q0 187 55 332q57 147 179 278h-248z" />
<glyph unicode="&#x1b2;" d="M154 406v1087h204v-1071q0 -127 43 -189q45 -63 136 -63q154 0 243.5 133t89.5 363q0 221 -67 387q-66 162 -187 239h218q125 -137 178 -276q55 -143 55 -334q0 -307 -145 -494q-147 -188 -416 -188q-170 0 -262 106q-90 103 -90 300z" />
<glyph unicode="&#x1b3;" d="M16 1493h195l328 -659l198 401q98 199 207 242q46 18 92 18q84 0 156 -57l25 -19l-72 -135l-10 10q-34 31 -74 31q-27 0 -60 -16q-51 -25 -127 -168l-245 -471v-670h-183v670z" />
<glyph unicode="&#x1b4;" d="M25 1120h194l350 -876l279 698q49 127 131 168q45 23 94 23q51 0 105 -21l47 -16l-54 -148l-26 10q-23 10 -51 11q-43 0 -60 -41l-411 -1032q-78 -197 -154 -261q-74 -61 -197 -61h-147v154h108q74 0 117 36.5t94 169.5l33 84z" />
<glyph unicode="&#x1b5;" d="M156 0v154l274 424h-178v170h289l374 575h-737v170h969v-154l-395 -591h231v-170h-264h-80l-272 -408h802v-170h-1013z" />
<glyph unicode="&#x1b6;" d="M156 453v163h399l287 359h-621v147h813v-168l-268 -338h311v-163h-354h-88l-244 -303h643v-150h-835v170l225 283h-268z" />
<glyph unicode="&#x1b7;" d="M27 434h200q0 -143 101 -217q100 -76 288 -76q184 0 289 76q100 74 101 217q0 133 -93 207q-98 76 -258 76h-174v166l371 440h-737v170h968v-168l-374 -440q100 0 233 -58q100 -43 184 -149q80 -104 80 -244q0 -221 -151.5 -342t-431.5 -121q-293 0 -444.5 121 t-151.5 342z" />
<glyph unicode="&#x1b8;" d="M27 434q0 141 82 244q84 106 184 149q133 57 233 58l-376 440v168h968v-170h-735l369 -440v-166h-174q-164 0 -259 -76q-92 -74 -92 -207q0 -143 101 -217q100 -76 288 -76q184 0 289 76q100 74 101 217h200q0 -221 -151.5 -342t-444.5 -121q-281 0 -432 121t-151 342z " />
<glyph unicode="&#x1b9;" d="M125 27q0 135 82 241q88 111 182 152q129 55 236 55l-412 477v168h874v-147h-667l430 -500v-166h-174q-166 0 -258 -73.5t-92 -206.5q0 -143 100 -217q100 -76 289 -76q108 0 209 24.5t184 73.5v-194q-111 -37 -207 -56q-98 -18 -192 -18q-281 0 -432.5 121t-151.5 342z " />
<glyph unicode="&#x1ba;" d="M172 973v147h875v-168l-355 -411q369 0 369 -230q0 -276 -465 -325q-225 -25 -225 -121q0 -139 327 -139q88 0 162 20q76 20 160 66v-179q-96 -35 -166 -45q-80 -14 -184 -14q-479 0 -480 281q0 240 406 290q285 37 285 136q0 125 -236 125h-291l486 567h-668z" />
<glyph unicode="&#x1bb;" d="M152 0v170l383 408h-283v170h432q104 129 135 213q23 63 23 122q0 182 -150 244q-61 23 -125 23q-180 0 -403 -133v204q209 98 399 99q219 0 352.5 -117t133.5 -305q0 -100 -45 -193q-29 -61 -101 -157h80v-170h-229l-56 -64l-325 -344h686v-170h-907z" />
<glyph unicode="&#x1bc;" d="M27 434h200q0 -180 158 -252q94 -41 231 -41q315 0 377 201q12 43 13 92q0 133 -93 207q-98 76 -258 76h-440v776h924v-170h-721v-438h291q100 0 233 -58q100 -43 184 -149q80 -100 80 -244q0 -221 -151.5 -342t-431.5 -121q-430 0 -553 256q-43 92 -43 207z" />
<glyph unicode="&#x1bd;" d="M125 -168q169 -98 393 -98q309 0 375 194q14 43 14 99q0 133 -92 206.5t-258 73.5h-301v813h754v-184h-570v-461h168q111 0 236 -55q94 -41 182 -152q82 -106 82 -241q0 -221 -151.5 -342t-432.5 -121q-187 0 -399 74v194z" />
<glyph unicode="&#x1be;" d="M195 41v172q158 -86 315 -86q178 0 276 115q59 66 60 196q0 113 -76 195q-88 94 -260 94h-64v270h-229v164h229v277h203v-277h232v-164h-232v-125q164 -27 273 -139q117 -120 116 -295q0 -188 -108 -311q-137 -156 -414 -156q-174 0 -321 70z" />
<glyph unicode="&#x1bf;" d="M125 -426v1546h184v-170q51 63 189 148q80 49 290 49q182 0 261 -113q78 -115 77 -266q0 -424 -817 -891v-303h-184zM309 59q627 399 627 650q0 135 -57 198q-55 66 -177 66q-221 0 -393 -240v-674z" />
<glyph unicode="&#x1c0;" d="M516 0v1493h203v-1493h-203z" />
<glyph unicode="&#x1c1;" d="M313 0v1493h203v-1493h-203zM719 0v1493h203v-1493h-203z" />
<glyph unicode="&#x1c2;" d="M164 512v170h352v240h-352v168h352v403h203v-403h348v-168h-348v-240h348v-170h-348v-512h-203v512h-352z" />
<glyph unicode="&#x1c3;" d="M516 0v254h203v-254h-203zM516 838v655h203v-655l-21 -357h-161z" />
<glyph unicode="&#x1cd;" d="M37 0l457 1493h245l457 -1493h-209l-110 389h-523l-108 -389h-209zM403 551h426l-213 764zM311 1901h140l165 -178l166 178h140l-211 -266h-189z" />
<glyph unicode="&#x1ce;" d="M133 326q0 186 125 284q123 96 369 97h247v28q0 133 -67.5 194.5t-214.5 61.5q-98 0 -190.5 -26.5t-186.5 -79.5v184q106 41 195 59q92 18 182 19q137 0 237 -41q98 -40 160 -123q39 -51 53 -123q16 -78 17 -221v-639h-185v166q-57 -100 -149 -148q-90 -47 -217 -47 q-170 0 -272.5 96.5t-102.5 258.5zM317 338q0 -102 61.5 -157.5t168.5 -55.5q152 0 239.5 106.5t87.5 290.5v41h-172h-61q-156 0 -242 -57q-82 -55 -82 -168zM297 1638h139l180 -245l181 245h139l-246 -376h-147z" />
<glyph unicode="&#x1cf;" d="M201 0v170h313v1153h-313v170h829v-170h-313v-1153h313v-170h-829zM311 1901h140l165 -178l166 178h140l-211 -266h-189z" />
<glyph unicode="&#x1d0;" d="M178 0v143h365v834h-287v143h471v-977h365v-143h-914zM297 1638h139l180 -245l181 245h139l-246 -376h-147z" />
<glyph unicode="&#x1d1;" d="M117 745q0 391 123 582q125 193 376.5 193t376.5 -193q123 -190 123 -581.5t-123 -581.5q-125 -193 -377 -193q-254 0 -376.5 190.5t-122.5 583.5zM328 745.5q0 -327.5 67.5 -469t221 -141.5t221 141.5t67.5 469t-67.5 469t-221 141.5t-221 -141.5t-67.5 -469zM311 1901 h140l165 -178l166 178h140l-211 -266h-189z" />
<glyph unicode="&#x1d2;" d="M137 559q0 286 123 436q123 152 356.5 152t356.5 -152q123 -151 123 -436q0 -289 -123 -438.5t-356.5 -149.5t-356.5 149.5t-123 438.5zM332 559q0 -211 71 -323q70 -109 213.5 -109t212.5 109q72 113 72 323q0 215 -71.5 323.5t-213 108.5t-213 -108.5t-71.5 -323.5z M297 1638h139l180 -245l181 245h139l-246 -376h-147z" />
<glyph unicode="&#x1d3;" d="M147 573v920h203v-1012q0 -109 6 -155q6 -49 21 -72q31 -57 92 -88t147 -31t148 31q57 29 92 88q14 23 21 72q6 46 6 153v1014h202v-920q0 -227 -28 -325q-28 -95 -99 -160q-68 -61 -151 -88q-90 -29 -190.5 -29t-190.5 29q-80 25 -152 88q-72 66 -98 160 q-29 102 -29 325zM311 1901h140l165 -178l166 178h140l-211 -266h-189z" />
<glyph unicode="&#x1d4;" d="M195 424v694h184v-694q0 -150 53 -221.5t166 -71.5q131 0 199 92q70 94 69 262v633h185v-1118h-185v168q-49 -100 -133 -148q-86 -49 -198 -49q-174 0 -256 113q-84 115 -84 340zM297 1638h139l180 -245l181 245h139l-246 -376h-147z" />
<glyph unicode="&#x1d5;" d="M319 1544v203h203v-203h-203zM711 1544v203h202v-203h-202zM147 573v920h203v-1012q0 -109 6 -155q6 -49 21 -72q31 -57 92 -88t147 -31t148 31q57 29 92 88q14 23 21 72q6 46 6 153v1014h202v-920q0 -227 -28 -325q-28 -95 -99 -160q-68 -61 -151 -88 q-90 -29 -190.5 -29t-190.5 29q-80 25 -152 88q-72 66 -98 160q-29 102 -29 325zM317 1804v148h598v-148h-598z" />
<glyph unicode="&#x1d6;" d="M319 1350v202h203v-202h-203zM711 1350v202h202v-202h-202zM195 424v694h184v-694q0 -150 53 -221.5t166 -71.5q131 0 199 92q70 94 69 262v633h185v-1118h-185v168q-49 -100 -133 -148q-86 -49 -198 -49q-174 0 -256 113q-84 115 -84 340zM317 1693v148h598v-148h-598z " />
<glyph unicode="&#x1d7;" d="M319 1544v203h203v-203h-203zM711 1544v203h202v-203h-202zM147 573v920h203v-1012q0 -109 6 -155q6 -49 21 -72q31 -57 92 -88t147 -31t148 31q57 29 92 88q14 23 21 72q6 46 6 153v1014h202v-920q0 -227 -28 -325q-28 -95 -99 -160q-68 -61 -151 -88 q-90 -29 -190.5 -29t-190.5 29q-80 25 -152 88q-72 66 -98 160q-29 102 -29 325zM475 1776l197 264h186l-229 -264h-154z" />
<glyph unicode="&#x1d8;" d="M319 1350v202h203v-202h-203zM711 1350v202h202v-202h-202zM195 424v694h184v-694q0 -150 53 -221.5t166 -71.5q131 0 199 92q70 94 69 262v633h185v-1118h-185v168q-49 -100 -133 -148q-86 -49 -198 -49q-174 0 -256 113q-84 115 -84 340zM475 1577l281 376h198 l-325 -376h-154z" />
<glyph unicode="&#x1d9;" d="M319 1544v203h203v-203h-203zM711 1544v203h202v-203h-202zM147 573v920h203v-1012q0 -109 6 -155q6 -49 21 -72q31 -57 92 -88t147 -31t148 31q57 29 92 88q14 23 21 72q6 46 6 153v1014h202v-920q0 -227 -28 -325q-28 -95 -99 -160q-68 -61 -151 -88 q-90 -29 -190.5 -29t-190.5 29q-80 25 -152 88q-72 66 -98 160q-29 102 -29 325zM311 2042h140l165 -178l166 178h140l-211 -266h-189z" />
<glyph unicode="&#x1da;" d="M319 1350v202h203v-202h-203zM711 1350v202h202v-202h-202zM195 424v694h184v-694q0 -150 53 -221.5t166 -71.5q131 0 199 92q70 94 69 262v633h185v-1118h-185v168q-49 -100 -133 -148q-86 -49 -198 -49q-174 0 -256 113q-84 115 -84 340zM297 1953h139l180 -245 l181 245h139l-246 -376h-147z" />
<glyph unicode="&#x1db;" d="M319 1544v203h203v-203h-203zM711 1544v203h202v-203h-202zM147 573v920h203v-1012q0 -109 6 -155q6 -49 21 -72q31 -57 92 -88t147 -31t148 31q57 29 92 88q14 23 21 72q6 46 6 153v1014h202v-920q0 -227 -28 -325q-28 -95 -99 -160q-68 -61 -151 -88 q-90 -29 -190.5 -29t-190.5 29q-80 25 -152 88q-72 66 -98 160q-29 102 -29 325zM377 2040h184l197 -264h-154z" />
<glyph unicode="&#x1dc;" d="M279 1953h198l281 -376h-154zM195 424v694h184v-694q0 -150 53 -221.5t166 -71.5q131 0 199 92q70 94 69 262v633h185v-1118h-185v168q-49 -100 -133 -148q-86 -49 -198 -49q-174 0 -256 113q-84 115 -84 340zM319 1350v202h203v-202h-203zM711 1350v202h202v-202h-202z " />
<glyph unicode="&#x1dd;" d="M123 512v90h797v6q0 180 -97 283q-94 100 -268 100q-86 0 -184 -28q-109 -31 -205 -84v182q113 47 201 65q94 20 188 21q262 0 410 -156q145 -154 145 -432q0 -270 -143 -428q-143 -160 -383 -160q-215 0 -338 145.5t-123 395.5zM305 459q0 -158 76 -246q74 -86 211 -86 q133 0 219 88t100 244h-606z" />
<glyph unicode="&#x1de;" d="M319 1544v203h203v-203h-203zM711 1544v203h202v-203h-202zM317 1804v148h598v-148h-598zM37 0l457 1493h245l457 -1493h-209l-110 389h-523l-108 -389h-209zM403 551h426l-213 764z" />
<glyph unicode="&#x1df;" d="M317 1693v148h598v-148h-598zM133 326q0 186 125 284q123 96 369 97h247v28q0 133 -67.5 194.5t-214.5 61.5q-98 0 -190.5 -26.5t-186.5 -79.5v184q106 41 195 59q92 18 182 19q137 0 237 -41q98 -40 160 -123q39 -51 53 -123q16 -78 17 -221v-639h-185v166 q-57 -100 -149 -148q-90 -47 -217 -47q-170 0 -272.5 96.5t-102.5 258.5zM317 338q0 -102 61.5 -157.5t168.5 -55.5q152 0 239.5 106.5t87.5 290.5v41h-172h-61q-156 0 -242 -57q-82 -55 -82 -168zM319 1350v202h203v-202h-203zM711 1350v202h202v-202h-202z" />
<glyph unicode="&#x1e0;" d="M317 1804v148h598v-148h-598zM512 1542v205h207v-205h-207zM37 0l457 1493h245l457 -1493h-209l-110 389h-523l-108 -389h-209zM403 551h426l-213 764z" />
<glyph unicode="&#x1e1;" d="M317 1693v148h598v-148h-598zM512 1348v204h207v-204h-207zM133 326q0 186 125 284q123 96 369 97h247v28q0 133 -67.5 194.5t-214.5 61.5q-98 0 -190.5 -26.5t-186.5 -79.5v184q106 41 195 59q92 18 182 19q137 0 237 -41q98 -40 160 -123q39 -51 53 -123 q16 -78 17 -221v-639h-185v166q-57 -100 -149 -148q-90 -47 -217 -47q-170 0 -272.5 96.5t-102.5 258.5zM317 338q0 -102 61.5 -157.5t168.5 -55.5q152 0 239.5 106.5t87.5 290.5v41h-172h-61q-156 0 -242 -57q-82 -55 -82 -168z" />
<glyph unicode="&#x1e2;" d="M487 1692v147h598v-147h-598zM0 0l410 1493h751v-170h-338v-442h307v-170h-307v-541h357v-170h-543v383h-352l-101 -383h-184zM328 551h309v772h-107z" />
<glyph unicode="&#x1e3;" d="M317 1378v148h598v-148h-598zM41 307q0 172 100 260q102 90 291 90h117v88q0 120 -49 185q-49 63 -144 63q-55 0 -123 -22q-74 -25 -127 -60v168q84 37 144 51q70 16 125 17q92 0 153.5 -31t98.5 -96q33 59 98 94q63 33 156 33q174 0 247 -119q72 -117 72 -424v-90h-491 q0 -4 -1 -15.5t-1 -17.5v-51q0 -160 51 -233q49 -72 162 -72q80 0 143 25q66 25 115 77v-172q-59 -43 -121 -63.5t-137 -20.5q-109 0 -185 41t-106 119q-41 -84 -105 -121q-66 -39 -164 -39q-156 0 -237 86q-82 84 -82 250zM205 311q0 -86 45 -137q43 -49 127 -49 q92 0 129 67.5t37 249.5v72h-49q-170 0 -229.5 -45t-59.5 -158zM709 657h327v52q0 152 -39 217q-39 68 -125 67q-88 0 -124 -67q-39 -72 -39 -226v-43z" />
<glyph unicode="&#x1e6;" d="M311 1901h140l165 -178l166 178h140l-211 -266h-189zM102 745q0 365 160 570t445 205q98 0 180 -27q94 -31 166 -80v-207q-78 76 -166 113q-86 37 -180 37q-199 0 -295 -152q-98 -154 -99 -459q0 -311 94.5 -460.5t294.5 -149.5q72 0 117 15q53 16 92 49v401h-217v166 h410v-643q-78 -72 -182 -113q-98 -39 -220 -39q-285 0 -442 203q-158 204 -158 571z" />
<glyph unicode="&#x1e7;" d="M297 1638h139l180 -245l181 245h139l-246 -376h-147zM123 569q0 262 116.5 420t313.5 158q109 0 182 -43q78 -45 123 -133v145h184v-1044q0 -254 -118 -381q-121 -131 -351 -131q-82 0 -159 14q-96 18 -166 41v182q98 -46 178 -67q84 -23 147 -23q150 0 217.5 80 t67.5 258v8v125q-41 -92 -121 -139q-78 -47 -184 -47q-197 0 -313.5 157.5t-116.5 419.5zM317 569q0 -207 72 -315.5t207 -108.5q127 0 195 109q68 106 67 315q0 206 -67 314q-68 109 -197 108q-135 0 -207 -108q-70 -107 -70 -314z" />
<glyph unicode="&#x1e8;" d="M311 1901h140l165 -178l166 178h140l-211 -266h-189zM137 0v1493h203v-664l631 664h237l-581 -610l598 -883h-244l-487 748l-154 -164v-584h-203z" />
<glyph unicode="&#x1e9;" d="M311 1901h140l165 -178l166 178h140l-211 -266h-189zM236 0v1556h190v-901l483 465h224l-441 -422l510 -698h-225l-414 578l-137 -129v-449h-190z" />
<glyph unicode="&#x1ea;" d="M449 -231q0 49 26 100q31 57 82 115h119q-46 -61 -67 -104q-20 -41 -21 -76q0 -49 27 -70q29 -23 82 -22q23 0 63 8q27 6 62 22v-133q-18 -4 -72 -14q-33 -6 -64 -6q-121 0 -180 43q-57 43 -57 137zM117 745q0 391 123 582q125 193 376.5 193t376.5 -193 q123 -190 123 -581.5t-123 -581.5q-125 -193 -377 -193q-254 0 -376.5 190.5t-122.5 583.5zM328 745.5q0 -327.5 67.5 -469t221 -141.5t221 141.5t67.5 469t-67.5 469t-221 141.5t-221 -141.5t-67.5 -469z" />
<glyph unicode="&#x1eb;" d="M449 -231q0 49 26 100q31 57 82 115h119q-46 -61 -67 -104q-20 -41 -21 -76q0 -49 27 -70q29 -23 82 -22q23 0 63 8q27 6 62 22v-133q-18 -4 -72 -14q-33 -6 -64 -6q-121 0 -180 43q-57 43 -57 137zM137 559q0 286 123 436q123 152 356.5 152t356.5 -152 q123 -151 123 -436q0 -289 -123 -438.5t-356.5 -149.5t-356.5 149.5t-123 438.5zM332 559q0 -211 71 -323q70 -109 213.5 -109t212.5 109q72 113 72 323q0 215 -71.5 323.5t-213 108.5t-213 -108.5t-71.5 -323.5z" />
<glyph unicode="&#x1ec;" d="M317 1692v147h598v-147h-598zM449 -231q0 49 26 100q31 57 82 115h119q-46 -61 -67 -104q-20 -41 -21 -76q0 -49 27 -70q29 -23 82 -22q23 0 63 8q27 6 62 22v-133q-18 -4 -72 -14q-33 -6 -64 -6q-121 0 -180 43q-57 43 -57 137zM117 745q0 391 123 582 q125 193 376.5 193t376.5 -193q123 -190 123 -581.5t-123 -581.5q-125 -193 -377 -193q-254 0 -376.5 190.5t-122.5 583.5zM328 745.5q0 -327.5 67.5 -469t221 -141.5t221 141.5t67.5 469t-67.5 469t-221 141.5t-221 -141.5t-67.5 -469z" />
<glyph unicode="&#x1ed;" d="M317 1378v148h598v-148h-598zM449 -231q0 49 26 100q31 57 82 115h119q-46 -61 -67 -104q-20 -41 -21 -76q0 -49 27 -70q29 -23 82 -22q23 0 63 8q27 6 62 22v-133q-18 -4 -72 -14q-33 -6 -64 -6q-121 0 -180 43q-57 43 -57 137zM137 559q0 286 123 436 q123 152 356.5 152t356.5 -152q123 -151 123 -436q0 -289 -123 -438.5t-356.5 -149.5t-356.5 149.5t-123 438.5zM332 559q0 -211 71 -323q70 -109 213.5 -109t212.5 109q72 113 72 323q0 215 -71.5 323.5t-213 108.5t-213 -108.5t-71.5 -323.5z" />
<glyph unicode="&#x1ee;" d="M311 1901h140l165 -178l166 178h140l-211 -266h-189zM27 434h200q0 -143 101 -217q100 -76 288 -76q184 0 289 76q100 74 101 217q0 133 -93 207q-98 76 -258 76h-174v166l371 440h-737v170h968v-168l-374 -440q100 0 233 -58q100 -43 184 -149q80 -104 80 -244 q0 -221 -151.5 -342t-431.5 -121q-293 0 -444.5 121t-151.5 342z" />
<glyph unicode="&#x1ef;" d="M297 1638h139l180 -245l181 245h139l-246 -376h-147zM125 -168q83 -49 184.5 -73.5t208.5 -24.5q188 0 289 76q100 74 100 217q0 133 -92 206.5t-258 73.5h-174v166l430 500h-668v147h875v-168l-412 -477q106 0 236 -55q94 -41 182 -152q82 -106 82 -241 q0 -221 -151.5 -342t-432.5 -121q-94 0 -192 18q-96 18 -207 56v194z" />
<glyph unicode="&#x1f0;" d="M332 1634h139l180 -245l181 245h139l-246 -376h-147zM186 -270h234q88 0 135 63q45 59 45 187v997h-317v143h501v-1140q0 -193 -90 -299.5t-254 -106.5h-254v156z" />
<glyph unicode="&#x1f4;" d="M565 1635l197 264h186l-229 -264h-154zM102 745q0 365 160 570t445 205q98 0 180 -27q94 -31 166 -80v-207q-78 76 -166 113q-86 37 -180 37q-199 0 -295 -152q-98 -154 -99 -459q0 -311 94.5 -460.5t294.5 -149.5q72 0 117 15q53 16 92 49v401h-217v166h410v-643 q-78 -72 -182 -113q-98 -39 -220 -39q-285 0 -442 203q-158 204 -158 571z" />
<glyph unicode="&#x1f5;" d="M475 1262l281 376h198l-325 -376h-154zM123 569q0 262 116.5 420t313.5 158q109 0 182 -43q78 -45 123 -133v145h184v-1044q0 -254 -118 -381q-121 -131 -351 -131q-82 0 -159 14q-96 18 -166 41v182q98 -46 178 -67q84 -23 147 -23q150 0 217.5 80t67.5 258v8v125 q-41 -92 -121 -139q-78 -47 -184 -47q-197 0 -313.5 157.5t-116.5 419.5zM317 569q0 -207 72 -315.5t207 -108.5q127 0 195 109q68 106 67 315q0 206 -67 314q-68 109 -197 108q-135 0 -207 -108q-70 -107 -70 -314z" />
<glyph unicode="&#x1f6;" d="M61 0v1493h183v-612h299v612h182v-907q0 -272 84 -412q20 -39 68 -39q55 0 79 78q33 98 33 373v295h182v-320q0 -373 -104 -514q-57 -76 -190 -76q-129 0 -199 82q-135 154 -135 508v150h-299v-711h-183z" />
<glyph unicode="&#x1f8;" d="M377 1899h184l197 -264h-154zM139 0v1493h256l504 -1229v1229h195v-1493h-256l-504 1229v-1229h-195z" />
<glyph unicode="&#x1f9;" d="M279 1638h198l281 -376h-154zM195 0v1120h184v-168q49 96 133 146q82 49 199 49q170 0 256 -113q84 -111 84 -340v-694h-185v694q0 150 -53 221.5t-166 71.5q-127 0 -198 -92q-70 -90 -70 -262v-633h-184z" />
<glyph unicode="&#x1fc;" d="M715 1635l197 264h186l-229 -264h-154zM0 0l410 1493h751v-170h-338v-442h307v-170h-307v-541h357v-170h-543v383h-352l-101 -383h-184zM328 551h309v772h-107z" />
<glyph unicode="&#x1fd;" d="M475 1262l281 376h198l-325 -376h-154zM41 307q0 172 100 260q102 90 291 90h117v88q0 120 -49 185q-49 63 -144 63q-55 0 -123 -22q-74 -25 -127 -60v168q84 37 144 51q70 16 125 17q92 0 153.5 -31t98.5 -96q33 59 98 94q63 33 156 33q174 0 247 -119q72 -117 72 -424 v-90h-491q0 -4 -1 -15.5t-1 -17.5v-51q0 -160 51 -233q49 -72 162 -72q80 0 143 25q66 25 115 77v-172q-59 -43 -121 -63.5t-137 -20.5q-109 0 -185 41t-106 119q-41 -84 -105 -121q-66 -39 -164 -39q-156 0 -237 86q-82 84 -82 250zM205 311q0 -86 45 -137q43 -49 127 -49 q92 0 129 67.5t37 249.5v72h-49q-170 0 -229.5 -45t-59.5 -158zM709 657h327v52q0 152 -39 217q-39 68 -125 67q-88 0 -124 -67q-39 -72 -39 -226v-43z" />
<glyph unicode="&#x1fe;" d="M475 1635l197 264h186l-229 -264h-154zM8 0l178 252q-35 82 -51 205q-18 132 -18 288q0 391 123 582q125 193 376 193q113 0 201 -41q84 -39 144 -121l139 201l100 -74l-168 -238q39 -80 62 -211q23 -135 22 -291q0 -391 -123 -581q-125 -193 -377 -193q-119 0 -210 41 q-90 41 -152 121l-143 -203zM328 686q0 -98 2 -131q4 -59 8 -84l504 719q-25 80 -82 123q-59 43 -144 43q-160 0 -223 -146q-65 -149 -65 -524zM371 303q31 -76 96 -123q63 -45 149 -45q154 0 221.5 141.5t67.5 468.5q0 111 -6 179q-6 76 -14 112z" />
<glyph unicode="&#x1ff;" d="M475 1262l281 376h198l-325 -376h-154zM47 -20l170 200q-37 66 -59 168q-20 94 -21 211q0 286 123 436q123 152 356 152q100 0 179 -27q74 -27 139 -84l147 176l93 -77l-164 -195q41 -61 63.5 -161.5t22.5 -219.5q0 -289 -123 -438.5t-357 -149.5q-109 0 -182 29 q-78 31 -135 90l-160 -186zM328 575q0 -29 8 -106q6 -68 20 -129l461 557q-35 49 -84 72q-51 23 -117 22q-139 0 -213 -106q-75 -111 -75 -310zM414 221q39 -47 86 -71q45 -23 116 -23q143 0 213 109q72 113 72 323q0 51 -6 107q-6 57 -18 114z" />
<glyph unicode="&#x200;" d="M186 1898h187l196 -264h-153zM506 1898h186l197 -264h-154zM37 0l457 1493h245l457 -1493h-209l-110 389h-523l-108 -389h-209zM403 551h426l-213 764z" />
<glyph unicode="&#x201;" d="M211 1638h176l207 -376h-135zM553 1638h170l188 -376h-137zM133 326q0 186 125 284q123 96 369 97h247v28q0 133 -67.5 194.5t-214.5 61.5q-98 0 -190.5 -26.5t-186.5 -79.5v184q106 41 195 59q92 18 182 19q137 0 237 -41q98 -40 160 -123q39 -51 53 -123 q16 -78 17 -221v-639h-185v166q-57 -100 -149 -148q-90 -47 -217 -47q-170 0 -272.5 96.5t-102.5 258.5zM317 338q0 -102 61.5 -157.5t168.5 -55.5q152 0 239.5 106.5t87.5 290.5v41h-172h-61q-156 0 -242 -57q-82 -55 -82 -168z" />
<glyph unicode="&#x202;" d="M303 1659q12 121 90 180q80 61 223.5 61.5t223.5 -61.5q78 -59 90 -180h-119q-16 57 -63.5 83.5t-131.5 26.5q-82 0 -133 -28q-49 -29 -61 -82h-119zM37 0l457 1493h245l457 -1493h-209l-110 389h-523l-108 -389h-209zM403 551h426l-213 764z" />
<glyph unicode="&#x203;" d="M303 1321q12 145 90 215q82 72 223.5 72t223.5 -72q78 -70 90 -215h-119q-16 78 -61 113q-49 37 -134 36q-86 0 -135 -36q-47 -35 -59 -113h-119zM133 326q0 186 125 284q123 96 369 97h247v28q0 133 -67.5 194.5t-214.5 61.5q-98 0 -190.5 -26.5t-186.5 -79.5v184 q106 41 195 59q92 18 182 19q137 0 237 -41q98 -40 160 -123q39 -51 53 -123q16 -78 17 -221v-639h-185v166q-57 -100 -149 -148q-90 -47 -217 -47q-170 0 -272.5 96.5t-102.5 258.5zM317 338q0 -102 61.5 -157.5t168.5 -55.5q152 0 239.5 106.5t87.5 290.5v41h-172h-61 q-156 0 -242 -57q-82 -55 -82 -168z" />
<glyph unicode="&#x204;" d="M186 1898h187l196 -264h-153zM506 1898h186l197 -264h-154zM197 0v1493h886v-170h-684v-442h654v-170h-654v-541h703v-170h-905z" />
<glyph unicode="&#x205;" d="M225 1638h176l207 -376h-135zM567 1638h170l188 -376h-137zM123 559q0 270 143 428q143 160 385 160q215 0 338 -145.5t123 -395.5v-90h-797v-6q0 -182 94.5 -282.5t270.5 -100.5q86 0 184 29q109 31 205 84v-183q-111 -45 -203 -65q-94 -20 -188 -21q-260 0 -407.5 156 t-147.5 432zM322 659h606q-4 164 -76 248t-209 84q-133 0 -219 -88q-88 -90 -102 -244z" />
<glyph unicode="&#x206;" d="M303 1659q12 121 90 180q80 61 223.5 61.5t223.5 -61.5q78 -59 90 -180h-119q-16 57 -63.5 83.5t-131.5 26.5q-82 0 -133 -28q-49 -29 -61 -82h-119zM197 0v1493h886v-170h-684v-442h654v-170h-654v-541h703v-170h-905z" />
<glyph unicode="&#x207;" d="M317 1321q12 145 90 215q82 72 223.5 72t223.5 -72q78 -70 90 -215h-119q-16 78 -61 113q-49 37 -134 36q-86 0 -135 -36q-47 -35 -59 -113h-119zM123 559q0 270 143 428q143 160 385 160q215 0 338 -145.5t123 -395.5v-90h-797v-6q0 -182 94.5 -282.5t270.5 -100.5 q86 0 184 29q109 31 205 84v-183q-111 -45 -203 -65q-94 -20 -188 -21q-260 0 -407.5 156t-147.5 432zM322 659h606q-4 164 -76 248t-209 84q-133 0 -219 -88q-88 -90 -102 -244z" />
<glyph unicode="&#x208;" d="M186 1898h187l196 -264h-153zM506 1898h186l197 -264h-154zM201 0v170h313v1153h-313v170h829v-170h-313v-1153h313v-170h-829z" />
<glyph unicode="&#x209;" d="M211 1638h176l207 -376h-135zM553 1638h170l188 -376h-137zM178 0v143h365v834h-287v143h471v-977h365v-143h-914z" />
<glyph unicode="&#x20a;" d="M303 1659q12 121 90 180q80 61 223.5 61.5t223.5 -61.5q78 -59 90 -180h-119q-16 57 -63.5 83.5t-131.5 26.5q-82 0 -133 -28q-49 -29 -61 -82h-119zM201 0v170h313v1153h-313v170h829v-170h-313v-1153h313v-170h-829z" />
<glyph unicode="&#x20b;" d="M303 1321q12 145 90 215q82 72 223.5 72t223.5 -72q78 -70 90 -215h-119q-16 78 -61 113q-49 37 -134 36q-86 0 -135 -36q-47 -35 -59 -113h-119zM178 0v143h365v834h-287v143h471v-977h365v-143h-914z" />
<glyph unicode="&#x20c;" d="M186 1898h187l196 -264h-153zM506 1898h186l197 -264h-154zM117 745q0 391 123 582q125 193 376.5 193t376.5 -193q123 -190 123 -581.5t-123 -581.5q-125 -193 -377 -193q-254 0 -376.5 190.5t-122.5 583.5zM328 745.5q0 -327.5 67.5 -469t221 -141.5t221 141.5 t67.5 469t-67.5 469t-221 141.5t-221 -141.5t-67.5 -469z" />
<glyph unicode="&#x20d;" d="M211 1638h176l207 -376h-135zM553 1638h170l188 -376h-137zM137 559q0 286 123 436q123 152 356.5 152t356.5 -152q123 -151 123 -436q0 -289 -123 -438.5t-356.5 -149.5t-356.5 149.5t-123 438.5zM332 559q0 -211 71 -323q70 -109 213.5 -109t212.5 109q72 113 72 323 q0 215 -71.5 323.5t-213 108.5t-213 -108.5t-71.5 -323.5z" />
<glyph unicode="&#x20e;" d="M303 1659q12 121 90 180q80 61 223.5 61.5t223.5 -61.5q78 -59 90 -180h-119q-16 57 -63.5 83.5t-131.5 26.5q-82 0 -133 -28q-49 -29 -61 -82h-119zM117 745q0 391 123 582q125 193 376.5 193t376.5 -193q123 -190 123 -581.5t-123 -581.5q-125 -193 -377 -193 q-254 0 -376.5 190.5t-122.5 583.5zM328 745.5q0 -327.5 67.5 -469t221 -141.5t221 141.5t67.5 469t-67.5 469t-221 141.5t-221 -141.5t-67.5 -469z" />
</font>
</defs>
</svg>
