G75*
G70*
%OFA0B0*%
%FSLAX24Y24*%
%IPPOS*%
%LPD*%
%AMOC8*
5,1,8,0,0,1.08239X$1,22.5*
%
%ADD10C,0.0740*%
%ADD11R,0.0376X0.0376*%
%ADD12C,0.0160*%
%ADD13C,0.0100*%
%ADD14R,0.0416X0.0416*%
D10*
X006168Y001150D03*
X007168Y001150D03*
X008168Y001150D03*
X009168Y001150D03*
X010168Y001150D03*
D11*
X008589Y003807D03*
X007918Y003900D03*
X010168Y004900D03*
D12*
X008918Y004900D01*
X007918Y003900D01*
X007668Y002650D02*
X006168Y004150D01*
X006168Y004900D01*
X007668Y002650D02*
X009168Y002650D01*
X010168Y001150D01*
X010168Y002650D01*
D13*
X005458Y001897D02*
X005458Y000440D01*
X010878Y000440D01*
X010878Y001897D01*
X010922Y002003D01*
X011003Y002085D01*
X011110Y002129D01*
X014073Y002129D01*
X014276Y002141D01*
X014668Y002238D01*
X014668Y002944D01*
X014594Y002870D02*
X014853Y003129D01*
X014993Y003467D01*
X014993Y003833D01*
X014853Y004171D01*
X014594Y004430D01*
X014256Y004570D01*
X013890Y004570D01*
X013552Y004430D01*
X013293Y004171D01*
X013153Y003833D01*
X013153Y003467D01*
X013293Y003129D01*
X013552Y002870D01*
X013890Y002730D01*
X014256Y002730D01*
X014594Y002870D01*
X014168Y002730D02*
X014168Y002135D01*
X014311Y002150D02*
X002024Y002150D01*
X002060Y002141D02*
X001667Y002238D01*
X001309Y002426D01*
X001006Y002694D01*
X000776Y003027D01*
X000633Y003406D01*
X000584Y003807D01*
X000633Y004209D01*
X000776Y004588D01*
X001006Y004921D01*
X001309Y005189D01*
X001667Y005377D01*
X002060Y005474D01*
X002262Y005486D01*
X014073Y005486D01*
X014276Y005474D01*
X014668Y005377D01*
X014668Y004356D01*
X014168Y004570D02*
X014168Y005480D01*
X013668Y005486D02*
X013668Y004478D01*
X013285Y004150D02*
X008691Y004150D01*
X008668Y004127D02*
X008668Y001583D01*
X008542Y001710D01*
X008299Y001810D01*
X008036Y001810D01*
X007794Y001710D01*
X007668Y001583D01*
X007542Y001710D01*
X007299Y001810D01*
X007036Y001810D01*
X006794Y001710D01*
X006668Y001583D01*
X006542Y001710D01*
X006299Y001810D01*
X006036Y001810D01*
X005794Y001710D01*
X005608Y001524D01*
X005508Y001281D01*
X005508Y001019D01*
X005608Y000776D01*
X005794Y000590D01*
X006036Y000490D01*
X006299Y000490D01*
X006542Y000590D01*
X006668Y000717D01*
X006668Y000440D01*
X006794Y000590D02*
X007036Y000490D01*
X007299Y000490D01*
X007542Y000590D01*
X007668Y000717D01*
X007668Y000440D01*
X007794Y000590D02*
X008036Y000490D01*
X008299Y000490D01*
X008542Y000590D01*
X008668Y000717D01*
X008668Y000440D01*
X008794Y000590D02*
X009036Y000490D01*
X009299Y000490D01*
X009542Y000590D01*
X009727Y000776D01*
X009752Y000837D01*
X009771Y000811D01*
X009829Y000753D01*
X009895Y000705D01*
X009968Y000668D01*
X010046Y000643D01*
X010118Y000631D01*
X010118Y001100D01*
X010218Y001100D01*
X010218Y001200D01*
X010686Y001200D01*
X010675Y001272D01*
X010650Y001350D01*
X010613Y001423D01*
X010564Y001489D01*
X010507Y001547D01*
X010440Y001595D01*
X010367Y001632D01*
X010290Y001657D01*
X010218Y001669D01*
X010218Y001200D01*
X010118Y001200D01*
X010118Y001669D01*
X010046Y001657D01*
X009968Y001632D01*
X009895Y001595D01*
X009829Y001547D01*
X009771Y001489D01*
X009752Y001463D01*
X009727Y001524D01*
X009542Y001710D01*
X009299Y001810D01*
X009036Y001810D01*
X008794Y001710D01*
X008668Y001583D01*
X008601Y001650D02*
X008734Y001650D01*
X009168Y001810D02*
X009168Y004530D01*
X009071Y004530D02*
X009751Y004530D01*
X009815Y004466D01*
X009922Y004422D01*
X010414Y004422D01*
X010520Y004466D01*
X010602Y004548D01*
X010646Y004654D01*
X010646Y005146D01*
X010602Y005252D01*
X010520Y005334D01*
X010414Y005378D01*
X009922Y005378D01*
X009815Y005334D01*
X009751Y005270D01*
X008844Y005270D01*
X008708Y005214D01*
X007873Y004378D01*
X007672Y004378D01*
X007565Y004334D01*
X007484Y004252D01*
X007440Y004146D01*
X007440Y003654D01*
X007484Y003548D01*
X007565Y003466D01*
X007672Y003422D01*
X008164Y003422D01*
X008270Y003466D01*
X008352Y003548D01*
X008396Y003654D01*
X008396Y003855D01*
X009071Y004530D01*
X009668Y004530D02*
X009668Y001583D01*
X009601Y001650D02*
X010024Y001650D01*
X010118Y001650D02*
X010218Y001650D01*
X010312Y001650D02*
X010878Y001650D01*
X010668Y001294D02*
X010668Y005486D01*
X011168Y005486D02*
X011168Y002129D01*
X011668Y002129D02*
X011668Y005486D01*
X012168Y005486D02*
X012168Y002129D01*
X012668Y002129D02*
X012668Y005486D01*
X013168Y005486D02*
X013168Y003868D01*
X013153Y003650D02*
X008394Y003650D01*
X008589Y003807D02*
X010168Y002650D01*
X008168Y003424D02*
X008168Y001810D01*
X007734Y001650D02*
X007601Y001650D01*
X007668Y001583D02*
X007668Y003424D01*
X007441Y003650D02*
X003182Y003650D01*
X003182Y003467D02*
X003182Y003833D01*
X003042Y004171D01*
X002783Y004430D01*
X002445Y004570D01*
X002079Y004570D01*
X001741Y004430D01*
X001482Y004171D01*
X001342Y003833D01*
X001342Y003467D01*
X001482Y003129D01*
X001741Y002870D01*
X002079Y002730D01*
X002445Y002730D01*
X002783Y002870D01*
X003042Y003129D01*
X003182Y003467D01*
X003168Y003432D02*
X003168Y002129D01*
X003668Y002129D02*
X003668Y005486D01*
X004168Y005486D02*
X004168Y002129D01*
X004668Y002129D02*
X004668Y005486D01*
X005168Y005486D02*
X005168Y002129D01*
X005225Y002129D02*
X005332Y002085D01*
X005414Y002003D01*
X005458Y001897D01*
X005458Y001650D02*
X005734Y001650D01*
X005668Y001583D02*
X005668Y005486D01*
X006168Y005486D02*
X006168Y001810D01*
X006601Y001650D02*
X006734Y001650D01*
X006668Y001583D02*
X006668Y005486D01*
X007168Y005486D02*
X007168Y001810D01*
X005508Y001150D02*
X005458Y001150D01*
X005668Y000717D02*
X005668Y000440D01*
X006168Y000440D02*
X006168Y000490D01*
X006601Y000650D02*
X006734Y000650D01*
X006794Y000590D02*
X006668Y000717D01*
X007168Y000490D02*
X007168Y000440D01*
X007601Y000650D02*
X007734Y000650D01*
X007794Y000590D02*
X007668Y000717D01*
X008168Y000490D02*
X008168Y000440D01*
X008668Y000717D02*
X008794Y000590D01*
X008734Y000650D02*
X008601Y000650D01*
X009168Y000490D02*
X009168Y000440D01*
X009668Y000440D02*
X009668Y000717D01*
X009601Y000650D02*
X010024Y000650D01*
X010118Y000650D02*
X010218Y000650D01*
X010218Y000631D02*
X010290Y000643D01*
X010367Y000668D01*
X010440Y000705D01*
X010507Y000753D01*
X010564Y000811D01*
X010613Y000877D01*
X010650Y000950D01*
X010675Y001028D01*
X010686Y001100D01*
X010218Y001100D01*
X010218Y000631D01*
X010312Y000650D02*
X010878Y000650D01*
X010668Y000440D02*
X010668Y001006D01*
X010668Y001100D02*
X010668Y001200D01*
X010878Y001150D02*
X010218Y001150D01*
X010168Y001100D02*
X010168Y000440D01*
X010168Y001200D02*
X010168Y004422D01*
X010644Y004650D02*
X015516Y004650D01*
X015560Y004588D02*
X015703Y004209D01*
X015752Y003807D01*
X015703Y003406D01*
X015560Y003027D01*
X015330Y002694D01*
X015027Y002426D01*
X014668Y002238D01*
X015168Y002551D02*
X015168Y005064D01*
X015071Y005150D02*
X010644Y005150D01*
X010168Y005378D02*
X010168Y005486D01*
X009668Y005486D02*
X009668Y005270D01*
X009168Y005270D02*
X009168Y005486D01*
X008668Y005486D02*
X008668Y005173D01*
X008645Y005150D02*
X001265Y005150D01*
X001168Y005064D02*
X001168Y002551D01*
X001056Y002650D02*
X015280Y002650D01*
X015606Y003150D02*
X014862Y003150D01*
X015668Y003313D02*
X015668Y004302D01*
X015710Y004150D02*
X014862Y004150D01*
X014993Y003650D02*
X015733Y003650D01*
X013668Y002822D02*
X013668Y002129D01*
X013168Y002129D02*
X013168Y003432D01*
X013285Y003150D02*
X003051Y003150D01*
X002668Y002822D02*
X002668Y002129D01*
X002262Y002129D02*
X002060Y002141D01*
X002168Y002135D02*
X002168Y002730D01*
X001668Y002944D02*
X001668Y002238D01*
X002262Y002129D02*
X005225Y002129D01*
X001474Y003150D02*
X000730Y003150D01*
X000668Y003313D02*
X000668Y004302D01*
X000625Y004150D02*
X001474Y004150D01*
X001668Y004356D02*
X001668Y005377D01*
X002168Y005480D02*
X002168Y004570D01*
X002668Y004478D02*
X002668Y005486D01*
X003168Y005486D02*
X003168Y003868D01*
X003051Y004150D02*
X007441Y004150D01*
X007668Y004376D02*
X007668Y005486D01*
X008168Y005486D02*
X008168Y004673D01*
X008145Y004650D02*
X000819Y004650D01*
X000603Y003650D02*
X001342Y003650D01*
X005458Y000650D02*
X005734Y000650D01*
X015330Y004921D02*
X015560Y004588D01*
X015330Y004921D02*
X015027Y005189D01*
X014668Y005377D01*
D14*
X006168Y004900D03*
M02*
