<svg xmlns="http://www.w3.org/2000/svg" width="265px" height="380px" version="1.1" viewBox="0 0 265 380" style="width: 265px; height: 380px; "><defs><linearGradient id="grad1" gradientUnits="userSpaceOnUse" x1="0%" y1="0%" x2="100%" y2="100%"><stop offset="0%" style="stop-color:#E89681;stop-opacity:1"></stop><stop offset="100%" style="stop-color:#E38892;stop-opacity:1"></stop></linearGradient><linearGradient id="grad2" gradientUnits="userSpaceOnUse" x1="0%" y1="100%" x2="100%" y2="0%"><stop offset="0px" style="stop-color:#E38892;stop-opacity:1"></stop><stop offset="100%" style="stop-color:#DD78A3;stop-opacity:1"></stop></linearGradient></defs><path id="lineBC" stroke="url(#grad1)" stroke-width="1.2" stroke-linejoin="miter" stroke-linecap="round" fill="none" d="M 120 43 L 132.5 44"></path><path id="quadcurveABC" stroke="url(#grad1)" stroke-width="1.2" stroke-linejoin="miter" stroke-linecap="round" fill="none" d="M 132.5 44 Q 145 45 150 46.5 Q 155 48 157 49.5 Q 159 51 160.5 53 Q 162 55 161.5 56 Q 161 57 160 56.5 Q 159 56 156.5 55 Q 154 54 151.5 53 Q 149 52 146 51.5 Q 143 51 130 50 Q 117 49 111.5 50 Q 106 51 101 53 Q 96 55 91.5 57 Q 87 59 84.5 60 Q 82 61 80.5 61 Q 79 61 80 60 Q 81 59 82.5 57.5 Q 84 56 86.5 55 Q 89 54 92.5 54 Q 96 54 98 52.5 Q 100 51 110 47"></path><path id="lineBC" stroke="url(#grad1)" stroke-width="1.2" stroke-linejoin="miter" stroke-linecap="round" fill="none" d="M 110 47 L 120 43"></path><path id="lineBC" stroke="url(#grad1)" stroke-width="1.2" stroke-linejoin="miter" stroke-linecap="round" fill="none" d="M 101 62 L 109 63.5"></path><path id="quadcurveABC" stroke="url(#grad1)" stroke-width="1.2" stroke-linejoin="miter" stroke-linecap="round" fill="none" d="M 109 63.5 Q 117 65 121.5 65.5 Q 126 66 129 68 Q 132 70 138.5 73.5 Q 145 77 150 82 Q 155 87 158.5 93 Q 162 99 164.5 101.5 Q 167 104 168 108 Q 169 112 170.5 115.5 Q 172 119 173 120.5 Q 174 122 174.5 121.5 Q 175 121 175.5 121 Q 176 121 179.5 127.5 Q 183 134 187.5 148 Q 192 162 194 178 Q 196 194 197.5 197.5 Q 199 201 201.5 203.5 Q 204 206 206.5 213.5 Q 209 221 210 219.5 Q 211 218 210 216.5 Q 209 215 210 211 Q 211 207 209 199 Q 207 191 206 187.5 Q 205 184 205 180 Q 205 176 203.5 168.5 Q 202 161 200.5 152.5 Q 199 144 199 143 Q 199 142 198 141.5 Q 197 141 195.5 140 Q 194 139 193 135 Q 192 131 186.5 117 Q 181 103 177.5 96.5 Q 174 90 172 87 Q 170 84 167 82 Q 164 80 159.5 75 Q 155 70 153.5 69 Q 152 68 151.5 67.5 Q 151 67 151.5 66 Q 152 65 155.5 66.5 Q 159 68 162.5 69.5 Q 166 71 168.5 73.5 Q 171 76 175 82 Q 179 88 181 90.5 Q 183 93 184.5 96.5 Q 186 100 188.5 107.5 Q 191 115 192 116.5 Q 193 118 194.5 119 Q 196 120 196 125 Q 196 130 197 131.5 Q 198 133 199.5 134 Q 201 135 200.5 137 Q 200 139 201.5 140"></path><path id="lineBC" stroke="url(#grad1)" stroke-width="1.2" stroke-linejoin="miter" stroke-linecap="round" fill="none" d="M 201.5 140 L 203 141"></path><path id="lineBC" stroke="url(#grad1)" stroke-width="1.2" stroke-linejoin="miter" stroke-linecap="round" fill="none" d="M 101 62 L 97.5 66"></path><path id="quadcurveABC" stroke="url(#grad1)" stroke-width="1.2" stroke-linejoin="miter" stroke-linecap="round" fill="none" d="M 97.5 66 Q 94 70 100.5 70.5 Q 107 71 113.5 71 Q 120 71 124.5 74.5 Q 129 78 139 83.5 Q 149 89 149.5 90 Q 150 91 151 92 Q 152 93 152.5 94.5 Q 153 96 154.5 96.5 Q 156 97 157 100 Q 158 103 156.5 103.5 Q 155 104 154 103 Q 153 102 144.5 95 Q 136 88 134.5 86 Q 133 84 130.5 82.5 Q 128 81 124 81 Q 120 81 120.5 78.5 Q 121 76 118.5 75 Q 116 74 115 73 Q 114 72 113.5 73.5 Q 113 75 115 77 Q 117 79 117.5 80.5 Q 118 82 116.5 82.5 Q 115 83 113 84.5 Q 111 86 112 87 Q 113 88 114.5 87.5 Q 116 87 117 88 Q 118 89 118 90 Q 118 91 120 89"></path><path id="lineBC" stroke="url(#grad1)" stroke-width="1.2" stroke-linejoin="miter" stroke-linecap="round" fill="none" d="M 120 89 L 122 87"></path><path id="lineBC" stroke="url(#grad1)" stroke-width="1.2" stroke-linejoin="miter" stroke-linecap="round" fill="none" d="M 74 73 L 75.5 73.5"></path><path id="quadcurveABC" stroke="url(#grad1)" stroke-width="1.2" stroke-linejoin="miter" stroke-linecap="round" fill="none" d="M 75.5 73.5 Q 77 74 77.5 74.5 Q 78 75 78 75.5 Q 78 76 76 76 Q 74 76 74 74.5"></path><path id="lineBC" stroke="url(#grad1)" stroke-width="1.2" stroke-linejoin="miter" stroke-linecap="round" fill="none" d="M 74 74.5 L 74 73"></path><path id="lineBC" stroke="url(#grad1)" stroke-width="1.2" stroke-linejoin="miter" stroke-linecap="round" fill="none" d="M 158 80 L 159.5 80.5"></path><path id="quadcurveABC" stroke="url(#grad1)" stroke-width="1.2" stroke-linejoin="miter" stroke-linecap="round" fill="none" d="M 159.5 80.5 Q 161 81 161 82 Q 161 83 159.5 81.5"></path><path id="lineBC" stroke="url(#grad1)" stroke-width="1.2" stroke-linejoin="miter" stroke-linecap="round" fill="none" d="M 159.5 81.5 L 158 80"></path><path id="lineBC" stroke="url(#grad1)" stroke-width="1.2" stroke-linejoin="miter" stroke-linecap="round" fill="none" d="M 97 83 L 99.5 83"></path><path id="quadcurveABC" stroke="url(#grad1)" stroke-width="1.2" stroke-linejoin="miter" stroke-linecap="round" fill="none" d="M 99.5 83 Q 102 83 104 84 Q 106 85 108 86 Q 110 87 108.5 88.5 Q 107 90 102 90.5 Q 97 91 96 89 Q 95 87 96 85"></path><path id="lineBC" stroke="url(#grad1)" stroke-width="1.2" stroke-linejoin="miter" stroke-linecap="round" fill="none" d="M 96 85 L 97 83"></path><path id="lineBC" stroke="url(#grad1)" stroke-width="1.2" stroke-linejoin="miter" stroke-linecap="round" fill="none" d="M 77 86 L 81.5 87.5"></path><path id="quadcurveABC" stroke="url(#grad1)" stroke-width="1.2" stroke-linejoin="miter" stroke-linecap="round" fill="none" d="M 81.5 87.5 Q 86 89 86.5 90 Q 87 91 86.5 92 Q 86 93 84 94 Q 82 95 78.5 97.5 Q 75 100 72.5 103.5 Q 70 107 67.5 110.5 Q 65 114 64 119 Q 63 124 60.5 134 Q 58 144 57.5 155.5 Q 57 167 55 177 Q 53 187 52 198 Q 51 209 51 220.5 Q 51 232 55 252 Q 59 272 63 280 Q 67 288 71.5 296 Q 76 304 85.5 316 Q 95 328 94 327.5 Q 93 327 92.5 326 Q 92 325 91.5 324 Q 91 323 90 323.5 Q 89 324 85.5 324.5 Q 82 325 80 324 Q 78 323 78.5 325.5 Q 79 328 78.5 330.5 Q 78 333 79 333.5 Q 80 334 81 334 Q 82 334 81 344 Q 80 354 80.5 356.5 Q 81 359 77 356 Q 73 353 71.5 351.5 Q 70 350 70 347 Q 70 344 68.5 339.5 Q 67 335 65.5 325 Q 64 315 61.5 305.5 Q 59 296 54.5 288.5 Q 50 281 48 271 Q 46 261 44.5 250 Q 43 239 41 229 Q 39 219 40.5 208.5 Q 42 198 44.5 176 Q 47 154 48.5 143.5 Q 50 133 52.5 123 Q 55 113 57 109 Q 59 105 61.5 101.5 Q 64 98 66.5 94.5 Q 69 91 73 88.5"></path><path id="lineBC" stroke="url(#grad1)" stroke-width="1.2" stroke-linejoin="miter" stroke-linecap="round" fill="none" d="M 73 88.5 L 77 86"></path><path id="lineBC" stroke="url(#grad1)" stroke-width="1.2" stroke-linejoin="miter" stroke-linecap="round" fill="none" d="M 123 87 L 123.5 88"></path><path id="quadcurveABC" stroke="url(#grad1)" stroke-width="1.2" stroke-linejoin="miter" stroke-linecap="round" fill="none" d="M 123.5 88 Q 124 89 126 89 Q 128 89 130.5 90.5 Q 133 92 137 96 Q 141 100 149 107.5 Q 157 115 164 123.5 Q 171 132 173.5 137.5 Q 176 143 176.5 146.5 Q 177 150 176 153 Q 175 156 177.5 157 Q 180 158 182 160 Q 184 162 185 165 Q 186 168 187.5 170.5 Q 189 173 189.5 174 Q 190 175 189.5 175.5 Q 189 176 186.5 177.5 Q 184 179 177.5 179.5 Q 171 180 168.5 181 Q 166 182 163.5 183.5 Q 161 185 160 184 Q 159 183 159.5 181.5 Q 160 180 160 179 Q 160 178 158.5 178.5 Q 157 179 155 181 Q 153 183 152 184 Q 151 185 150.5 186.5 Q 150 188 152 190 Q 154 192 155.5 192.5 Q 157 193 158.5 192.5 Q 160 192 160 190.5 Q 160 189 161 188 Q 162 187 163.5 189.5 Q 165 192 168 193 Q 171 194 172.5 194.5 Q 174 195 175 194 Q 176 193 179.5 189 Q 183 185 184 186 Q 185 187 184.5 188.5 Q 184 190 183 191 Q 182 192 182.5 193.5 Q 183 195 185.5 196 Q 188 197 189.5 197.5 Q 191 198 191 199 Q 191 200 190.5 201.5 Q 190 203 190.5 204.5 Q 191 206 193 208 Q 195 210 200 221 Q 205 232 203.5 246 Q 202 260 200.5 266 Q 199 272 196.5 277.5 Q 194 283 189.5 294 Q 185 305 177.5 313.5 Q 170 322 167 326.5 Q 164 331 163 332 Q 162 333 162 334 Q 162 335 163.5 337.5 Q 165 340 167 339.5 Q 169 339 170 338 Q 171 337 171 336 Q 171 335 175 331 Q 179 327 181 328.5 Q 183 330 182.5 332.5 Q 182 335 181.5 342.5 Q 181 350 186 349.5 Q 191 349 190 348.5 Q 189 348 189 346 Q 189 344 190 341 Q 191 338 192.5 331.5 Q 194 325 195 318.5 Q 196 312 196.5 308.5 Q 197 305 196.5 303.5 Q 196 302 197.5 301.5 Q 199 301 200 301.5 Q 201 302 201.5 300.5 Q 202 299 203.5 296.5 Q 205 294 206 291 Q 207 288 207.5 284.5 Q 208 281 207.5 279.5 Q 207 278 207 277 Q 207 276 207.5 272.5 Q 208 269 210 263 Q 212 257 213.5 257 Q 215 257 215.5 255.5 Q 216 254 215.5 250.5 Q 215 247 214.5 243.5 Q 214 240 214.5 238.5 Q 215 237 214 236 Q 213 235 213.5 234 Q 214 233 215.5 233.5 Q 217 234 217.5 231.5 Q 218 229 217 223 Q 216 217 215.5 216 Q 215 215 215.5 213.5 Q 216 212 217 210 Q 218 208 217 202 Q 216 196 215 193 Q 214 190 214.5 187.5 Q 215 185 216 186 Q 217 187 217.5 188.5 Q 218 190 218.5 193.5 Q 219 197 219.5 196 Q 220 195 219.5 193.5 Q 219 192 218.5 188.5 Q 218 185 217 178 Q 216 171 212.5 159 Q 209 147 206 134.5 Q 203 122 202 121 Q 201 120 201 121 Q 201 122 201 125 Q 201 128 202.5 130.5 Q 204 133 204.5 134.5 Q 205 136 204 137"></path><path id="lineBC" stroke="url(#grad1)" stroke-width="1.2" stroke-linejoin="miter" stroke-linecap="round" fill="none" d="M 204 137 L 203 138"></path><path id="lineBC" stroke="url(#grad1)" stroke-width="1.2" stroke-linejoin="miter" stroke-linecap="round" fill="none" d="M 194 103 L 196 106"></path><path id="quadcurveABC" stroke="url(#grad1)" stroke-width="1.2" stroke-linejoin="miter" stroke-linecap="round" fill="none" d="M 196 106 Q 198 109 196.5 108 Q 195 107 194.5 105"></path><path id="lineBC" stroke="url(#grad1)" stroke-width="1.2" stroke-linejoin="miter" stroke-linecap="round" fill="none" d="M 194.5 105 L 194 103"></path><path id="lineBC" stroke="url(#grad1)" stroke-width="1.2" stroke-linejoin="miter" stroke-linecap="round" fill="none" d="M 36 130 L 37 131"></path><path id="quadcurveABC" stroke="url(#grad1)" stroke-width="1.2" stroke-linejoin="miter" stroke-linecap="round" fill="none" d="M 37 131 Q 38 132 37.5 134 Q 37 136 36 140 Q 35 144 33.5 152 Q 32 160 29.5 176.5 Q 27 193 25 210 Q 23 227 22 235.5 Q 21 244 20.5 248.5 Q 20 253 19.5 255 Q 19 257 17.5 257 Q 16 257 15 253.5 Q 14 250 14 245 Q 14 240 15 232.5 Q 16 225 18 208 Q 20 191 23 175 Q 26 159 31 144.5"></path><path id="lineBC" stroke="url(#grad1)" stroke-width="1.2" stroke-linejoin="miter" stroke-linecap="round" fill="none" d="M 31 144.5 L 36 130"></path><path id="lineBC" stroke="url(#grad1)" stroke-width="1.2" stroke-linejoin="miter" stroke-linecap="round" fill="none" d="M 217 132 L 219 142"></path><path id="quadcurveABC" stroke="url(#grad1)" stroke-width="1.2" stroke-linejoin="miter" stroke-linecap="round" fill="none" d="M 219 142 Q 221 152 219.5 147.5 Q 218 143 217 137.5"></path><path id="lineBC" stroke="url(#grad1)" stroke-width="1.2" stroke-linejoin="miter" stroke-linecap="round" fill="none" d="M 217 137.5 L 216 132"></path><path id="lineBC" stroke="url(#grad1)" stroke-width="1.2" stroke-linejoin="miter" stroke-linecap="round" fill="none" d="M 77 154 L 88 155"></path><path id="quadcurveABC" stroke="url(#grad1)" stroke-width="1.2" stroke-linejoin="miter" stroke-linecap="round" fill="none" d="M 88 155 Q 99 156 102.5 157.5 Q 106 159 108 160 Q 110 161 109.5 162 Q 109 163 107.5 163 Q 106 163 103.5 163.5 Q 101 164 98.5 163.5 Q 96 163 91 162 Q 86 161 81 160 Q 76 159 75 158.5 Q 74 158 73.5 157 Q 73 156 75 155"></path><path id="lineBC" stroke="url(#grad1)" stroke-width="1.2" stroke-linejoin="miter" stroke-linecap="round" fill="none" d="M 75 155 L 77 154"></path><path id="lineBC" stroke="url(#grad1)" stroke-width="1.2" stroke-linejoin="miter" stroke-linecap="round" fill="none" d="M 163 155 L 165 155.5"></path><path id="quadcurveABC" stroke="url(#grad1)" stroke-width="1.2" stroke-linejoin="miter" stroke-linecap="round" fill="none" d="M 165 155.5 Q 167 156 167.5 156.5 Q 168 157 167.5 158 Q 167 159 162.5 160 Q 158 161 156 161.5 Q 154 162 154.5 160 Q 155 158 157 157.5 Q 159 157 161 156"></path><path id="lineBC" stroke="url(#grad1)" stroke-width="1.2" stroke-linejoin="miter" stroke-linecap="round" fill="none" d="M 161 156 L 163 155"></path><path id="lineBC" stroke="url(#grad1)" stroke-width="1.2" stroke-linejoin="miter" stroke-linecap="round" fill="none" d="M 211 167 L 210.5 168.5"></path><path id="quadcurveABC" stroke="url(#grad1)" stroke-width="1.2" stroke-linejoin="miter" stroke-linecap="round" fill="none" d="M 210.5 168.5 Q 210 170 210.5 171.5 Q 211 173 211 175 Q 211 177 212 178 Q 213 179 213.5 175.5 Q 214 172 212.5 169.5"></path><path id="lineBC" stroke="url(#grad1)" stroke-width="1.2" stroke-linejoin="miter" stroke-linecap="round" fill="none" d="M 212.5 169.5 L 211 167"></path><path id="lineBC" stroke="url(#grad1)" stroke-width="1.2" stroke-linejoin="miter" stroke-linecap="round" fill="none" d="M 81 183 L 87 183"></path><path id="quadcurveABC" stroke="url(#grad1)" stroke-width="1.2" stroke-linejoin="miter" stroke-linecap="round" fill="none" d="M 87 183 Q 93 183 96.5 185"></path><path id="lineBC" stroke="url(#grad1)" stroke-width="1.2" stroke-linejoin="miter" stroke-linecap="round" fill="none" d="M 96.5 185 L 100 187"></path><path id="lineBC" stroke="url(#grad1)" stroke-width="1.2" stroke-linejoin="miter" stroke-linecap="round" fill="none" d="M 81 183 L 76.5 185"></path><path id="quadcurveABC" stroke="url(#grad1)" stroke-width="1.2" stroke-linejoin="miter" stroke-linecap="round" fill="none" d="M 76.5 185 Q 72 187 70.5 187 Q 69 187 68.5 188 Q 68 189 66.5 191 Q 65 193 65 194.5 Q 65 196 66 196.5 Q 67 197 69.5 198 Q 72 199 74.5 198.5 Q 77 198 77.5 197 Q 78 196 77 195 Q 76 194 76.5 191.5 Q 77 189 79 190 Q 81 191 82 193 Q 83 195 83 196.5 Q 83 198 84.5 198.5 Q 86 199 90.5 197 Q 95 195 97.5 191"></path><path id="lineBC" stroke="url(#grad1)" stroke-width="1.2" stroke-linejoin="miter" stroke-linecap="round" fill="none" d="M 97.5 191 L 100 187"></path><path id="lineBC" stroke="url(#grad1)" stroke-width="1.2" stroke-linejoin="miter" stroke-linecap="round" fill="none" d="M 116 185 L 117.5 185.5"></path><path id="quadcurveABC" stroke="url(#grad1)" stroke-width="1.2" stroke-linejoin="miter" stroke-linecap="round" fill="none" d="M 117.5 185.5 Q 119 186 119.5 186.5 Q 120 187 120 187.5 Q 120 188 118.5 188.5 Q 117 189 116.5 187"></path><path id="lineBC" stroke="url(#grad1)" stroke-width="1.2" stroke-linejoin="miter" stroke-linecap="round" fill="none" d="M 116.5 187 L 116 185"></path><path id="lineBC" stroke="url(#grad1)" stroke-width="1.2" stroke-linejoin="miter" stroke-linecap="round" fill="none" d="M 101 186 L 103.5 187.5"></path><path id="quadcurveABC" stroke="url(#grad1)" stroke-width="1.2" stroke-linejoin="miter" stroke-linecap="round" fill="none" d="M 103.5 187.5 Q 106 189 107.5 189.5 Q 109 190 108.5 191.5 Q 108 193 106.5 193.5 Q 105 194 104 193 Q 103 192 101.5 189.5"></path><path id="lineBC" stroke="url(#grad1)" stroke-width="1.2" stroke-linejoin="miter" stroke-linecap="round" fill="none" d="M 101.5 189.5 L 100 187"></path><path id="lineBC" stroke="url(#grad1)" stroke-width="1.2" stroke-linejoin="miter" stroke-linecap="round" fill="none" d="M 224 188 L 225.5 189"></path><path id="quadcurveABC" stroke="url(#grad1)" stroke-width="1.2" stroke-linejoin="miter" stroke-linecap="round" fill="none" d="M 225.5 189 Q 227 190 227.5 192 Q 228 194 228.5 199 Q 229 204 228 204 Q 227 204 227 202.5 Q 227 201 226.5 199 Q 226 197 225 195.5 Q 224 194 224 191"></path><path id="lineBC" stroke="url(#grad1)" stroke-width="1.2" stroke-linejoin="miter" stroke-linecap="round" fill="none" d="M 224 191 L 224 188"></path><path id="lineBC" stroke="url(#grad1)" stroke-width="1.2" stroke-linejoin="miter" stroke-linecap="round" fill="none" d="M 224 216 L 227 217"></path><path id="quadcurveABC" stroke="url(#grad1)" stroke-width="1.2" stroke-linejoin="miter" stroke-linecap="round" fill="none" d="M 227 217 Q 230 218 230.5 219.5 Q 231 221 229.5 222 Q 228 223 227.5 226.5 Q 227 230 228 233.5 Q 229 237 229 238 Q 229 239 227.5 238.5 Q 226 238 225 237 Q 224 236 223.5 235.5 Q 223 235 223.5 234 Q 224 233 224 224.5"></path><path id="lineBC" stroke="url(#grad1)" stroke-width="1.2" stroke-linejoin="miter" stroke-linecap="round" fill="none" d="M 224 224.5 L 224 216"></path><path id="lineBC" stroke="url(#grad1)" stroke-width="1.2" stroke-linejoin="miter" stroke-linecap="round" fill="none" d="M 109 226 L 110 226"></path><path id="quadcurveABC" stroke="url(#grad1)" stroke-width="1.2" stroke-linejoin="miter" stroke-linecap="round" fill="none" d="M 110 226 Q 111 226 111 226.5 Q 111 227 109.5 228.5 Q 108 230 107.5 230.5 Q 107 231 107 230.5 Q 107 230 108 228"></path><path id="lineBC" stroke="url(#grad1)" stroke-width="1.2" stroke-linejoin="miter" stroke-linecap="round" fill="none" d="M 108 228 L 109 226"></path><path id="lineBC" stroke="url(#grad1)" stroke-width="1.2" stroke-linejoin="miter" stroke-linecap="round" fill="none" d="M 119 240 L 121.5 240"></path><path id="quadcurveABC" stroke="url(#grad1)" stroke-width="1.2" stroke-linejoin="miter" stroke-linecap="round" fill="none" d="M 121.5 240 Q 124 240 125.5 241 Q 127 242 127 244.5 Q 127 247 124.5 247 Q 122 247 118 246 Q 114 245 116.5 242.5"></path><path id="lineBC" stroke="url(#grad1)" stroke-width="1.2" stroke-linejoin="miter" stroke-linecap="round" fill="none" d="M 116.5 242.5 L 119 240"></path><path id="lineBC" stroke="url(#grad1)" stroke-width="1.2" stroke-linejoin="miter" stroke-linecap="round" fill="none" d="M 144 240 L 147.5 240.5"></path><path id="quadcurveABC" stroke="url(#grad1)" stroke-width="1.2" stroke-linejoin="miter" stroke-linecap="round" fill="none" d="M 147.5 240.5 Q 151 241 152 242 Q 153 243 152 244.5 Q 151 246 147.5 245.5 Q 144 245 143 244 Q 142 243 143 241.5"></path><path id="lineBC" stroke="url(#grad1)" stroke-width="1.2" stroke-linejoin="miter" stroke-linecap="round" fill="none" d="M 143 241.5 L 144 240"></path><path id="lineBC" stroke="url(#grad1)" stroke-width="1.2" stroke-linejoin="miter" stroke-linecap="round" fill="none" d="M 234 249 L 235 252"></path><path id="quadcurveABC" stroke="url(#grad1)" stroke-width="1.2" stroke-linejoin="miter" stroke-linecap="round" fill="none" d="M 235 252 Q 236 255 235.5 257.5 Q 235 260 234 257 Q 233 254 233.5 251.5"></path><path id="lineBC" stroke="url(#grad1)" stroke-width="1.2" stroke-linejoin="miter" stroke-linecap="round" fill="none" d="M 233.5 251.5 L 234 249"></path><path id="lineBC" stroke="url(#grad1)" stroke-width="1.2" stroke-linejoin="miter" stroke-linecap="round" fill="none" d="M 87 253 L 87.5 253.5"></path><path id="quadcurveABC" stroke="url(#grad1)" stroke-width="1.2" stroke-linejoin="miter" stroke-linecap="round" fill="none" d="M 87.5 253.5 Q 88 254 87.5 255 Q 87 256 86 257.5 Q 85 259 84.5 258.5 Q 84 258 84.5 257 Q 85 256 86 254.5"></path><path id="lineBC" stroke="url(#grad1)" stroke-width="1.2" stroke-linejoin="miter" stroke-linecap="round" fill="none" d="M 86 254.5 L 87 253"></path><path id="lineBC" stroke="url(#grad1)" stroke-width="1.2" stroke-linejoin="miter" stroke-linecap="round" fill="none" d="M 30 254 L 31.5 257"></path><path id="quadcurveABC" stroke="url(#grad1)" stroke-width="1.2" stroke-linejoin="miter" stroke-linecap="round" fill="none" d="M 31.5 257 Q 33 260 33 264 Q 33 268 34 276.5 Q 35 285 36.5 293 Q 38 301 39 304.5 Q 40 308 40.5 310 Q 41 312 41 313 Q 41 314 40.5 314 Q 40 314 38.5 312 Q 37 310 36 306 Q 35 302 34 298.5 Q 33 295 32.5 290.5 Q 32 286 30.5 278 Q 29 270 29.5 262"></path><path id="lineBC" stroke="url(#grad1)" stroke-width="1.2" stroke-linejoin="miter" stroke-linecap="round" fill="none" d="M 29.5 262 L 30 254"></path><path id="lineBC" stroke="url(#grad1)" stroke-width="1.2" stroke-linejoin="miter" stroke-linecap="round" fill="none" d="M 180 255 L 181.5 256"></path><path id="quadcurveABC" stroke="url(#grad1)" stroke-width="1.2" stroke-linejoin="miter" stroke-linecap="round" fill="none" d="M 181.5 256 Q 183 257 184 259 Q 185 261 184 261 Q 183 261 182.5 260 Q 182 259 181 258.5 Q 180 258 180 256.5"></path><path id="lineBC" stroke="url(#grad1)" stroke-width="1.2" stroke-linejoin="miter" stroke-linecap="round" fill="none" d="M 180 256.5 L 180 255"></path><path id="lineBC" stroke="url(#grad1)" stroke-width="1.2" stroke-linejoin="miter" stroke-linecap="round" fill="none" d="M 170 263 L 172.5 263.5"></path><path id="quadcurveABC" stroke="url(#grad1)" stroke-width="1.2" stroke-linejoin="miter" stroke-linecap="round" fill="none" d="M 172.5 263.5 Q 175 264 176 264.5 Q 177 265 177 266.5 Q 177 268 171.5 269 Q 166 270 154 271 Q 142 272 130.5 272 Q 119 272 113.5 272 Q 108 272 107 272.5 Q 106 273 105 272.5 Q 104 272 101 271.5 Q 98 271 95.5 270.5 Q 93 270 92.5 269 Q 92 268 92.5 267 Q 93 266 95.5 265.5 Q 98 265 101 265.5 Q 104 266 115.5 267.5 Q 127 269 137.5 268 Q 148 267 154 266.5 Q 160 266 165 264.5"></path><path id="lineBC" stroke="url(#grad1)" stroke-width="1.2" stroke-linejoin="miter" stroke-linecap="round" fill="none" d="M 165 264.5 L 170 263"></path><path id="lineBC" stroke="url(#grad1)" stroke-width="1.2" stroke-linejoin="miter" stroke-linecap="round" fill="none" d="M 219 277 L 220 277.5"></path><path id="quadcurveABC" stroke="url(#grad1)" stroke-width="1.2" stroke-linejoin="miter" stroke-linecap="round" fill="none" d="M 220 277.5 Q 221 278 221 280 Q 221 282 221.5 283 Q 222 284 223 285 Q 224 286 222.5 288 Q 221 290 220.5 293 Q 220 296 220 298.5 Q 220 301 220.5 304 Q 221 307 219.5 309 Q 218 311 217 312 Q 216 313 216.5 314.5 Q 217 316 217 316.5 Q 217 317 216.5 316.5 Q 216 316 214 314.5 Q 212 313 212.5 306.5 Q 213 300 216 288.5"></path><path id="lineBC" stroke="url(#grad1)" stroke-width="1.2" stroke-linejoin="miter" stroke-linecap="round" fill="none" d="M 216 288.5 L 219 277"></path></svg>