<svg xmlns="http://www.w3.org/2000/svg" width="265px" height="380px" version="1.1" viewBox="0 0 265 380" style="width: 265px; height: 380px; "><defs><linearGradient id="grad1" gradientUnits="userSpaceOnUse" x1="0%" y1="0%" x2="100%" y2="100%"><stop offset="0%" style="stop-color:#E89681;stop-opacity:1"></stop><stop offset="100%" style="stop-color:#E38892;stop-opacity:1"></stop></linearGradient><linearGradient id="grad2" gradientUnits="userSpaceOnUse" x1="0%" y1="100%" x2="100%" y2="0%"><stop offset="0px" style="stop-color:#E38892;stop-opacity:1"></stop><stop offset="100%" style="stop-color:#DD78A3;stop-opacity:1"></stop></linearGradient></defs><path id="lineBC" stroke="url(#grad1)" stroke-width="1.2" stroke-linejoin="miter" stroke-linecap="round" fill="none" d="M 130 21 L 126 24"></path><path id="quadcurveABC" stroke="url(#grad1)" stroke-width="1.2" stroke-linejoin="miter" stroke-linecap="round" fill="none" d="M 126 24 Q 122 27 120 28.5 Q 118 30 117 31 Q 116 32 114 32 Q 112 32 109 36 Q 106 40 104 41.5 Q 102 43 100 43 Q 98 43 97 42 Q 96 41 97 40.5 Q 98 40 98 39 Q 98 38 97 38.5 Q 96 39 95 40 Q 94 41 90 44 Q 86 47 82 50 Q 78 53 73.5 50"></path><path id="lineBC" stroke="url(#grad1)" stroke-width="1.2" stroke-linejoin="miter" stroke-linecap="round" fill="none" d="M 73.5 50 L 69 47"></path><path id="lineBC" stroke="url(#grad1)" stroke-width="1.2" stroke-linejoin="miter" stroke-linecap="round" fill="none" d="M 156 30 L 159.5 35"></path><path id="quadcurveABC" stroke="url(#grad1)" stroke-width="1.2" stroke-linejoin="miter" stroke-linecap="round" fill="none" d="M 159.5 35 Q 163 40 161.5 46.5 Q 160 53 162 53 Q 164 53 164.5 55 Q 165 57 162 55.5 Q 159 54 157.5 53.5 Q 156 53 155.5 55 Q 155 57 152 56.5 Q 149 56 147.5 54.5 Q 146 53 147.5 52.5 Q 149 52 149 50.5 Q 149 49 147.5 46 Q 146 43 142.5 42 Q 139 41 136.5 39 Q 134 37 132.5 36.5 Q 131 36 130.5 38 Q 130 40 129.5 41.5 Q 129 43 127.5 44 Q 126 45 123.5 47"></path><path id="lineBC" stroke="url(#grad1)" stroke-width="1.2" stroke-linejoin="miter" stroke-linecap="round" fill="none" d="M 123.5 47 L 121 49"></path><path id="lineBC" stroke="url(#grad1)" stroke-width="1.2" stroke-linejoin="miter" stroke-linecap="round" fill="none" d="M 118 41 L 116.5 43.5"></path><path id="quadcurveABC" stroke="url(#grad1)" stroke-width="1.2" stroke-linejoin="miter" stroke-linecap="round" fill="none" d="M 116.5 43.5 Q 115 46 115 48 Q 115 50 114.5 50.5 Q 114 51 113.5 50 Q 113 49 111.5 49.5 Q 110 50 109 51 Q 108 52 108.5 53.5 Q 109 55 110.5 56 Q 112 57 113 58 Q 114 59 113.5 60.5 Q 113 62 112 63 Q 111 64 112 65.5 Q 113 67 109.5 66 Q 106 65 106.5 65.5 Q 107 66 105.5 67 Q 104 68 103 65 Q 102 62 98.5 61 Q 95 60 91.5 61 Q 88 62 87 63 Q 86 64 87.5 65 Q 89 66 91 68 Q 93 70 93 71 Q 93 72 92 72 Q 91 72 90.5 73 Q 90 74 90.5 73.5 Q 91 73 91.5 75 Q 92 77 89 76.5 Q 86 76 85.5 73.5 Q 85 71 82.5 69 Q 80 67 79 66 Q 78 65 77.5 66.5 Q 77 68 77 71.5 Q 77 75 76 77 Q 75 79 73.5 79.5 Q 72 80 70.5 81 Q 69 82 65.5 83 Q 62 84 61.5 87 Q 61 90 59.5 90.5 Q 58 91 57.5 92.5 Q 57 94 57.5 97 Q 58 100 57.5 101.5 Q 57 103 58 104.5 Q 59 106 60.5 106.5 Q 62 107 62 108 Q 62 109 63 109.5 Q 64 110 66.5 110.5 Q 69 111 71.5 109 Q 74 107 75.5 106.5 Q 77 106 79 106.5 Q 81 107 82 108 Q 83 109 85 109.5"></path><path id="lineBC" stroke="url(#grad1)" stroke-width="1.2" stroke-linejoin="miter" stroke-linecap="round" fill="none" d="M 85 109.5 L 87 110"></path><path id="lineBC" stroke="url(#grad1)" stroke-width="1.2" stroke-linejoin="miter" stroke-linecap="round" fill="none" d="M 118 41 L 119 41"></path><path id="quadcurveABC" stroke="url(#grad1)" stroke-width="1.2" stroke-linejoin="miter" stroke-linecap="round" fill="none" d="M 119 41 Q 120 41 120 41.5 Q 120 42 120 43.5 Q 120 45 120 46 Q 120 47 119.5 47.5 Q 119 48 120 48.5"></path><path id="lineBC" stroke="url(#grad1)" stroke-width="1.2" stroke-linejoin="miter" stroke-linecap="round" fill="none" d="M 120 48.5 L 121 49"></path><path id="lineBC" stroke="url(#grad1)" stroke-width="1.2" stroke-linejoin="miter" stroke-linecap="round" fill="none" d="M 69 48 L 70 50.5"></path><path id="quadcurveABC" stroke="url(#grad1)" stroke-width="1.2" stroke-linejoin="miter" stroke-linecap="round" fill="none" d="M 70 50.5 Q 71 53 70.5 56 Q 70 59 68.5 61 Q 67 63 67 65.5 Q 67 68 64.5 69 Q 62 70 58.5 70 Q 55 70 51.5 70 Q 48 70 47.5 73 Q 47 76 48.5 76.5 Q 50 77 50 79.5 Q 50 82 52.5 82 Q 55 82 57.5 83 Q 60 84 60 84.5 Q 60 85 59 86 Q 58 87 55.5 88 Q 53 89 50.5 90 Q 48 91 47.5 94"></path><path id="lineBC" stroke="url(#grad1)" stroke-width="1.2" stroke-linejoin="miter" stroke-linecap="round" fill="none" d="M 47.5 94 L 47 97"></path><path id="lineBC" stroke="url(#grad1)" stroke-width="1.2" stroke-linejoin="miter" stroke-linecap="round" fill="none" d="M 122 49 L 122 50"></path><path id="quadcurveABC" stroke="url(#grad1)" stroke-width="1.2" stroke-linejoin="miter" stroke-linecap="round" fill="none" d="M 122 50 Q 122 51 121 52 Q 120 53 119.5 52 Q 119 51 120 50"></path><path id="lineBC" stroke="url(#grad1)" stroke-width="1.2" stroke-linejoin="miter" stroke-linecap="round" fill="none" d="M 120 50 L 121 49"></path><path id="lineBC" stroke="url(#grad1)" stroke-width="1.2" stroke-linejoin="miter" stroke-linecap="round" fill="none" d="M 158 59 L 166 62"></path><path id="quadcurveABC" stroke="url(#grad1)" stroke-width="1.2" stroke-linejoin="miter" stroke-linecap="round" fill="none" d="M 166 62 Q 174 65 178 67 Q 182 69 185.5 66.5 Q 189 64 188.5 63 Q 188 62 189 61.5 Q 190 61 191 63 Q 192 65 191.5 70.5 Q 191 76 190.5 78.5 Q 190 81 191 83 Q 192 85 195.5 88 Q 199 91 198.5 93.5 Q 198 96 199.5 97.5 Q 201 99 203 102 Q 205 105 207.5 105.5 Q 210 106 211.5 106 Q 213 106 213.5 107 Q 214 108 215 108.5 Q 216 109 216.5 110 Q 217 111 218.5 113 Q 220 115 221 117 Q 222 119 221.5 121.5 Q 221 124 219.5 125.5 Q 218 127 218 128.5 Q 218 130 219.5 130 Q 221 130 221.5 129 Q 222 128 222.5 129 Q 223 130 224 132 Q 225 134 225.5 135 Q 226 136 225.5 137 Q 225 138 223.5 140 Q 222 142 222.5 143 Q 223 144 222 144.5 Q 221 145 220.5 147.5 Q 220 150 218.5 150 Q 217 150 216.5 149 Q 216 148 217 147.5 Q 218 147 218 146.5 Q 218 146 219 144 Q 220 142 218.5 140.5 Q 217 139 218 138.5 Q 219 138 219.5 137 Q 220 136 219.5 135 Q 219 134 217.5 134 Q 216 134 215 134.5 Q 214 135 213.5 134 Q 213 133 211 132 Q 209 131 209 135 Q 209 139 210.5 143.5 Q 212 148 210 148 Q 208 148 206 146.5 Q 204 145 204 142 Q 204 139 203 137 Q 202 135 200 131 Q 198 127 198.5 124.5 Q 199 122 201.5 121.5 Q 204 121 205 120.5 Q 206 120 205.5 119 Q 205 118 203.5 116 Q 202 114 199.5 113.5 Q 197 113 199 112 Q 201 111 201.5 108.5 Q 202 106 199.5 106.5 Q 197 107 194.5 103.5 Q 192 100 192.5 101 Q 193 102 192 102.5 Q 191 103 191 101.5 Q 191 100 190 99"></path><path id="lineBC" stroke="url(#grad1)" stroke-width="1.2" stroke-linejoin="miter" stroke-linecap="round" fill="none" d="M 190 99 L 189 98"></path><path id="lineBC" stroke="url(#grad1)" stroke-width="1.2" stroke-linejoin="miter" stroke-linecap="round" fill="none" d="M 176 77 L 176 79.5"></path><path id="quadcurveABC" stroke="url(#grad1)" stroke-width="1.2" stroke-linejoin="miter" stroke-linecap="round" fill="none" d="M 176 79.5 Q 176 82 175 83.5 Q 174 85 170.5 86 Q 167 87 165.5 88 Q 164 89 163 87.5 Q 162 86 159.5 87 Q 157 88 153 88 Q 149 88 147 87.5 Q 145 87 145.5 85.5 Q 146 84 145.5 83.5 Q 145 83 144.5 84 Q 144 85 143.5 86 Q 143 87 142 87.5 Q 141 88 136.5 87 Q 132 86 132.5 88 Q 133 90 133 91 Q 133 92 131.5 92 Q 130 92 128.5 93 Q 127 94 126 93.5 Q 125 93 124.5 92 Q 124 91 122.5 90 Q 121 89 120.5 88.5 Q 120 88 121 87.5 Q 122 87 122.5 86.5 Q 123 86 121.5 86 Q 120 86 118 87 Q 116 88 115.5 90 Q 115 92 113 92.5 Q 111 93 109.5 93 Q 108 93 107 93.5 Q 106 94 105.5 95 Q 105 96 104 96 Q 103 96 102.5 97 Q 102 98 101.5 97.5 Q 101 97 100.5 98 Q 100 99 99 100.5 Q 98 102 97 102.5 Q 96 103 95 102.5"></path><path id="lineBC" stroke="url(#grad1)" stroke-width="1.2" stroke-linejoin="miter" stroke-linecap="round" fill="none" d="M 95 102.5 L 94 102"></path><path id="lineBC" stroke="url(#grad1)" stroke-width="1.2" stroke-linejoin="miter" stroke-linecap="round" fill="none" d="M 176 77 L 180 82"></path><path id="quadcurveABC" stroke="url(#grad1)" stroke-width="1.2" stroke-linejoin="miter" stroke-linecap="round" fill="none" d="M 180 82 Q 184 87 186.5 92.5"></path><path id="lineBC" stroke="url(#grad1)" stroke-width="1.2" stroke-linejoin="miter" stroke-linecap="round" fill="none" d="M 186.5 92.5 L 189 98"></path><path id="lineBC" stroke="url(#grad1)" stroke-width="1.2" stroke-linejoin="miter" stroke-linecap="round" fill="none" d="M 125 78 L 124.5 79"></path><path id="quadcurveABC" stroke="url(#grad1)" stroke-width="1.2" stroke-linejoin="miter" stroke-linecap="round" fill="none" d="M 124.5 79 Q 124 80 123 80.5 Q 122 81 118.5 81 Q 115 81 113.5 82.5 Q 112 84 111 84.5 Q 110 85 110.5 86.5 Q 111 88 109 89 Q 107 90 107 88.5 Q 107 87 105.5 87.5 Q 104 88 102 87 Q 100 86 99 88.5 Q 98 91 97.5 92 Q 97 93 95.5 93 Q 94 93 94 90.5 Q 94 88 92.5 86.5 Q 91 85 90.5 84 Q 90 83 89 84 Q 88 85 84 83.5 Q 80 82 78.5 83.5 Q 77 85 77.5 86 Q 78 87 76 87"></path><path id="lineBC" stroke="url(#grad1)" stroke-width="1.2" stroke-linejoin="miter" stroke-linecap="round" fill="none" d="M 76 87 L 74 87"></path><path id="lineBC" stroke="url(#grad1)" stroke-width="1.2" stroke-linejoin="miter" stroke-linecap="round" fill="none" d="M 81 86 L 80 87.5"></path><path id="quadcurveABC" stroke="url(#grad1)" stroke-width="1.2" stroke-linejoin="miter" stroke-linecap="round" fill="none" d="M 80 87.5 Q 79 89 77 89 Q 75 89 72.5 89.5 Q 70 90 70 92 Q 70 94 73 94 Q 76 94 76.5 96.5 Q 77 99 74.5 99.5 Q 72 100 72.5 101 Q 73 102 71.5 102 Q 70 102 67.5 103 Q 65 104 64.5 103 Q 64 102 63 101.5 Q 62 101 62.5 101 Q 63 101 63.5 100 Q 64 99 63.5 96.5 Q 63 94 64.5 94 Q 66 94 66 92.5 Q 66 91 70 89"></path><path id="lineBC" stroke="url(#grad1)" stroke-width="1.2" stroke-linejoin="miter" stroke-linecap="round" fill="none" d="M 70 89 L 74 87"></path><path id="lineBC" stroke="url(#grad1)" stroke-width="1.2" stroke-linejoin="miter" stroke-linecap="round" fill="none" d="M 43 97 L 38 103.5"></path><path id="quadcurveABC" stroke="url(#grad1)" stroke-width="1.2" stroke-linejoin="miter" stroke-linecap="round" fill="none" d="M 38 103.5 Q 33 110 32 114.5 Q 31 119 30.5 121.5 Q 30 124 29.5 125 Q 29 126 29.5 127 Q 30 128 29.5 133 Q 29 138 28.5 140.5 Q 28 143 28.5 145.5 Q 29 148 30 152.5 Q 31 157 30 162 Q 29 167 30.5 171 Q 32 175 34.5 178.5 Q 37 182 43.5 187 Q 50 192 53 200.5 Q 56 209 57 211 Q 58 213 60 214 Q 62 215 66.5 216.5 Q 71 218 81 218.5 Q 91 219 100 217.5 Q 109 216 111 216.5 Q 113 217 114.5 216.5 Q 116 216 118 212 Q 120 208 123 199.5 Q 126 191 126 190 Q 126 189 127 188.5 Q 128 188 130.5 188.5 Q 133 189 135 193 Q 137 197 140.5 205 Q 144 213 153 215.5 Q 162 218 172 218 Q 182 218 191.5 216 Q 201 214 203.5 211 Q 206 208 207 203 Q 208 198 209 193.5 Q 210 189 211.5 189 Q 213 189 212.5 188 Q 212 187 213 185 Q 214 183 217 185.5 Q 220 188 219.5 189 Q 219 190 218 190.5 Q 217 191 217.5 193.5 Q 218 196 215 215 Q 212 234 210 243.5 Q 208 253 205.5 256 Q 203 259 201.5 263.5 Q 200 268 199 269.5 Q 198 271 199 273 Q 200 275 200.5 276 Q 201 277 200.5 278 Q 200 279 199 281 Q 198 283 196 286.5 Q 194 290 193 292 Q 192 294 190 295 Q 188 296 187 297.5 Q 186 299 185.5 300 Q 185 301 183.5 301 Q 182 301 181 301.5 Q 180 302 180 303.5 Q 180 305 180 308 Q 180 311 173 315.5 Q 166 320 162 319.5 Q 158 319 154.5 320.5 Q 151 322 150.5 324 Q 150 326 148 327 Q 146 328 144.5 329.5 Q 143 331 141 330 Q 139 329 135.5 328 Q 132 327 130 327 Q 128 327 126.5 328.5 Q 125 330 120 330 Q 115 330 112.5 326.5"></path><path id="lineBC" stroke="url(#grad1)" stroke-width="1.2" stroke-linejoin="miter" stroke-linecap="round" fill="none" d="M 112.5 326.5 L 110 323"></path><path id="lineBC" stroke="url(#grad1)" stroke-width="1.2" stroke-linejoin="miter" stroke-linecap="round" fill="none" d="M 48 106 L 47 109"></path><path id="quadcurveABC" stroke="url(#grad1)" stroke-width="1.2" stroke-linejoin="miter" stroke-linecap="round" fill="none" d="M 47 109 Q 46 112 45 112 Q 44 112 43.5 113.5 Q 43 115 41.5 121.5 Q 40 128 41 129 Q 42 130 44 130 Q 46 130 47.5 129.5 Q 49 129 49.5 127.5 Q 50 126 51 125 Q 52 124 53 125 Q 54 126 53 127 Q 52 128 53 129.5 Q 54 131 54.5 132.5 Q 55 134 53.5 134.5 Q 52 135 51 134 Q 50 133 49 134 Q 48 135 48.5 137.5 Q 49 140 48.5 141.5 Q 48 143 49 144 Q 50 145 52 143 Q 54 141 55 140 Q 56 139 56 137 Q 56 135 56.5 129.5"></path><path id="lineBC" stroke="url(#grad1)" stroke-width="1.2" stroke-linejoin="miter" stroke-linecap="round" fill="none" d="M 56.5 129.5 L 57 124"></path><path id="lineBC" stroke="url(#grad1)" stroke-width="1.2" stroke-linejoin="miter" stroke-linecap="round" fill="none" d="M 55 109 L 54.5 110"></path><path id="quadcurveABC" stroke="url(#grad1)" stroke-width="1.2" stroke-linejoin="miter" stroke-linecap="round" fill="none" d="M 54.5 110 Q 54 111 54.5 112.5 Q 55 114 58.5 113.5 Q 62 113 61 111.5 Q 60 110 58.5 110.5 Q 57 111 56 110"></path><path id="lineBC" stroke="url(#grad1)" stroke-width="1.2" stroke-linejoin="miter" stroke-linecap="round" fill="none" d="M 56 110 L 55 109"></path><path id="lineBC" stroke="url(#grad1)" stroke-width="1.2" stroke-linejoin="miter" stroke-linecap="round" fill="none" d="M 87 111 L 87.5 112.5"></path><path id="quadcurveABC" stroke="url(#grad1)" stroke-width="1.2" stroke-linejoin="miter" stroke-linecap="round" fill="none" d="M 87.5 112.5 Q 88 114 87.5 115.5 Q 87 117 85 119.5 Q 83 122 81 124 Q 79 126 78 127 Q 77 128 77.5 126"></path><path id="lineBC" stroke="url(#grad1)" stroke-width="1.2" stroke-linejoin="miter" stroke-linecap="round" fill="none" d="M 77.5 126 L 78 124"></path><path id="lineBC" stroke="url(#grad1)" stroke-width="1.2" stroke-linejoin="miter" stroke-linecap="round" fill="none" d="M 76 115 L 72.5 123.5"></path><path id="quadcurveABC" stroke="url(#grad1)" stroke-width="1.2" stroke-linejoin="miter" stroke-linecap="round" fill="none" d="M 72.5 123.5 Q 69 132 67 136.5 Q 65 141 65 142.5 Q 65 144 64 145 Q 63 146 61.5 148 Q 60 150 56 159.5 Q 52 169 50.5 170.5 Q 49 172 49 172.5 Q 49 173 49.5 174.5 Q 50 176 53 176.5 Q 56 177 58.5 176 Q 61 175 72.5 175 Q 84 175 90 175.5 Q 96 176 97.5 176 Q 99 176 98 177 Q 97 178 93.5 178 Q 90 178 78 178.5 Q 66 179 61 180.5 Q 56 182 55.5 188.5 Q 55 195 56 200.5 Q 57 206 58.5 208 Q 60 210 62.5 211 Q 65 212 70.5 213 Q 76 214 83 214 Q 90 214 96.5 214 Q 103 214 107.5 211.5 Q 112 209 115.5 199 Q 119 189 118.5 186.5 Q 118 184 116 182.5 Q 114 181 109 179 Q 104 177 106.5 176.5 Q 109 176 110.5 176 Q 112 176 111 175 Q 110 174 104.5 172.5 Q 99 171 88.5 168 Q 78 165 73 164.5 Q 68 164 69.5 162 Q 71 160 71.5 159 Q 72 158 74 158 Q 76 158 82 157.5 Q 88 157 93.5 158.5 Q 99 160 104 161.5 Q 109 163 109.5 166 Q 110 169 111 169.5 Q 112 170 112.5 168.5 Q 113 167 114.5 166.5 Q 116 166 116 168.5 Q 116 171 120 174 Q 124 177 126 178 Q 128 179 131 179.5 Q 134 180 135 179.5 Q 136 179 137 178 Q 138 177 139 176.5 Q 140 176 140 174 Q 140 172 143.5 169 Q 147 166 151.5 164.5 Q 156 163 158 162 Q 160 161 163.5 161 Q 167 161 173 161 Q 179 161 183.5 163 Q 188 165 189 165.5 Q 190 166 191 167 Q 192 168 191 168.5 Q 190 169 189 169 Q 188 169 175.5 170 Q 163 171 161 172 Q 159 173 158.5 174 Q 158 175 160 175 Q 162 175 163.5 175 Q 165 175 165 176 Q 165 177 163 177.5 Q 161 178 158 178 Q 155 178 152.5 179 Q 150 180 148.5 180 Q 147 180 146 181 Q 145 182 143 183.5 Q 141 185 141 188 Q 141 191 142 193.5 Q 143 196 145 201 Q 147 206 148 208 Q 149 210 151.5 211 Q 154 212 160 213 Q 166 214 178 213.5 Q 190 213 195 211.5 Q 200 210 202 205 Q 204 200 204 193.5 Q 204 187 202.5 185 Q 201 183 199 181.5 Q 197 180 186 178.5 Q 175 177 172 177 Q 169 177 168 176.5 Q 167 176 169 176 Q 171 176 177 175.5 Q 183 175 189.5 175 Q 196 175 201.5 176.5 Q 207 178 209.5 178.5 Q 212 179 213.5 179 Q 215 179 216 178 Q 217 177 218.5 171.5 Q 220 166 223 155.5 Q 226 145 227.5 145 Q 229 145 229.5 146 Q 230 147 231 149.5 Q 232 152 232.5 157.5 Q 233 163 232.5 168 Q 232 173 232.5 176 Q 233 179 231.5 181 Q 230 183 226.5 186 Q 223 189 221.5 191 Q 220 193 219.5 196 Q 219 199 220 211.5 Q 221 224 219.5 224 Q 218 224 217.5 225 Q 217 226 216 228.5 Q 215 231 214 237 Q 213 243 210.5 254 Q 208 265 205 275.5 Q 202 286 197.5 295 Q 193 304 186.5 311 Q 180 318 177 321.5 Q 174 325 169.5 327.5 Q 165 330 155.5 334 Q 146 338 134 339.5 Q 122 341 116.5 341 Q 111 341 107.5 341 Q 104 341 102 339.5 Q 100 338 92.5 332 Q 85 326 79 318.5 Q 73 311 69 301.5 Q 65 292 61.5 282 Q 58 272 56 260.5 Q 54 249 53.5 244 Q 53 239 52.5 236 Q 52 233 51 230.5 Q 50 228 47 217.5 Q 44 207 43.5 201 Q 43 195 45.5 196 Q 48 197 48.5 200 Q 49 203 51 214.5 Q 53 226 59.5 245.5 Q 66 265 69 274.5 Q 72 284 72 286 Q 72 288 73 290.5 Q 74 293 75 293.5 Q 76 294 77 295 Q 78 296 79 298.5 Q 80 301 82.5 305 Q 85 309 88.5 312.5 Q 92 316 92.5 317 Q 93 318 94.5 318 Q 96 318 97 317.5 Q 98 317 99 318 Q 100 319 101 319.5 Q 102 320 102.5 321.5 Q 103 323 106.5 323"></path><path id="lineBC" stroke="url(#grad1)" stroke-width="1.2" stroke-linejoin="miter" stroke-linecap="round" fill="none" d="M 106.5 323 L 110 323"></path><path id="lineBC" stroke="url(#grad1)" stroke-width="1.2" stroke-linejoin="miter" stroke-linecap="round" fill="none" d="M 76 115 L 78 115"></path><path id="quadcurveABC" stroke="url(#grad1)" stroke-width="1.2" stroke-linejoin="miter" stroke-linecap="round" fill="none" d="M 78 115 Q 80 115 80.5 117 Q 81 119 79.5 121.5"></path><path id="lineBC" stroke="url(#grad1)" stroke-width="1.2" stroke-linejoin="miter" stroke-linecap="round" fill="none" d="M 79.5 121.5 L 78 124"></path><path id="lineBC" stroke="url(#grad1)" stroke-width="1.2" stroke-linejoin="miter" stroke-linecap="round" fill="none" d="M 207 121 L 206.5 122.5"></path><path id="quadcurveABC" stroke="url(#grad1)" stroke-width="1.2" stroke-linejoin="miter" stroke-linecap="round" fill="none" d="M 206.5 122.5 Q 206 124 206.5 124.5 Q 207 125 208 124 Q 209 123 208 122"></path><path id="lineBC" stroke="url(#grad1)" stroke-width="1.2" stroke-linejoin="miter" stroke-linecap="round" fill="none" d="M 208 122 L 207 121"></path><path id="lineBC" stroke="url(#grad1)" stroke-width="1.2" stroke-linejoin="miter" stroke-linecap="round" fill="none" d="M 145 170 L 144 171.5"></path><path id="quadcurveABC" stroke="url(#grad1)" stroke-width="1.2" stroke-linejoin="miter" stroke-linecap="round" fill="none" d="M 144 171.5 Q 143 173 143 173.5 Q 143 174 144 174.5 Q 145 175 146 175 Q 147 175 147.5 174 Q 148 173 147.5 172 Q 147 171 146 170.5"></path><path id="lineBC" stroke="url(#grad1)" stroke-width="1.2" stroke-linejoin="miter" stroke-linecap="round" fill="none" d="M 146 170.5 L 145 170"></path><path id="lineBC" stroke="url(#grad1)" stroke-width="1.2" stroke-linejoin="miter" stroke-linecap="round" fill="none" d="M 50 181 L 49.5 181.5"></path><path id="quadcurveABC" stroke="url(#grad1)" stroke-width="1.2" stroke-linejoin="miter" stroke-linecap="round" fill="none" d="M 49.5 181.5 Q 49 182 49 182.5 Q 49 183 49 184 Q 49 185 50.5 185 Q 52 185 53 183.5 Q 54 182 52 181.5"></path><path id="lineBC" stroke="url(#grad1)" stroke-width="1.2" stroke-linejoin="miter" stroke-linecap="round" fill="none" d="M 52 181.5 L 50 181"></path><path id="lineBC" stroke="url(#grad1)" stroke-width="1.2" stroke-linejoin="miter" stroke-linecap="round" fill="none" d="M 83 182 L 87 182"></path><path id="quadcurveABC" stroke="url(#grad1)" stroke-width="1.2" stroke-linejoin="miter" stroke-linecap="round" fill="none" d="M 87 182 Q 91 182 93 182 Q 95 182 96 183.5 Q 97 185 96.5 189 Q 96 193 93.5 195 Q 91 197 88.5 195.5 Q 86 194 84 191.5 Q 82 189 81.5 187.5 Q 81 186 80.5 186.5 Q 80 187 79 186.5 Q 78 186 80.5 184"></path><path id="lineBC" stroke="url(#grad1)" stroke-width="1.2" stroke-linejoin="miter" stroke-linecap="round" fill="none" d="M 80.5 184 L 83 182"></path><path id="lineBC" stroke="url(#grad1)" stroke-width="1.2" stroke-linejoin="miter" stroke-linecap="round" fill="none" d="M 171 182 L 176 183.5"></path><path id="quadcurveABC" stroke="url(#grad1)" stroke-width="1.2" stroke-linejoin="miter" stroke-linecap="round" fill="none" d="M 176 183.5 Q 181 185 183 186 Q 185 187 186 187.5 Q 187 188 188 189 Q 189 190 190.5 190 Q 192 190 192.5 191 Q 193 192 193 193.5 Q 193 195 191.5 194.5 Q 190 194 186.5 191 Q 183 188 180.5 192 Q 178 196 177.5 197 Q 177 198 176 198.5 Q 175 199 172.5 198 Q 170 197 169 195 Q 168 193 168 190.5 Q 168 188 167 187.5 Q 166 187 166.5 186 Q 167 185 169 183.5"></path><path id="lineBC" stroke="url(#grad1)" stroke-width="1.2" stroke-linejoin="miter" stroke-linecap="round" fill="none" d="M 169 183.5 L 171 182"></path><path id="lineBC" stroke="url(#grad1)" stroke-width="1.2" stroke-linejoin="miter" stroke-linecap="round" fill="none" d="M 207 182 L 207 183"></path><path id="quadcurveABC" stroke="url(#grad1)" stroke-width="1.2" stroke-linejoin="miter" stroke-linecap="round" fill="none" d="M 207 183 Q 207 184 209 184.5 Q 211 185 211 184 Q 211 183 209 182.5"></path><path id="lineBC" stroke="url(#grad1)" stroke-width="1.2" stroke-linejoin="miter" stroke-linecap="round" fill="none" d="M 209 182.5 L 207 182"></path><path id="lineBC" stroke="url(#grad1)" stroke-width="1.2" stroke-linejoin="miter" stroke-linecap="round" fill="none" d="M 70 188 L 71.5 189"></path><path id="quadcurveABC" stroke="url(#grad1)" stroke-width="1.2" stroke-linejoin="miter" stroke-linecap="round" fill="none" d="M 71.5 189 Q 73 190 72.5 191.5 Q 72 193 71.5 193.5 Q 71 194 70.5 193 Q 70 192 70 190"></path><path id="lineBC" stroke="url(#grad1)" stroke-width="1.2" stroke-linejoin="miter" stroke-linecap="round" fill="none" d="M 70 190 L 70 188"></path><path id="lineBC" stroke="url(#grad1)" stroke-width="1.2" stroke-linejoin="miter" stroke-linecap="round" fill="none" d="M 224 207 L 225 208"></path><path id="quadcurveABC" stroke="url(#grad1)" stroke-width="1.2" stroke-linejoin="miter" stroke-linecap="round" fill="none" d="M 225 208 Q 226 209 226 211 Q 226 213 225 212 Q 224 211 224 209"></path><path id="lineBC" stroke="url(#grad1)" stroke-width="1.2" stroke-linejoin="miter" stroke-linecap="round" fill="none" d="M 224 209 L 224 207"></path><path id="lineBC" stroke="url(#grad1)" stroke-width="1.2" stroke-linejoin="miter" stroke-linecap="round" fill="none" d="M 114 234 L 116 234"></path><path id="quadcurveABC" stroke="url(#grad1)" stroke-width="1.2" stroke-linejoin="miter" stroke-linecap="round" fill="none" d="M 116 234 Q 118 234 119 235 Q 120 236 121.5 236.5 Q 123 237 123 238 Q 123 239 122 239.5 Q 121 240 119.5 240.5 Q 118 241 116.5 240.5 Q 115 240 114.5 238.5 Q 114 237 114 235.5"></path><path id="lineBC" stroke="url(#grad1)" stroke-width="1.2" stroke-linejoin="miter" stroke-linecap="round" fill="none" d="M 114 235.5 L 114 234"></path><path id="lineBC" stroke="url(#grad1)" stroke-width="1.2" stroke-linejoin="miter" stroke-linecap="round" fill="none" d="M 141 234 L 142.5 234.5"></path><path id="quadcurveABC" stroke="url(#grad1)" stroke-width="1.2" stroke-linejoin="miter" stroke-linecap="round" fill="none" d="M 142.5 234.5 Q 144 235 145.5 236 Q 147 237 147.5 238.5 Q 148 240 146 240.5 Q 144 241 141 239.5 Q 138 238 138 237 Q 138 236 139.5 235"></path><path id="lineBC" stroke="url(#grad1)" stroke-width="1.2" stroke-linejoin="miter" stroke-linecap="round" fill="none" d="M 139.5 235 L 141 234"></path><path id="lineBC" stroke="url(#grad1)" stroke-width="1.2" stroke-linejoin="miter" stroke-linecap="round" fill="none" d="M 119 242 L 120.5 242.5"></path><path id="quadcurveABC" stroke="url(#grad1)" stroke-width="1.2" stroke-linejoin="miter" stroke-linecap="round" fill="none" d="M 120.5 242.5 Q 122 243 123 244 Q 124 245 125 248 Q 126 251 128.5 251.5 Q 131 252 133 250 Q 135 248 136 247 Q 137 246 138.5 246.5 Q 140 247 142.5 248.5 Q 145 250 146 251 Q 147 252 148 251 Q 149 250 150 251 Q 151 252 150.5 254 Q 150 256 156 257 Q 162 258 163.5 258.5 Q 165 259 166 259 Q 167 259 168 260 Q 169 261 170.5 261.5 Q 172 262 173.5 264.5 Q 175 267 175 271 Q 175 275 174 276 Q 173 277 173 279 Q 173 281 171 283.5"></path><path id="lineBC" stroke="url(#grad1)" stroke-width="1.2" stroke-linejoin="miter" stroke-linecap="round" fill="none" d="M 171 283.5 L 169 286"></path><path id="lineBC" stroke="url(#grad1)" stroke-width="1.2" stroke-linejoin="miter" stroke-linecap="round" fill="none" d="M 119 242 L 113 248"></path><path id="quadcurveABC" stroke="url(#grad1)" stroke-width="1.2" stroke-linejoin="miter" stroke-linecap="round" fill="none" d="M 113 248 Q 107 254 97.5 257 Q 88 260 86.5 260.5 Q 85 261 84 263 Q 83 265 83.5 270.5 Q 84 276 85.5 276 Q 87 276 87.5 277 Q 88 278 88.5 279 Q 89 280 89.5 279 Q 90 278 92 277 Q 94 276 97 276.5 Q 100 277 119 276.5 Q 138 276 139 276.5 Q 140 277 141 276.5 Q 142 276 144 275 Q 146 274 150.5 275.5 Q 155 277 160 277 Q 165 277 167 281.5"></path><path id="lineBC" stroke="url(#grad1)" stroke-width="1.2" stroke-linejoin="miter" stroke-linecap="round" fill="none" d="M 167 281.5 L 169 286"></path><path id="lineBC" stroke="url(#grad1)" stroke-width="1.2" stroke-linejoin="miter" stroke-linecap="round" fill="none" d="M 118 261 L 114.5 262.5"></path><path id="quadcurveABC" stroke="url(#grad1)" stroke-width="1.2" stroke-linejoin="miter" stroke-linecap="round" fill="none" d="M 114.5 262.5 Q 111 264 109.5 263 Q 108 262 105.5 262.5 Q 103 263 102 266.5 Q 101 270 101 271.5 Q 101 273 103.5 273.5 Q 106 274 110 273 Q 114 272 119 272.5 Q 124 273 133.5 272.5 Q 143 272 147.5 272.5 Q 152 273 157 272.5 Q 162 272 162.5 271.5 Q 163 271 164 271.5 Q 165 272 164.5 271 Q 164 270 163 269.5 Q 162 269 158.5 267 Q 155 265 151.5 263.5 Q 148 262 143.5 262 Q 139 262 128.5 261.5"></path><path id="lineBC" stroke="url(#grad1)" stroke-width="1.2" stroke-linejoin="miter" stroke-linecap="round" fill="none" d="M 128.5 261.5 L 118 261"></path><path id="lineBC" stroke="url(#grad1)" stroke-width="1.2" stroke-linejoin="miter" stroke-linecap="round" fill="none" d="M 167 286 L 166.5 287.5"></path><path id="quadcurveABC" stroke="url(#grad1)" stroke-width="1.2" stroke-linejoin="miter" stroke-linecap="round" fill="none" d="M 166.5 287.5 Q 166 289 164.5 290 Q 163 291 162.5 292.5 Q 162 294 162 295 Q 162 296 163 296.5 Q 164 297 166.5 295 Q 169 293 169 289.5"></path><path id="lineBC" stroke="url(#grad1)" stroke-width="1.2" stroke-linejoin="miter" stroke-linecap="round" fill="none" d="M 169 289.5 L 169 286"></path><path id="lineBC" stroke="url(#grad1)" stroke-width="1.2" stroke-linejoin="miter" stroke-linecap="round" fill="none" d="M 118 289 L 128 289.5"></path><path id="quadcurveABC" stroke="url(#grad1)" stroke-width="1.2" stroke-linejoin="miter" stroke-linecap="round" fill="none" d="M 128 289.5 Q 138 290 139 290.5 Q 140 291 140.5 292 Q 141 293 140 295.5 Q 139 298 137.5 299.5 Q 136 301 136 302.5 Q 136 304 134.5 304.5 Q 133 305 131 304 Q 129 303 126.5 303.5 Q 124 304 121.5 304.5 Q 119 305 118 304.5 Q 117 304 118 303 Q 119 302 118.5 299.5 Q 118 297 116 295.5 Q 114 294 113 293.5 Q 112 293 112 291.5 Q 112 290 115 289.5"></path><path id="lineBC" stroke="url(#grad1)" stroke-width="1.2" stroke-linejoin="miter" stroke-linecap="round" fill="none" d="M 115 289.5 L 118 289"></path><path id="lineBC" stroke="url(#grad1)" stroke-width="1.2" stroke-linejoin="miter" stroke-linecap="round" fill="none" d="M 88 296 L 89.5 296"></path><path id="quadcurveABC" stroke="url(#grad1)" stroke-width="1.2" stroke-linejoin="miter" stroke-linecap="round" fill="none" d="M 89.5 296 Q 91 296 92 297 Q 93 298 91.5 300.5 Q 90 303 89 303.5 Q 88 304 87 303 Q 86 302 87 299"></path><path id="lineBC" stroke="url(#grad1)" stroke-width="1.2" stroke-linejoin="miter" stroke-linecap="round" fill="none" d="M 87 299 L 88 296"></path><path id="lineBC" stroke="url(#grad1)" stroke-width="1.2" stroke-linejoin="miter" stroke-linecap="round" fill="none" d="M 108 313 L 109 314"></path><path id="quadcurveABC" stroke="url(#grad1)" stroke-width="1.2" stroke-linejoin="miter" stroke-linecap="round" fill="none" d="M 109 314 Q 110 315 110.5 316.5 Q 111 318 111 319 Q 111 320 110.5 321.5"></path><path id="lineBC" stroke="url(#grad1)" stroke-width="1.2" stroke-linejoin="miter" stroke-linecap="round" fill="none" d="M 110.5 321.5 L 110 323"></path><path id="lineBC" stroke="url(#grad1)" stroke-width="1.2" stroke-linejoin="miter" stroke-linecap="round" fill="none" d="M 108 313 L 107.5 314"></path><path id="quadcurveABC" stroke="url(#grad1)" stroke-width="1.2" stroke-linejoin="miter" stroke-linecap="round" fill="none" d="M 107.5 314 Q 107 315 106 314.5 Q 105 314 104 314.5 Q 103 315 103 316.5 Q 103 318 105.5 318.5 Q 108 319 109 321"></path><path id="lineBC" stroke="url(#grad1)" stroke-width="1.2" stroke-linejoin="miter" stroke-linecap="round" fill="none" d="M 109 321 L 110 323"></path><path id="lineBC" stroke="url(#grad1)" stroke-width="1.2" stroke-linejoin="miter" stroke-linecap="round" fill="none" d="M 143 315 L 144 316.5"></path><path id="quadcurveABC" stroke="url(#grad1)" stroke-width="1.2" stroke-linejoin="miter" stroke-linecap="round" fill="none" d="M 144 316.5 Q 145 318 144 320 Q 143 322 142 320.5 Q 141 319 142 318.5 Q 143 318 143 316.5"></path><path id="lineBC" stroke="url(#grad1)" stroke-width="1.2" stroke-linejoin="miter" stroke-linecap="round" fill="none" d="M 143 316.5 L 143 315"></path></svg>