<?xml version="1.0" encoding="utf-8"?>
<!-- Generator: Adobe Illustrator 15.0.0, SVG Export Plug-In . SVG Version: 6.00 Build 0)  -->
<!DOCTYPE svg PUBLIC "-//W3C//DTD SVG 1.1//EN" "http://www.w3.org/Graphics/SVG/1.1/DTD/svg11.dtd">
<svg version="1.1" id="Layer_1" xmlns="http://www.w3.org/2000/svg" xmlns:xlink="http://www.w3.org/1999/xlink" x="0px" y="0px"
	 width="18px" height="15px" viewBox="0 0 18 15" enable-background="new 0 0 18 15" xml:space="preserve">
<g opacity="0.6">
	<path fill="#FFFFFF" d="M8.663,10.645c0.977,0,1.77-0.792,1.77-1.77c0-0.978-0.793-1.77-1.77-1.77"/>
</g>
<g opacity="0.6">
	<rect x="12.5" y="8" fill="#FFFFFF" width="2" height="2"/>
</g>
<g>
	<path fill="#FFFFFF" d="M18,14.927H0V2h18V14.927z M1,14h16V3H1V14z"/>
</g>
<g>
	<path fill="#FFFFFF" d="M6,2.782H2V0h4V2.782z"/>
</g>
<g>
	<path fill="#FFFFFF" d="M8.663,12.9c-2.219,0-4.025-1.805-4.025-4.024s1.807-4.025,4.025-4.025s4.024,1.806,4.024,4.025
		S10.882,12.9,8.663,12.9z M8.663,5.588c-1.813,0-3.286,1.475-3.286,3.287c0,1.812,1.473,3.287,3.286,3.287
		c1.812,0,3.286-1.475,3.286-3.287C11.949,7.063,10.475,5.588,8.663,5.588z"/>
</g>
</svg>
