<?xml version="1.0" encoding="utf-8"?>
<!-- Generator: Adobe Illustrator 15.0.2, SVG Export Plug-In . SVG Version: 6.00 Build 0)  -->
<!DOCTYPE svg PUBLIC "-//W3C//DTD SVG 1.1//EN" "http://www.w3.org/Graphics/SVG/1.1/DTD/svg11.dtd">
<svg version="1.1" id="Layer_1" xmlns="http://www.w3.org/2000/svg" xmlns:xlink="http://www.w3.org/1999/xlink" x="0px" y="0px"
	 width="76px" height="76px" viewBox="364.5 260.5 76 76" enable-background="new 364.5 260.5 76 76" xml:space="preserve">
<g opacity="0.35">
	<g>
		<path fill="#FFFFFF" d="M402.3,334.8c-20.126,0-36.5-16.374-36.5-36.5s16.374-36.5,36.5-36.5s36.5,16.374,36.5,36.5
			S422.426,334.8,402.3,334.8z"/>
		<path fill="#77807F" d="M402.3,262.3c19.882,0,36,16.118,36,36s-16.118,36-36,36s-36-16.118-36-36S382.418,262.3,402.3,262.3
			 M402.3,261.3c-20.402,0-37,16.598-37,37c0,20.401,16.598,37,37,37c20.401,0,37-16.599,37-37
			C439.3,277.898,422.701,261.3,402.3,261.3L402.3,261.3z"/>
	</g>
	<path fill="#77807F" d="M366.646,263.354l0.707-0.707l70.601,70.601l-0.707,0.707L366.646,263.354z"/>
	<path fill="#77807F" d="M367.354,333.954l-0.707-0.707l70.601-70.601l0.707,0.707L367.354,333.954z"/>
</g>
</svg>
