<?xml version="1.0" encoding="utf-8"?>
<!-- Generator: Adobe Illustrator 15.0.2, SVG Export Plug-In . SVG Version: 6.00 Build 0)  -->
<!DOCTYPE svg PUBLIC "-//W3C//DTD SVG 1.1//EN" "http://www.w3.org/Graphics/SVG/1.1/DTD/svg11.dtd">
<svg version="1.1" id="Layer_1" xmlns="http://www.w3.org/2000/svg" xmlns:xlink="http://www.w3.org/1999/xlink" x="0px" y="0px"
	 width="76px" height="76px" viewBox="0 0 76 76" enable-background="new 0 0 76 76" xml:space="preserve">
<g opacity="0.5">
	<path opacity="0.4" fill="#FFFFFF" d="M38,74.5C17.874,74.5,1.5,58.126,1.5,38S17.874,1.5,38,1.5S74.5,17.874,74.5,38
		S58.126,74.5,38,74.5z"/>
	<path fill="#FFFFFF" d="M38,2c19.882,0,36,16.118,36,36S57.882,74,38,74S2,57.882,2,38S18.118,2,38,2 M38,1C17.599,1,1,17.599,1,38
		s16.599,37,37,37s37-16.599,37-37S58.401,1,38,1L38,1z"/>
	<path fill="#FFFFFF" d="M2.347,3.054l0.707-0.707l70.601,70.602l-0.707,0.707L2.347,3.054z"/>
	<path fill="#FFFFFF" d="M3.054,73.654l-0.707-0.707L72.948,2.347l0.707,0.707L3.054,73.654z"/>
</g>
</svg>
