<?xml version="1.0" encoding="utf-8"?>
<!-- Generator: Adobe Illustrator 15.0.2, SVG Export Plug-In . SVG Version: 6.00 Build 0)  -->
<!DOCTYPE svg PUBLIC "-//W3C//DTD SVG 1.1//EN" "http://www.w3.org/Graphics/SVG/1.1/DTD/svg11.dtd">
<svg version="1.1" id="Layer_1" xmlns="http://www.w3.org/2000/svg" xmlns:xlink="http://www.w3.org/1999/xlink" x="0px" y="0px"
	 width="105px" height="69px" viewBox="0 0 105 69" enable-background="new 0 0 105 69" xml:space="preserve">
<g>
	<g>
		<line fill="none" stroke="#D17D94" stroke-width="1.5" stroke-miterlimit="10" x1="87.743" y1="51.748" x2="96.372" y2="60.377"/>
		<line fill="none" stroke="#D17D94" stroke-width="1.5" stroke-miterlimit="10" x1="96.372" y1="51.748" x2="87.743" y2="60.377"/>
	</g>
	<polygon display="none" fill="none" stroke="#778080" stroke-miterlimit="10" points="98.559,48.867 98.559,45.562 95.16,45.562 
		84.863,45.562 81.559,45.562 81.559,48.867 81.559,59.35 81.559,62.562 84.863,62.562 95.16,62.562 98.559,62.562 98.559,59.35 	
		"/>
	<g>
		<path fill="none" stroke="#3E4544" stroke-miterlimit="10" d="M1.734,32.467H3.29c6.212,0,11.294,5.084,11.294,11.295v19.119"/>
		<path fill="none" stroke="#3E4544" stroke-miterlimit="10" d="M1.511,11.412c5.026,0,9.1,4.074,9.1,9.1c0,5.026-4.073,9.1-9.1,9.1
			"/>
	</g>
	<polyline fill="none" stroke="#D17D94" stroke-miterlimit="10" points="7.958,0.417 0.479,0.417 0.479,7.917 	"/>
	<polyline fill="none" stroke="#D17D94" stroke-miterlimit="10" points="0.47,61.036 0.47,68.516 7.97,68.516 	"/>
	<polyline fill="none" stroke="#D17D94" stroke-miterlimit="10" points="97.064,0.417 104.545,0.417 104.545,7.917 	"/>
	<polyline fill="none" stroke="#D17D94" stroke-miterlimit="10" points="104.555,61.036 104.555,68.516 97.055,68.516 	"/>
</g>
</svg>
