<?xml version="1.0" encoding="utf-8"?>
<!-- Generator: Adobe Illustrator 15.0.2, SVG Export Plug-In . SVG Version: 6.00 Build 0)  -->
<!DOCTYPE svg PUBLIC "-//W3C//DTD SVG 1.1//EN" "http://www.w3.org/Graphics/SVG/1.1/DTD/svg11.dtd">
<svg version="1.1" id="Layer_1" xmlns="http://www.w3.org/2000/svg" xmlns:xlink="http://www.w3.org/1999/xlink" x="0px" y="0px"
	 width="105px" height="69px" viewBox="0 0 105 69" enable-background="new 0 0 105 69" xml:space="preserve">
<g>
	<g>
		<polygon display="none" fill="none" stroke="#778080" stroke-miterlimit="10" points="98.559,48.867 98.559,45.562 95.16,45.562 
			84.863,45.562 81.559,45.562 81.559,48.867 81.559,59.35 81.559,62.562 84.863,62.562 95.16,62.562 98.559,62.562 98.559,59.35 		
			"/>
		<polyline fill="none" stroke="#81BF72" stroke-width="1.5" stroke-miterlimit="10" points="85.633,55.884 89.414,59.664 
			96.805,51.336 		"/>
	</g>
	<path fill="none" stroke="#3E4544" stroke-miterlimit="10" d="M27.44,62.881V43.762c0-6.211,5.082-11.295,11.294-11.295h3.555
		c6.212,0,11.294,5.084,11.294,11.295v19.119"/>
	<circle fill="none" stroke="#3E4544" stroke-miterlimit="10" cx="40.512" cy="20.512" r="9.099"/>
	<g opacity="0.65">
		<circle fill="none" stroke="#3E4544" stroke-miterlimit="10" cx="40.511" cy="36.09" r="2.144"/>
		<polyline fill="none" stroke="#3E4544" stroke-miterlimit="10" points="41.798,38.324 43.941,51.668 40.511,55.955 37.082,51.668 
			39.226,38.324 		"/>
	</g>
	<polyline fill="none" stroke="#81BF72" stroke-miterlimit="10" points="7.958,0.417 0.479,0.417 0.479,7.917 	"/>
	<polyline fill="none" stroke="#81BF72" stroke-miterlimit="10" points="0.47,61.036 0.47,68.516 7.97,68.516 	"/>
	<polyline fill="none" stroke="#81BF72" stroke-miterlimit="10" points="97.064,0.417 104.545,0.417 104.545,7.917 	"/>
	<polyline fill="none" stroke="#81BF72" stroke-miterlimit="10" points="104.555,61.036 104.555,68.516 97.055,68.516 	"/>
	<line fill="none" stroke="#3E4544" stroke-miterlimit="10" x1="75.5" y1="0" x2="75.5" y2="11"/>
	<polygon fill="none" stroke="#3E4544" stroke-miterlimit="10" points="65.003,19.5 75.5,10.667 85.997,19.5 	"/>
	<defs>
		<filter id="Adobe_OpacityMaskFilter" filterUnits="userSpaceOnUse" x="72.646" y="17.058" width="5.707" height="5.708">
			<feColorMatrix  type="matrix" values="1 0 0 0 0  0 1 0 0 0  0 0 1 0 0  0 0 0 1 0"/>
		</filter>
	</defs>
	<mask maskUnits="userSpaceOnUse" x="72.646" y="17.058" width="5.707" height="5.708" id="SVGID_1_">
		<g filter="url(#Adobe_OpacityMaskFilter)">
			<rect x="62.688" y="19.5" fill="#FFFFFF" width="23.688" height="11.792"/>
		</g>
	</mask>
	<circle mask="url(#SVGID_1_)" fill="none" stroke="#3E4544" stroke-miterlimit="10" cx="75.5" cy="19.912" r="2.354"/>
</g>
</svg>
