<?xml version="1.0" standalone="no"?>
<!DOCTYPE svg PUBLIC "-//W3C//DTD SVG 1.1//EN" "http://www.w3.org/Graphics/SVG/1.1/DTD/svg11.dtd" >
<svg xmlns="http://www.w3.org/2000/svg">
<metadata>
This is a custom SVG webfont generated by Font Squirrel.
Copyright   : Copyright c 2003 by Bitstream Inc All Rights ReservedDejaVu changes are in public domain
Foundry     : DejaVu fonts team
Foundry URL : httpdejavusourceforgenet
</metadata>
<defs>
<font id="webfontpiGJ4cyi" horiz-adv-x="1232" >
<font-face units-per-em="2048" ascent="1556" descent="-492" />
<missing-glyph horiz-adv-x="500" />
<glyph unicode="&#xfedf;&#xfe82;" arabic-form="isolated" d="M109 1409h282l379 -836q47 106 47 297v686h291v-722q0 -315 -129 -519q-57 -92 -139 -172q-176 -164 -420 -163q-102 0 -180 32v244q102 -33 180 -33q117 0 186 80zM-139 1487v201l193 112q61 -61 186 -98q49 -14 96 -14t101 16q132 40 209 117v-199q-57 -47 -197 -94 q-68 -23 -119 -23q-15 0 -110 19q-102 18 -160 82z" />
<glyph unicode="&#xfee0;&#xfe82;" arabic-form="final" d="M109 1409h282l379 -836q47 106 47 297v686h291v-722q0 -272 -98 -463q61 -145 139 -146h104v-225h-129q-172 0 -252 176q-174 -190 -452 -196q-102 0 -180 32v244q102 -33 180 -33q117 0 186 80zM-150 1487v201l193 112q61 -61 186 -98q49 -14 96 -14t101 16 q132 40 209 117v-199q-57 -47 -197 -94q-68 -23 -119 -23q-15 0 -110 19q-102 18 -160 82z" />
<glyph unicode="&#xfedf;&#xfe84;" arabic-form="isolated" d="M109 1409h282l379 -836q47 106 47 297v686h291v-722q0 -315 -129 -519q-57 -92 -139 -172q-176 -164 -420 -163q-102 0 -180 32v244q102 -33 180 -33q117 0 186 80zM-19 1775q0 70 21 105q27 53 65 69q70 29 121 29q71 0 135 -31v-121q-63 29 -131 29q-29 0 -43 -14 q-23 -23 -22 -64q0 -59 90 -106l127 31v-129l-353 -101v125l84 29q-39 23 -59 51q-35 47 -35 98z" />
<glyph unicode="&#xfee0;&#xfe84;" arabic-form="final" d="M109 1409h282l379 -836q47 106 47 297v686h291v-722q0 -272 -98 -463q61 -145 139 -146h104v-225h-129q-172 0 -252 176q-174 -190 -452 -196q-102 0 -180 32v244q102 -33 180 -33q117 0 186 80zM-45 1775q0 70 21 105q27 53 65 69q70 29 121 29q71 0 135 -31v-121 q-63 29 -131 29q-29 0 -43 -14q-23 -23 -22 -64q0 -59 90 -106l127 31v-129l-353 -101v125l84 29q-39 23 -59 51q-35 47 -35 98z" />
<glyph unicode="&#xfedf;&#xfe88;" arabic-form="isolated" d="M109 1409h282l379 -836q47 106 47 297v686h291v-722q0 -315 -129 -519q-57 -92 -139 -172q-176 -164 -420 -163q-102 0 -180 32v244q102 -33 180 -33q117 0 186 80zM121 -354q0 70 21 105q27 53 65 69q70 29 121 29q71 0 135 -31v-121q-63 29 -131 29q-29 0 -43 -14 q-23 -23 -22 -64q0 -59 90 -106l127 31v-129l-353 -101v125l84 29q-39 23 -59 51q-35 47 -35 98z" />
<glyph unicode="&#xfee0;&#xfe88;" arabic-form="final" d="M109 1409h282l379 -836q47 106 47 297v686h291v-722q0 -272 -98 -463q61 -145 139 -146h104v-225h-129q-172 0 -252 176q-174 -190 -452 -196q-102 0 -180 32v244q102 -33 180 -33q117 0 186 80zM121 -381q0 70 21 105q27 53 65 69q70 29 121 29q71 0 135 -31v-121 q-63 29 -131 29q-29 0 -43 -14q-23 -23 -22 -64q0 -59 90 -106l127 31v-129l-353 -101v125l84 29q-39 23 -59 51q-35 47 -35 98z" />
<glyph unicode="&#xfedf;&#xfe8e;" arabic-form="isolated" d="M109 1409h282l379 -836q47 106 47 297v686h291v-722q0 -315 -129 -519q-57 -92 -139 -172q-176 -164 -420 -163q-102 0 -180 32v244q102 -33 180 -33q117 0 186 80z" />
<glyph unicode="&#xfee0;&#xfe8e;" arabic-form="final" d="M109 1409h282l379 -836q47 106 47 297v686h291v-722q0 -272 -98 -463q61 -145 139 -146h104v-225h-129q-172 0 -252 176q-174 -190 -452 -196q-102 0 -180 32v244q102 -33 180 -33q117 0 186 80z" />
<glyph unicode="&#x67b;" arabic-form="isolated" d="M498 -342v225h225v-225h-225zM498 -467h225v-225h-225v225zM27 319q0 86 24 187h277q-27 -106 -27 -187q0 -70 102 -118q51 -25 195 -25q123 0 233 68q117 74 117 159q0 92 -16 136h276q14 -84 15 -203q0 -139 -183 -285q-109 -88 -438 -88q-238 0 -397 53 q-178 57 -178 303z" />
<glyph unicode="&#x67b;" arabic-form="final" d="M453 -342v225h225v-225h-225zM453 -467h225v-225h-225v225zM70 319q0 96 28 187h283q-29 -82 -29 -166q0 -63 103 -109q39 -16 139 -16q47 0 127 23q84 25 121 61q43 43 43 125q0 84 -17 117h267q18 -74 18 -166q0 -58 25 -111q18 -39 43 -39h32v-225h-75q-68 0 -101 27 q-55 45 -61 77q-35 -39 -154 -81q-117 -43 -260 -43q-213 0 -332 40q-200 72 -200 299z" />
<glyph unicode="&#x67b;" arabic-form="initial" d="M471 -313v225h225v-225h-225zM471 -438h225v-225h-225v225zM-37 0v225h174q238 0 281 43q49 49 49 156v176h283v-176q0 -227 -93 -338q-72 -86 -464 -86h-230z" />
<glyph unicode="&#x67b;" arabic-form="medial" d="M483 -287v225h225v-225h-225zM483 -412h225v-225h-225v225zM-33 0v225h242q162 0 205 43q49 49 49 156v217h289v-217q0 -106 49 -156q43 -43 207 -43h258v-225h-367q-225 0 -293 72q-66 -72 -291 -72h-348z" />
<glyph unicode="&#x67e;" arabic-form="isolated" d="M352 -342v225h225v-225h-225zM526 -467h225v-225h-225v225zM702 -342v225h225v-225h-225zM27 319q0 86 24 187h277q-27 -106 -27 -187q0 -70 102 -118q51 -25 195 -25q123 0 233 68q117 74 117 159q0 92 -16 136h276q14 -84 15 -203q0 -139 -183 -285q-109 -88 -438 -88 q-238 0 -397 53q-178 57 -178 303z" />
<glyph unicode="&#x67e;" arabic-form="final" d="M324 -342v225h225v-225h-225zM498 -467h225v-225h-225v225zM674 -342v225h225v-225h-225zM70 319q0 96 28 187h283q-29 -82 -29 -166q0 -63 103 -109q39 -16 139 -16q47 0 127 23q84 25 121 61q43 43 43 125q0 84 -17 117h267q18 -74 18 -166q0 -58 25 -111 q18 -39 43 -39h32v-225h-75q-68 0 -101 27q-55 45 -61 77q-35 -39 -154 -81q-117 -43 -260 -43q-213 0 -332 40q-200 72 -200 299z" />
<glyph unicode="&#x67e;" arabic-form="initial" d="M319 -309v225h225v-225h-225zM493 -434h225v-225h-225v225zM669 -309v225h225v-225h-225zM-37 0v225h174q238 0 281 43q49 49 49 156v176h283v-176q0 -227 -93 -338q-72 -86 -464 -86h-230z" />
<glyph unicode="&#x67e;" arabic-form="medial" d="M311 -309v225h225v-225h-225zM485 -434h225v-225h-225v225zM661 -309v225h225v-225h-225zM-33 0v225h242q162 0 205 43q49 49 49 156v217h289v-217q0 -106 49 -156q43 -43 207 -43h258v-225h-367q-225 0 -293 72q-66 -72 -291 -72h-348z" />
<glyph unicode="&#x680;" arabic-form="isolated" d="M340 -371v225h225v-225h-225zM340 -496h225v-225h-225v225zM690 -371v225h225v-225h-225zM690 -496h225v-225h-225v225zM27 319q0 86 24 187h277q-27 -106 -27 -187q0 -70 102 -118q51 -25 195 -25q123 0 233 68q117 74 117 159q0 92 -16 136h276q14 -84 15 -203 q0 -139 -183 -285q-109 -88 -438 -88q-238 0 -397 53q-178 57 -178 303z" />
<glyph unicode="&#x680;" arabic-form="final" d="M301 -322v225h225v-225h-225zM301 -447h225v-225h-225v225zM651 -322v225h225v-225h-225zM651 -447h225v-225h-225v225zM70 319q0 96 28 187h283q-29 -82 -29 -166q0 -63 103 -109q39 -16 139 -16q47 0 127 23q84 25 121 61q43 43 43 125q0 84 -17 117h267 q18 -74 18 -166q0 -58 25 -111q18 -39 43 -39h32v-225h-75q-68 0 -101 27q-55 45 -61 77q-35 -39 -154 -81q-117 -43 -260 -43q-213 0 -332 40q-200 72 -200 299z" />
<glyph unicode="&#x680;" arabic-form="initial" d="M287 -317v225h225v-225h-225zM287 -442h225v-225h-225v225zM637 -317v225h225v-225h-225zM637 -442h225v-225h-225v225zM-37 0v225h174q238 0 281 43q49 49 49 156v176h283v-176q0 -227 -93 -338q-72 -86 -464 -86h-230z" />
<glyph unicode="&#x680;" arabic-form="medial" d="M324 -322v225h225v-225h-225zM324 -447h225v-225h-225v225zM674 -322v225h225v-225h-225zM674 -447h225v-225h-225v225zM-33 0v225h242q162 0 205 43q49 49 49 156v217h289v-217q0 -106 49 -156q43 -43 207 -43h258v-225h-367q-225 0 -293 72q-66 -72 -291 -72h-348z" />
<glyph unicode="&#x67a;" arabic-form="isolated" d="M492 950v225h225v-225h-225zM492 825h225v-225h-225v225zM27 319q0 86 24 187h277q-27 -106 -27 -187q0 -70 102 -118q51 -25 195 -25q123 0 233 68q117 74 117 159q0 92 -16 136h276q14 -84 15 -203q0 -139 -183 -285q-109 -88 -438 -88q-238 0 -397 53 q-178 57 -178 303z" />
<glyph unicode="&#x67a;" arabic-form="final" d="M502 934v225h225v-225h-225zM502 809h225v-225h-225v225zM70 319q0 96 28 187h283q-29 -82 -29 -166q0 -63 103 -109q39 -16 139 -16q47 0 127 23q84 25 121 61q43 43 43 125q0 84 -17 117h267q18 -74 18 -166q0 -58 25 -111q18 -39 43 -39h32v-225h-75q-68 0 -101 27 q-55 45 -61 77q-35 -39 -154 -81q-117 -43 -260 -43q-213 0 -332 40q-200 72 -200 299z" />
<glyph unicode="&#x67a;" arabic-form="initial" d="M500 1073v225h225v-225h-225zM500 948h225v-225h-225v225zM-37 0v225h174q238 0 281 43q49 49 49 156v176h283v-176q0 -227 -93 -338q-72 -86 -464 -86h-230z" />
<glyph unicode="&#x67a;" arabic-form="medial" d="M496 1108v225h225v-225h-225zM496 983h225v-225h-225v225zM-33 0v225h242q162 0 205 43q49 49 49 156v217h289v-217q0 -106 49 -156q43 -43 207 -43h258v-225h-367q-225 0 -293 72q-66 -72 -291 -72h-348z" />
<glyph unicode="&#x67f;" arabic-form="isolated" d="M328 1004v225h225v-225h-225zM328 879h225v-225h-225v225zM678 1004v225h225v-225h-225zM678 879h225v-225h-225v225zM27 319q0 86 24 187h277q-27 -106 -27 -187q0 -70 102 -118q51 -25 195 -25q123 0 233 68q117 74 117 159q0 92 -16 136h276q14 -84 15 -203 q0 -139 -183 -285q-109 -88 -438 -88q-238 0 -397 53q-178 57 -178 303z" />
<glyph unicode="&#x67f;" arabic-form="final" d="M70 319q0 96 28 187h283q-29 -82 -29 -166q0 -63 103 -109q39 -16 139 -16q47 0 127 23q84 25 121 61q43 43 43 125q0 84 -17 117h267q18 -74 18 -166q0 -58 25 -111q18 -39 43 -39h32v-225h-75q-68 0 -101 27q-55 45 -61 77q-35 -39 -154 -81q-117 -43 -260 -43 q-213 0 -332 40q-200 72 -200 299zM309 1012v225h225v-225h-225zM309 887h225v-225h-225v225zM659 1012v225h225v-225h-225zM659 887h225v-225h-225v225z" />
<glyph unicode="&#x67f;" arabic-form="initial" d="M315 1114v225h225v-225h-225zM315 989h225v-225h-225v225zM665 1114v225h225v-225h-225zM665 989h225v-225h-225v225zM-37 0v225h174q238 0 281 43q49 49 49 156v176h283v-176q0 -227 -93 -338q-72 -86 -464 -86h-230z" />
<glyph unicode="&#x67f;" arabic-form="medial" d="M319 1151v225h225v-225h-225zM319 1026h225v-225h-225v225zM669 1151v225h225v-225h-225zM669 1026h225v-225h-225v225zM-33 0v225h242q162 0 205 43q49 49 49 156v217h289v-217q0 -106 49 -156q43 -43 207 -43h258v-225h-367q-225 0 -293 72q-66 -72 -291 -72h-348z" />
<glyph unicode="&#x679;" arabic-form="isolated" d="M381 686v100h96v459h129v-342q55 76 135 76t127 -47q39 -43 39 -92q0 -68 -82 -119q-57 -35 -110 -35h-238h-96zM641 786h58q31 0 53 13q27 20 26 38q0 16 -8 27q-8 12 -33 12q-33 0 -61 -39zM27 319q0 86 24 187h277q-27 -106 -27 -187q0 -70 102 -118q51 -25 195 -25 q123 0 233 68q117 74 117 159q0 92 -16 136h276q14 -84 15 -203q0 -139 -183 -285q-109 -88 -438 -88q-238 0 -397 53q-178 57 -178 303z" />
<glyph unicode="&#x679;" arabic-form="final" d="M70 319q0 96 28 187h283q-29 -82 -29 -166q0 -63 103 -109q39 -16 139 -16q47 0 127 23q84 25 121 61q43 43 43 125q0 84 -17 117h267q18 -74 18 -166q0 -58 25 -111q18 -39 43 -39h32v-225h-75q-68 0 -101 27q-55 45 -61 77q-35 -39 -154 -81q-117 -43 -260 -43 q-213 0 -332 40q-200 72 -200 299zM377 727v100h96v459h129v-342q55 76 135 76t127 -47q39 -43 39 -92q0 -68 -82 -119q-57 -35 -110 -35h-238h-96zM637 827h58q31 0 53 13q27 20 26 38q0 16 -8 27q-8 12 -33 12q-33 0 -61 -39z" />
<glyph unicode="&#x679;" arabic-form="initial" d="M350 789v100h96v459h129v-342q55 76 135 76t127 -47q39 -43 39 -92q0 -68 -82 -119q-57 -35 -110 -35h-238h-96zM610 889h58q31 0 53 13q27 20 26 38q0 16 -8 27q-8 12 -33 12q-33 0 -61 -39zM-37 0v225h174q238 0 281 43q49 49 49 156v176h283v-176q0 -227 -93 -338 q-72 -86 -464 -86h-230z" />
<glyph unicode="&#x679;" arabic-form="medial" d="M360 782v100h96v459h129v-342q55 76 135 76t127 -47q39 -43 39 -92q0 -68 -82 -119q-57 -35 -110 -35h-238h-96zM620 882h58q31 0 53 13q27 20 26 38q0 16 -8 27q-8 12 -33 12q-33 0 -61 -39zM-33 0v225h242q162 0 205 43q49 49 49 156v217h289v-217q0 -106 49 -156 q43 -43 207 -43h258v-225h-367q-225 0 -293 72q-66 -72 -291 -72h-348z" />
<glyph unicode="&#x6a4;" arabic-form="isolated" d="M559 993v225h225v-225h-225zM733 1343v225h225v-225h-225zM909 993v225h225v-225h-225zM-106 313q0 137 34 232h287q-35 -90 -35 -232q0 -127 119 -172q86 -33 150 -32q139 0 243 22q100 20 156 62q49 37 63 59q-33 -16 -98 -16q-143 0 -238 71q-123 98 -122 234 q0 96 16 139q47 117 164 168q113 49 211 49t184 -39q76 -33 170 -172q35 -53 35 -190q0 -289 -125 -441q-74 -92 -315 -147q-174 -39 -344 -39q-150 0 -277 41q-276 92 -278 403zM737 559q0 -66 37 -90.5t82 -24.5q68 0 96 48q20 29 21 67q0 45 -45 80q-31 25 -74 25 q-58 0 -92 -43q-25 -35 -25 -62z" />
<glyph unicode="&#x6a4;" arabic-form="final" d="M-178 313q0 137 31 232h266q-33 -125 -33 -232q0 -104 117 -151q72 -31 200 -31q86 0 240 62q-47 25 -113 108q-86 109 -86 193q0 113 21 153q43 92 162 148q104 47 219 47q151 0 233 -49q113 -72 129 -101q39 -70 39 -219q0 -127 -90 -248h17h79v-225h-153 q-129 0 -215 27q-31 -25 -158 -62q-215 -61 -330 -61q-201 0 -327 53q-248 100 -248 356zM729 487q0 -41 23 -75q51 -80 131 -115q88 66 88 164q0 34 -6 61q-6 35 -39 60q-34 25 -74 24q-27 0 -45 -8q-55 -29 -72 -72q-6 -23 -6 -39zM563 963v225h225v-225h-225zM737 1313 v225h225v-225h-225zM913 963v225h225v-225h-225z" />
<glyph unicode="&#x6a4;" arabic-form="initial" d="M-20 0v225h241q236 0 291 31q70 41 84 55q39 45 20 76q-25 -35 -135 -35q-174 0 -258 68q-96 78 -96 217q0 59 6 94q23 150 174 217q77 37 203 37q133 0 211 -49q57 -35 110 -125q49 -80 50 -190q0 -252 -70 -402q-49 -106 -256 -180q-104 -39 -254 -39h-321zM420 653 q0 -49 33 -69q23 -14 49 -15q43 0 57 15q25 25 25 71q0 39 -39 66q-20 14 -45 14q-31 0 -56 -24q-24 -27 -24 -58zM201 1130v225h225v-225h-225zM375 1480v225h225v-225h-225zM551 1130v225h225v-225h-225z" />
<glyph unicode="&#x6a4;" arabic-form="medial" d="M-20 0v225h227q123 0 153 15q-63 25 -102 118q-20 43 -20 123q0 129 43 199q63 104 151 131q90 27 186 27q106 0 170 -23q147 -53 185 -139q27 -57 22 -195q0 -61 -20 -123q-16 -47 -103 -114q43 -18 156 -19h225v-225h-315q-137 0 -322 57q-180 -57 -319 -57h-317z M512 487q0 -34 25 -61q47 -53 79 -70q33 20 72 70q25 28 25 61t-15 68q-12 23 -43 45q-16 10 -39 10q-31 0 -47 -12q-25 -22 -37 -43q-20 -39 -20 -68zM342 983v225h225v-225h-225zM516 1333v225h225v-225h-225zM692 983v225h225v-225h-225z" />
<glyph unicode="&#x6a6;" arabic-form="isolated" d="M567 1360v225h225v-225h-225zM567 1235h225v-225h-225v225zM917 1360v225h225v-225h-225zM917 1235h225v-225h-225v225zM-106 313q0 137 34 232h287q-35 -90 -35 -232q0 -127 119 -172q86 -33 150 -32q139 0 243 22q100 20 156 62q49 37 63 59q-33 -16 -98 -16 q-143 0 -238 71q-123 98 -122 234q0 96 16 139q47 117 164 168q113 49 211 49t184 -39q76 -33 170 -172q35 -53 35 -190q0 -289 -125 -441q-74 -92 -315 -147q-174 -39 -344 -39q-150 0 -277 41q-276 92 -278 403zM737 559q0 -66 37 -90.5t82 -24.5q68 0 96 48q20 29 21 67 q0 45 -45 80q-31 25 -74 25q-58 0 -92 -43q-25 -35 -25 -62z" />
<glyph unicode="&#x6a6;" arabic-form="final" d="M-178 313q0 137 31 232h266q-33 -125 -33 -232q0 -104 117 -151q72 -31 200 -31q86 0 240 62q-47 25 -113 108q-86 109 -86 193q0 113 21 153q43 92 162 148q104 47 219 47q151 0 233 -49q113 -72 129 -101q39 -70 39 -219q0 -127 -90 -248h17h79v-225h-153 q-129 0 -215 27q-31 -25 -158 -62q-215 -61 -330 -61q-201 0 -327 53q-248 100 -248 356zM729 487q0 -41 23 -75q51 -80 131 -115q88 66 88 164q0 34 -6 61q-6 35 -39 60q-34 25 -74 24q-27 0 -45 -8q-55 -29 -72 -72q-6 -23 -6 -39zM555 1321v225h225v-225h-225zM555 1196 h225v-225h-225v225zM905 1321v225h225v-225h-225zM905 1196h225v-225h-225v225z" />
<glyph unicode="&#x6a6;" arabic-form="initial" d="M-20 0v225h241q236 0 291 31q70 41 84 55q39 45 20 76q-25 -35 -135 -35q-174 0 -258 68q-96 78 -96 217q0 59 6 94q23 150 174 217q77 37 203 37q133 0 211 -49q57 -35 110 -125q49 -80 50 -190q0 -252 -70 -402q-49 -106 -256 -180q-104 -39 -254 -39h-321zM420 653 q0 -49 33 -69q23 -14 49 -15q43 0 57 15q25 25 25 71q0 39 -39 66q-20 14 -45 14q-31 0 -56 -24q-24 -27 -24 -58zM219 1460v225h225v-225h-225zM219 1335h225v-225h-225v225zM569 1460v225h225v-225h-225zM569 1335h225v-225h-225v225z" />
<glyph unicode="&#x6a6;" arabic-form="medial" d="M-20 0v225h227q123 0 153 15q-63 25 -102 118q-20 43 -20 123q0 129 43 199q63 104 151 131q90 27 186 27q106 0 170 -23q147 -53 185 -139q27 -57 22 -195q0 -61 -20 -123q-16 -47 -103 -114q43 -18 156 -19h225v-225h-315q-137 0 -322 57q-180 -57 -319 -57h-317z M512 487q0 -34 25 -61q47 -53 79 -70q33 20 72 70q25 28 25 61t-15 68q-12 23 -43 45q-16 10 -39 10q-31 0 -47 -12q-25 -22 -37 -43q-20 -39 -20 -68zM322 1315v225h225v-225h-225zM322 1190h225v-225h-225v225zM672 1315v225h225v-225h-225zM672 1190h225v-225h-225v225z " />
<glyph unicode="&#x684;" arabic-form="isolated" d="M690 227v225h225v-225h-225zM690 102h225v-225h-225v225zM88 623v225q264 61 471 61q287 0 488 -53v-194q-266 12 -451 -142q-219 -186 -219 -461q0 -170 123 -264q104 -80 293 -80q201 0 403 113v-229q-151 -98 -399 -99q-387 -2 -557 195q-131 150 -131 373 q0 254 143 452q49 68 184 172q-35 2 -119 -10q-129 -18 -229 -59z" />
<glyph unicode="&#x684;" arabic-form="final" d="M0 408v223q272 63 471 63q281 0 490 -55v-193l-33 7q0 -66 16 -84q51 -68 148 -113q65 -31 141 -31h41v-225h-49q-133 0 -275 55q-111 43 -200 181q-61 95 -62 202q-92 -61 -178 -135q-221 -193 -221 -459q0 -170 125 -266q102 -78 291 -78q203 0 405 113v-229 q-154 -100 -399 -101q-389 -2 -559 195q-131 150 -132 375q0 250 146 450q51 72 182 172q-43 4 -117 -8q-149 -22 -231 -59zM500 -33v226h225v-226h-225zM500 -158h225v-225h-225v225z" />
<glyph unicode="&#x684;" arabic-form="initial" d="M-20 0v225h100q125 0 319 78q127 49 217 113q63 43 224 125q-47 14 -174 43q-59 12 -267 30q-100 8 -241 2v242q94 8 145 8q166 0 336 -35q242 -53 477 -153v-242q-57 -37 -176 -84q-55 -20 -201 -139q-113 -90 -278 -154q-154 -59 -352 -59h-129zM281 -293v225h225v-225 h-225zM281 -418h225v-225h-225v225z" />
<glyph unicode="&#x684;" arabic-form="medial" d="M-20 0v225h100q125 0 319 78q127 49 217 113q63 43 224 125q-47 14 -174 43q-59 12 -267 30q-100 8 -241 2v242q94 8 145 8q156 2 336 -35q242 -53 477 -153v-242q-47 -27 -92 -45q23 -43 53 -76q78 -90 140 -90h59v-225h-80q-160 0 -281 164q-53 74 -79 121 q-10 -10 -97 -72q-135 -100 -278 -154q-150 -59 -352 -59h-129zM524 -201v225h225v-225h-225zM524 -326h225v-225h-225v225z" />
<glyph unicode="&#x683;" arabic-form="isolated" d="M518 25v225h225v-225h-225zM868 25v225h225v-225h-225zM88 623v225q264 61 471 61q287 0 488 -53v-194q-266 12 -451 -142q-219 -186 -219 -461q0 -170 123 -264q104 -80 293 -80q201 0 403 113v-229q-151 -98 -399 -99q-387 -2 -557 195q-131 150 -131 373 q0 254 143 452q49 68 184 172q-35 2 -119 -10q-129 -18 -229 -59z" />
<glyph unicode="&#x683;" arabic-form="final" d="M0 408v223q272 63 471 63q281 0 490 -55v-193l-33 7q0 -66 16 -84q51 -68 148 -113q65 -31 141 -31h41v-225h-49q-133 0 -275 55q-111 43 -200 181q-61 95 -62 202q-92 -61 -178 -135q-221 -193 -221 -459q0 -170 125 -266q102 -78 291 -78q203 0 405 113v-229 q-154 -100 -399 -101q-389 -2 -559 195q-131 150 -132 375q0 250 146 450q51 72 182 172q-43 4 -117 -8q-149 -22 -231 -59zM426 -61h225v-226h-225v226zM776 -61h225v-226h-225v226z" />
<glyph unicode="&#x683;" arabic-form="initial" d="M-20 0v225h100q125 0 319 78q127 49 217 113q63 43 224 125q-47 14 -174 43q-59 12 -267 30q-100 8 -241 2v242q94 8 145 8q166 0 336 -35q242 -53 477 -153v-242q-57 -37 -176 -84q-55 -20 -201 -139q-113 -90 -278 -154q-154 -59 -352 -59h-129zM109 -311v225h225v-225 h-225zM459 -311v225h225v-225h-225z" />
<glyph unicode="&#x683;" arabic-form="medial" d="M-20 0v225h100q125 0 319 78q127 49 217 113q63 43 224 125q-47 14 -174 43q-59 12 -267 30q-100 8 -241 2v242q94 8 145 8q156 2 336 -35q242 -53 477 -153v-242q-47 -27 -92 -45q23 -43 53 -76q78 -90 140 -90h59v-225h-80q-160 0 -281 164q-53 74 -79 121 q-10 -10 -97 -72q-135 -100 -278 -154q-150 -59 -352 -59h-129zM319 -272v225h225v-225h-225zM669 -272v225h225v-225h-225z" />
<glyph unicode="&#x686;" arabic-form="isolated" d="M514 162v225h225v-225h-225zM688 37h225v-225h-225v225zM864 162v225h225v-225h-225zM88 623v225q264 61 471 61q287 0 488 -53v-194q-266 12 -451 -142q-219 -186 -219 -461q0 -170 123 -264q104 -80 293 -80q201 0 403 113v-229q-151 -98 -399 -99q-387 -2 -557 195 q-131 150 -131 373q0 254 143 452q49 68 184 172q-35 2 -119 -10q-129 -18 -229 -59z" />
<glyph unicode="&#x686;" arabic-form="final" d="M0 408v223q268 63 471 63q285 0 490 -55v-193l-33 7q0 -66 16 -84q51 -68 148 -113q65 -31 141 -31h41v-225h-49q-133 0 -275 55q-20 6 -32 15v-201h-226v223h189q-70 49 -131 144t-62 202q-92 -61 -178 -135q-221 -193 -221 -459q0 -170 125 -266q102 -78 291 -78 q203 0 405 113v-229q-154 -100 -399 -101q-389 -2 -559 195q-131 150 -132 375q0 250 146 450q51 72 182 172q-43 4 -117 -8q-149 -22 -231 -59zM389 92h225v-223h-225v223zM541 -209h225v-225h-225v225z" />
<glyph unicode="&#x686;" arabic-form="initial" d="M-20 0v225h100q125 0 319 78q127 49 217 113q63 43 224 125q-47 14 -174 43q-59 12 -267 30q-100 8 -241 2v242q94 8 145 8q166 0 336 -35q242 -53 477 -153v-242q-57 -37 -176 -84q-55 -20 -201 -139q-113 -90 -278 -154q-154 -59 -352 -59h-129zM168 -307v225h225v-225 h-225zM342 -432h225v-225h-225v225zM518 -307v225h225v-225h-225z" />
<glyph unicode="&#x686;" arabic-form="medial" d="M-20 0v225h100q125 0 319 78q127 49 217 113q63 43 224 125q-47 14 -174 43q-59 12 -267 30q-100 8 -241 2v242q94 8 145 8q156 2 336 -35q242 -53 477 -153v-242q-47 -27 -92 -45q23 -43 53 -76q78 -90 140 -90h59v-225h-80q-160 0 -281 164q-53 74 -79 121 q-10 -10 -97 -72q-135 -100 -278 -154q-150 -59 -352 -59h-129zM319 -289v225h225v-225h-225zM493 -414h225v-225h-225v225zM669 -289v225h225v-225h-225z" />
<glyph unicode="&#x687;" arabic-form="isolated" d="M551 186v225h225v-225h-225zM551 61h225v-225h-225v225zM901 186v225h225v-225h-225zM901 61h225v-225h-225v225zM88 623v225q264 61 471 61q287 0 488 -53v-194q-266 12 -451 -142q-219 -186 -219 -461q0 -170 123 -264q104 -80 293 -80q201 0 403 113v-229 q-151 -98 -399 -99q-387 -2 -557 195q-131 150 -131 373q0 254 143 452q49 68 184 172q-35 2 -119 -10q-129 -18 -229 -59z" />
<glyph unicode="&#x687;" arabic-form="final" d="M0 408v223q268 63 471 63q285 0 490 -55v-193l-33 7q0 -66 16 -84q51 -68 148 -113q65 -31 141 -31h41v-225q-176 -6 -326 55v-127h-225v226h90q-33 37 -63 82q-61 95 -62 202q-92 -61 -178 -135q-221 -193 -221 -459q0 -170 125 -266q102 -78 291 -78q203 0 405 113 v-229q-154 -100 -399 -101q-389 -2 -559 195q-131 150 -132 375q0 250 146 450q51 72 182 172q-43 4 -117 -8q-149 -22 -231 -59zM422 -72v226h223v-226h-223zM422 -147h223v-226h-223v226zM723 -147h225v-226h-225v226z" />
<glyph unicode="&#x687;" arabic-form="initial" d="M-20 0v225h100q125 0 319 78q127 49 217 113q63 43 224 125q-47 14 -174 43q-59 12 -267 30q-100 8 -241 2v242q94 8 145 8q166 0 336 -35q242 -53 477 -153v-242q-57 -37 -176 -84q-55 -20 -201 -139q-113 -90 -278 -154q-154 -59 -352 -59h-129zM252 -281v225h225v-225 h-225zM252 -406h225v-225h-225v225zM602 -281v225h225v-225h-225zM602 -406h225v-225h-225v225z" />
<glyph unicode="&#x687;" arabic-form="medial" d="M-20 0v225h100q125 0 319 78q127 49 217 113q63 43 224 125q-47 14 -174 43q-59 12 -267 30q-100 8 -241 2v242q94 8 145 8q156 2 336 -35q242 -53 477 -153v-242q-47 -27 -92 -45q23 -43 53 -76q78 -90 140 -90h59v-225h-80q-160 0 -281 164q-53 74 -79 121 q-10 -10 -97 -72q-135 -100 -278 -154q-150 -59 -352 -59h-129zM340 -289v225h225v-225h-225zM340 -414h225v-225h-225v225zM690 -289v225h225v-225h-225zM690 -414h225v-225h-225v225z" />
<glyph unicode="&#x698;" arabic-form="isolated" d="M659 711v225h225v-225h-225zM833 1061v225h225v-225h-225zM1009 711v225h225v-225h-225zM-51 -258q455 0 663 127q229 137 254 285q10 66 11 131q0 125 -54 262h285q49 -117 49 -250q0 -98 -6 -145q-37 -309 -424 -512q-256 -143 -778 -144v246z" />
<glyph unicode="&#x698;" arabic-form="final" d="M539 711v225h225v-225h-225zM713 1061v225h225v-225h-225zM889 711v225h225v-225h-225zM-160 -256v-244q512 0 781 144q297 158 387 379q18 -23 131 -23h114v225h-59q-74 0 -104 45q-39 66 -58 179q-10 57 -33 102h-282q51 -133 51 -262q0 -80 -8 -131 q-25 -145 -256 -285q-212 -129 -664 -129z" />
<glyph unicode="&#x691;" arabic-form="isolated" d="M-51 -258q455 0 663 127q229 137 254 285q10 66 11 131q0 125 -54 262h285q49 -117 49 -250q0 -98 -6 -145q-37 -309 -424 -512q-256 -143 -778 -144v246zM686 694v100h96v459h129v-342q55 76 135 76t127 -47q39 -43 39 -92q0 -68 -82 -119q-57 -35 -110 -35h-238h-96z M946 794h58q31 0 53 13q27 20 26 38q0 16 -8 27q-8 12 -33 12q-33 0 -61 -39z" />
<glyph unicode="&#x691;" arabic-form="final" d="M-160 -256v-244q512 0 781 144q297 158 387 379q18 -23 131 -23h114v225h-59q-74 0 -104 45q-39 66 -58 179q-10 57 -33 102h-282q51 -133 51 -262q0 -80 -8 -131q-25 -145 -256 -285q-212 -129 -664 -129zM577 723v100h96v459h129v-342q55 76 135 76t127 -47 q39 -43 39 -92q0 -68 -82 -119q-57 -35 -110 -35h-238h-96zM837 823h58q31 0 53 13q27 20 26 38q0 16 -8 27q-8 12 -33 12q-33 0 -61 -39z" />
<glyph unicode="&#x6a9;" arabic-form="isolated" d="M10 307q0 168 43 232h275q-39 -100 -39 -232q0 -109 121 -174q49 -25 141 -24q123 0 190 32q90 43 133 113q53 90 54 141q0 92 -54 162l-155 203q-35 45 -53 90q-18 47 -19 96q0 55 35 109q43 66 125 133l565 457v-324l-377 -320q-57 -49 -57 -73q0 -47 33 -90l125 -160 q121 -152 121 -277q0 -221 -105 -331q-82 -88 -199 -144q-104 -49 -354 -49q-104 0 -219 33q-330 98 -330 397z" />
<glyph unicode="&#x6a9;" arabic-form="final" d="M-145 307q0 168 43 232h272q-37 -96 -37 -232q0 -109 121 -174q49 -25 139 -24q125 0 193 32q92 43 133 113q51 88 51 141q0 47 -51 162l-92 203q-27 57 -39 100q-18 68 -19 96q0 63 35 109q71 92 111 123l567 457v-299l-379 -318q-55 -47 -55 -100q0 -18 31 -90 l247 -549q27 -63 72 -64h82v-225h-84q-223 0 -254 33l-35 39q-8 -74 -149 -146q-94 -49 -355 -49q-104 0 -219 33q-329 98 -329 397z" />
<glyph unicode="&#x6a9;" arabic-form="initial" d="M-20 0v225h403q154 0 192 92q16 39 17 72q0 41 -55 107l-256 315q-115 139 -115 209q0 27 10 67q29 109 146 158l745 311v-268l-506 -205q-96 -37 -90 -77q2 -31 80 -125l221 -267q102 -121 102 -245q0 -109 -63 -213q-96 -156 -410 -156h-421z" />
<glyph unicode="&#x6a9;" arabic-form="medial" d="M-31 0v225h430q154 0 195 92q14 35 14 72q0 45 -53 107l-256 315q-115 139 -115 209q0 27 11 67q29 109 145 158l745 311v-268l-505 -205q-96 -37 -91 -77q2 -35 78 -125l498 -598q25 -27 59 -41q45 -16 101 -17h45v-225h-82q-225 0 -305 88l-68 76l-22 -35 q-86 -129 -373 -129h-451z" />
<glyph unicode="&#x6af;" arabic-form="isolated" d="M684 1224v260l694 558v-261zM10 307q0 168 43 232h275q-39 -100 -39 -232q0 -109 121 -174q49 -25 141 -24q123 0 190 32q90 43 133 113q53 90 54 141q0 92 -54 162l-155 203q-35 45 -53 90q-18 47 -19 96q0 55 35 109q43 66 125 133l565 457v-324l-377 -320 q-57 -49 -57 -73q0 -47 33 -90l125 -160q121 -152 121 -277q0 -221 -105 -331q-82 -88 -199 -144q-104 -49 -354 -49q-104 0 -219 33q-330 98 -330 397z" />
<glyph unicode="&#x6af;" arabic-form="final" d="M-145 307q0 168 43 232h272q-37 -96 -37 -232q0 -109 121 -174q49 -25 139 -24q125 0 193 32q92 43 133 113q51 88 51 141q0 47 -51 162l-92 203q-27 57 -39 100q-18 68 -19 96q0 63 35 109q71 92 111 123l567 457v-299l-379 -318q-55 -47 -55 -100q0 -18 31 -90 l247 -549q27 -63 72 -64h82v-225h-84q-223 0 -254 33l-35 39q-8 -74 -149 -146q-94 -49 -355 -49q-104 0 -219 33q-329 98 -329 397zM596 1228v260l694 558v-261z" />
<glyph unicode="&#x6af;" arabic-form="initial" d="M-20 0v225h403q154 0 192 92q16 39 17 72q0 41 -55 107l-256 315q-115 139 -115 209q0 27 10 67q29 109 146 158l745 311v-268l-506 -205q-96 -37 -90 -77q2 -31 80 -125l221 -267q102 -121 102 -245q0 -109 -63 -213q-96 -156 -410 -156h-421zM143 1313v254l924 403 v-254z" />
<glyph unicode="&#x6af;" arabic-form="medial" d="M-31 0v225h430q154 0 195 92q14 35 14 72q0 45 -53 107l-256 315q-115 139 -115 209q0 27 11 67q29 109 145 158l745 311v-268l-505 -205q-96 -37 -91 -77q2 -35 78 -125l498 -598q25 -27 59 -41q45 -16 101 -17h45v-225h-82q-225 0 -305 88l-68 76l-22 -35 q-86 -129 -373 -129h-451zM156 1313v254l924 403v-254z" />
<glyph unicode="&#x6ba;" arabic-form="isolated" d="M18 127q0 172 50 352h288q-39 -145 -41 -315q-2 -129 125 -205q76 -43 144 -43q104 0 145 21q117 57 152 155q33 96 32 195q0 303 -45 401h291q41 -164 41 -432q0 -213 -84 -365q-59 -104 -213 -176q-104 -47 -319 -47q-166 0 -295 64q-271 129 -271 395z" />
<glyph unicode="&#x6ba;" arabic-form="final" d="M-86 -39q0 174 49 354h289q-35 -137 -39 -315q-2 -131 123 -205q78 -43 143 -43q106 0 148 21q115 55 149.5 155.5t34.5 194.5q0 297 -47 401h293q10 -37 22 -147q6 -55 54 -121q23 -31 69 -31h51v-225h-94q-59 0 -65 16q-12 -162 -82 -288q-59 -104 -211 -177 q-104 -47 -322 -47q-166 0 -295 64q-270 129 -270 393z" />
<glyph unicode="&#x6be;" arabic-form="isolated" d="M-94 244q0 37 8 67h274q-8 -27 -8 -41q0 -25 39 -39q25 -8 64 -6q78 4 79 4q-39 76 -51 140q-16 72 -16 143q0 70 41 150q37 71 104 110q-47 14 -59 16v232q303 -57 539 -262q233 -205 299 -439q14 -49 14 -108q0 -114 -62 -184q-98 -113 -307 -113q-98 0 -196 35 q-68 25 -129 67q-74 -16 -226 -16q-223 0 -286 35q-121 68 -121 209zM545 506q0 -31 6 -68q10 -53 49 -114q18 18 31 36q39 59 39 134q0 25 -17 73q-12 39 -39 39q-33 0 -49 -31q-20 -40 -20 -69zM776 147q33 -16 80 -16q111 0 125 68q6 31 6 61q0 35 -33 109q-14 35 -49 84 q2 -88 -31 -168q-35 -85 -98 -138z" />
<glyph unicode="&#x6be;" arabic-form="final" d="M-94 244q0 37 8 67h274q-8 -27 -8 -41q0 -25 39 -39q29 -10 64 -6q49 4 104 4q-53 45 -76 140q-16 72 -16 143q0 70 41 150q37 71 104 110q-47 14 -59 16v232q322 -61 539 -262q256 -238 299 -424q14 -59 14 -109h106v-225h-1026q-223 0 -286 35q-121 68 -121 209z M545 506q0 -3 6 -68q6 -53 65 -92q23 27 27 37q27 59 27 111q0 25 -17 73q-12 39 -39 39q-33 0 -49 -31q-26 -57 -20 -69zM852 236q55 -18 80 -19q51 0 53 14q6 31 0 64l-3 8q-3 8 -11 26.5l-17 39.5q-14 35 -49 84q2 -104 -31 -168q-22 -41 -22 -49z" />
<glyph unicode="&#x6be;" arabic-form="initial" d="M-20 0v225h145q31 0 80 4q-39 76 -51 140q-18 80 -19 143q0 66 43 150q37 71 105 110q-47 14 -62 16v232q305 -57 541 -262q238 -211 299 -439q14 -49 14 -108q0 -114 -61 -184q-100 -113 -307 -113q-98 0 -197 35q-68 25 -129 67q-74 -16 -225 -16h-176zM385 506 q0 -18 8 -68q10 -53 49 -114q12 12 29 36q41 63 41 134q0 25 -16 73q-12 39 -39 39q-35 0 -49 -31q-23 -44 -23 -69zM618 147q33 -16 80 -16q109 0 125 68q6 31 6 61q0 35 -32 109q-14 35 -49 84q2 -88 -31 -168q-36 -85 -99 -138z" />
<glyph unicode="&#x6be;" arabic-form="medial" d="M-39 0v225h430q-57 49 -80 144q-16 72 -16 143q0 70 41 150q37 71 104 110q-47 14 -59 16v232q322 -61 539 -262q256 -238 299 -424q14 -59 14 -109h106v-225h-1378zM545 506q0 -3 6 -68q6 -53 65 -92q23 27 27 37q27 59 27 111q0 25 -17 73q-12 39 -39 39q-33 0 -49 -31 q-26 -57 -20 -69zM852 236q55 -18 80 -19q51 0 53 14q6 31 0 64l-3 8q-3 8 -11 26.5l-17 39.5q-14 35 -49 84q2 -104 -31 -168q-22 -41 -22 -49z" />
<glyph unicode="&#x649;" arabic-form="initial" d="M-37 0v225h174q238 0 281 43q49 49 49 156v176h283v-176q0 -227 -93 -338q-72 -86 -464 -86h-230z" />
<glyph unicode="&#x649;" arabic-form="medial" d="M-33 0v225h242q162 0 205 43q49 49 49 156v217h289v-217q0 -106 49 -156q43 -43 207 -43h258v-225h-367q-225 0 -293 72q-66 -72 -291 -72h-348z" />
<glyph unicode="&#x6cc;" arabic-form="isolated" d="M0 123q0 117 63 229h283q-66 -135 -63 -229q4 -162 90 -182q70 -20 157 -21q137 0 230 35q88 35 129 90q53 66 53 119q0 45 -16 72q-33 53 -142 69q-231 31 -227 275q2 174 125 245q100 59 217 60q227 0 281 -99q53 -100 53 -223h-268q0 61 -15 76q-35 33 -71 33 q-25 0 -52 -27q-27 -29 -26 -59q0 -76 125 -101q193 -39 274 -178q33 -59 33 -151q0 -127 -53 -205q-106 -152 -207 -209q-162 -92 -455 -92q-201 0 -317 59q-201 99 -201 414z" />
<glyph unicode="&#x6cc;" arabic-form="final" d="M-80 18q-6 92 31 230h280q-27 -86 -26 -197q0 -109 110 -131q61 -12 111 -12q63 0 160 20q43 8 102 47q55 33 55 62q0 25 -18 39q-20 18 -53 53q-47 51 -47 145q0 106 49 175q45 63 125 92q41 14 139 14q82 0 149 -51q76 -59 97 -148q31 -131 57 -131h12v-225h-34 q-174 0 -217.5 172t-94.5 166q-10 0 -22 -16q-14 -16 -15 -35q0 -14 41 -56q76 -76 76 -184q0 -143 -61 -205q-72 -70 -187 -123q-156 -72 -311 -71q-119 0 -266 37q-224 54 -242 333z" />
<glyph unicode="&#x6cc;" arabic-form="initial" d="M307 -299v225h225v-225h-225zM657 -299v225h225v-225h-225zM-37 0v225h174q238 0 281 43q49 49 49 156v176h283v-176q0 -227 -93 -338q-72 -86 -464 -86h-230z" />
<glyph unicode="&#x6cc;" arabic-form="medial" d="M319 -299v225h225v-225h-225zM669 -299v225h225v-225h-225zM-33 0v225h242q162 0 205 43q49 49 49 156v217h289v-217q0 -106 49 -156q43 -43 207 -43h258v-225h-367q-225 0 -293 72q-66 -72 -291 -72h-348z" />
<glyph unicode="&#xfe70;" arabic-form="isolated" d="M303 1151v172l625 170v-170zM303 1407v170l625 172v-170z" />
<glyph unicode="&#xfe71;" arabic-form="medial" d="M-33 0v225h1299v-225h-1299zM303 1151v172l625 170v-170zM303 1407v170l625 172v-170z" />
<glyph unicode="&#xfe72;" arabic-form="isolated" d="M227 1513h160q-2 -94 21 -153q37 -82 112 -82q57 0 107 57q29 39 51 101q-90 18 -139 73q-49 51 -50 121q0 90 64 139q53 41 129 41q94 0 141 -38q63 -51 64 -154q0 -47 -4 -59h51v-160l-96 2q-41 -111 -90 -166q-88 -104 -232 -105q-90 0 -154 35q-70 39 -110 158 q-25 73 -25 190zM653 1628q0 -34 68 -49q6 22 6 43q0 41 -39 41q-35 0 -35 -35z" />
<glyph unicode="&#xfe74;" arabic-form="isolated" d="M303 -180l625 172v-170l-625 -172v170zM303 -434l625 172v-170l-625 -172v170z" />
<glyph unicode="&#xfe76;" arabic-form="isolated" d="M303 1151v172l625 170v-170z" />
<glyph unicode="&#xfe77;" arabic-form="medial" d="M303 1151v172l625 170v-170zM-33 0v225h1299v-225h-1299z" />
<glyph unicode="&#xfe78;" arabic-form="isolated" d="M299 1188v151q113 18 201 50q61 20 121 63q-51 25 -82 57q-49 51 -50 121q0 90 64 139q53 41 129 41q96 -4 141 -38q63 -51 64 -154q0 -33 -8 -59h55v-160q-41 0 -92 2q-27 0 -39 2q-41 -51 -101 -92q-147 -107 -403 -123zM653 1628q0 -37 66 -49q8 18 8 43q0 41 -39 41 q-35 0 -35 -35z" />
<glyph unicode="&#xfe79;" arabic-form="medial" d="M299 1188v151q113 18 201 50q61 20 121 63q-51 25 -82 57q-49 51 -50 121q0 90 64 139q53 41 129 41q96 -4 141 -38q63 -51 64 -154q0 -33 -8 -59h55v-160q-41 0 -92 2q-27 0 -39 2q-41 -51 -101 -92q-147 -107 -403 -123zM653 1628q0 -37 66 -49q8 18 8 43q0 41 -39 41 q-35 0 -35 -35zM-33 0v225h1299v-225h-1299z" />
<glyph unicode="&#xfe7a;" arabic-form="isolated" d="M303 -180l625 172v-170l-625 -172v170z" />
<glyph unicode="&#xfe7b;" arabic-form="medial" d="M303 -180l625 172v-170l-625 -172v170zM-33 0v225h1299v-225h-1299z" />
<glyph unicode="&#xfe7c;" arabic-form="isolated" d="M254 1450q0 104 16 209h148q-12 -127 -12 -182q4 -63 24 -97q27 -41 70 -6q37 25 41 174q2 55 2 170h145q0 -16 4 -90q6 -90 21.5 -135t42.5 -43q70 0 69 158q0 125 -10 172h156q12 -68 8 -189q-2 -129 -27 -186q-43 -92 -180 -111q-61 -8 -100 25q-37 29 -39 55 q-14 -45 -45 -86q-61 -78 -129 -78q-115 0 -170 80q-35 51 -35 160z" />
<glyph unicode="&#xfe7d;" arabic-form="medial" d="M254 1450q0 104 16 209h148q-12 -127 -12 -182q4 -63 24 -97q27 -41 70 -6q37 25 41 174q2 55 2 170h145q0 -16 4 -90q6 -90 21.5 -135t42.5 -43q70 0 69 158q0 125 -10 172h156q12 -68 8 -189q-2 -129 -27 -186q-43 -92 -180 -111q-61 -8 -100 25q-37 29 -39 55 q-14 -45 -45 -86q-61 -78 -129 -78q-115 0 -170 80q-35 51 -35 160zM-33 0v225h1299v-225h-1299z" />
<glyph unicode="&#xfe7e;" arabic-form="isolated" d="M315 1524q0 129 88 215q89 86 215 86q127 0 213.5 -86t86.5 -215q0 -123 -87 -213q-86 -88 -212.5 -88t-215 88t-88.5 213zM496 1524q0 -51 34.5 -86t85.5 -35q53 0 86 35q35 39 35 86t-35 86q-33 35 -86 35q-51 0 -85.5 -35t-34.5 -86z" />
<glyph unicode="&#xfe7f;" arabic-form="medial" d="M-33 0v225h1299v-225h-1299zM315 1524q0 129 88 215q89 86 215 86q127 0 213.5 -86t86.5 -215q0 -123 -87 -213q-86 -88 -212.5 -88t-215 88t-88.5 213zM496 1524q0 -51 34.5 -86t85.5 -35q53 0 86 35q35 39 35 86t-35 86q-33 35 -86 35q-51 0 -85.5 -35t-34.5 -86z" />
<glyph unicode="&#x621;" arabic-form="isolated" d="M416 608q0 78 20 172q16 78 139 156q80 53 213 53q117 0 201 -20v-234q-111 33 -170 31q-72 -4 -100 -29q-43 -37 -43 -125q0 -115 147 -151q57 -14 115 0q72 18 131 53v-242q-89 -61 -295 -141q-229 -88 -340 -104v233l205 64q-104 25 -160 100q-63 84 -63 184z" />
<glyph unicode="&#x622;" arabic-form="isolated" d="M223 1639v201l193 112q61 -61 186 -98q49 -14 96 -14t101 16q132 40 209 117v-199q-57 -47 -197 -94q-68 -23 -119 -23q-15 0 -110 19q-102 18 -160 82zM469 0v1556h293v-1556h-293z" />
<glyph unicode="&#x622;" arabic-form="final" d="M539 412v1144h286v-1132q0 -104 49 -154q45 -45 224 -45h155v-225h-264q-283 0 -362 92q-88 105 -88 320zM223 1639v201l193 112q61 -61 186 -98q49 -14 96 -14t101 16q132 40 209 117v-199q-57 -47 -197 -94q-68 -23 -119 -23q-15 0 -110 19q-102 18 -160 82z" />
<glyph unicode="&#x623;" arabic-form="isolated" d="M422 1927q0 70 21 105q27 53 65 69q70 29 121 29q71 0 135 -31v-121q-63 29 -131 29q-29 0 -43 -14q-23 -23 -22 -64q0 -59 90 -106l127 31v-129l-353 -101v125l84 29q-39 23 -59 51q-35 47 -35 98zM469 0v1556h293v-1556h-293z" />
<glyph unicode="&#x623;" arabic-form="final" d="M539 412v1144h286v-1132q0 -104 49 -154q45 -45 224 -45h155v-225h-264q-283 0 -362 92q-88 105 -88 320zM471 1927q0 70 21 105q27 53 65 69q70 29 121 29q71 0 135 -31v-121q-63 29 -131 29q-29 0 -43 -14q-23 -23 -22 -64q0 -59 90 -106l127 31v-129l-353 -101v125 l84 29q-39 23 -59 51q-35 47 -35 98z" />
<glyph unicode="&#x624;" arabic-form="isolated" d="M528 1066q0 70 21 105q27 53 65 69q70 29 121 29q71 0 135 -31v-121q-63 29 -131 29q-29 0 -43 -14q-23 -23 -22 -64q0 -59 90 -106l127 31v-129l-353 -101v125l84 29q-39 23 -59 51q-35 47 -35 98zM76 -256q469 0 575 59q190 102 230 199q-39 0 -162 10q-150 12 -238 68 q-115 70 -114 235q0 248 211 336q57 25 163 25q188 0 258 -51q127 -92 154 -263q18 -101 18 -178q0 -285 -172 -469q-80 -84 -180 -129q-187 -86 -743 -86v244zM659 317q0 -43 76 -69q63 -23 162 -23q0 132 -61 172q-37 25 -72 25q-55 0 -80 -35t-25 -70z" />
<glyph unicode="&#x624;" arabic-form="final" d="M0 -256q469 0 575 59q190 102 230 199q-41 0 -164 10q-145 12 -235 68q-115 70 -115 235q0 248 211 336q59 25 164 25q188 0 258 -51q127 -90 153 -263q14 -82 17 -137h159v-225h-178q-41 -168 -151 -285q-80 -84 -181 -129q-187 -86 -743 -86v244zM584 317q0 -43 75 -69 q63 -23 160 -23q0 133 -59 172q-37 25 -74 25q-53 0 -77.5 -35t-24.5 -70zM428 1062q0 70 21 105q27 53 65 69q70 29 121 29q71 0 135 -31v-121q-63 29 -131 29q-29 0 -43 -14q-23 -23 -22 -64q0 -59 90 -106l127 31v-129l-353 -101v125l84 29q-39 23 -59 51q-35 47 -35 98z " />
<glyph unicode="&#x625;" arabic-form="isolated" d="M426 -299q0 70 21 105q27 53 65 69q70 29 121 29q71 0 135 -31v-121q-63 29 -131 29q-29 0 -43 -14q-23 -23 -22 -64q0 -59 90 -106l127 31v-129l-353 -101v125l84 29q-39 23 -59 51q-35 47 -35 98zM469 0v1556h293v-1556h-293z" />
<glyph unicode="&#x625;" arabic-form="final" d="M539 412v1144h286v-1132q0 -104 49 -154q45 -45 224 -45h155v-225h-264q-283 0 -362 92q-88 105 -88 320zM518 -299q0 70 21 105q27 53 65 69q70 29 121 29q71 0 135 -31v-121q-63 29 -131 29q-29 0 -43 -14q-23 -23 -22 -64q0 -59 90 -106l127 31v-129l-353 -101v125 l84 29q-39 23 -59 51q-35 47 -35 98z" />
<glyph unicode="&#x626;" arabic-form="isolated" d="M162 1023q0 70 21 105q27 53 65 69q70 29 121 29q71 0 135 -31v-121q-63 29 -131 29q-29 0 -43 -14q-23 -23 -22 -64q0 -59 90 -106l127 31v-129l-353 -101v125l84 29q-39 23 -59 51q-35 47 -35 98zM0 123q0 117 63 229h283q-66 -135 -63 -229q4 -162 90 -182 q70 -20 157 -21q137 0 230 35q88 35 129 90q53 66 53 119q0 45 -16 72q-33 53 -142 69q-231 31 -227 275q2 174 125 245q100 59 217 60q227 0 281 -99q53 -100 53 -223h-268q0 61 -15 76q-35 33 -71 33q-25 0 -52 -27q-27 -29 -26 -59q0 -76 125 -101q193 -39 274 -178 q33 -59 33 -151q0 -127 -53 -205q-106 -152 -207 -209q-162 -92 -455 -92q-201 0 -317 59q-201 99 -201 414z" />
<glyph unicode="&#x626;" arabic-form="final" d="M-80 18q-6 92 31 230h280q-27 -86 -26 -197q0 -109 110 -131q61 -12 111 -12q63 0 160 20q43 8 102 47q55 33 55 62q0 25 -18 39q-20 18 -53 53q-47 51 -47 145q0 106 49 175q45 63 125 92q41 14 139 14q82 0 149 -51q76 -59 97 -148q31 -131 57 -131h12v-225h-34 q-174 0 -217.5 172t-94.5 166q-10 0 -22 -16q-14 -16 -15 -35q0 -14 41 -56q76 -76 76 -184q0 -143 -61 -205q-72 -70 -187 -123q-156 -72 -311 -71q-119 0 -266 37q-224 54 -242 333zM147 683q0 70 21 105q27 53 65 69q70 29 121 29q71 0 135 -31v-121q-63 29 -131 29 q-29 0 -43 -14q-23 -23 -22 -64q0 -59 90 -106l127 31v-129l-353 -101v125l84 29q-39 23 -59 51q-35 47 -35 98z" />
<glyph unicode="&#x626;" arabic-form="initial" d="M-37 0v225h174q238 0 281 43q49 49 49 156v176h283v-176q0 -227 -93 -338q-72 -86 -464 -86h-230zM409 1077q0 70 21 105q27 53 65 69q70 29 121 29q71 0 135 -31v-121q-63 29 -131 29q-29 0 -43 -14q-23 -23 -22 -64q0 -59 90 -106l127 31v-129l-353 -101v125l84 29 q-39 23 -59 51q-35 47 -35 98z" />
<glyph unicode="&#x626;" arabic-form="medial" d="M-33 0v225h242q162 0 205 43q49 49 49 156v217h289v-217q0 -106 49 -156q43 -43 207 -43h258v-225h-367q-225 0 -293 72q-66 -72 -291 -72h-348zM432 1077q0 70 21 105q27 53 65 69q70 29 121 29q71 0 135 -31v-121q-63 29 -131 29q-29 0 -43 -14q-23 -23 -22 -64 q0 -59 90 -106l127 31v-129l-353 -101v125l84 29q-39 23 -59 51q-35 47 -35 98z" />
<glyph unicode="&#x627;" arabic-form="isolated" d="M469 0v1556h293v-1556h-293z" />
<glyph unicode="&#x627;" arabic-form="final" d="M539 412v1144h286v-1132q0 -104 49 -154q45 -45 224 -45h155v-225h-264q-283 0 -362 92q-88 105 -88 320z" />
<glyph unicode="&#x628;" arabic-form="isolated" d="M539 -350v225h225v-225h-225zM27 319q0 86 24 187h277q-27 -106 -27 -187q0 -70 102 -118q51 -25 195 -25q123 0 233 68q117 74 117 159q0 92 -16 136h276q14 -84 15 -203q0 -139 -183 -285q-109 -88 -438 -88q-238 0 -397 53q-178 57 -178 303z" />
<glyph unicode="&#x628;" arabic-form="final" d="M70 319q0 96 28 187h283q-29 -82 -29 -166q0 -63 103 -109q39 -16 139 -16q47 0 127 23q84 25 121 61q43 43 43 125q0 84 -17 117h267q18 -74 18 -166q0 -58 25 -111q18 -39 43 -39h32v-225h-75q-68 0 -101 27q-55 45 -61 77q-35 -39 -154 -81q-117 -43 -260 -43 q-213 0 -332 40q-200 72 -200 299zM465 -350v225h225v-225h-225z" />
<glyph unicode="&#x628;" arabic-form="initial" d="M483 -381v225h225v-225h-225zM-37 0v225h174q238 0 281 43q49 49 49 156v176h283v-176q0 -227 -93 -338q-72 -86 -464 -86h-230z" />
<glyph unicode="&#x628;" arabic-form="medial" d="M504 -399v225h225v-225h-225zM-33 0v225h242q162 0 205 43q49 49 49 156v217h289v-217q0 -106 49 -156q43 -43 207 -43h258v-225h-367q-225 0 -293 72q-66 -72 -291 -72h-348z" />
<glyph unicode="&#x629;" arabic-form="isolated" d="M229 903v225h225v-225h-225zM579 903v225h225v-225h-225zM176 291q0 178 37 258q83 184 276 184q249 0 431 -160q141 -123 141 -272q0 -199 -147.5 -278.5t-348.5 -79.5q-141 0 -223 34q-166 74 -166 314zM467 291q0 -57 39 -88q40 -31 80 -31q63 0 129 41q53 31 53 90 q0 53 -47 100q-88 84 -168 84q-49 0 -70 -61q-16 -43 -16 -135z" />
<glyph unicode="&#x629;" arabic-form="final" d="M86 362q0 211 250 365q109 68 260 84q0 12 -3 40t-5 42h280q4 -213 33 -367q25 -119 82 -202q70 -98 158 -99h112v-225h-231q-111 0 -150 51l-75 103q-135 -72 -295 -72q-31 0 -115 14q-301 49 -301 266zM344 397q4 -84 125 -84q90 0 197 47q-20 57 -29 91 q-12 49 -25 151q-96 -12 -161 -63q-107 -93 -107 -142zM270 1049v225h225v-225h-225zM620 1049v225h225v-225h-225z" />
<glyph unicode="&#x62a;" arabic-form="isolated" d="M324 649v225h225v-225h-225zM674 649v225h225v-225h-225zM27 319q0 86 24 187h277q-27 -106 -27 -187q0 -70 102 -118q51 -25 195 -25q123 0 233 68q117 74 117 159q0 92 -16 136h276q14 -84 15 -203q0 -139 -183 -285q-109 -88 -438 -88q-238 0 -397 53 q-178 57 -178 303z" />
<glyph unicode="&#x62a;" arabic-form="final" d="M70 319q0 96 28 187h283q-29 -82 -29 -166q0 -63 103 -109q39 -16 139 -16q47 0 127 23q84 25 121 61q43 43 43 125q0 84 -17 117h267q18 -74 18 -166q0 -58 25 -111q18 -39 43 -39h32v-225h-75q-68 0 -101 27q-55 45 -61 77q-35 -39 -154 -81q-117 -43 -260 -43 q-213 0 -332 40q-200 72 -200 299zM332 649v225h225v-225h-225zM682 649v225h225v-225h-225z" />
<glyph unicode="&#x62a;" arabic-form="initial" d="M-37 0v225h174q238 0 281 43q49 49 49 156v176h283v-176q0 -227 -93 -338q-72 -86 -464 -86h-230zM307 850v225h225v-225h-225zM657 850v225h225v-225h-225z" />
<glyph unicode="&#x62a;" arabic-form="medial" d="M-33 0v225h242q162 0 205 43q49 49 49 156v217h289v-217q0 -106 49 -156q43 -43 207 -43h258v-225h-367q-225 0 -293 72q-66 -72 -291 -72h-348zM317 850v225h225v-225h-225zM667 850v225h225v-225h-225z" />
<glyph unicode="&#x62b;" arabic-form="isolated" d="M317 649v225h225v-225h-225zM491 999v225h225v-225h-225zM667 649v225h225v-225h-225zM27 319q0 86 24 187h277q-27 -106 -27 -187q0 -70 102 -118q51 -25 195 -25q123 0 233 68q117 74 117 159q0 92 -16 136h276q14 -84 15 -203q0 -139 -183 -285q-109 -88 -438 -88 q-238 0 -397 53q-178 57 -178 303z" />
<glyph unicode="&#x62b;" arabic-form="final" d="M70 319q0 96 28 187h283q-29 -82 -29 -166q0 -63 103 -109q39 -16 139 -16q47 0 127 23q84 25 121 61q43 43 43 125q0 84 -17 117h267q18 -74 18 -166q0 -58 25 -111q18 -39 43 -39h32v-225h-75q-68 0 -101 27q-55 45 -61 77q-35 -39 -154 -81q-117 -43 -260 -43 q-213 0 -332 40q-200 72 -200 299zM303 649v225h225v-225h-225zM477 999v225h225v-225h-225zM653 649v225h225v-225h-225z" />
<glyph unicode="&#x62b;" arabic-form="initial" d="M305 850v225h225v-225h-225zM479 1200v225h225v-225h-225zM655 850v225h225v-225h-225zM-37 0v225h174q238 0 281 43q49 49 49 156v176h283v-176q0 -227 -93 -338q-72 -86 -464 -86h-230z" />
<glyph unicode="&#x62b;" arabic-form="medial" d="M311 811v225h225v-225h-225zM485 1161v225h225v-225h-225zM661 811v225h225v-225h-225zM-33 0v225h242q162 0 205 43q49 49 49 156v217h289v-217q0 -106 49 -156q43 -43 207 -43h258v-225h-367q-225 0 -293 72q-66 -72 -291 -72h-348z" />
<glyph unicode="&#x62c;" arabic-form="isolated" d="M672 25v225h225v-225h-225zM88 623v225q264 61 471 61q287 0 488 -53v-194q-266 12 -451 -142q-219 -186 -219 -461q0 -170 123 -264q104 -80 293 -80q201 0 403 113v-229q-151 -98 -399 -99q-387 -2 -557 195q-131 150 -131 373q0 254 143 452q49 68 184 172 q-35 2 -119 -10q-129 -18 -229 -59z" />
<glyph unicode="&#x62c;" arabic-form="final" d="M88 623q82 37 229 59q84 12 119 10q-135 -104 -184 -172q-143 -199 -143 -452q0 -223 131 -373q170 -197 557 -195q249 0 399 99v229q-203 -113 -403 -113q-188 0 -293 80q-123 94 -123 264q0 256 219 461q76 70 113 72q6 -133 47 -232q59 -139 166 -235 q137 -125 303 -125h49v225h-41q-94 0 -193 111q-111 126 -110 239q0 39 10 84q37 8 107 3v194q-201 53 -488 53q-207 0 -471 -61v-225zM553 -49v225h225v-225h-225z" />
<glyph unicode="&#x62c;" arabic-form="initial" d="M-20 0v225h100q125 0 319 78q127 49 217 113q63 43 224 125q-47 14 -174 43q-59 12 -267 30q-100 8 -241 2v242q94 8 145 8q166 0 336 -35q242 -53 477 -153v-242q-57 -37 -176 -84q-55 -20 -201 -139q-113 -90 -278 -154q-154 -59 -352 -59h-129zM524 -299v225h225v-225 h-225z" />
<glyph unicode="&#x62c;" arabic-form="medial" d="M-20 0v225h100q125 0 319 78q127 49 217 113q63 43 224 125q-47 14 -174 43q-59 12 -267 30q-100 8 -241 2v242q94 8 145 8q156 2 336 -35q242 -53 477 -153v-242q-47 -27 -92 -45q23 -43 53 -76q78 -90 140 -90h59v-225h-80q-160 0 -281 164q-53 74 -79 121 q-10 -10 -97 -72q-135 -100 -278 -154q-150 -59 -352 -59h-129zM524 -299v225h225v-225h-225z" />
<glyph unicode="&#x62d;" arabic-form="isolated" d="M88 623v225q264 61 471 61q287 0 488 -53v-194q-266 12 -451 -142q-219 -186 -219 -461q0 -170 123 -264q104 -80 293 -80q201 0 403 113v-229q-151 -98 -399 -99q-387 -2 -557 195q-131 150 -131 373q0 254 143 452q49 68 184 172q-35 2 -119 -10q-129 -18 -229 -59z " />
<glyph unicode="&#x62d;" arabic-form="final" d="M88 623q82 37 229 59q84 12 119 10q-135 -104 -184 -172q-143 -199 -143 -452q0 -223 131 -373q170 -197 557 -195q249 0 399 99v229q-203 -113 -403 -113q-188 0 -293 80q-123 94 -123 264q0 256 219 461q76 70 113 72q6 -133 47 -232q59 -139 166 -235 q137 -125 303 -125h49v225h-41q-94 0 -193 111q-111 126 -110 239q0 39 10 84q37 8 107 3v194q-201 53 -488 53q-207 0 -471 -61v-225z" />
<glyph unicode="&#x62d;" arabic-form="initial" d="M-20 0v225h100q125 0 319 78q127 49 217 113q63 43 224 125q-47 14 -174 43q-59 12 -267 30q-100 8 -241 2v242q94 8 145 8q166 0 336 -35q242 -53 477 -153v-242q-57 -37 -176 -84q-55 -20 -201 -139q-113 -90 -278 -154q-154 -59 -352 -59h-129z" />
<glyph unicode="&#x62d;" arabic-form="medial" d="M-20 0v225h100q125 0 319 78q127 49 217 113q63 43 224 125q-47 14 -174 43q-59 12 -267 30q-100 8 -241 2v242q94 8 145 8q156 2 336 -35q242 -53 477 -153v-242q-47 -27 -92 -45q23 -43 53 -76q78 -90 140 -90h59v-225h-80q-160 0 -281 164q-53 74 -79 121 q-10 -10 -97 -72q-135 -100 -278 -154q-150 -59 -352 -59h-129z" />
<glyph unicode="&#x62e;" arabic-form="isolated" d="M475 1051v225h225v-225h-225zM88 623v225q264 61 471 61q287 0 488 -53v-194q-266 12 -451 -142q-219 -186 -219 -461q0 -170 123 -264q104 -80 293 -80q201 0 403 113v-229q-151 -98 -399 -99q-387 -2 -557 195q-131 150 -131 373q0 254 143 452q49 68 184 172 q-35 2 -119 -10q-129 -18 -229 -59z" />
<glyph unicode="&#x62e;" arabic-form="final" d="M88 623q82 37 229 59q84 12 119 10q-135 -104 -184 -172q-143 -199 -143 -452q0 -223 131 -373q170 -197 557 -195q249 0 399 99v229q-203 -113 -403 -113q-188 0 -293 80q-123 94 -123 264q0 256 219 461q76 70 113 72q6 -133 47 -232q59 -139 166 -235 q137 -125 303 -125h49v225h-41q-94 0 -193 111q-111 126 -110 239q0 39 10 84q37 8 107 3v194q-201 53 -488 53q-207 0 -471 -61v-225zM471 1051v225h225v-225h-225z" />
<glyph unicode="&#x62e;" arabic-form="initial" d="M-20 0v225h100q125 0 319 78q127 49 217 113q63 43 224 125q-47 14 -174 43q-59 12 -267 30q-100 8 -241 2v242q94 8 145 8q166 0 336 -35q242 -53 477 -153v-242q-57 -37 -176 -84q-55 -20 -201 -139q-113 -90 -278 -154q-154 -59 -352 -59h-129zM412 1022v225h225v-225 h-225z" />
<glyph unicode="&#x62e;" arabic-form="medial" d="M-20 0v225h100q125 0 319 78q127 49 217 113q63 43 224 125q-47 14 -174 43q-59 12 -267 30q-100 8 -241 2v242q94 8 145 8q156 2 336 -35q242 -53 477 -153v-242q-47 -27 -92 -45q23 -43 53 -76q78 -90 140 -90h59v-225h-80q-160 0 -281 164q-53 74 -79 121 q-10 -10 -97 -72q-135 -100 -278 -154q-150 -59 -352 -59h-129zM524 950v225h225v-225h-225z" />
<glyph unicode="&#x62f;" arabic-form="isolated" d="M231 0v244q109 -41 248 -41q86 0 117 8q172 49 207 162q8 25 8 67q0 96 -59 195q-63 106 -240 299h328q108 -108 178 -240q82 -150 82 -256q0 -190 -96 -315q-92 -121 -377 -154q-78 -8 -142 -8q-143 0 -254 39z" />
<glyph unicode="&#x62f;" arabic-form="final" d="M231 0q111 -39 254 -39q63 0 142 8q285 33 377 154q92 -123 165 -123h84v225h-28q-35 0 -60 17q-70 45 -65 92q3 43 0 104q-6 117 -82 256q-71 132 -178 240h-328q176 -193 240 -299q59 -98 59 -195q0 -43 -8 -67q-35 -115 -207 -162q-31 -8 -117 -8q-139 0 -248 41v-244 z" />
<glyph unicode="&#x630;" arabic-form="isolated" d="M555 1102v225h225v-225h-225zM231 0v244q109 -41 248 -41q86 0 117 8q172 49 207 162q8 25 8 67q0 96 -59 195q-63 106 -240 299h328q108 -108 178 -240q82 -150 82 -256q0 -190 -96 -315q-92 -121 -377 -154q-78 -8 -142 -8q-143 0 -254 39z" />
<glyph unicode="&#x630;" arabic-form="final" d="M231 0q111 -39 254 -39q63 0 142 8q285 33 377 154q92 -123 165 -123h84v225h-28q-35 0 -60 17q-70 45 -65 92q3 43 0 104q-6 117 -82 256q-71 132 -178 240h-328q176 -193 240 -299q59 -98 59 -195q0 -43 -8 -67q-35 -115 -207 -162q-31 -8 -117 -8q-139 0 -248 41v-244 zM561 1126v225h225v-225h-225z" />
<glyph unicode="&#x631;" arabic-form="isolated" d="M-51 -258q455 0 663 127q229 137 254 285q10 66 11 131q0 125 -54 262h285q49 -117 49 -250q0 -98 -6 -145q-37 -309 -424 -512q-256 -143 -778 -144v246z" />
<glyph unicode="&#x631;" arabic-form="final" d="M-160 -256v-244q512 0 781 144q297 158 387 379q18 -23 131 -23h114v225h-59q-74 0 -104 45q-39 66 -58 179q-10 57 -33 102h-282q51 -133 51 -262q0 -80 -8 -131q-25 -145 -256 -285q-212 -129 -664 -129z" />
<glyph unicode="&#x632;" arabic-form="isolated" d="M846 780v225h225v-225h-225zM-51 -258q455 0 663 127q229 137 254 285q10 66 11 131q0 125 -54 262h285q49 -117 49 -250q0 -98 -6 -145q-37 -309 -424 -512q-256 -143 -778 -144v246z" />
<glyph unicode="&#x632;" arabic-form="final" d="M-160 -256v-244q512 0 781 144q297 158 387 379q18 -23 131 -23h114v225h-59q-74 0 -104 45q-39 66 -58 179q-10 57 -33 102h-282q51 -133 51 -262q0 -80 -8 -131q-25 -145 -256 -285q-212 -129 -664 -129zM727 797v225h225v-225h-225z" />
<glyph unicode="&#x633;" arabic-form="isolated" d="M-197 -63q0 215 54 362h227q-47 -207 -41 -362q4 -121 39 -181q20 -35 53 -35t72 54q29 35 41 129q16 115 16 276q0 98 -16 187l-41 233h233l19 -156q8 -78 39 -180q23 -70 57 -69q33 0 55 108q16 76 17 297h233q0 -199 33 -340q20 -76 51 -76q47 0 47 273v293h242v-342 q0 -227 -68 -336q-31 -51 -86 -72q-74 -29 -135 -29q-76 0 -121 52q-63 68 -75 131q-3 -46 -50 -117q-37 -57 -145 -55q-53 4 -80 45q-2 -88 -31 -230q-25 -123 -86 -196q-71 -92 -221 -93q-131 0 -231.5 101t-100.5 328z" />
<glyph unicode="&#x633;" arabic-form="final" d="M-264 -63q0 -229 98 -328q100 -100 234 -101q151 0 221 93q61 74 86 196q29 141 31 230q27 -43 77 -45q111 -3 148 55q46 71 49 117q12 -63 76 -131q45 -51 121 -52q61 0 135 29q55 20 86 72q43 -72 96 -72h63v225h-8q-25 0 -41 17q-43 43 -43 207v301h-241v-293 q0 -272 -47 -273q-33 0 -54 76q-31 133 -30 340h-236q0 -231 -14 -297q-23 -109 -57.5 -108.5t-57.5 69.5q-29 92 -37 180l-18 156h-236l41 -233q18 -98 19 -187q0 -162 -17 -276q-12 -94 -41 -129q-41 -53 -71 -54q-33 0 -54 35q-39 63 -41 181q-6 147 43 362h-227 q-53 -147 -53 -362z" />
<glyph unicode="&#x633;" arabic-form="initial" d="M-20 0h69q102 0 162 37q68 43 88 96q6 -41 86 -108q47 -41 168 -43q109 -2 145 55q46 71 50 117q12 -63 75 -131q45 -51 121 -52q61 0 135 29q55 20 86 72q68 109 68 336v342h-242v-293q0 -272 -47 -273q-31 0 -51 76q-33 141 -33 340h-233q0 -221 -17 -297 q-23 -109 -55 -108q-80 0 -102 84q-20 70 -21 165v156h-239v-192q0 -78 -70 -148q-39 -35 -100 -35h-43v-225z" />
<glyph unicode="&#x633;" arabic-form="medial" d="M-20 0h55q80 0 123 37q27 27 57 96q6 -43 84 -108q45 -39 170 -43q109 -2 145 55q46 71 50 117q12 -63 75 -131q45 -51 121 -52q61 0 135 29q55 20 86 72q43 -72 97 -72h77v225h-22q-25 0 -41 17q-43 43 -43 207v301h-242v-293q0 -272 -47 -273q-31 0 -51 76 q-33 141 -33 340h-233q0 -225 -17 -297q-23 -109 -57 -108q-78 0 -100 84q-20 70 -21 165v156h-239v-192q0 -104 -39 -148q-39 -35 -64 -35h-26v-225z" />
<glyph unicode="&#x634;" arabic-form="isolated" d="M309 801v225h225v-225h-225zM483 1151v225h225v-225h-225zM659 801v225h225v-225h-225zM-197 -63q0 215 54 362h227q-47 -207 -41 -362q4 -121 39 -181q20 -35 53 -35t72 54q29 35 41 129q16 115 16 276q0 98 -16 187l-41 233h233l19 -156q8 -78 39 -180q23 -70 57 -69 q33 0 55 108q16 76 17 297h233q0 -199 33 -340q20 -76 51 -76q47 0 47 273v293h242v-342q0 -227 -68 -336q-31 -51 -86 -72q-74 -29 -135 -29q-76 0 -121 52q-63 68 -75 131q-3 -46 -50 -117q-37 -57 -145 -55q-53 4 -80 45q-2 -88 -31 -230q-25 -123 -86 -196 q-71 -92 -221 -93q-131 0 -231.5 101t-100.5 328z" />
<glyph unicode="&#x634;" arabic-form="final" d="M-264 -63q0 -229 98 -328q100 -100 234 -101q151 0 221 93q61 74 86 196q29 141 31 230q27 -43 77 -45q111 -3 148 55q46 71 49 117q12 -63 76 -131q45 -51 121 -52q61 0 135 29q55 20 86 72q43 -72 96 -72h63v225h-8q-25 0 -41 17q-43 43 -43 207v301h-241v-293 q0 -272 -47 -273q-33 0 -54 76q-31 133 -30 340h-236q0 -231 -14 -297q-23 -109 -57.5 -108.5t-57.5 69.5q-29 92 -37 180l-18 156h-236l41 -233q18 -98 19 -187q0 -162 -17 -276q-12 -94 -41 -129q-41 -53 -71 -54q-33 0 -54 35q-39 63 -41 181q-6 147 43 362h-227 q-53 -147 -53 -362zM236 801v225h225v-225h-225zM410 1151v225h225v-225h-225zM586 801v225h225v-225h-225z" />
<glyph unicode="&#x634;" arabic-form="initial" d="M-20 0h69q102 0 162 37q68 43 88 96q6 -41 86 -108q47 -41 168 -43q109 -2 145 55q46 71 50 117q12 -63 75 -131q45 -51 121 -52q61 0 135 29q55 20 86 72q68 109 68 336v342h-242v-293q0 -272 -47 -273q-31 0 -51 76q-33 141 -33 340h-233q0 -221 -17 -297 q-23 -109 -55 -108q-80 0 -102 84q-20 70 -21 165v156h-239v-192q0 -78 -70 -148q-39 -35 -100 -35h-43v-225zM283 801v225h225v-225h-225zM457 1151v225h225v-225h-225zM633 801v225h225v-225h-225z" />
<glyph unicode="&#x634;" arabic-form="medial" d="M-20 0h55q80 0 123 37q27 27 57 96q6 -43 84 -108q45 -39 170 -43q109 -2 145 55q46 71 50 117q12 -63 75 -131q45 -51 121 -52q61 0 135 29q55 20 86 72q43 -72 97 -72h77v225h-22q-25 0 -41 17q-43 43 -43 207v301h-242v-293q0 -272 -47 -273q-31 0 -51 76 q-33 141 -33 340h-233q0 -225 -17 -297q-23 -109 -57 -108q-78 0 -100 84q-20 70 -21 165v156h-239v-192q0 -104 -39 -148q-39 -35 -64 -35h-26v-225zM199 801v225h225v-225h-225zM373 1151v225h225v-225h-225zM549 801v225h225v-225h-225z" />
<glyph unicode="&#x635;" arabic-form="isolated" d="M-285 -63q0 215 54 362h227q-49 -215 -43 -362q2 -117 41 -181q20 -35 53 -35q37 0 78 54q25 31 47 129q33 147 14 276q0 6 -9 78t-15 109l-12 84h235q14 -33 29 -91q72 92 133 156q133 139 289 137q211 -4 292 -104q88 -109 89 -211q0 -197 -164 -293q-76 -45 -275 -45 h-219q-39 0 -90 31q-43 25 -43 41q-2 -70 -33 -228q-23 -111 -125 -243q-72 -92 -223 -93q-131 0 -231 101q-99 99 -99 328zM612 225h127q96 0 123 21q61 43 62 80q0 29 -23 61q-20 27 -72 27q-70 0 -137 -80q-53 -64 -80 -109z" />
<glyph unicode="&#x635;" arabic-form="final" d="M-340 -63q0 215 53 362h228q-47 -207 -41 -362q4 -121 39 -181q20 -35 55 -35q37 0 78 54q25 31 47 129q33 147 14 276q-18 133 -27 187l-10 84h234q18 -43 30 -91q82 104 132 156q133 139 290 137q207 -2 291 -104q88 -109 88 -211q0 -39 -6 -57q16 -25 31 -35 q27 -20 43 -21h31v-225h-52q-49 0 -127 55l-32 25q-8 -12 -50 -35q-92 -45 -274 -45h-219q-39 0 -90 31q-43 25 -43 41q-2 -70 -33 -228q-20 -106 -127 -243q-71 -92 -221 -93q-131 0 -231.5 101t-100.5 328zM557 225h129q96 0 123 21q61 43 61 80q0 29 -22 61 q-20 27 -72 27q-70 0 -137 -80q-59 -70 -82 -109z" />
<glyph unicode="&#x635;" arabic-form="initial" d="M-33 0v225h43q41 0 80 39q47 45 47 144v114h240v-78q0 -77 18 -98q63 86 152 170q150 139 289 137q211 -4 292 -104q88 -109 89 -211q0 -197 -164 -293q-76 -45 -275 -45h-219q-176 0 -217 14q-59 20 -96 58q-18 -20 -64 -43q-61 -29 -145 -29h-70zM612 225h127 q96 0 123 21q61 43 62 80q0 29 -23 61q-20 27 -72 27q-70 0 -137 -80q-53 -64 -80 -109z" />
<glyph unicode="&#x635;" arabic-form="medial" d="M-33 0v225h43q41 0 62 35q29 47 28 148v114h240v-78q0 -78 20 -98q76 102 150 170q150 139 291 137q209 -3 289 -104q88 -109 88 -211q0 -39 -7 -57q12 -29 27 -37q25 -18 31 -19h37v-225h-52q-70 0 -122 53l-27 27q-10 -14 -49 -35q-92 -45 -275 -45h-217 q-168 0 -219 14q-78 20 -96 43q-20 -23 -49 -39q-37 -18 -123 -18h-70zM573 225h132q92 0 118 21q63 43 64 80q0 29 -23 61q-18 27 -71 27q-70 0 -138 -80q-59 -70 -82 -109z" />
<glyph unicode="&#x636;" arabic-form="isolated" d="M336 670v225h225v-225h-225zM-285 -63q0 215 54 362h227q-49 -215 -43 -362q2 -117 41 -181q20 -35 53 -35q37 0 78 54q25 31 47 129q33 147 14 276q0 6 -9 78t-15 109l-12 84h235q14 -33 29 -91q72 92 133 156q133 139 289 137q211 -4 292 -104q88 -109 89 -211 q0 -197 -164 -293q-76 -45 -275 -45h-219q-39 0 -90 31q-43 25 -43 41q-2 -70 -33 -228q-23 -111 -125 -243q-72 -92 -223 -93q-131 0 -231 101q-99 99 -99 328zM612 225h127q96 0 123 21q61 43 62 80q0 29 -23 61q-20 27 -72 27q-70 0 -137 -80q-53 -64 -80 -109z" />
<glyph unicode="&#x636;" arabic-form="final" d="M-340 -63q0 215 53 362h228q-47 -207 -41 -362q4 -121 39 -181q20 -35 55 -35q37 0 78 54q25 31 47 129q33 147 14 276q-18 133 -27 187l-10 84h234q18 -43 30 -91q82 104 132 156q133 139 290 137q207 -2 291 -104q88 -109 88 -211q0 -39 -6 -57q16 -25 31 -35 q27 -20 43 -21h31v-225h-52q-49 0 -127 55l-32 25q-8 -12 -50 -35q-92 -45 -274 -45h-219q-39 0 -90 31q-43 25 -43 41q-2 -70 -33 -228q-20 -106 -127 -243q-71 -92 -221 -93q-131 0 -231.5 101t-100.5 328zM557 225h129q96 0 123 21q61 43 61 80q0 29 -22 61 q-20 27 -72 27q-70 0 -137 -80q-59 -70 -82 -109zM260 670v225h225v-225h-225z" />
<glyph unicode="&#x636;" arabic-form="initial" d="M-33 0v225h43q41 0 80 39q47 45 47 144v114h240v-78q0 -77 18 -98q63 86 152 170q150 139 289 137q211 -4 292 -104q88 -109 89 -211q0 -197 -164 -293q-76 -45 -275 -45h-219q-176 0 -217 14q-59 20 -96 58q-18 -20 -64 -43q-61 -29 -145 -29h-70zM612 225h127 q96 0 123 21q61 43 62 80q0 29 -23 61q-20 27 -72 27q-70 0 -137 -80q-53 -64 -80 -109zM287 735v225h225v-225h-225z" />
<glyph unicode="&#x636;" arabic-form="medial" d="M-33 0v225h43q41 0 62 35q29 47 28 148v114h240v-78q0 -78 20 -98q76 102 150 170q150 139 291 137q209 -3 289 -104q88 -109 88 -211q0 -39 -7 -57q12 -29 27 -37q25 -18 31 -19h37v-225h-52q-70 0 -122 53l-27 27q-10 -14 -49 -35q-92 -45 -275 -45h-217 q-168 0 -219 14q-78 20 -96 43q-20 -23 -49 -39q-37 -18 -123 -18h-70zM573 225h132q92 0 118 21q63 43 64 80q0 29 -23 61q-18 27 -71 27q-70 0 -138 -80q-59 -70 -82 -109zM231 723v225h225v-225h-225z" />
<glyph unicode="&#x637;" arabic-form="isolated" d="M10 0v225h217v1331h291v-1064q129 172 307 172q190 0 291 -105q88 -90 88 -211q0 -166 -182 -272q-129 -76 -254 -76h-541h-217zM600 225h129q80 0 123 31q61 43 61 88q0 33 -20 62q-23 29 -74 28q-76 0 -137 -90q-51 -78 -82 -119z" />
<glyph unicode="&#x637;" arabic-form="final" d="M0 0v225h164v1331h291v-1064q129 172 307 172q186 0 291 -105q88 -88 88 -211q0 -66 -6 -76q31 -49 73 -49h45v-223h-106q-74 0 -141 80l-17 18q-117 -98 -284 -98h-541h-164zM537 225h129q78 0 120 31q63 45 64 88q0 29 -23 62q-23 29 -71 28q-76 0 -138 -90 q-50 -78 -81 -119z" />
<glyph unicode="&#x637;" arabic-form="initial" d="M-47 0v225h274v1331h291v-1064q129 172 307 172q190 0 291 -105q88 -90 88 -211q0 -166 -182 -272q-129 -76 -254 -76h-541h-274zM600 225h129q80 0 123 31q61 43 61 88q0 33 -20 62q-23 29 -74 28q-76 0 -137 -90q-51 -78 -82 -119z" />
<glyph unicode="&#x637;" arabic-form="medial" d="M-37 0v225h201v1331h291v-1064q129 172 307 172q197 0 291 -105q88 -94 88 -211q0 -70 -6 -76q31 -49 73 -49h45v-223h-106q-74 0 -141 80l-17 18q-117 -98 -284 -98h-541h-201zM537 225h129q78 0 120 31q63 45 64 88q0 29 -23 62q-23 29 -71 28q-76 0 -138 -90 q-50 -78 -81 -119z" />
<glyph unicode="&#x638;" arabic-form="isolated" d="M635 811v225h225v-225h-225zM10 0v225h217v1331h291v-1064q129 172 307 172q190 0 291 -105q88 -90 88 -211q0 -166 -182 -272q-129 -76 -254 -76h-541h-217zM600 225h129q80 0 123 31q61 43 61 88q0 33 -20 62q-23 29 -74 28q-76 0 -137 -90q-51 -78 -82 -119z" />
<glyph unicode="&#x638;" arabic-form="final" d="M0 0v225h164v1331h291v-1064q129 172 307 172q186 0 291 -105q88 -88 88 -211q0 -66 -6 -76q31 -49 73 -49h45v-223h-106q-74 0 -141 80l-17 18q-117 -98 -284 -98h-541h-164zM537 225h129q78 0 120 31q63 45 64 88q0 29 -23 62q-23 29 -71 28q-76 0 -138 -90 q-50 -78 -81 -119zM580 817v225h225v-225h-225z" />
<glyph unicode="&#x638;" arabic-form="initial" d="M-47 0v225h274v1331h291v-1064q129 172 307 172q190 0 291 -105q88 -90 88 -211q0 -166 -182 -272q-129 -76 -254 -76h-541h-274zM600 225h129q80 0 123 31q61 43 61 88q0 33 -20 62q-23 29 -74 28q-76 0 -137 -90q-51 -78 -82 -119zM645 821v225h225v-225h-225z" />
<glyph unicode="&#x638;" arabic-form="medial" d="M-37 0v225h201v1331h291v-1064q129 172 307 172q197 0 291 -105q88 -94 88 -211q0 -70 -6 -76q31 -49 73 -49h45v-223h-106q-74 0 -141 80l-17 18q-117 -98 -284 -98h-541h-201zM537 225h129q78 0 120 31q63 45 64 88q0 29 -23 62q-23 29 -71 28q-76 0 -138 -90 q-50 -78 -81 -119zM580 811v225h225v-225h-225z" />
<glyph unicode="&#x639;" arabic-form="isolated" d="M72 0q0 203 88 307l121 142q-35 0 -97 71q-59 68 -59 160q0 164 131 264q205 158 537 180v-217q-201 -23 -312 -104q-70 -55 -69 -103q0 -74 28 -90q35 -20 88 -20q49 0 80 16q145 72 414 92v-221q-293 -29 -510 -176q-160 -108 -160 -301q0 -57 41 -111 q127 -164 340 -163q261 0 473 116v-243q-150 -98 -469 -99q-401 0 -567 189q-98 110 -98 311z" />
<glyph unicode="&#x639;" arabic-form="final" d="M84 0q-2 -158 121 -303q168 -199 629 -197q249 0 399 99v254q-212 -117 -406 -117q-324 0 -409 121q-47 70 -47 143q0 111 110 186q238 -186 580 -186h207v225h-224q-139 0 -194 21q-68 23 -148 78q104 63 156 116q70 70 70 117q0 68 -15 102q-18 57 -118 109 q-90 43 -248 43q-133 0 -230 -43q-109 -51 -131 -111q-20 -55 -20 -100q0 -57 57 -129q61 -76 92 -96q-123 -84 -155 -129q-76 -109 -76 -203zM473 539q0 20 39 34q8 4 35 5q12 0 37 -5q45 -12 47 -26q4 -29 -51 -62l-56 -30l-16 16q-35 52 -35 68z" />
<glyph unicode="&#x639;" arabic-form="initial" d="M-20 0v225h81q152 0 330 82q-63 12 -145 88q-111 101 -111 246q0 270 230 379q154 74 423 96v-237q-197 -20 -311 -91q-74 -47 -74 -114q0 -76 89 -158q57 -53 184 -53q55 0 129 33l213 90v-267l-420 -196q-261 -123 -528 -123h-90z" />
<glyph unicode="&#x639;" arabic-form="medial" d="M-20 0v225h219q139 6 231 74q-98 98 -156 174q-29 37 -28 84q0 76 35 119q43 57 127 92q100 43 208.5 43t207 -43t128.5 -88q39 -51 35 -123q0 -47 -31 -84q-84 -96 -157 -170q88 -72 235 -78h219v-225h-368q-106 0 -271 131q-162 -131 -266 -131h-368zM535 537 q0 -16 81 -95q80 78 80 95q0 25 -24 32q-29 8 -56 9q-37 0 -57 -9q-24 -12 -24 -32z" />
<glyph unicode="&#x63a;" arabic-form="isolated" d="M309 1231v225h225v-225h-225zM72 0q0 203 88 307l121 142q-35 0 -97 71q-59 68 -59 160q0 164 131 264q205 158 537 180v-217q-201 -23 -312 -104q-70 -55 -69 -103q0 -74 28 -90q35 -20 88 -20q49 0 80 16q145 72 414 92v-221q-293 -29 -510 -176q-160 -108 -160 -301 q0 -57 41 -111q127 -164 340 -163q261 0 473 116v-243q-150 -98 -469 -99q-401 0 -567 189q-98 110 -98 311z" />
<glyph unicode="&#x63a;" arabic-form="final" d="M84 0q-2 -158 121 -303q168 -199 629 -197q249 0 399 99v254q-212 -117 -406 -117q-324 0 -409 121q-47 70 -47 143q0 111 110 186q238 -186 580 -186h207v225h-224q-139 0 -194 21q-68 23 -148 78q104 63 156 116q70 70 70 117q0 68 -15 102q-18 57 -118 109 q-90 43 -248 43q-133 0 -230 -43q-109 -51 -131 -111q-20 -55 -20 -100q0 -57 57 -129q61 -76 92 -96q-123 -84 -155 -129q-76 -109 -76 -203zM473 539q0 20 39 34q8 4 35 5q12 0 37 -5q45 -12 47 -26q4 -29 -51 -62l-56 -30l-16 16q-35 52 -35 68zM426 950v225h225v-225 h-225z" />
<glyph unicode="&#x63a;" arabic-form="initial" d="M-20 0v225h81q152 0 330 82q-63 12 -145 88q-111 101 -111 246q0 270 230 379q154 74 423 96v-237q-197 -20 -311 -91q-74 -47 -74 -114q0 -76 89 -158q57 -53 184 -53q55 0 129 33l213 90v-267l-420 -196q-261 -123 -528 -123h-90zM375 1200v225h225v-225h-225z" />
<glyph unicode="&#x63a;" arabic-form="medial" d="M-20 0v225h219q139 6 231 74q-98 98 -156 174q-29 37 -28 84q0 76 35 119q43 57 127 92q100 43 208.5 43t207 -43t128.5 -88q39 -51 35 -123q0 -47 -31 -84q-84 -96 -157 -170q88 -72 235 -78h219v-225h-368q-106 0 -271 131q-162 -131 -266 -131h-368zM535 537 q0 -16 81 -95q80 78 80 95q0 25 -24 32q-29 8 -56 9q-37 0 -57 -9q-24 -12 -24 -32zM508 950v225h225v-225h-225z" />
<glyph unicode="&#x641;" arabic-form="isolated" d="M731 1067v225h225v-225h-225zM-106 313q0 137 34 232h287q-35 -90 -35 -232q0 -127 119 -172q86 -33 150 -32q139 0 243 22q100 20 156 62q49 37 63 59q-33 -16 -98 -16q-143 0 -238 71q-123 98 -122 234q0 96 16 139q47 117 164 168q113 49 211 49t184 -39 q76 -33 170 -172q35 -53 35 -190q0 -289 -125 -441q-74 -92 -315 -147q-174 -39 -344 -39q-150 0 -277 41q-276 92 -278 403zM737 559q0 -66 37 -90.5t82 -24.5q68 0 96 48q20 29 21 67q0 45 -45 80q-31 25 -74 25q-58 0 -92 -43q-25 -35 -25 -62z" />
<glyph unicode="&#x641;" arabic-form="final" d="M-178 313q0 137 31 232h266q-33 -125 -33 -232q0 -104 117 -151q72 -31 200 -31q86 0 240 62q-47 25 -113 108q-86 109 -86 193q0 113 21 153q43 92 162 148q104 47 219 47q151 0 233 -49q113 -72 129 -101q39 -70 39 -219q0 -127 -90 -248h17h79v-225h-153 q-129 0 -215 27q-31 -25 -158 -62q-215 -61 -330 -61q-201 0 -327 53q-248 100 -248 356zM729 487q0 -41 23 -75q51 -80 131 -115q88 66 88 164q0 34 -6 61q-6 35 -39 60q-34 25 -74 24q-27 0 -45 -8q-55 -29 -72 -72q-6 -23 -6 -39zM735 958v225h225v-225h-225z" />
<glyph unicode="&#x641;" arabic-form="initial" d="M-20 0v225h241q236 0 291 31q70 41 84 55q39 45 20 76q-25 -35 -135 -35q-174 0 -258 68q-96 78 -96 217q0 59 6 94q23 150 174 217q77 37 203 37q133 0 211 -49q57 -35 110 -125q49 -80 50 -190q0 -252 -70 -402q-49 -106 -256 -180q-104 -39 -254 -39h-321zM420 653 q0 -49 33 -69q23 -14 49 -15q43 0 57 15q25 25 25 71q0 39 -39 66q-20 14 -45 14q-31 0 -56 -24q-24 -27 -24 -58zM375 1169v225h225v-225h-225z" />
<glyph unicode="&#x641;" arabic-form="medial" d="M-20 0v225h227q123 0 153 15q-63 25 -102 118q-20 43 -20 123q0 129 43 199q63 104 151 131q90 27 186 27q106 0 170 -23q147 -53 185 -139q27 -57 22 -195q0 -61 -20 -123q-16 -47 -103 -114q43 -18 156 -19h225v-225h-315q-137 0 -322 57q-180 -57 -319 -57h-317z M512 487q0 -34 25 -61q47 -53 79 -70q33 20 72 70q25 28 25 61t-15 68q-12 23 -43 45q-16 10 -39 10q-31 0 -47 -12q-25 -22 -37 -43q-20 -39 -20 -68zM492 999v225h225v-225h-225z" />
<glyph unicode="&#x642;" arabic-form="isolated" d="M514 1200v225h225v-225h-225zM864 1200v225h225v-225h-225zM0 37q0 219 47 340h285q-53 -195 -53 -285q0 -125 53 -196q68 -92 190 -93q199 0 307 154q141 203 142 354q-35 -33 -191 -32q-133 0 -235 69q-150 100 -150 289q0 59 8 94q43 205 224 289q88 39 182 39 q160 0 244 -74q94 -82 137 -184q43 -100 43 -336q0 -246 -45 -395q-76 -250 -223.5 -395.5t-419.5 -145.5q-219 0 -383 115q-162 117 -162 393zM690 655q0 -59 27 -86q41 -41 84 -41q39 0 71 25q41 31 41 104q0 34 -30 74q-31 39 -86 39q-43 0 -72 -33q-35 -39 -35 -82z" />
<glyph unicode="&#x642;" arabic-form="final" d="M-18 -37q0 117 34 262h277q-43 -169 -43 -270q0 -82 49 -158q45 -70 190 -69q129 0 222 59q121 78 196 223q-86 9 -147 19q-166 31 -262 135q-106 115 -107 235q0 94 49 199q25 55 121 111q106 63 240 63q147 0 180 -16q106 -55 141 -152q37 -98 43 -379h14.5t10.5 -1 l4 -1l59 2v-225h-63h-47q-14 -119 -66 -205q-94 -150 -246 -223q-129 -63 -387 -64q-319 0 -411 193q-51 104 -51 262zM678 393q0 -39 47 -80q31 -29 98.5 -51t108.5 -22q2 106 -12 180q-14 57 -48 80q-31 23 -67 22q-31 0 -55 -10q-47 -20 -58 -43q-14 -35 -14 -76z M481 905v225h225v-225h-225zM831 905v225h225v-225h-225z" />
<glyph unicode="&#x642;" arabic-form="initial" d="M211 1151v225h225v-225h-225zM561 1151v225h225v-225h-225zM-20 0v225h241q236 0 291 31q70 41 84 55q39 45 20 76q-25 -35 -135 -35q-174 0 -258 68q-96 78 -96 217q0 59 6 94q23 150 174 217q77 37 203 37q133 0 211 -49q57 -35 110 -125q49 -80 50 -190 q0 -252 -70 -402q-49 -106 -256 -180q-104 -39 -254 -39h-321zM420 653q0 -49 33 -69q23 -14 49 -15q43 0 57 15q25 25 25 71q0 39 -39 66q-20 14 -45 14q-31 0 -56 -24q-24 -27 -24 -58z" />
<glyph unicode="&#x642;" arabic-form="medial" d="M326 999v225h225v-225h-225zM676 999v225h225v-225h-225zM-20 0v225h227q123 0 153 15q-63 25 -102 118q-20 43 -20 123q0 129 43 199q63 104 151 131q90 27 186 27q106 0 170 -23q147 -53 185 -139q27 -57 22 -195q0 -61 -20 -123q-16 -47 -103 -114q43 -18 156 -19h225 v-225h-315q-137 0 -322 57q-180 -57 -319 -57h-317zM512 487q0 -34 25 -61q47 -53 79 -70q33 20 72 70q25 28 25 61t-15 68q-12 23 -43 45q-16 10 -39 10q-31 0 -47 -12q-25 -22 -37 -43q-20 -39 -20 -68z" />
<glyph unicode="&#x643;" arabic-form="isolated" d="M8 260q0 72 17 127h272q-14 -57 -14 -100q3 -77 135 -129q74 -29 137 -29q137 0 219 55q78 51 111 97q51 72 51 329v946h278v-946q0 -397 -86 -487q-133 -139 -196 -164q-154 -53 -371 -53q-182 0 -336 53q-217 76 -217 301zM268 543v127q76 -10 115 -11q63 0 117 27 q31 18 30 41q0 33 -47 43q-89 15 -123 49q-59 55 -59 125q0 102 94 148q86 39 240 47v-121q-82 -4 -113 -19q-68 -28 -67 -61q0 -14 26 -39q12 -12 60 -16q143 -14 143 -150q0 -113 -106 -162q-92 -41 -187 -41q-68 1 -123 13z" />
<glyph unicode="&#x643;" arabic-form="final" d="M-100 260q0 72 16 127h272q-14 -57 -14 -100q3 -77 135 -129q74 -29 140 -29q133 0 217 55q78 51 110 97q51 72 51 329v946h281v-1173q0 -66 47 -113q45 -45 57 -45h60v-225h-115q-86 0 -164 84q-82 -88 -170 -125q-131 -53 -370 -53q-182 0 -336 53q-217 76 -217 301z M162 543v127q76 -10 112 -11q63 0 117 27q33 20 33 41q0 33 -47 43q-92 16 -125 49q-57 55 -57 125q0 102 94 148q86 39 237 47v-121q-80 -3 -110 -19q-70 -29 -70 -61q0 -14 29 -39q12 -12 57 -16q143 -14 143 -150q0 -113 -106 -162q-92 -41 -186 -41q-66 1 -121 13z" />
<glyph unicode="&#x643;" arabic-form="initial" d="M-20 0v225h403q154 0 192 92q16 39 17 72q0 41 -55 107l-256 315q-115 139 -115 209q0 27 10 67q29 109 146 158l745 311v-268l-506 -205q-96 -37 -90 -77q2 -31 80 -125l221 -267q102 -121 102 -245q0 -109 -63 -213q-96 -156 -410 -156h-421z" />
<glyph unicode="&#x643;" arabic-form="medial" d="M-31 0v225h430q154 0 195 92q14 35 14 72q0 45 -53 107l-256 315q-115 139 -115 209q0 27 11 67q29 109 145 158l745 311v-268l-505 -205q-96 -37 -91 -77q2 -35 78 -125l498 -598q25 -27 59 -41q45 -16 101 -17h45v-225h-82q-225 0 -305 88l-68 76l-22 -35 q-86 -129 -373 -129h-451z" />
<glyph unicode="&#x644;" arabic-form="isolated" d="M0 76q0 141 35 229h303q-49 -113 -49 -229q0 -106 96 -156q86 -43 174 -43q109 0 178 45q82 53 109 152q29 98 28 352v1130h289v-1130q0 -264 -51 -457q-49 -176 -201 -266q-125 -74 -352 -74q-248 0 -358 76q-199 140 -201 371z" />
<glyph unicode="&#x644;" arabic-form="final" d="M-76 76q0 141 35 229h303q-49 -113 -49 -229q0 -106 96 -156q86 -43 176 -43q106 0 177 45q82 53 108 152q31 104 31 352v1130h286v-1173q0 -76 52 -115q57 -43 88 -43h47v-225h-103q-77 0 -116 55q-16 -102 -45 -166q-53 -115 -174 -186q-125 -74 -351 -74 q-252 0 -360 76q-199 140 -201 371z" />
<glyph unicode="&#x644;" arabic-form="initial" d="M-20 0v225h475q219 0 262 43q47 47 47 156v1132h287v-1144q0 -218 -86 -320q-80 -92 -404 -92h-581z" />
<glyph unicode="&#x644;" arabic-form="medial" d="M-20 0v225h229q162 0 205 43q49 49 49 156v1132h289v-1132q0 -106 49 -156q43 -43 207 -43h245v-225h-354q-225 0 -293 72q-66 -72 -291 -72h-335z" />
<glyph unicode="&#x645;" arabic-form="isolated" d="M59 0q0 199 121 301q65 55 185 55q-2 29 -3 58q0 150 125 254q76 63 246 63q98 0 195 -39q186 -70 217 -248q6 -31 6 -100q0 -172 -123 -260q-98 -70 -225 -70q-137 -2 -324 78q-88 37 -112.5 12.5t-24.5 -104.5v-492h-283v492zM641 365q0 -12 10 -70l113 -27q49 0 65 23 q37 57 35 76q-6 37 -6 43q-4 27 -35 51q-29 27 -80 26.5t-71 -38.5q-31 -59 -31 -84z" />
<glyph unicode="&#x645;" arabic-form="final" d="M0 -55q0 199 121 301q63 55 182 55q-2 29 -2 57q0 150 127 254q76 63 246 64q98 0 194 -39q184 -72 215 -248q0 -2 1 -13t3.5 -36t4.5 -51q2 -43 57 -56q35 -8 74 -8h30v-225h-86q-141 0 -172 51q-10 -10 -26 -22q-115 -70 -228 -70q-131 -2 -321 80q-88 37 -115 10 q-25 -25 -24 -104v-437h-281v437zM582 309q0 -12 10 -69l113 -27q47 0 63 23q39 59 37 75q-6 37 -6 43q-4 27 -35 52q-29 27 -80 26.5t-72 -39.5q-30 -57 -30 -84z" />
<glyph unicode="&#x645;" arabic-form="initial" d="M-31 0v225h90q166 -14 213 125q29 158 127 254q63 63 246 64q98 0 195 -39q184 -70 215 -246q8 -41 8 -102q0 -170 -125 -261q-98 -68 -225 -67q-219 0 -324 106q-37 -25 -106 -41q-66 -18 -224 -18h-90zM553 299q0 -10 10 -68q47 -20 113 -26q49 0 63 20q37 57 35 76 q-6 37 -6 45q-4 25 -33 49q-33 29 -80 29q-51 0 -71 -39q-31 -58 -31 -86z" />
<glyph unicode="&#x645;" arabic-form="medial" d="M-31 0v225h90q131 0 162 125q43 172 127 254q63 63 246 64q98 0 194 -39q184 -72 216 -246q12 -68 57 -127q25 -31 92 -31h100v-225h-155q-164 0 -187 33q-133 -80 -249 -80q-217 0 -322 106q-35 -23 -109 -41q-65 -18 -172 -18h-90zM502 299q0 -10 10 -68 q47 -20 113 -26q49 0 63 20q39 59 37 76q-6 37 -6 45q-2 25 -35 49q-33 29 -80 29q-51 0 -72 -39q-30 -58 -30 -86z" />
<glyph unicode="&#x646;" arabic-form="isolated" d="M438 758v225h225v-225h-225zM18 127q0 172 50 352h288q-39 -145 -41 -315q-2 -129 125 -205q76 -43 144 -43q104 0 145 21q117 57 152 155q33 96 32 195q0 303 -45 401h291q41 -164 41 -432q0 -213 -84 -365q-59 -104 -213 -176q-104 -47 -319 -47q-166 0 -295 64 q-271 129 -271 395z" />
<glyph unicode="&#x646;" arabic-form="final" d="M-86 -39q0 174 49 354h289q-35 -137 -39 -315q-2 -131 123 -205q78 -43 143 -43q106 0 148 21q115 55 149.5 155.5t34.5 194.5q0 297 -47 401h293q10 -37 22 -147q6 -55 54 -121q23 -31 69 -31h51v-225h-94q-59 0 -65 16q-12 -162 -82 -288q-59 -104 -211 -177 q-104 -47 -322 -47q-166 0 -295 64q-270 129 -270 393zM336 557v225h225v-225h-225z" />
<glyph unicode="&#x646;" arabic-form="initial" d="M487 850v225h225v-225h-225zM-37 0v225h174q238 0 281 43q49 49 49 156v176h283v-176q0 -227 -93 -338q-72 -86 -464 -86h-230z" />
<glyph unicode="&#x646;" arabic-form="medial" d="M498 850v225h225v-225h-225zM-33 0v225h242q162 0 205 43q49 49 49 156v217h289v-217q0 -106 49 -156q43 -43 207 -43h258v-225h-367q-225 0 -293 72q-66 -72 -291 -72h-348z" />
<glyph unicode="&#x647;" arabic-form="isolated" d="M176 291q0 178 37 258q83 184 276 184q249 0 431 -160q141 -123 141 -272q0 -199 -147.5 -278.5t-348.5 -79.5q-141 0 -223 34q-166 74 -166 314zM467 291q0 -57 39 -88q40 -31 80 -31q63 0 129 41q53 31 53 90q0 53 -47 100q-88 84 -168 84q-49 0 -70 -61 q-16 -43 -16 -135z" />
<glyph unicode="&#x647;" arabic-form="final" d="M86 362q0 211 250 365q109 68 260 84q0 12 -3 40t-5 42h280q4 -213 33 -367q25 -119 82 -202q70 -98 158 -99h112v-225h-231q-111 0 -150 51l-75 103q-135 -72 -295 -72q-31 0 -115 14q-301 49 -301 266zM344 397q4 -84 125 -84q90 0 197 47q-20 57 -29 91 q-12 49 -25 151q-96 -12 -161 -63q-107 -93 -107 -142z" />
<glyph unicode="&#x647;" arabic-form="initial" d="M-20 0v225h145q31 0 80 4q-39 76 -51 140q-18 80 -19 143q0 66 43 150q37 71 105 110q-47 14 -62 16v232q305 -57 541 -262q238 -211 299 -439q14 -49 14 -108q0 -114 -61 -184q-100 -113 -307 -113q-98 0 -197 35q-68 25 -129 67q-74 -16 -225 -16h-176zM385 506 q0 -18 8 -68q10 -53 49 -114q12 12 29 36q41 63 41 134q0 25 -16 73q-12 39 -39 39q-35 0 -49 -31q-23 -44 -23 -69zM618 147q33 -16 80 -16q109 0 125 68q6 31 6 61q0 35 -32 109q-14 35 -49 84q2 -88 -31 -168q-36 -85 -99 -138z" />
<glyph unicode="&#x647;" arabic-form="medial" d="M-20 0v225h260q6 115 57 240q41 98 115 186q96 113 264 113q178 0 256 -96q68 -86 67 -224q0 -102 -92 -219h346v-225h-346q92 -117 92 -219q0 -137 -67 -223q-78 -96 -256 -97q-168 0 -264 113q-74 88 -115 186q-51 125 -57 240h-260zM508 0q0 -115 39 -188 q68 -133 125 -133.5t57 104.5q0 57 -69.5 137t-133.5 80h-18zM508 225h18q63 0 133 78q70 80 70 139q0 104 -57.5 104.5t-124.5 -132.5q-39 -74 -39 -189z" />
<glyph unicode="&#x648;" arabic-form="isolated" d="M76 -256q469 0 575 59q190 102 230 199q-39 0 -162 10q-150 12 -238 68q-115 70 -114 235q0 248 211 336q57 25 163 25q188 0 258 -51q127 -92 154 -263q18 -101 18 -178q0 -285 -172 -469q-80 -84 -180 -129q-187 -86 -743 -86v244zM659 317q0 -43 76 -69 q63 -23 162 -23q0 132 -61 172q-37 25 -72 25q-55 0 -80 -35t-25 -70z" />
<glyph unicode="&#x648;" arabic-form="final" d="M0 -256q469 0 575 59q190 102 230 199q-41 0 -164 10q-145 12 -235 68q-115 70 -115 235q0 248 211 336q59 25 164 25q188 0 258 -51q127 -90 153 -263q14 -82 17 -137h159v-225h-178q-41 -168 -151 -285q-80 -84 -181 -129q-187 -86 -743 -86v244zM584 317q0 -43 75 -69 q63 -23 160 -23q0 133 -59 172q-37 25 -74 25q-53 0 -77.5 -35t-24.5 -70z" />
<glyph unicode="&#x649;" arabic-form="isolated" d="M0 123q0 117 63 229h283q-66 -135 -63 -229q4 -162 90 -182q70 -20 157 -21q137 0 230 35q88 35 129 90q53 66 53 119q0 45 -16 72q-33 53 -142 69q-231 31 -227 275q2 174 125 245q100 59 217 60q227 0 281 -99q53 -100 53 -223h-268q0 61 -15 76q-35 33 -71 33 q-25 0 -52 -27q-27 -29 -26 -59q0 -76 125 -101q193 -39 274 -178q33 -59 33 -151q0 -127 -53 -205q-106 -152 -207 -209q-162 -92 -455 -92q-201 0 -317 59q-201 99 -201 414z" />
<glyph unicode="&#x649;" arabic-form="final" d="M-80 18q-6 92 31 230h280q-27 -86 -26 -197q0 -109 110 -131q61 -12 111 -12q63 0 160 20q43 8 102 47q55 33 55 62q0 25 -18 39q-20 18 -53 53q-47 51 -47 145q0 106 49 175q45 63 125 92q41 14 139 14q82 0 149 -51q76 -59 97 -148q31 -131 57 -131h12v-225h-34 q-174 0 -217.5 172t-94.5 166q-10 0 -22 -16q-14 -16 -15 -35q0 -14 41 -56q76 -76 76 -184q0 -143 -61 -205q-72 -70 -187 -123q-156 -72 -311 -71q-119 0 -266 37q-224 54 -242 333z" />
<glyph unicode="&#x64a;" arabic-form="isolated" d="M279 -662v225h225v-225h-225zM629 -662v225h225v-225h-225zM0 123q0 117 63 229h283q-66 -135 -63 -229q4 -162 90 -182q70 -20 157 -21q137 0 230 35q88 35 129 90q53 66 53 119q0 45 -16 72q-33 53 -142 69q-231 31 -227 275q2 174 125 245q100 59 217 60 q227 0 281 -99q53 -100 53 -223h-268q0 61 -15 76q-35 33 -71 33q-25 0 -52 -27q-27 -29 -26 -59q0 -76 125 -101q193 -39 274 -178q33 -59 33 -151q0 -127 -53 -205q-106 -152 -207 -209q-162 -92 -455 -92q-201 0 -317 59q-201 99 -201 414z" />
<glyph unicode="&#x64a;" arabic-form="final" d="M172 -668v225h225v-225h-225zM522 -668v225h225v-225h-225zM-80 18q-6 92 31 230h280q-27 -86 -26 -197q0 -109 110 -131q61 -12 111 -12q63 0 160 20q43 8 102 47q55 33 55 62q0 25 -18 39q-20 18 -53 53q-47 51 -47 145q0 106 49 175q45 63 125 92q41 14 139 14 q82 0 149 -51q76 -59 97 -148q31 -131 57 -131h12v-225h-34q-174 0 -217.5 172t-94.5 166q-10 0 -22 -16q-14 -16 -15 -35q0 -14 41 -56q76 -76 76 -184q0 -143 -61 -205q-72 -70 -187 -123q-156 -72 -311 -71q-119 0 -266 37q-224 54 -242 333z" />
<glyph unicode="&#x64a;" arabic-form="initial" d="M-37 0v225h174q238 0 281 43q49 49 49 156v176h283v-176q0 -227 -93 -338q-72 -86 -464 -86h-230zM305 -360v225h225v-225h-225zM655 -360v225h225v-225h-225z" />
<glyph unicode="&#x64a;" arabic-form="medial" d="M-33 0v225h242q162 0 205 43q49 49 49 156v217h289v-217q0 -106 49 -156q43 -43 207 -43h258v-225h-367q-225 0 -293 72q-66 -72 -291 -72h-348zM319 -365v225h225v-225h-225zM669 -365v225h225v-225h-225z" />
<glyph d="M104 -362v1806h1024v-1806h-1024zM219 -248h795v1577h-795v-1577z" />
<glyph d="M104 -362v1806h1024v-1806h-1024zM219 -248h795v1577h-795v-1577z" />
<glyph unicode=" " />
<glyph unicode="!" d="M483 0v283h267v-283h-267zM483 838v655h267v-655l-33 -357h-199z" />
<glyph unicode="&#x22;" d="M231 938v555h256v-555h-256zM743 938v555h256v-555h-256z" />
<glyph unicode="#" d="M2 373v215h260l74 293h-219v215h274l94 374h222l-95 -374h203l94 374h224l-97 -374h193v-215h-246l-74 -293h205v-215h-258l-94 -373h-221l94 373h-205l-94 -373h-221l94 373h-207zM483 588h205l74 293h-205z" />
<glyph unicode="$" d="M164 942q0 168 102 266q100 98 287 111v237h141v-237q71 -3 148 -19q90 -18 157 -38v-256q-57 37 -139 63q-78 25 -166 31v-307q199 -31 297 -134q100 -102 101 -276q0 -164 -109 -268q-109 -106 -289 -115v-301h-141v301q-76 2 -182 27q-88 20 -199 65v262 q102 -59 199 -94q98 -35 182 -35v330q-199 41 -293 135q-96 96 -96 252zM428 967q0 -57 30.5 -94t94.5 -56v283q-66 -10 -94 -41q-31 -34 -31 -92zM694 225q65 9 99 49q35 41 34 101q0 61 -34 102q-33 39 -99 51v-303z" />
<glyph unicode="%" d="M33 1112q0 133 94 227q92 92 225 92.5t226 -92.5q94 -94 94 -227q0 -131 -94.5 -225t-225.5 -94q-133 0 -225 92q-94 94 -94 227zM86 561l1042 418l41 -96l-1048 -418zM215 1112q0 -57 41 -98q39 -39 96.5 -39t96.5 39q41 41 40 98q0 55 -40.5 96t-96.5 41q-57 0 -96 -39 q-41 -41 -41 -98zM580 319q0 135 92 227.5t227 92.5q127 0 225 -94q94 -92 94.5 -225.5t-94.5 -225.5q-98 -94 -225 -94q-135 0 -227 92t-92 227zM762 319q0 -59 39 -98t96 -39q59 0 98 39q41 41 41 98q0 55 -41 96.5t-98 41.5t-96 -39.5t-39 -98.5z" />
<glyph unicode="&#x26;" d="M37 442q0 145 69 265q68 115 211 206q-49 78 -73 144q-25 68 -25 127q0 164 109 250q106 86 315 86q84 0 143 -11q76 -12 138 -32v-256q-65 37 -129 55q-66 18 -131 18q-80 0 -121 -28.5t-41 -81.5q0 -33 30 -99q31 -65 99 -165l313 -480q20 35 33 86q10 41 10 107 q0 41 -2 59q-4 37 -6 53h235v-51q0 -143 -34.5 -253.5t-106.5 -194.5l162 -246h-317l-48 72q-80 -53 -159 -76q-86 -25 -172 -25q-225 0 -363 131q-139 133 -139 340zM307 496q0 -125 78 -205q80 -84 193 -84q27 0 57 6q29 6 57 18l2 1q2 1 6 4q43 25 48 26l-308 469 q-68 -45 -100.5 -102t-32.5 -133z" />
<glyph unicode="'" d="M487 938v555h256v-555h-256z" />
<glyph unicode="(" d="M383 643q0 229 78 457q78 225 235 454h228q-133 -242 -196.5 -463t-63.5 -448t63 -448q66 -227 197 -465h-228q-156 225 -235 456q-78 228 -78 457z" />
<glyph unicode=")" d="M309 -270q131 238 197 465q63 221 63 448t-63.5 448.5t-196.5 462.5h228q158 -229 235 -454q78 -227 78 -456.5t-78 -457.5q-80 -231 -235 -456h-228z" />
<glyph unicode="*" d="M121 870l332 174l-332 173l76 141l331 -182v344h172v-344l332 182l76 -141l-330 -173l330 -174l-76 -141l-332 184v-344h-172v344l-331 -184z" />
<glyph unicode="+" d="M66 524v238h432v430h237v-430h430v-238h-430v-432h-237v432h-432z" />
<glyph unicode="," d="M362 -287l99 383v271h313v-271l-196 -383h-216z" />
<glyph unicode="-" d="M301 444v291h631v-291h-631z" />
<glyph unicode="." d="M449 0v367h333v-367h-333z" />
<glyph unicode="/" d="M113 -190l786 1683h221l-786 -1683h-221z" />
<glyph unicode="0" d="M123 745.5q0 389.5 123 582t370.5 192.5t370.5 -192.5t123 -582t-123 -582t-370.5 -192.5t-370.5 192.5t-123 582zM420 745.5q0 -270.5 47 -399.5q45 -125 149.5 -125t149.5 125q47 129 47 399.5t-47 399.5q-45 125 -149.5 125t-149.5 -125q-47 -129 -47 -399.5zM492 745 q0 51 36.5 88t88 37t88 -36.5t36.5 -88t-36.5 -88t-88 -36.5t-88 36.5t-36.5 87.5z" />
<glyph unicode="1" d="M188 0v260h330v969l-307 -76v266l309 74h285v-1233h330v-260h-947z" />
<glyph unicode="2" d="M115 0v252l159 170l347 373q76 88 108.5 153.5t32.5 130.5q0 100 -60 154q-61 55 -172 55q-80 0 -178 -31q-96 -31 -205 -92v275q94 35 209 59q96 20 197 21q238 0 373 -111t135 -301q0 -94 -29 -166q-29 -70 -102 -170q-49 -63 -291 -305l-205 -207h629v-260h-948z" />
<glyph unicode="3" d="M125 45v274q98 -47 203 -71q106 -25 229 -25q120 0 191 56q70 55 69 149q0 117 -69 178q-72 61 -199 62h-158v260h158q109 0 170 43t61 123q0 83 -61 129q-63 47 -170 47q-90 0 -180 -21q-92 -20 -199 -61v268q115 35 203 47q109 16 192 17q240 0 369 -103 q131 -104 131 -284q0 -133 -76 -218q-78 -86 -217 -110q160 -29 244 -127q84 -100 84 -262q0 -215 -139.5 -330t-403.5 -115q-113 0 -223 19q-105 18 -209 55z" />
<glyph unicode="4" d="M102 322v286l566 885h309v-918h164v-253h-164v-322h-283v322h-592zM317 575h377v590z" />
<glyph unicode="5" d="M143 35v266q82 -39 170 -61q82 -20 176 -21q158 0 236 66q82 70 82 194q0 115 -80 187q-82 72 -215 71q-70 0 -158 -20.5t-161 -57.5v834h811v-260h-572v-277q33 14 78 21q40 6 86 6q223 0 360.5 -139t137.5 -365q0 -238 -149.5 -373t-407.5 -135q-90 0 -195 17 q-90 14 -199 47z" />
<glyph unicode="6" d="M131 743q0 387 152 582q150 193 452 193q74 0 144 -15q82 -16 151 -45v-268q-82 47 -151 67q-78 23 -140 23q-162 0 -243 -106q-84 -111 -88 -320q45 63 120 98q72 33 172 33q203 0 312 -127q111 -129 110 -362q0 -250 -123 -390q-123 -137 -348 -137q-276 0 -397 183 q-123 183 -123 591zM446 477q0 -129 50 -201q49 -70 147 -69q96 0 147.5 69.5t51.5 200.5t-51.5 201t-147.5 70q-98 0 -147 -70q-50 -72 -50 -201z" />
<glyph unicode="7" d="M135 1233v260h944v-209l-506 -1284h-301l486 1233h-623z" />
<glyph unicode="8" d="M129 420q0 135 72 235q71 98 196 136q-114 40 -172 122q-59 84 -59 205q0 184 121 293t329.5 109t329.5 -108.5t121 -293.5q0 -121 -57 -203q-59 -86 -170 -124q125 -37 194 -136q70 -96 70 -235q0 -215 -127 -332q-125 -117 -360.5 -117t-360.5 117q-127 117 -127 332z M395 438q0 -102 61.5 -165.5t160 -63.5t159.5 63q61 65 62 166q0 104 -61.5 166t-160 62t-160 -62t-61.5 -166zM428 1094q0 -84 51 -140q49 -51 137.5 -51t137.5 51q51 55 51 140q0 86 -51.5 137t-137.5 51t-137 -51t-51 -137z" />
<glyph unicode="9" d="M111 983q0 249 122 387q123 137 349 137q274 0 397 -182t123 -590q0 -387 -152 -581q-150 -193 -452 -193q-74 0 -144 14q-63 12 -151 45v269q82 -47 151 -68q78 -23 140 -22q162 0 243.5 106.5t87.5 319.5q-45 -63 -120 -99q-72 -33 -173 -32q-203 0 -311 127 q-110 129 -110 362zM391 1012q0 -131 51.5 -201t147.5 -70t145 70q51 74 51 201t-51 200q-49 70 -145 70t-147.5 -69.5t-51.5 -200.5z" />
<glyph unicode=":" d="M449 0v367h333v-367h-333zM449 698v365h333v-365h-333z" />
<glyph unicode=";" d="M371 -287l78 383v271h333v-271l-196 -383h-215zM449 698v365h333v-365h-333z" />
<glyph unicode="&#x3c;" d="M88 524v236l1057 416v-250l-795 -285l795 -283v-249z" />
<glyph unicode="=" d="M88 295v237h1057v-237h-1057zM88 752v235h1057v-235h-1057z" />
<glyph unicode="&#x3e;" d="M88 109v249l795 283l-795 285v250l1057 -416v-236z" />
<glyph unicode="?" d="M233 1139v268q102 57 199 84q104 29 201 29q205 0 317 -95q115 -96 115 -258q0 -76 -35 -141q-37 -70 -127 -158l-88 -86q-70 -68 -88 -108q-18 -43 -18 -103v-20q0 -4 -1 -12.5t-1 -14.5v-123h-267v154q0 100 31 170q31 71 111 147l90 89q63 59 86 102q23 41 22 82 q0 66 -47 100.5t-137 34.5q-88 0 -176 -35q-93 -36 -187 -106zM440 0v283h267v-283h-267z" />
<glyph unicode="@" d="M6 543q0 389 186.5 620.5t495.5 231.5q219 0 344 -131q127 -133 127 -359v-770h-196v82q-39 -55 -89 -78q-51 -25 -124 -24q-162 0 -265 118q-100 115 -100 311.5t100 311.5q100 117 265 117q70 0 124 -25q53 -23 89 -71v41q0 137 -74 210.5t-213 73.5q-209 0 -340 -182 t-131 -477q0 -305 151.5 -487.5t405.5 -182.5q88 0 156 23q76 25 143 71l92 -176q-76 -53 -176 -82q-98 -29 -205 -28q-350 0 -559 233q-207 232 -207 629zM592 544.5q0 -110.5 51 -177.5q49 -63 139 -64q88 0 139.5 63.5t51.5 178t-51.5 178t-139.5 63.5q-90 0 -139 -63 q-51 -68 -51 -178.5z" />
<glyph unicode="A" d="M33 0l403 1493h361l403 -1493h-295l-92 369h-395l-90 -369h-295zM477 612h279l-140 611z" />
<glyph unicode="B" d="M125 0v1495h481q250 0 375 -94t125 -283q0 -145 -74 -225q-76 -82 -217 -94q174 -18 258 -115q86 -98 86 -274q0 -213 -131 -314q-127 -96 -422 -96h-481zM410 236h196q141 0 197 49q57 51 57 166q0 121 -59.5 174t-194.5 53h-196v-442zM410 913h196q115 0 160 39 q47 41 47 133q0 90 -49 134q-47 41 -158 41h-196v-347z" />
<glyph unicode="C" d="M152 745.5q0 376.5 159.5 575.5t460.5 199q88 0 164 -19q86 -20 145 -53v-328q-72 66 -147 103q-68 33 -148 32q-163 0 -245 -129q-82 -127 -82 -380.5t82 -380.5q83 -129 245 -129q80 0 148 32q76 37 147 103v-328q-63 -33 -147 -53q-78 -18 -162 -19q-301 0 -460.5 199 t-159.5 575.5z" />
<glyph unicode="D" d="M137 0v1493h316q369 0 528 -174q160 -175 160 -571.5t-160 -571.5q-160 -176 -528 -176h-316zM432 266h80q176 0 248 109q74 111 74 373q0 264 -74 370q-74 109 -248 109h-80v-961z" />
<glyph unicode="E" d="M168 0v1493h930v-260h-635v-322h575v-260h-575v-391h635v-260h-930z" />
<glyph unicode="F" d="M182 0v1493h930v-260h-635v-322h578v-260h-578v-651h-295z" />
<glyph unicode="G" d="M117 745q0 377 159.5 576t460.5 199q90 0 176 -25q88 -25 164 -74v-327q-61 80 -143 120.5t-176 40.5q-166 0 -250 -127t-84 -383q0 -250 80 -378q82 -131 233 -131q49 0 80 8q35 10 55 26v285h-202v248h460v-684q-86 -74 -188 -111t-219 -37q-293 0 -449 201 q-157 204 -157 573z" />
<glyph unicode="H" d="M137 0v1493h295v-569h369v569h295v-1493h-295v664h-369v-664h-295z" />
<glyph unicode="I" d="M172 0v260h297v973h-297v260h889v-260h-297v-973h297v-260h-889z" />
<glyph unicode="J" d="M109 74v342q82 -86 184 -133q100 -47 196 -47q115 0 170 59q53 55 54 184v754h-361v260h656v-1014q0 -272 -115 -391q-115 -117 -377 -117q-86 0 -199 27q-108 25 -208 76z" />
<glyph unicode="K" d="M117 0v1493h295v-590l462 590h334l-471 -588l488 -905h-328l-354 672l-131 -166v-506h-295z" />
<glyph unicode="L" d="M225 0v1493h295v-1233h631v-260h-926z" />
<glyph unicode="M" d="M86 0v1493h352l178 -655l177 655h354v-1493h-254v1196l-158 -653h-235l-160 653v-1196h-254z" />
<glyph unicode="N" d="M119 0v1493h317l416 -1085v1085h260v-1493h-315l-418 1085v-1085h-260z" />
<glyph unicode="O" d="M92 745.5q0 378.5 133 577.5q131 197 391.5 197t391.5 -197q133 -199 133 -577.5t-133 -577.5q-131 -197 -391.5 -197t-391.5 197q-133 199 -133 577.5zM399 745.5q0 -272.5 52 -389.5q53 -121 165.5 -120.5t165.5 120.5q51 117 51.5 389.5t-51.5 389.5 q-53 121 -165.5 120.5t-165.5 -120.5q-52 -117 -52 -389.5z" />
<glyph unicode="P" d="M162 0v1493h405q309 0 444.5 -110.5t135.5 -356.5t-135 -356.5t-445 -110.5h-110v-559h-295zM457 807h121q147 0 204.5 49t57.5 170t-57.5 170t-204.5 49h-121v-438z" />
<glyph unicode="Q" d="M92 745.5q0 378.5 133 577.5q131 197 391.5 197t391.5 -197q133 -199 133 -578q0 -264 -64 -440q-66 -178 -182 -254l186 -182l-202 -150l-224 258q-20 -4 -22 -4t-8.5 -1t-10.5 -1q-258 0 -389 197q-133 199 -133 577.5zM399 745.5q0 -272.5 52 -389.5 q53 -121 165.5 -120.5t165.5 120.5q51 117 51.5 389.5t-51.5 389.5q-53 121 -165.5 120.5t-165.5 -120.5q-52 -117 -52 -389.5z" />
<glyph unicode="R" d="M133 0v1493h426q287 0 414 -102q125 -100 125 -332q0 -154 -74 -246q-72 -90 -217 -108q45 -10 76 -41q35 -35 80 -127l270 -537h-324l-180 377q-8 16 -20 45q-80 168 -187 168h-94v-590h-295zM428 838h139q121 0 174 47q51 45 52 157q0 111 -52 156q-53 47 -174 47h-139 v-407z" />
<glyph unicode="S" d="M129 1085q0 203 129 320q127 115 358 115q109 0 205 -23q106 -25 205 -70v-288q-98 70 -192 102q-100 35 -195 35q-106 0 -163.5 -43t-57.5 -123q0 -63 41 -102q45 -43 174 -90l127 -48q172 -61 264 -176q86 -109 86 -274q0 -227 -133 -338t-404 -111q-117 0 -223 27 q-119 31 -215 78v305q123 -88 227 -125q113 -41 220 -41q109 0 170 49q59 47 59 139q0 66 -41 117q-45 55 -115 80l-145 55q-219 84 -301 179q-80 91 -80 251z" />
<glyph unicode="T" d="M90 1235v258h1053v-258h-379v-1235h-295v1235h-379z" />
<glyph unicode="U" d="M106 551v942h295v-1016q0 -113 57.5 -176t158 -63t157.5 63.5t57 175.5v1016h295v-942q0 -303 -120 -442q-119 -137 -390 -138q-266 0 -389 138q-121 135 -121 442z" />
<glyph unicode="V" d="M57 1493h297l262 -1247l263 1247h297l-355 -1493h-409z" />
<glyph unicode="W" d="M0 1493h258l107 -1096l129 709h245l150 -709l84 1096h260l-172 -1493h-275l-170 784l-159 -784h-273z" />
<glyph unicode="X" d="M27 0l438 758l-426 735h305l272 -475l273 475h305l-424 -735l436 -758h-305l-285 494l-284 -494h-305z" />
<glyph unicode="Y" d="M8 1493h318l290 -600l291 600h318l-461 -905v-588h-295v588z" />
<glyph unicode="Z" d="M115 0v244l671 989h-649v260h1010v-244l-692 -989h706v-260h-1046z" />
<glyph unicode="[" d="M422 -270v1826h508v-190h-242v-1446h242v-190h-508z" />
<glyph unicode="\" d="M111 1493h223l786 -1683h-223z" />
<glyph unicode="]" d="M303 -80h242v1446h-242v190h508v-1826h-508v190z" />
<glyph unicode="^" d="M57 936l437 557h245l437 -557h-242l-318 301l-317 -301h-242z" />
<glyph unicode="_" d="M0 -293h1233v-190h-1233v190z" />
<glyph unicode="`" d="M199 1638h282l283 -376h-197z" />
<glyph unicode="a" d="M94 354q0 197 127 289q129 94 393 94h203v49q0 70 -51 107q-53 37 -152 37q-111 0 -204 -27q-104 -29 -205 -84v250q104 43 196 59q102 18 213 19q272 0 383 -110.5t111 -397.5v-639h-291v125q-53 -76 -135 -115q-80 -39 -184 -39q-190 0 -297 100.5t-107 282.5zM406 340 q0 -76 45 -121t122 -45q115 0 181 88q63 84 63 244v20h-117q-164 0 -229 -43t-65 -143z" />
<glyph unicode="b" d="M150 0v1556h292v-595q57 94 125 139q72 47 162 47q199 0 307 -152q106 -150 107 -436q0 -283 -107 -434q-106 -154 -297 -154q-102 0 -176 49q-76 51 -121 146v-166h-292zM442 557q0 -162 55.5 -254t149.5 -92t150 92q53 88 53 254t-53 254q-55 92 -149.5 92t-150 -92 t-55.5 -254z" />
<glyph unicode="c" d="M168 559q0 276 147 434q147 156 406 156q94 0 174 -20.5t166 -65.5v-268q-59 51 -141 84q-76 31 -158 30q-143 0 -219 -92q-78 -94 -78 -258q0 -168 78 -258t219 -90q84 0 159.5 28.5t139.5 86.5v-269q-78 -45 -160 -65.5t-182 -20.5q-258 0 -406 156q-145 153 -145 432z " />
<glyph unicode="d" d="M90 559q0 287 107 436q109 152 307 152q90 0 162 -47q68 -45 125 -139v595h292v-1556h-292v166q-45 -94 -121 -146q-74 -49 -176 -49q-190 0 -297 154q-107 151 -107 434zM383 557q0 -166 53 -254q55 -92 149.5 -92t150 92t55.5 254t-55.5 254t-149.5 92t-150 -92 q-53 -88 -53 -254z" />
<glyph unicode="e" d="M92 555q0 274 144 432q145 160 389 160q249 0 387 -148q137 -145 137 -415v-119h-760q0 -129 80 -197q78 -66 229 -65q96 0 199 28q96 27 205 93v-269q-98 -41 -207 -63q-102 -20 -225 -21q-283 0 -430.5 149.5t-147.5 434.5zM393 684h461q-4 121 -59 176q-59 59 -170 60 q-98 0 -160 -62q-60 -59 -72 -174z" />
<glyph unicode="f" d="M174 895v225h272v78q0 203 84 280.5t312 77.5h241v-225h-229q-66 0 -90 -24q-20 -20 -25 -88v-99h344v-225h-344v-895h-293v895h-272z" />
<glyph unicode="g" d="M98 571q0 266 113 422t303 156q98 0 170 -45q78 -49 119 -127v143h293v-1036q0 -270 -121 -389t-395 -119q-78 0 -183 14q-84 12 -182 41v269q82 -45 170 -68q90 -23 176 -22q123 0 182.5 59t59.5 182v121q-41 -78 -115 -119q-70 -39 -172 -39q-193 0 -305.5 149.5 t-112.5 407.5zM391 577.5q0 -149.5 58 -241.5q55 -90 147 -90q90 0 149 90q57 88 57.5 241.5t-57.5 241.5q-59 90 -149 90q-92 0 -147 -90q-58 -92 -58 -241.5z" />
<glyph unicode="h" d="M172 0v1556h291v-604q29 88 106 144q72 51 181 51q160 0 239 -105q82 -106 82 -315v-727h-291v682q0 119 -34.5 172t-112.5 53t-125 -71q-45 -70 -45 -195v-641h-291z" />
<glyph unicode="i" d="M143 0v225h365v670h-287v225h580v-895h364v-225h-1022zM508 1323v342h293v-342h-293z" />
<glyph unicode="j" d="M143 -199h234q98 0 139 56q41 57 41 186v852h-297v225h590v-1077q0 -252 -90 -360q-88 -106 -301 -107h-316v225zM557 1323v342h293v-342h-293z" />
<glyph unicode="k" d="M174 0v1556h293v-817l352 381h355l-424 -418l448 -702h-324l-307 524l-100 -96v-428h-293z" />
<glyph unicode="l" d="M90 1331v225h590v-1089q0 -129 41 -186q41 -55 139 -56h234v-225h-316q-209 0 -301 109q-90 104 -90 358v864h-297z" />
<glyph unicode="m" d="M82 0v1120h213v-116q25 65 80 104q53 39 123 39q68 0 125 -41q55 -40 67 -98q35 72 84 104q53 35 125 35q145 0 200.5 -100.5t55.5 -415.5v-631h-240v719q0 125 -18 168q-18 41 -70 41q-49 0 -69 -43q-20 -41 -21 -166v-719h-237v719q0 125 -21 166q-20 43 -69.5 43 t-67.5 -41q-20 -47 -20 -168v-719h-240z" />
<glyph unicode="n" d="M172 0v1120h291v-168q29 88 106 144q72 51 181 51q160 0 239 -105q82 -106 82 -315v-727h-291v682q0 121 -34.5 174t-112.5 53t-125 -71q-45 -70 -45 -197v-641h-291z" />
<glyph unicode="o" d="M98 559q0 272 139.5 430t379 158t379 -158t139.5 -430t-139.5 -430t-379 -158t-379 158t-139.5 430zM391 559q0 -170 60 -258q61 -92 165.5 -92t165.5 92q59 88 59.5 258t-59.5 258q-61 92 -165.5 92t-165.5 -92q-60 -88 -60 -258z" />
<glyph unicode="p" d="M150 -426v1546h292v-168q45 94 121 146q74 49 176 49q190 0 297 -154q106 -152 107 -434q0 -287 -107 -436q-109 -152 -307 -152q-90 0 -161.5 47.5t-125.5 139.5v-584h-292zM442 561q0 -162 55.5 -254t149.5 -92t150 92q53 88 53 254t-53 254q-55 92 -149.5 92t-150 -92 t-55.5 -254z" />
<glyph unicode="q" d="M90 559q0 283 107 434q106 154 297 154q102 0 176 -49q76 -51 121 -146v168h292v-1546h-292v584q-53 -92 -125 -139.5t-162 -47.5q-199 0 -307 152q-107 149 -107 436zM383 561q0 -166 53 -254q55 -92 149.5 -92t150 92t55.5 254t-55.5 254t-149.5 92t-150 -92 q-53 -88 -53 -254z" />
<glyph unicode="r" d="M291 0v1120h293v-174q43 94 133 147.5t207 53.5q63 0 118.5 -14.5t108.5 -42.5v-279q-51 45 -113 66q-68 23 -141 22q-94 0 -162 -33q-74 -35 -108 -94q-23 -35 -33 -92q-10 -61 -10 -164v-516h-293z" />
<glyph unicode="s" d="M172 805q0 163 117 252q119 90 329 90q86 0 189 -17q100 -16 184 -45v-256q-72 47 -168 78q-82 27 -176 27q-96 0 -147 -28.5t-51 -84.5q0 -82 215 -131l10 -2l84 -20q162 -37 235.5 -123t73.5 -228q0 -174 -113 -260q-115 -86 -342 -86q-111 0 -206 17q-100 16 -216 53 v256q104 -59 197 -84q104 -29 195 -29q106 0 155 29q53 31 54 88q0 55 -37 86q-35 29 -179 64l-81 18q-164 35 -244 119q-78 82 -78 217z" />
<glyph unicode="t" d="M111 895v225h286v318h293v-318h383v-225h-383v-530q0 -74 37 -107q35 -33 121 -33h225v-225h-246q-254 0 -342 80t-88 299v516h-286z" />
<glyph unicode="u" d="M160 391v729h293v-684q0 -121 34 -174q33 -51 113 -51t123 70q45 74 45 196v643h293v-1120h-293v166q-29 -88 -106 -143q-72 -51 -179 -52q-160 0 -241.5 106.5t-81.5 313.5z" />
<glyph unicode="v" d="M80 1120h297l239 -874l240 874h297l-356 -1120h-361z" />
<glyph unicode="w" d="M0 1120h244l133 -858l121 565h237l119 -565l135 858h244l-203 -1120h-278l-136 582l-135 -582h-278z" />
<glyph unicode="x" d="M55 0l414 584l-381 536h342l186 -334l187 334h342l-377 -536l410 -584h-342l-220 377l-219 -377h-342z" />
<glyph unicode="y" d="M59 1120h308l256 -727l245 727h308l-465 -1241q-59 -158 -142 -231q-80 -72 -200 -72h-242v223h119q90 0 133 31q41 29 84 141l22 60z" />
<glyph unicode="z" d="M162 0v229l590 672h-566v219h895v-229l-589 -672h589v-219h-919z" />
<glyph unicode="{" d="M176 516v191h62q143 0 194 57q53 59 53 209v215q0 223 84 295q86 74 334 73h150v-190h-123q-106 0 -139 -43q-35 -45 -35 -184v-209q0 -164 -49.5 -231.5t-174.5 -86.5q125 -20 175 -90q49 -68 49 -231v-205q0 -141 35 -186q33 -43 139 -43h123v-191h-150q-248 0 -334 74 q-84 72 -84 295v215q0 150 -53 209q-51 57 -194 57h-62z" />
<glyph unicode="|" d="M502 -483v2048h227v-2048h-227z" />
<glyph unicode="}" d="M180 -143h121q102 0 139 43t37 186v205q0 164 49 231q49 70 174 90q-125 18 -174 86t-49 232v209q0 143 -35 184q-37 43 -141 43h-121v190h150q249 0 332 -73q84 -74 83 -295v-215q0 -154 54 -209q55 -57 196 -57h62v-191h-62q-141 0 -196 -57q-53 -55 -54 -209v-215 q0 -221 -83 -295t-332 -74h-150v191z" />
<glyph unicode="~" d="M88 465v229q74 59 152 88q72 27 155 27q61 0 103 -10q55 -14 125 -43q10 -4 32 -15q117 -55 209 -55q72 0 140 31q70 33 141 94v-233q-66 -55 -146 -86q-74 -29 -151 -29q-92 0 -203 51q-6 2 -13 5t-11.5 6t-8.5 3q-72 31 -129 45q-53 12 -102 13q-74 0 -148 -29 q-71 -29 -145 -92z" />
<glyph unicode="&#xa0;" />
<glyph unicode="&#xa1;" d="M483 0v655l33 357h199l35 -357v-655h-267zM483 1210v283h267v-283h-267z" />
<glyph unicode="&#xa2;" d="M147 561q0 255 136 412q135 156 372 172v287h142v-287q70 -6 121 -20.5t118 -47.5v-268q-49 39 -116 65q-70 27 -123 33v-692q72 6 123 29q66 27 116 67v-268q-49 -27 -112 -45q-53 -16 -127 -23v-288h-142v288q-238 23 -372 179q-136 157 -136 407zM418 561 q0 -158 63 -248q66 -92 174 -98v692q-115 -16 -176 -104q-61 -90 -61 -242z" />
<glyph unicode="&#xa3;" d="M119 0v260h235v334h-198v225h198v197q0 260 113 381q115 123 344 123q88 0 154 -15q76 -16 137 -43v-274q-66 45 -121 63q-61 20 -135 21q-109 0 -156 -66q-49 -68 -49 -211v-176h336v-225h-336v-334h481v-260h-1003z" />
<glyph unicode="&#xa4;" d="M186 305l170 170q-25 51 -34 84q-10 35 -11 82q0 55 11 88q12 41 36 78l-172 170l131 131l166 -172q35 20 82 35q43 12 88 12q47 0 80 -10t86 -35l172 170l127 -129l-170 -170q20 -37 33 -82q12 -43 12 -86q0 -47 -12 -88q-14 -43 -35 -76l172 -170l-131 -131l-170 172 q-33 -20 -76 -35q-41 -12 -88 -12q-35 0 -82 10q-29 6 -86 33l-170 -168zM479 643q0 -70 51 -125q49 -51 123 -51t123 51q51 55 51 125q0 72 -51 123q-49 49 -122.5 49t-123.5 -49q-51 -51 -51 -123z" />
<glyph unicode="&#xa5;" d="M8 1493h318l290 -600l291 600h318l-273 -528h224v-187h-322l-86 -151h408v-189h-412v-438h-295v438h-412v189h408l-86 151h-322v187h224z" />
<glyph unicode="&#xa6;" d="M502 -350v758h227v-758h-227zM502 674v758h227v-758h-227z" />
<glyph unicode="&#xa7;" d="M170 688q0 94 51 164q51 68 150 102q-72 51 -103 111q-33 66 -32 141q0 141 104 227.5t276 86.5q78 0 152 -15q84 -16 162 -45v-225q-76 27 -152 45q-59 14 -119 14q-74 0 -118 -28q-43 -29 -43 -82q0 -76 202 -180l29 -15q215 -111 272 -180q59 -72 60 -172 q0 -88 -47 -154q-45 -63 -150 -110q68 -47 103 -111q33 -59 32 -143q0 -147 -104 -230q-106 -84 -291 -84q-96 0 -176 15q-82 14 -170 43v229q80 -29 166 -45t154 -16q78 0 118.5 28.5t40.5 81.5q0 71 -215 185l-10 6l-27 14q-315 168 -315 342zM414 711q0 -55 49 -99 q53 -47 248 -139q57 37 80 70q25 35 24 78q0 80 -264 219l-33 16q-57 -37 -80 -70q-24 -32 -24 -75z" />
<glyph unicode="&#xa8;" d="M301 1339v246h236v-246h-236zM696 1339v246h236v-246h-236z" />
<glyph unicode="&#xa9;" d="M0 741q0 127 45 236q43 102 137 201q88 88 199 135q104 45 235.5 45t235.5 -45q111 -47 199 -135q94 -98 137 -201q45 -109 45 -236q0 -129 -45 -233q-47 -111 -137 -201q-92 -90 -199 -137q-104 -45 -236 -45q-129 0 -233 45q-111 47 -201 137t-137 201q-45 104 -45 233 zM131 741q0 -98 37 -184t106 -156q74 -74 156 -108q86 -37 186.5 -37t186.5 37q82 35 155.5 108.5t108.5 155.5t35 184q0 104 -35 187q-37 86 -109 157q-68 70 -157 109q-82 35 -184.5 35t-184.5 -35q-86 -37 -158 -109q-68 -68 -106 -157q-37 -87 -37 -187zM266 741 q0 156 101 248q104 94 270 94q61 0 108 -8q53 -10 103 -26v-168q-49 29 -98 45q-43 14 -93 14q-100 0 -151 -51q-53 -53 -53 -147.5t53 -147.5q51 -51 151 -51q55 0 101 14q47 14 90 45v-168q-47 -16 -109 -26q-47 -8 -102 -9q-169 0 -270 93q-101 91 -101 249z" />
<glyph unicode="&#xaa;" d="M256 952q0 133 92 201q90 66 281 66h157v26q0 49 -45 73.5t-137 24.5q-78 0 -153 -16q-63 -14 -136 -51v188q61 23 148 41q70 14 149 15q190 0 278.5 -86t88.5 -269v-448h-193v92q-47 -55 -110 -84q-59 -27 -139 -27q-127 0 -205 68q-76 67 -76 186zM293 428v170h688 v-170h-688zM475 971q0 -49 31 -76q33 -29 84 -29q88 0 141 52q55 53 55 131v30h-102q-106 0 -160 -26q-49 -25 -49 -82z" />
<glyph unicode="&#xab;" d="M119 535v131l469 393v-238l-277 -221l277 -221v-238zM573 535v131l469 393v-238l-276 -221l276 -221v-238z" />
<glyph unicode="&#xac;" d="M88 662v237h1057v-537h-238v300h-819z" />
<glyph unicode="&#xad;" d="M301 444v291h631v-291h-631z" />
<glyph unicode="&#xae;" d="M0 741q0 127 45 236q43 102 137 201q88 88 199 135q104 45 235.5 45t235.5 -45q111 -47 199 -135q94 -98 137 -201q45 -109 45 -236q0 -129 -45 -233q-47 -111 -137 -201q-92 -90 -199 -137q-104 -45 -236 -45q-129 0 -233 45q-111 47 -201 137t-137 201q-45 104 -45 233 zM131 741q0 -98 37 -184q37 -84 106 -158q68 -68 158 -106q86 -37 184 -37t185 37q90 39 157 106q74 78 109 158q35 82 35 184q0 104 -35 187q-37 86 -109 157q-68 70 -157 109q-82 35 -184.5 35t-184.5 -35q-86 -37 -158 -109q-68 -68 -106 -157q-37 -87 -37 -187zM360 430 v625h246q132 0 197 -43q66 -43 65 -135q0 -66 -39 -107q-40 -43 -110 -55q43 -18 65 -41q25 -25 52 -78l79 -166h-172l-63 133q-27 57 -55 82q-25 20 -70 25h-31v-240h-164zM524 780h64q59 0 86 21q29 23 28 59q0 41 -28 64q-27 20 -86 20h-64v-164z" />
<glyph unicode="&#xaf;" d="M301 1368v188h631v-188h-631z" />
<glyph unicode="&#xb0;" d="M283 1185.5q0 141.5 96 238t237 96.5q66 0 127 -25q63 -25 109 -74q49 -49 72 -106q25 -61 24 -129q0 -66 -24 -127q-23 -57 -72 -107q-57 -53 -109 -73q-61 -25 -129 -25q-141 0 -235 94q-96 96 -96 237.5zM444 1186q0 -72 49.5 -121t121 -49t120.5 49q51 51 51 121 q0 74 -49 123t-121 49q-74 0 -123 -49t-49 -123z" />
<glyph unicode="&#xb1;" d="M88 0v238h1057v-238h-1057zM88 694v236h410v354h237v-354h410v-236h-410v-354h-237v354h-410z" />
<glyph unicode="&#xb2;" d="M274 668v141l142 119q313 260 313 340q0 51 -43 81.5t-119 30.5q-55 0 -123 -18q-76 -20 -145 -51v164q82 25 145 34q59 10 138 11q170 0 262 -62q94 -63 94 -174q0 -127 -354 -405l-84 -66h440v-145h-666z" />
<glyph unicode="&#xb3;" d="M287 694v154q59 -25 143 -41q72 -14 156 -14t133 32q47 31 47 88q0 61 -49 95q-51 35 -135 34h-111v146h111q74 0 116.5 24.5t42.5 69.5t-39 70q-43 27 -110 26q-70 0 -137 -12q-80 -14 -138 -33v152q61 16 138 26q63 8 137 9q164 0 254 -58q92 -58 92 -159 q0 -72 -53 -119q-55 -49 -150 -64q111 -14 170 -71q57 -55 58 -148q0 -119 -97 -184q-94 -63 -280 -64q-68 0 -150 11q-77 10 -149 30z" />
<glyph unicode="&#xb4;" d="M469 1262l283 376h282l-368 -376h-197z" />
<glyph unicode="&#xb5;" d="M174 -428v1548h287v-680q0 -113 41 -172q39 -57 123 -57q82 0 120 57q41 59 41 172v680h289v-776q0 -72 12.5 -102.5t45.5 -30.5q14 0 26 6q23 10 29 16v-217q-49 -25 -80 -35t-72 -10q-74 0 -118 37q-43 35 -72 121q-39 -80 -92.5 -119t-124.5 -39q-61 0 -101 23 q-45 25 -67 72l2 -494h-289z" />
<glyph unicode="&#xb6;" d="M70 1071q0 186 131 305q129 117 344 117h520v-1690h-191v1543h-190v-1543h-188v846q-205 25 -315.5 135.5t-110.5 286.5z" />
<glyph unicode="&#xb7;" d="M449 530v365h333v-365h-333z" />
<glyph unicode="&#xb8;" d="M367 -219q41 -16 88 -27q39 -8 77 -8q55 0 91 23q33 20 32 63q0 29 -20 68q-20 37 -68 100h140q53 -55 84 -115q29 -53 28 -100q0 -95 -61 -141q-59 -45 -189 -45q-49 0 -98 6q-37 4 -104 20v156z" />
<glyph unicode="&#xb9;" d="M313 668v145h226v543l-220 -43v149l222 41h194v-690h226v-145h-648z" />
<glyph unicode="&#xba;" d="M274 1108q0 190 98.5 301t264.5 111t264 -111t98 -301q0 -188 -98 -299t-264 -111t-264.5 111t-98.5 299zM293 428v170h688v-170h-688zM479 1108q0 -111 43 -172.5t115 -61.5t115 61.5t43 172.5q0 108 -43 172q-43 63 -115 63t-115 -63q-43 -64 -43 -172z" />
<glyph unicode="&#xbb;" d="M193 141v238l276 221l-276 221v238l469 -393v-131zM647 141v238l277 221l-277 221v238l469 -393v-131z" />
<glyph unicode="&#xbc;" d="M430 -90v162l375 493h204v-512h109v-143h-109v-180h-186v180h-393zM573 53h250v330zM55 824v145h226v543l-220 -43v149l222 41h194v-690h226v-145h-648zM47 618l1059 263l37 -119l-1059 -262z" />
<glyph unicode="&#xbd;" d="M55 824v145h226v543l-220 -43v149l222 41h194v-690h226v-145h-648zM47 618l1059 263l37 -119l-1059 -262zM475 -270v141l142 119q313 260 313 340q0 51 -43 81.5t-119 30.5q-55 0 -123 -18q-76 -20 -145 -51v164q82 25 145 34q59 10 138 11q170 0 262 -62q94 -63 94 -174 q0 -127 -354 -405l-84 -66h440v-145h-666z" />
<glyph unicode="&#xbe;" d="M430 -90v162l375 493h204v-512h109v-143h-109v-180h-186v180h-393zM573 53h250v330zM60 850v154q59 -25 143 -41q72 -14 156 -14t133 32q47 31 47 88q0 61 -49 95q-51 35 -135 34h-111v146h111q74 0 116.5 24.5t42.5 69.5t-39 70q-43 27 -110 26q-70 0 -137 -12 q-80 -14 -138 -33v152q61 16 138 26q63 8 137 9q164 0 254 -58q92 -58 92 -159q0 -72 -53 -119q-55 -49 -150 -64q111 -14 170 -71q57 -55 58 -148q0 -119 -97 -184q-94 -63 -280 -64q-68 0 -150 11q-77 10 -149 30zM47 618l1059 263l37 -119l-1059 -262z" />
<glyph unicode="&#xbf;" d="M176 326q0 76 35 141q37 70 127 158l88 86q70 72 86 106q18 43 18 105v6q0 6 1 20.5t1 20.5v123h267v-154q0 -98 -31 -170q-31 -71 -111 -147l-90 -89q-61 -57 -84 -100q-23 -41 -22 -84q0 -66 47 -100.5t137 -34.5t174 35q90 37 187 106v-268q-102 -57 -199 -84 q-104 -29 -201 -29q-203 0 -315 95q-115 96 -115 258zM532 1210v283h267v-283h-267z" />
<glyph unicode="&#xc0;" d="M33 0l403 1493h361l403 -1493h-295l-92 369h-395l-90 -369h-295zM477 612h279l-140 611zM283 1899h284l199 -264h-197z" />
<glyph unicode="&#xc1;" d="M33 0l403 1493h361l403 -1493h-295l-92 369h-395l-90 -369h-295zM477 612h279l-140 611zM469 1635l199 264h284l-286 -264h-197z" />
<glyph unicode="&#xc2;" d="M33 0l403 1493h361l403 -1493h-295l-92 369h-395l-90 -369h-295zM477 612h279l-140 611zM240 1635l221 264h309l223 -264h-178l-199 161l-198 -161h-178z" />
<glyph unicode="&#xc3;" d="M33 0l403 1493h361l403 -1493h-295l-92 369h-395l-90 -369h-295zM477 612h279l-140 611zM268 1635v30q0 109 54 170q55 66 143 66q37 0 74 -12q41 -14 75 -37l60 -39q18 -12 41 -21q25 -8 35 -8q37 0 55 31q20 35 20 86h140v-15q0 -4 -1 -9t-1 -7q0 -104 -53.5 -169.5 t-141.5 -65.5q-35 0 -72 12q-43 14 -78 37l-55 35q-4 2 -10 6q-49 27 -74 26q-29 0 -51 -30q-20 -29 -20 -80v-6h-140z" />
<glyph unicode="&#xc4;" d="M33 0l403 1493h361l403 -1493h-295l-92 369h-395l-90 -369h-295zM477 612h279l-140 611zM301 1653v246h236v-246h-236zM696 1653v246h236v-246h-236z" />
<glyph unicode="&#xc5;" d="M33 0l385 1421q-45 39 -65.5 86t-20.5 109q0 117 84 201t200.5 84t200.5 -84t84 -201q0 -66 -20 -109q-23 -49 -66 -86l385 -1421h-295l-92 369h-395l-90 -369h-295zM477 612h279l-140 611zM485 1616q0 -53 39 -92t92.5 -39t92.5 39t39 92t-39 92t-92.5 39t-92.5 -39 t-39 -92z" />
<glyph unicode="&#xc6;" d="M0 0l358 1493h803v-260h-291v-311h260v-260h-260v-402h310v-260h-564v362h-282l-86 -362h-248zM389 598h227v635h-79z" />
<glyph unicode="&#xc7;" d="M484 -219q41 -16 88 -27q39 -8 77 -8q55 0 91 23q33 20 32 63q0 29 -20 68q-20 37 -68 100h140q53 -55 84 -115q29 -53 28 -100q0 -95 -61 -141q-59 -45 -189 -45q-49 0 -98 6q-37 4 -104 20v156zM152 745.5q0 376.5 159.5 575.5t460.5 199q88 0 164 -19q86 -20 145 -53 v-328q-72 66 -147 103q-68 33 -148 32q-163 0 -245 -129q-82 -127 -82 -380.5t82 -380.5q83 -129 245 -129q80 0 148 32q76 37 147 103v-328q-63 -33 -147 -53q-78 -18 -162 -19q-301 0 -460.5 199t-159.5 575.5z" />
<glyph unicode="&#xc8;" d="M168 0v1493h930v-260h-635v-322h575v-260h-575v-391h635v-260h-930zM314 1899h284l199 -264h-197z" />
<glyph unicode="&#xc9;" d="M168 0v1493h930v-260h-635v-322h575v-260h-575v-391h635v-260h-930zM500 1635l199 264h284l-286 -264h-197z" />
<glyph unicode="&#xca;" d="M168 0v1493h930v-260h-635v-322h575v-260h-575v-391h635v-260h-930zM271 1635l221 264h309l223 -264h-178l-199 161l-198 -161h-178z" />
<glyph unicode="&#xcb;" d="M168 0v1493h930v-260h-635v-322h575v-260h-575v-391h635v-260h-930zM332 1653v246h236v-246h-236zM727 1653v246h236v-246h-236z" />
<glyph unicode="&#xcc;" d="M172 0v260h297v973h-297v260h889v-260h-297v-973h297v-260h-889zM283 1899h284l199 -264h-197z" />
<glyph unicode="&#xcd;" d="M172 0v260h297v973h-297v260h889v-260h-297v-973h297v-260h-889zM469 1635l199 264h284l-286 -264h-197z" />
<glyph unicode="&#xce;" d="M172 0v260h297v973h-297v260h889v-260h-297v-973h297v-260h-889zM240 1635l221 264h309l223 -264h-178l-199 161l-198 -161h-178z" />
<glyph unicode="&#xcf;" d="M172 0v260h297v973h-297v260h889v-260h-297v-973h297v-260h-889zM301 1653v246h236v-246h-236zM696 1653v246h236v-246h-236z" />
<glyph unicode="&#xd0;" d="M0 664v237h137v592h316q369 0 528 -174q160 -175 160 -571.5t-160 -571.5q-160 -176 -528 -176h-316v664h-137zM432 266h80q176 0 248 109q74 111 74 373q0 264 -74 370q-74 109 -248 109h-80v-326h211v-237h-211v-398z" />
<glyph unicode="&#xd1;" d="M119 0v1493h317l416 -1085v1085h260v-1493h-315l-418 1085v-1085h-260zM268 1635v30q0 109 54 170q55 66 143 66q37 0 74 -12q41 -14 75 -37l60 -39q18 -12 41 -21q25 -8 35 -8q37 0 55 31q20 35 20 86h140v-15q0 -4 -1 -9t-1 -7q0 -104 -53.5 -169.5t-141.5 -65.5 q-35 0 -72 12q-43 14 -78 37l-55 35q-4 2 -10 6q-49 27 -74 26q-29 0 -51 -30q-20 -29 -20 -80v-6h-140z" />
<glyph unicode="&#xd2;" d="M92 745.5q0 378.5 133 577.5q131 197 391.5 197t391.5 -197q133 -199 133 -577.5t-133 -577.5q-131 -197 -391.5 -197t-391.5 197q-133 199 -133 577.5zM399 745.5q0 -272.5 52 -389.5q53 -121 165.5 -120.5t165.5 120.5q51 117 51.5 389.5t-51.5 389.5 q-53 121 -165.5 120.5t-165.5 -120.5q-52 -117 -52 -389.5zM283 1899h284l199 -264h-197z" />
<glyph unicode="&#xd3;" d="M92 745.5q0 378.5 133 577.5q131 197 391.5 197t391.5 -197q133 -199 133 -577.5t-133 -577.5q-131 -197 -391.5 -197t-391.5 197q-133 199 -133 577.5zM399 745.5q0 -272.5 52 -389.5q53 -121 165.5 -120.5t165.5 120.5q51 117 51.5 389.5t-51.5 389.5 q-53 121 -165.5 120.5t-165.5 -120.5q-52 -117 -52 -389.5zM469 1635l199 264h284l-286 -264h-197z" />
<glyph unicode="&#xd4;" d="M92 745.5q0 378.5 133 577.5q131 197 391.5 197t391.5 -197q133 -199 133 -577.5t-133 -577.5q-131 -197 -391.5 -197t-391.5 197q-133 199 -133 577.5zM399 745.5q0 -272.5 52 -389.5q53 -121 165.5 -120.5t165.5 120.5q51 117 51.5 389.5t-51.5 389.5 q-53 121 -165.5 120.5t-165.5 -120.5q-52 -117 -52 -389.5zM240 1635l221 264h309l223 -264h-178l-199 161l-198 -161h-178z" />
<glyph unicode="&#xd5;" d="M92 745.5q0 378.5 133 577.5q131 197 391.5 197t391.5 -197q133 -199 133 -577.5t-133 -577.5q-131 -197 -391.5 -197t-391.5 197q-133 199 -133 577.5zM399 745.5q0 -272.5 52 -389.5q53 -121 165.5 -120.5t165.5 120.5q51 117 51.5 389.5t-51.5 389.5 q-53 121 -165.5 120.5t-165.5 -120.5q-52 -117 -52 -389.5zM268 1635v30q0 109 54 170q55 66 143 66q37 0 74 -12q41 -14 75 -37l60 -39q18 -12 41 -21q25 -8 35 -8q37 0 55 31q20 35 20 86h140v-15q0 -4 -1 -9t-1 -7q0 -104 -53.5 -169.5t-141.5 -65.5q-35 0 -72 12 q-43 14 -78 37l-55 35q-4 2 -10 6q-49 27 -74 26q-29 0 -51 -30q-20 -29 -20 -80v-6h-140z" />
<glyph unicode="&#xd6;" d="M92 745.5q0 378.5 133 577.5q131 197 391.5 197t391.5 -197q133 -199 133 -577.5t-133 -577.5q-131 -197 -391.5 -197t-391.5 197q-133 199 -133 577.5zM399 745.5q0 -272.5 52 -389.5q53 -121 165.5 -120.5t165.5 120.5q51 117 51.5 389.5t-51.5 389.5 q-53 121 -165.5 120.5t-165.5 -120.5q-52 -117 -52 -389.5zM301 1653v246h236v-246h-236zM696 1653v246h236v-246h-236z" />
<glyph unicode="&#xd7;" d="M119 313l330 330l-330 328l168 168l327 -328l330 328l168 -168l-330 -328l330 -330l-168 -166l-330 328l-327 -328z" />
<glyph unicode="&#xd8;" d="M-6 51l168 238q-35 94 -53 203q-16 100 -17 253q0 379 133 578q131 197 391 197q104 0 186.5 -31t143.5 -92l113 162l162 -115l-158 -223q43 -100 59 -213q18 -119 19 -263q0 -379 -133 -577q-131 -197 -392 -197q-106 0 -190 33q-82 33 -150 100l-120 -167zM399 629 l373 524q-23 49 -65.5 75.5t-90.5 26.5q-113 0 -165 -120q-51 -117 -52 -379v-127zM451 354q25 -57 67.5 -87.5t97.5 -30.5q113 0 166 120q51 117 52 389v60q0 14 -5 84z" />
<glyph unicode="&#xd9;" d="M106 551v942h295v-1016q0 -113 57.5 -176t158 -63t157.5 63.5t57 175.5v1016h295v-942q0 -303 -120 -442q-119 -137 -390 -138q-266 0 -389 138q-121 135 -121 442zM283 1899h284l199 -264h-197z" />
<glyph unicode="&#xda;" d="M106 551v942h295v-1016q0 -113 57.5 -176t158 -63t157.5 63.5t57 175.5v1016h295v-942q0 -303 -120 -442q-119 -137 -390 -138q-266 0 -389 138q-121 135 -121 442zM469 1635l199 264h284l-286 -264h-197z" />
<glyph unicode="&#xdb;" d="M106 551v942h295v-1016q0 -113 57.5 -176t158 -63t157.5 63.5t57 175.5v1016h295v-942q0 -303 -120 -442q-119 -137 -390 -138q-266 0 -389 138q-121 135 -121 442zM240 1635l221 264h309l223 -264h-178l-199 161l-198 -161h-178z" />
<glyph unicode="&#xdc;" d="M106 551v942h295v-1016q0 -113 57.5 -176t158 -63t157.5 63.5t57 175.5v1016h295v-942q0 -303 -120 -442q-119 -137 -390 -138q-266 0 -389 138q-121 135 -121 442zM301 1653v246h236v-246h-236zM696 1653v246h236v-246h-236z" />
<glyph unicode="&#xdd;" d="M8 1493h318l290 -600l291 600h318l-461 -905v-588h-295v588zM469 1635l199 264h284l-286 -264h-197z" />
<glyph unicode="&#xde;" d="M162 0v1493h295v-238h110q309 0 444.5 -110.5t135.5 -356.5q0 -242 -137 -348q-139 -109 -443 -108h-110v-332h-295zM457 575h121q147 0 204.5 49.5t57.5 168.5q0 123 -57.5 172t-204.5 49h-121v-439z" />
<glyph unicode="&#xdf;" d="M127 0v1126q0 209 121 320q120 111 350 110q223 0 329.5 -118.5t106.5 -364.5v-14q-127 -6 -190.5 -51t-63.5 -127q0 -65 117 -154q16 -12 18 -14l97 -74q82 -61 123 -139q39 -76 39 -170q0 -166 -111 -262q-113 -96 -307 -97q-61 0 -123 12.5t-129 36.5v250 q63 -35 114 -47q61 -16 113 -16q74 0 115 33q43 34 43 92q0 70 -115 160l-45 34l-86 68q-59 49 -88 111q-31 65 -31 141q0 125 74 211t211 117q-10 74 -57 110q-49 37 -142 37q-90 0 -141 -51q-49 -49 -49 -148v-1122h-293z" />
<glyph unicode="&#xe0;" d="M94 354q0 197 127 289q129 94 393 94h203v49q0 70 -51 107q-53 37 -152 37q-111 0 -204 -27q-104 -29 -205 -84v250q104 43 196 59q102 18 213 19q272 0 383 -110.5t111 -397.5v-639h-291v125q-53 -76 -135 -115q-80 -39 -184 -39q-190 0 -297 100.5t-107 282.5zM406 340 q0 -76 45 -121t122 -45q115 0 181 88q63 84 63 244v20h-117q-164 0 -229 -43t-65 -143zM199 1638h282l283 -376h-197z" />
<glyph unicode="&#xe1;" d="M94 354q0 197 127 289q129 94 393 94h203v49q0 70 -51 107q-53 37 -152 37q-111 0 -204 -27q-104 -29 -205 -84v250q104 43 196 59q102 18 213 19q272 0 383 -110.5t111 -397.5v-639h-291v125q-53 -76 -135 -115q-80 -39 -184 -39q-190 0 -297 100.5t-107 282.5zM406 340 q0 -76 45 -121t122 -45q115 0 181 88q63 84 63 244v20h-117q-164 0 -229 -43t-65 -143zM469 1262l283 376h282l-368 -376h-197z" />
<glyph unicode="&#xe2;" d="M94 354q0 197 127 289q129 94 393 94h203v49q0 70 -51 107q-53 37 -152 37q-111 0 -204 -27q-104 -29 -205 -84v250q104 43 196 59q102 18 213 19q272 0 383 -110.5t111 -397.5v-639h-291v125q-53 -76 -135 -115q-80 -39 -184 -39q-190 0 -297 100.5t-107 282.5zM406 340 q0 -76 45 -121t122 -45q115 0 181 88q63 84 63 244v20h-117q-164 0 -229 -43t-65 -143zM240 1262l256 376h241l256 -376h-178l-199 225l-198 -225h-178z" />
<glyph unicode="&#xe3;" d="M94 354q0 197 127 289q129 94 393 94h203v49q0 70 -51 107q-53 37 -152 37q-111 0 -204 -27q-104 -29 -205 -84v250q104 43 196 59q102 18 213 19q272 0 383 -110.5t111 -397.5v-639h-291v125q-53 -76 -135 -115q-80 -39 -184 -39q-190 0 -297 100.5t-107 282.5zM406 340 q0 -76 45 -121t122 -45q115 0 181 88q63 84 63 244v20h-117q-164 0 -229 -43t-65 -143zM268 1309q0 139 51 211q53 74 146 73q29 0 72 -14q39 -12 77 -43l62 -43q14 -10 39 -23q16 -8 35 -8q37 0 55 31q20 35 20 90v8h140q0 -139 -52 -211q-53 -74 -145 -73q-35 0 -70 12 q-31 10 -80 45l-55 37l-4 2q-4 2 -8 6q-45 29 -70 29q-37 0 -55 -31t-18 -90v-8h-140z" />
<glyph unicode="&#xe4;" d="M94 354q0 197 127 289q129 94 393 94h203v49q0 70 -51 107q-53 37 -152 37q-111 0 -204 -27q-104 -29 -205 -84v250q104 43 196 59q102 18 213 19q272 0 383 -110.5t111 -397.5v-639h-291v125q-53 -76 -135 -115q-80 -39 -184 -39q-190 0 -297 100.5t-107 282.5zM406 340 q0 -76 45 -121t122 -45q115 0 181 88q63 84 63 244v20h-117q-164 0 -229 -43t-65 -143zM301 1339v246h236v-246h-236zM696 1339v246h236v-246h-236z" />
<glyph unicode="&#xe5;" d="M94 354q0 197 127 289q129 94 393 94h203v49q0 70 -51 107q-53 37 -152 37q-111 0 -204 -27q-104 -29 -205 -84v250q104 43 196 59q102 18 213 19q272 0 383 -110.5t111 -397.5v-639h-291v125q-53 -76 -135 -115q-80 -39 -184 -39q-190 0 -297 100.5t-107 282.5zM406 340 q0 -76 45 -121t122 -45q115 0 181 88q63 84 63 244v20h-117q-164 0 -229 -43t-65 -143zM332 1534q0 117 84 201t200.5 84t200.5 -84t84 -201t-84 -201t-200.5 -84t-200.5 84t-84 201zM485 1534q0 -55 39 -92q43 -39 92 -39q53 0 92.5 39t39.5 92t-39 92t-92.5 39t-92.5 -39 t-39 -92z" />
<glyph unicode="&#xe6;" d="M14 326q0 184 101 276q102 92 305 92h76v51q0 94 -39 140q-41 47 -115 47q-59 0 -125 -27q-70 -29 -141 -82v246q78 43 143 59q71 18 135 19q98 0 160 -31q66 -33 98 -96q27 59 95 94q63 33 157 33q176 0 250 -119t74 -422v-127h-451q0 -143 49.5 -219t145.5 -76 q63 0 121 29q61 31 118 88v-244q-49 -43 -112 -65q-59 -20 -146 -21q-109 0 -178 41q-74 43 -117 123q-41 -84 -106 -125q-63 -39 -164 -39q-162 0 -248 92.5t-86 262.5zM240 330q0 -70 32 -109q31 -37 93 -37q63 0 93.5 43t30.5 131v43v82h-73q-90 0 -131 -39 q-45 -40 -45 -114zM737 690h226v23q0 126 -25 172q-25 47 -88.5 47t-87.5 -47q-25 -46 -25 -172v-23z" />
<glyph unicode="&#xe7;" d="M439 -219q41 -16 88 -27q39 -8 77 -8q55 0 91 23q33 20 32 63q0 29 -20 68q-20 37 -68 100h140q53 -55 84 -115q29 -53 28 -100q0 -95 -61 -141q-59 -45 -189 -45q-49 0 -98 6q-37 4 -104 20v156zM168 559q0 276 147 434q147 156 406 156q94 0 174 -20.5t166 -65.5v-268 q-59 51 -141 84q-76 31 -158 30q-143 0 -219 -92q-78 -94 -78 -258q0 -168 78 -258t219 -90q84 0 159.5 28.5t139.5 86.5v-269q-78 -45 -160 -65.5t-182 -20.5q-258 0 -406 156q-145 153 -145 432z" />
<glyph unicode="&#xe8;" d="M92 555q0 274 144 432q145 160 389 160q249 0 387 -148q137 -145 137 -415v-119h-760q0 -129 80 -197q78 -66 229 -65q96 0 199 28q96 27 205 93v-269q-98 -41 -207 -63q-102 -20 -225 -21q-283 0 -430.5 149.5t-147.5 434.5zM393 684h461q-4 121 -59 176q-59 59 -170 60 q-98 0 -160 -62q-60 -59 -72 -174zM238 1638h282l283 -376h-197z" />
<glyph unicode="&#xe9;" d="M92 555q0 274 144 432q145 160 389 160q249 0 387 -148q137 -145 137 -415v-119h-760q0 -129 80 -197q78 -66 229 -65q96 0 199 28q96 27 205 93v-269q-98 -41 -207 -63q-102 -20 -225 -21q-283 0 -430.5 149.5t-147.5 434.5zM393 684h461q-4 121 -59 176q-59 59 -170 60 q-98 0 -160 -62q-60 -59 -72 -174zM508 1262l283 376h282l-368 -376h-197z" />
<glyph unicode="&#xea;" d="M92 555q0 274 144 432q145 160 389 160q249 0 387 -148q137 -145 137 -415v-119h-760q0 -129 80 -197q78 -66 229 -65q96 0 199 28q96 27 205 93v-269q-98 -41 -207 -63q-102 -20 -225 -21q-283 0 -430.5 149.5t-147.5 434.5zM393 684h461q-4 121 -59 176q-59 59 -170 60 q-98 0 -160 -62q-60 -59 -72 -174zM279 1262l256 376h241l256 -376h-178l-199 225l-198 -225h-178z" />
<glyph unicode="&#xeb;" d="M92 555q0 274 144 432q145 160 389 160q249 0 387 -148q137 -145 137 -415v-119h-760q0 -129 80 -197q78 -66 229 -65q96 0 199 28q96 27 205 93v-269q-98 -41 -207 -63q-102 -20 -225 -21q-283 0 -430.5 149.5t-147.5 434.5zM393 684h461q-4 121 -59 176q-59 59 -170 60 q-98 0 -160 -62q-60 -59 -72 -174zM340 1339v246h236v-246h-236zM735 1339v246h236v-246h-236z" />
<glyph unicode="&#xec;" d="M143 0v225h365v670h-287v225h580v-895h364v-225h-1022zM199 1638h282l283 -376h-197z" />
<glyph unicode="&#xed;" d="M143 0v225h365v670h-287v225h580v-895h364v-225h-1022zM469 1262l283 376h282l-368 -376h-197z" />
<glyph unicode="&#xee;" d="M143 0v225h365v670h-287v225h580v-895h364v-225h-1022zM240 1262l256 376h241l256 -376h-178l-199 225l-198 -225h-178z" />
<glyph unicode="&#xef;" d="M143 0v225h365v670h-287v225h580v-895h364v-225h-1022zM301 1339v246h236v-246h-236zM696 1339v246h236v-246h-236z" />
<glyph unicode="&#xf0;" d="M98 537q0 236 129 376q127 139 348 140q41 0 72 -6q29 -6 58 -19l-160 219l-312 -119l-55 117l283 109l-158 202h293l92 -116l297 127l66 -123l-277 -117l166 -227q100 -135 143 -264q43 -126 43 -277q0 -272 -137 -432q-135 -156 -377 -156q-237 0 -374 154 q-140 156 -140 412zM389 545q0 -156 59.5 -246t163.5 -90q106 0 166 90q57 88 58 264q0 45 -7 94q-6 45 -18 103q-41 23 -98 41q-45 14 -97 14q-106 0 -165 -72q-62 -73 -62 -198z" />
<glyph unicode="&#xf1;" d="M172 0v1120h291v-168q29 88 106 144q72 51 181 51q160 0 239 -105q82 -106 82 -315v-727h-291v682q0 121 -34.5 174t-112.5 53t-125 -71q-45 -70 -45 -197v-641h-291zM268 1309q0 139 51 211q53 74 146 73q29 0 72 -14q39 -12 77 -43l62 -43q14 -10 39 -23q16 -8 35 -8 q37 0 55 31q20 35 20 90v8h140q0 -139 -52 -211q-53 -74 -145 -73q-35 0 -70 12q-31 10 -80 45l-55 37l-4 2q-4 2 -8 6q-45 29 -70 29q-37 0 -55 -31t-18 -90v-8h-140z" />
<glyph unicode="&#xf2;" d="M195 1640h282l283 -376h-197zM98 559q0 272 139.5 430t379 158t379 -158t139.5 -430t-139.5 -430t-379 -158t-379 158t-139.5 430zM391 559q0 -170 60 -258q61 -92 165.5 -92t165.5 92q59 88 59.5 258t-59.5 258q-61 92 -165.5 92t-165.5 -92q-60 -88 -60 -258z" />
<glyph unicode="&#xf3;" d="M471 1262l283 376h282l-368 -376h-197zM98 559q0 272 139.5 430t379 158t379 -158t139.5 -430t-139.5 -430t-379 -158t-379 158t-139.5 430zM391 559q0 -170 60 -258q61 -92 165.5 -92t165.5 92q59 88 59.5 258t-59.5 258q-61 92 -165.5 92t-165.5 -92q-60 -88 -60 -258z " />
<glyph unicode="&#xf4;" d="M240 1262l256 376h241l256 -376h-178l-199 225l-198 -225h-178zM98 559q0 272 139.5 430t379 158t379 -158t139.5 -430t-139.5 -430t-379 -158t-379 158t-139.5 430zM391 559q0 -170 60 -258q61 -92 165.5 -92t165.5 92q59 88 59.5 258t-59.5 258q-61 92 -165.5 92 t-165.5 -92q-60 -88 -60 -258z" />
<glyph unicode="&#xf5;" d="M268 1276q0 139 51 211q53 74 146 73q29 0 72 -14q39 -12 77 -43l62 -43q14 -10 39 -23q16 -8 35 -8q37 0 55 31q20 35 20 90v8h140q0 -139 -52 -211q-53 -74 -145 -73q-35 0 -70 12q-31 10 -80 45l-55 37l-4 2q-4 2 -8 6q-45 29 -70 29q-37 0 -55 -31t-18 -90v-8h-140z M98 559q0 272 139.5 430t379 158t379 -158t139.5 -430t-139.5 -430t-379 -158t-379 158t-139.5 430zM391 559q0 -170 60 -258q61 -92 165.5 -92t165.5 92q59 88 59.5 258t-59.5 258q-61 92 -165.5 92t-165.5 -92q-60 -88 -60 -258z" />
<glyph unicode="&#xf6;" d="M301 1314v246h236v-246h-236zM696 1314v246h236v-246h-236zM98 559q0 272 139.5 430t379 158t379 -158t139.5 -430t-139.5 -430t-379 -158t-379 158t-139.5 430zM391 559q0 -170 60 -258q61 -92 165.5 -92t165.5 92q59 88 59.5 258t-59.5 258q-61 92 -165.5 92 t-165.5 -92q-60 -88 -60 -258z" />
<glyph unicode="&#xf7;" d="M66 524v238h1099v-238h-1099zM461 86v309h309v-309h-309zM461 889v309h309v-309h-309z" />
<glyph unicode="&#xf8;" d="M25 2l163 197q-47 74 -67 161q-23 94 -23 199q0 272 139.5 430t378.5 158q88 0 158 -21q74 -22 141 -67l148 176l139 -121l-160 -188q45 -74 70 -168q23 -84 23 -199q0 -272 -139.5 -430t-379.5 -158q-80 0 -159 23q-72 20 -142 67l-151 -178zM391 559q0 -43 2 -59l6 -51 l346 411q-23 23 -57 37q-31 12 -70 12q-106 0 -167 -92q-60 -88 -60 -258zM483 262q33 -31 64 -41q35 -12 71 -12q100 0 164 94q59 90 60 256q0 39 -2 57q-4 45 -9 60z" />
<glyph unicode="&#xf9;" d="M160 391v729h293v-684q0 -121 34 -174q33 -51 113 -51t123 70q45 74 45 196v643h293v-1120h-293v166q-29 -88 -106 -143q-72 -51 -179 -52q-160 0 -241.5 106.5t-81.5 313.5zM199 1638h282l283 -376h-197z" />
<glyph unicode="&#xfa;" d="M160 391v729h293v-684q0 -121 34 -174q33 -51 113 -51t123 70q45 74 45 196v643h293v-1120h-293v166q-29 -88 -106 -143q-72 -51 -179 -52q-160 0 -241.5 106.5t-81.5 313.5zM469 1262l283 376h282l-368 -376h-197z" />
<glyph unicode="&#xfb;" d="M160 391v729h293v-684q0 -121 34 -174q33 -51 113 -51t123 70q45 74 45 196v643h293v-1120h-293v166q-29 -88 -106 -143q-72 -51 -179 -52q-160 0 -241.5 106.5t-81.5 313.5zM240 1262l256 376h241l256 -376h-178l-199 225l-198 -225h-178z" />
<glyph unicode="&#xfc;" d="M160 391v729h293v-684q0 -121 34 -174q33 -51 113 -51t123 70q45 74 45 196v643h293v-1120h-293v166q-29 -88 -106 -143q-72 -51 -179 -52q-160 0 -241.5 106.5t-81.5 313.5zM301 1339v246h236v-246h-236zM696 1339v246h236v-246h-236z" />
<glyph unicode="&#xfd;" d="M59 1120h308l256 -727l245 727h308l-465 -1241q-59 -158 -142 -231q-80 -72 -200 -72h-242v223h119q90 0 133 31q41 29 84 141l22 60zM469 1262l283 376h282l-368 -376h-197z" />
<glyph unicode="&#xfe;" d="M150 -426v1982h292v-604q45 94 121 146q74 49 176 49q190 0 297 -154q106 -152 107 -434q0 -287 -107 -436q-109 -152 -307 -152q-90 0 -161.5 47.5t-125.5 139.5v-584h-292zM442 561q0 -162 55.5 -254t149.5 -92t150 92q53 88 53 254t-53 254q-55 92 -149.5 92t-150 -92 t-55.5 -254z" />
<glyph unicode="&#xff;" d="M59 1120h308l256 -727l245 727h308l-465 -1241q-59 -158 -142 -231q-80 -72 -200 -72h-242v223h119q90 0 133 31q41 29 84 141l22 60zM301 1339v246h236v-246h-236zM696 1339v246h236v-246h-236z" />
<glyph unicode="&#x100;" d="M301 1681v189h631v-189h-631zM33 0l403 1493h361l403 -1493h-295l-92 369h-395l-90 -369h-295zM477 612h279l-140 611z" />
<glyph unicode="&#x101;" d="M301 1368v188h631v-188h-631zM94 354q0 197 127 289q129 94 393 94h203v49q0 70 -51 107q-53 37 -152 37q-111 0 -204 -27q-104 -29 -205 -84v250q104 43 196 59q102 18 213 19q272 0 383 -110.5t111 -397.5v-639h-291v125q-53 -76 -135 -115q-80 -39 -184 -39 q-190 0 -297 100.5t-107 282.5zM406 340q0 -76 45 -121t122 -45q115 0 181 88q63 84 63 244v20h-117q-164 0 -229 -43t-65 -143z" />
<glyph unicode="&#x102;" d="M33 0l403 1493h361l403 -1493h-295l-92 369h-395l-90 -369h-295zM477 612h279l-140 611zM281 1898h141q20 -59 69.5 -89.5t125 -30.5t124.5 30q47 29 68 90h143q-14 -129 -102 -196q-86 -68 -233.5 -68t-233.5 68q-88 67 -102 196z" />
<glyph unicode="&#x103;" d="M94 354q0 197 127 289q129 94 393 94h203v49q0 70 -51 107q-53 37 -152 37q-111 0 -204 -27q-104 -29 -205 -84v250q104 43 196 59q102 18 213 19q272 0 383 -110.5t111 -397.5v-639h-291v125q-53 -76 -135 -115q-80 -39 -184 -39q-190 0 -297 100.5t-107 282.5zM406 340 q0 -76 45 -121t122 -45q115 0 181 88q63 84 63 244v20h-117q-164 0 -229 -43t-65 -143zM281 1606h141q12 -70 61 -107t133 -37q82 0 131.5 37t61.5 107h143q-6 -141 -92 -220q-88 -78 -243.5 -77.5t-243.5 77.5q-86 79 -92 220z" />
<glyph unicode="&#x104;" d="M800 -223q0 55 27 108q25 49 84 115h141q-51 -70 -71 -106q-18 -33 -19 -60q0 -39 31 -63.5t80 -24.5q23 0 76 8q35 6 79 23v-156q-31 -6 -102 -16q-47 -6 -88 -6q-113 0 -176 47q-62 47 -62 131zM33 0l403 1493h361l403 -1493h-295l-92 369h-395l-90 -369h-295zM477 612 h279l-140 611z" />
<glyph unicode="&#x105;" d="M704 -223q0 55 27 108q25 49 84 115h141q-51 -70 -71 -106q-18 -33 -19 -60q0 -39 31 -63.5t80 -24.5q23 0 76 8q35 6 79 23v-156q-31 -6 -102 -16q-47 -6 -88 -6q-113 0 -176 47q-62 47 -62 131zM94 354q0 197 127 289q129 94 393 94h203v49q0 70 -51 107 q-53 37 -152 37q-111 0 -204 -27q-104 -29 -205 -84v250q104 43 196 59q102 18 213 19q272 0 383 -110.5t111 -397.5v-639h-291v125q-53 -76 -135 -115q-80 -39 -184 -39q-190 0 -297 100.5t-107 282.5zM406 340q0 -76 45 -121t122 -45q115 0 181 88q63 84 63 244v20h-117 q-164 0 -229 -43t-65 -143z" />
<glyph unicode="&#x106;" d="M152 745.5q0 376.5 159.5 575.5t460.5 199q88 0 164 -19q86 -20 145 -53v-328q-72 66 -147 103q-68 33 -148 32q-163 0 -245 -129q-82 -127 -82 -380.5t82 -380.5q83 -129 245 -129q80 0 148 32q76 37 147 103v-328q-63 -33 -147 -53q-78 -18 -162 -19q-301 0 -460.5 199 t-159.5 575.5zM606 1635l199 264h284l-286 -264h-197z" />
<glyph unicode="&#x107;" d="M168 559q0 276 147 434q147 156 406 156q94 0 174 -20.5t166 -65.5v-268q-59 51 -141 84q-76 31 -158 30q-143 0 -219 -92q-78 -94 -78 -258q0 -168 78 -258t219 -90q84 0 159.5 28.5t139.5 86.5v-269q-78 -45 -160 -65.5t-182 -20.5q-258 0 -406 156q-145 153 -145 432z M571 1262l283 376h282l-368 -376h-197z" />
<glyph unicode="&#x108;" d="M396 1635l221 264h309l223 -264h-178l-199 161l-198 -161h-178zM152 745.5q0 376.5 159.5 575.5t460.5 199q88 0 164 -19q86 -20 145 -53v-328q-72 66 -147 103q-68 33 -148 32q-163 0 -245 -129q-82 -127 -82 -380.5t82 -380.5q83 -129 245 -129q80 0 148 32 q76 37 147 103v-328q-63 -33 -147 -53q-78 -18 -162 -19q-301 0 -460.5 199t-159.5 575.5z" />
<glyph unicode="&#x109;" d="M344 1262l256 376h241l256 -376h-178l-199 225l-198 -225h-178zM168 559q0 276 147 434q147 156 406 156q94 0 174 -20.5t166 -65.5v-268q-59 51 -141 84q-76 31 -158 30q-143 0 -219 -92q-78 -94 -78 -258q0 -168 78 -258t219 -90q84 0 159.5 28.5t139.5 86.5v-269 q-78 -45 -160 -65.5t-182 -20.5q-258 0 -406 156q-145 153 -145 432z" />
<glyph unicode="&#x10a;" d="M152 745.5q0 376.5 159.5 575.5t460.5 199q88 0 164 -19q86 -20 145 -53v-328q-72 66 -147 103q-68 33 -148 32q-163 0 -245 -129q-82 -127 -82 -380.5t82 -380.5q83 -129 245 -129q80 0 148 32q76 37 147 103v-328q-63 -33 -147 -53q-78 -18 -162 -19q-301 0 -460.5 199 t-159.5 575.5zM579 1653v245h275v-245h-275z" />
<glyph unicode="&#x10b;" d="M168 559q0 276 147 434q147 156 406 156q94 0 174 -20.5t166 -65.5v-268q-59 51 -141 84q-76 31 -158 30q-143 0 -219 -92q-78 -94 -78 -258q0 -168 78 -258t219 -90q84 0 159.5 28.5t139.5 86.5v-269q-78 -45 -160 -65.5t-182 -20.5q-258 0 -406 156q-145 153 -145 432z M555 1339v246h275v-246h-275z" />
<glyph unicode="&#x10c;" d="M152 745.5q0 376.5 159.5 575.5t460.5 199q88 0 164 -19q86 -20 145 -53v-328q-72 66 -147 103q-68 33 -148 32q-163 0 -245 -129q-82 -127 -82 -380.5t82 -380.5q83 -129 245 -129q80 0 148 32q76 37 147 103v-328q-63 -33 -147 -53q-78 -18 -162 -19q-301 0 -460.5 199 t-159.5 575.5zM377 1899h178l198 -162l199 162h178l-223 -264h-309z" />
<glyph unicode="&#x10d;" d="M168 559q0 276 147 434q147 156 406 156q94 0 174 -20.5t166 -65.5v-268q-59 51 -141 84q-76 31 -158 30q-143 0 -219 -92q-78 -94 -78 -258q0 -168 78 -258t219 -90q84 0 159.5 28.5t139.5 86.5v-269q-78 -45 -160 -65.5t-182 -20.5q-258 0 -406 156q-145 153 -145 432z M342 1638h178l198 -227l199 227h178l-256 -376h-241z" />
<glyph unicode="&#x10e;" d="M137 0v1493h316q369 0 528 -174q160 -175 160 -571.5t-160 -571.5q-160 -176 -528 -176h-316zM432 266h80q176 0 248 109q74 111 74 373q0 264 -74 370q-74 109 -248 109h-80v-961zM228 1917h178l198 -162l199 162h178l-223 -264h-309z" />
<glyph unicode="&#x10f;" d="M1089.48 1172.49l77.6982 382.999h288.3l-164.597 -382.999h-201.401zM90 559q0 287 107 436q109 152 307 152q90 0 162 -47q68 -45 125 -139v595h292v-1556h-292v166q-45 -94 -121 -146q-74 -49 -176 -49q-190 0 -297 154q-107 151 -107 434zM383 557q0 -166 53 -254 q55 -92 149.5 -92t150 92t55.5 254t-55.5 254t-149.5 92t-150 -92q-53 -88 -53 -254z" />
<glyph unicode="&#x110;" d="M0 664v237h137v592h316q369 0 528 -174q160 -175 160 -571.5t-160 -571.5q-160 -176 -528 -176h-316v664h-137zM432 266h80q176 0 248 109q74 111 74 373q0 264 -74 370q-74 109 -248 109h-80v-326h211v-237h-211v-398z" />
<glyph unicode="&#x111;" d="M90 559q0 287 107 436q109 152 307 152q90 0 162 -47q68 -45 125 -139v290h-306v189h306v116h292v-116h146v-189h-146v-1251h-292v166q-45 -94 -121 -146q-74 -49 -176 -49q-190 0 -297 154q-107 151 -107 434zM383 557q0 -166 53 -254q55 -92 149.5 -92t150 92t55.5 254 t-55.5 254t-149.5 92t-150 -92q-53 -88 -53 -254z" />
<glyph unicode="&#x112;" d="M332 1681v189h631v-189h-631zM168 0v1493h930v-260h-635v-322h575v-260h-575v-391h635v-260h-930z" />
<glyph unicode="&#x113;" d="M340 1368v188h631v-188h-631zM92 555q0 274 144 432q145 160 389 160q249 0 387 -148q137 -145 137 -415v-119h-760q0 -129 80 -197q78 -66 229 -65q96 0 199 28q96 27 205 93v-269q-98 -41 -207 -63q-102 -20 -225 -21q-283 0 -430.5 149.5t-147.5 434.5zM393 684h461 q-4 121 -59 176q-59 59 -170 60q-98 0 -160 -62q-60 -59 -72 -174z" />
<glyph unicode="&#x114;" d="M168 0v1493h930v-260h-635v-322h575v-260h-575v-391h635v-260h-930zM312 1898h141q20 -59 69.5 -89.5t125 -30.5t124.5 30q47 29 68 90h143q-14 -129 -102 -196q-86 -68 -233.5 -68t-233.5 68q-88 67 -102 196z" />
<glyph unicode="&#x115;" d="M92 555q0 274 144 432q145 160 389 160q249 0 387 -148q137 -145 137 -415v-119h-760q0 -129 80 -197q78 -66 229 -65q96 0 199 28q96 27 205 93v-269q-98 -41 -207 -63q-102 -20 -225 -21q-283 0 -430.5 149.5t-147.5 434.5zM393 684h461q-4 121 -59 176q-59 59 -170 60 q-98 0 -160 -62q-60 -59 -72 -174zM320 1606h141q12 -70 61 -107t133 -37q82 0 131.5 37t61.5 107h143q-6 -141 -92 -220q-88 -78 -243.5 -77.5t-243.5 77.5q-86 79 -92 220z" />
<glyph unicode="&#x116;" d="M168 0v1493h930v-260h-635v-322h575v-260h-575v-391h635v-260h-930zM510 1653v245h275v-245h-275z" />
<glyph unicode="&#x117;" d="M92 555q0 274 144 432q145 160 389 160q249 0 387 -148q137 -145 137 -415v-119h-760q0 -129 80 -197q78 -66 229 -65q96 0 199 28q96 27 205 93v-269q-98 -41 -207 -63q-102 -20 -225 -21q-283 0 -430.5 149.5t-147.5 434.5zM393 684h461q-4 121 -59 176q-59 59 -170 60 q-98 0 -160 -62q-60 -59 -72 -174zM518 1339v246h275v-246h-275z" />
<glyph unicode="&#x118;" d="M671 -223q0 55 27 108q25 49 84 115h141q-51 -70 -71 -106q-18 -33 -19 -60q0 -39 31 -63.5t80 -24.5q23 0 76 8q35 6 79 23v-156q-31 -6 -102 -16q-47 -6 -88 -6q-113 0 -176 47q-62 47 -62 131zM168 0v1493h930v-260h-635v-322h575v-260h-575v-391h635v-260h-930z" />
<glyph unicode="&#x119;" d="M677 -223q0 55 27 108q25 49 84 115h141q-51 -70 -71 -106q-18 -33 -19 -60q0 -39 31 -63.5t80 -24.5q23 0 76 8q35 6 79 23v-156q-31 -6 -102 -16q-47 -6 -88 -6q-113 0 -176 47q-62 47 -62 131zM92 555q0 274 144 432q145 160 389 160q249 0 387 -148 q137 -145 137 -415v-119h-760q0 -129 80 -197q78 -66 229 -65q96 0 199 28q96 27 205 93v-269q-98 -41 -207 -63q-102 -20 -225 -21q-283 0 -430.5 149.5t-147.5 434.5zM393 684h461q-4 121 -59 176q-59 59 -170 60q-98 0 -160 -62q-60 -59 -72 -174z" />
<glyph unicode="&#x11a;" d="M168 0v1493h930v-260h-635v-322h575v-260h-575v-391h635v-260h-930zM293 1899h178l198 -162l199 162h178l-223 -264h-309z" />
<glyph unicode="&#x11b;" d="M92 555q0 274 144 432q145 160 389 160q249 0 387 -148q137 -145 137 -415v-119h-760q0 -129 80 -197q78 -66 229 -65q96 0 199 28q96 27 205 93v-269q-98 -41 -207 -63q-102 -20 -225 -21q-283 0 -430.5 149.5t-147.5 434.5zM393 684h461q-4 121 -59 176q-59 59 -170 60 q-98 0 -160 -62q-60 -59 -72 -174zM256 1642h178l198 -227l199 227h178l-256 -376h-241z" />
<glyph unicode="&#x11c;" d="M361 1635l221 264h309l223 -264h-178l-199 161l-198 -161h-178zM117 745q0 377 159.5 576t460.5 199q90 0 176 -25q88 -25 164 -74v-327q-61 80 -143 120.5t-176 40.5q-166 0 -250 -127t-84 -383q0 -250 80 -378q82 -131 233 -131q49 0 80 8q35 10 55 26v285h-202v248 h460v-684q-86 -74 -188 -111t-219 -37q-293 0 -449 201q-157 204 -157 573z" />
<glyph unicode="&#x11d;" d="M220 1262l256 376h241l256 -376h-178l-199 225l-198 -225h-178zM98 571q0 266 113 422t303 156q98 0 170 -45q78 -49 119 -127v143h293v-1036q0 -270 -121 -389t-395 -119q-78 0 -183 14q-84 12 -182 41v269q82 -45 170 -68q90 -23 176 -22q123 0 182.5 59t59.5 182v121 q-41 -78 -115 -119q-70 -39 -172 -39q-193 0 -305.5 149.5t-112.5 407.5zM391 577.5q0 -149.5 58 -241.5q55 -90 147 -90q90 0 149 90q57 88 57.5 241.5t-57.5 241.5q-59 90 -149 90q-92 0 -147 -90q-58 -92 -58 -241.5z" />
<glyph unicode="&#x11e;" d="M117 745q0 377 159.5 576t460.5 199q90 0 176 -25q88 -25 164 -74v-327q-61 80 -143 120.5t-176 40.5q-166 0 -250 -127t-84 -383q0 -250 80 -378q82 -131 233 -131q49 0 80 8q35 10 55 26v285h-202v248h460v-684q-86 -74 -188 -111t-219 -37q-293 0 -449 201 q-157 204 -157 573zM330 1898h141q20 -59 69.5 -89.5t125 -30.5t124.5 30q47 29 68 90h143q-14 -129 -102 -196q-86 -68 -233.5 -68t-233.5 68q-88 67 -102 196z" />
<glyph unicode="&#x11f;" d="M98 571q0 266 113 422t303 156q98 0 170 -45q78 -49 119 -127v143h293v-1036q0 -270 -121 -389t-395 -119q-78 0 -183 14q-84 12 -182 41v269q82 -45 170 -68q90 -23 176 -22q123 0 182.5 59t59.5 182v121q-41 -78 -115 -119q-70 -39 -172 -39q-193 0 -305.5 149.5 t-112.5 407.5zM391 577.5q0 -149.5 58 -241.5q55 -90 147 -90q90 0 149 90q57 88 57.5 241.5t-57.5 241.5q-59 90 -149 90q-92 0 -147 -90q-58 -92 -58 -241.5zM281 1606h141q12 -70 61 -107t133 -37q82 0 131.5 37t61.5 107h143q-6 -141 -92 -220q-88 -78 -243.5 -77.5 t-243.5 77.5q-86 79 -92 220z" />
<glyph unicode="&#x120;" d="M117 745q0 377 159.5 576t460.5 199q90 0 176 -25q88 -25 164 -74v-327q-61 80 -143 120.5t-176 40.5q-166 0 -250 -127t-84 -383q0 -250 80 -378q82 -131 233 -131q49 0 80 8q35 10 55 26v285h-202v248h460v-684q-86 -74 -188 -111t-219 -37q-293 0 -449 201 q-157 204 -157 573zM528 1653v245h275v-245h-275z" />
<glyph unicode="&#x121;" d="M98 571q0 266 113 422t303 156q98 0 170 -45q78 -49 119 -127v143h293v-1036q0 -270 -121 -389t-395 -119q-78 0 -183 14q-84 12 -182 41v269q82 -45 170 -68q90 -23 176 -22q123 0 182.5 59t59.5 182v121q-41 -78 -115 -119q-70 -39 -172 -39q-193 0 -305.5 149.5 t-112.5 407.5zM391 577.5q0 -149.5 58 -241.5q55 -90 147 -90q90 0 149 90q57 88 57.5 241.5t-57.5 241.5q-59 90 -149 90q-92 0 -147 -90q-58 -92 -58 -241.5zM479 1339v246h275v-246h-275z" />
<glyph unicode="&#x122;" d="M539 -494l88 305h282l-178 -305h-192zM117 745q0 377 159.5 576t460.5 199q90 0 176 -25q88 -25 164 -74v-327q-61 80 -143 120.5t-176 40.5q-166 0 -250 -127t-84 -383q0 -250 80 -378q82 -131 233 -131q49 0 80 8q35 10 55 26v285h-202v248h460v-684q-86 -74 -188 -111 t-219 -37q-293 0 -449 201q-157 204 -157 573z" />
<glyph unicode="&#x123;" d="M454 1259l179 305h192l-88 -305h-283zM98 571q0 266 113 422t303 156q98 0 170 -45q78 -49 119 -127v143h293v-1036q0 -270 -121 -389t-395 -119q-78 0 -183 14q-84 12 -182 41v269q82 -45 170 -68q90 -23 176 -22q123 0 182.5 59t59.5 182v121q-41 -78 -115 -119 q-70 -39 -172 -39q-193 0 -305.5 149.5t-112.5 407.5zM391 577.5q0 -149.5 58 -241.5q55 -90 147 -90q90 0 149 90q57 88 57.5 241.5t-57.5 241.5q-59 90 -149 90q-92 0 -147 -90q-58 -92 -58 -241.5z" />
<glyph unicode="&#x124;" d="M240 1635l221 264h309l223 -264h-178l-199 161l-198 -161h-178zM137 0v1493h295v-569h369v569h295v-1493h-295v664h-369v-664h-295z" />
<glyph unicode="&#x125;" d="M-61 1635l221 264h309l223 -264h-178l-199 161l-198 -161h-178zM172 0v1556h291v-604q29 88 106 144q72 51 181 51q160 0 239 -105q82 -106 82 -315v-727h-291v682q0 119 -34.5 172t-112.5 53t-125 -71q-45 -70 -45 -195v-641h-291z" />
<glyph unicode="&#x126;" d="M2 1106v164h135v223h295v-223h369v223h295v-223h135v-164h-135v-1106h-295v664h-369v-664h-295v1106h-135zM432 924h369v182h-369v-182z" />
<glyph unicode="&#x127;" d="M12 1270v164h160v122h291v-122h276v-164h-276v-318q29 88 106 144q72 51 181 51q160 0 239 -105q82 -111 82 -315v-727h-291v682q0 119 -34.5 172t-112.5 53t-125 -71q-45 -70 -45 -195v-641h-291v1270h-160z" />
<glyph unicode="&#x128;" d="M268 1635v30q0 109 54 170q55 66 143 66q37 0 74 -12q41 -14 75 -37l60 -39q18 -12 41 -21q25 -8 35 -8q37 0 55 31q20 35 20 86h140v-15q0 -4 -1 -9t-1 -7q0 -104 -53.5 -169.5t-141.5 -65.5q-35 0 -72 12q-43 14 -78 37l-55 35q-4 2 -10 6q-49 27 -74 26q-29 0 -51 -30 q-20 -29 -20 -80v-6h-140zM172 0v260h297v973h-297v260h889v-260h-297v-973h297v-260h-889z" />
<glyph unicode="&#x129;" d="M268 1309q0 139 51 211q53 74 146 73q29 0 72 -14q39 -12 77 -43l62 -43q14 -10 39 -23q16 -8 35 -8q37 0 55 31q20 35 20 90v8h140q0 -139 -52 -211q-53 -74 -145 -73q-35 0 -70 12q-31 10 -80 45l-55 37l-4 2q-4 2 -8 6q-45 29 -70 29q-37 0 -55 -31t-18 -90v-8h-140z M143 0v225h365v670h-287v225h580v-895h364v-225h-1022z" />
<glyph unicode="&#x12a;" d="M301 1681v189h631v-189h-631zM172 0v260h297v973h-297v260h889v-260h-297v-973h297v-260h-889z" />
<glyph unicode="&#x12b;" d="M301 1368v188h631v-188h-631zM143 0v225h365v670h-287v225h580v-895h364v-225h-1022z" />
<glyph unicode="&#x12c;" d="M172 0v260h297v973h-297v260h889v-260h-297v-973h297v-260h-889zM281 1898h141q20 -59 69.5 -89.5t125 -30.5t124.5 30q47 29 68 90h143q-14 -129 -102 -196q-86 -68 -233.5 -68t-233.5 68q-88 67 -102 196z" />
<glyph unicode="&#x12d;" d="M143 0v225h365v670h-287v225h580v-895h364v-225h-1022zM281 1606h141q12 -70 61 -107t133 -37q82 0 131.5 37t61.5 107h143q-6 -141 -92 -220q-88 -78 -243.5 -77.5t-243.5 77.5q-86 79 -92 220z" />
<glyph unicode="&#x12e;" d="M172 0v260h297v973h-297v260h889v-260h-297v-973h297v-260h-889zM512 -223q0 55 27 108q25 49 84 115h141q-51 -70 -71 -106q-18 -33 -19 -60q0 -39 31 -63.5t80 -24.5q23 0 76 8q35 6 79 23v-156q-31 -6 -102 -16q-47 -6 -88 -6q-113 0 -176 47q-62 47 -62 131z" />
<glyph unicode="&#x12f;" d="M143 0v225h365v670h-287v225h580v-895h364v-225h-1022zM508 1323v342h293v-342h-293zM548 -223q0 55 27 108q25 49 84 115h141q-51 -70 -71 -106q-18 -33 -19 -60q0 -39 31 -63.5t80 -24.5q23 0 76 8q35 6 79 23v-156q-31 -6 -102 -16q-47 -6 -88 -6q-113 0 -176 47 q-62 47 -62 131z" />
<glyph unicode="&#x130;" d="M172 0v260h297v973h-297v260h889v-260h-297v-973h297v-260h-889zM479 1653v245h275v-245h-275z" />
<glyph unicode="&#x131;" d="M143 0v225h365v670h-287v225h580v-895h364v-225h-1022z" />
<glyph unicode="&#x132;" d="M-8 0v260h188v973h-188v260h567v-260h-188v-973h188v-260h-567zM573 78v342q65 -89 136 -135q70 -45 143 -45q84 0 123 57q41 59 41 184v756h-264v258h479v-1014q0 -270 -84 -389t-277 -119q-59 0 -143 27q-74 25 -154 78z" />
<glyph unicode="&#x133;" d="M10 0v225h254v670h-201v225h406v-895h256v-225h-715zM264 1323v342h205v-342h-205zM526 -209h234q100 0 139 55q41 57 41 187v852h-297v225h590v-1077q0 -250 -90 -358.5t-301 -108.5h-316v225zM940 1313v342h293v-342h-293z" />
<glyph unicode="&#x134;" d="M303 1635l221 264h309l223 -264h-178l-199 161l-198 -161h-178zM109 74v342q82 -86 184 -133q100 -47 196 -47q115 0 170 59q53 55 54 184v754h-361v260h656v-1014q0 -272 -115 -391q-115 -117 -377 -117q-86 0 -199 27q-108 25 -208 76z" />
<glyph unicode="&#x135;" d="M240 1262l256 376h241l256 -376h-178l-199 225l-198 -225h-178zM143 -199h234q98 0 139 56q41 57 41 186v852h-297v225h590v-1077q0 -252 -90 -360q-88 -106 -301 -107h-316v225z" />
<glyph unicode="&#x136;" d="M488 -463l88 305h282l-178 -305h-192zM117 0v1493h295v-590l462 590h334l-471 -588l488 -905h-328l-354 672l-131 -166v-506h-295z" />
<glyph unicode="&#x137;" d="M500 -463l88 305h282l-178 -305h-192zM174 0v1556h293v-817l352 381h355l-424 -418l448 -702h-324l-307 524l-100 -96v-428h-293z" />
<glyph unicode="&#x138;" d="M174 0v1120h293v-381l352 381h355l-424 -418l448 -702h-324l-307 524l-100 -96v-428h-293z" />
<glyph unicode="&#x139;" d="M469 1637l199 264h284l-286 -264h-197zM225 0v1493h295v-1233h631v-260h-926z" />
<glyph unicode="&#x13a;" d="M469 1637l199 264h284l-286 -264h-197zM90 1331v225h590v-1089q0 -129 41 -186q41 -55 139 -56h234v-225h-316q-209 0 -301 109q-90 104 -90 358v864h-297z" />
<glyph unicode="&#x13b;" d="M502 -463l88 305h282l-178 -305h-192zM225 0v1493h295v-1233h631v-260h-926z" />
<glyph unicode="&#x13c;" d="M377 -463l88 305h282l-178 -305h-192zM90 1331v225h590v-1089q0 -129 41 -186q41 -55 139 -56h234v-225h-316q-209 0 -301 109q-90 104 -90 358v864h-297z" />
<glyph unicode="&#x13d;" d="M793 1117l76 376h282l-161 -376h-197zM225 0v1493h295v-1233h631v-260h-926z" />
<glyph unicode="&#x13e;" d="M831 1180l76 376h282l-161 -376h-197zM90 1331v225h590v-1089q0 -129 41 -186q41 -55 139 -56h234v-225h-316q-209 0 -301 109q-90 104 -90 358v864h-297z" />
<glyph unicode="&#x13f;" d="M836 702v365h333v-365h-333zM225 0v1493h295v-1233h631v-260h-926z" />
<glyph unicode="&#x140;" d="M889 702v365h333v-365h-333zM90 1331v225h590v-1089q0 -129 41 -186q41 -55 139 -56h234v-225h-316q-209 0 -301 109q-90 104 -90 358v864h-297z" />
<glyph unicode="&#x141;" d="M-39 580l264 188v725h295v-520l275 194l112 -153l-387 -273v-481h631v-260h-926v537l-151 -111z" />
<glyph unicode="&#x142;" d="M37 600l373 264v467h-295v225h587v-485l295 209l103 -160l-398 -280v-373q0 -133 41 -186q43 -55 140 -56h233v-225h-315q-207 0 -299 108.5t-92 358.5v166l-273 -195z" />
<glyph unicode="&#x143;" d="M500 1637l199 264h284l-286 -264h-197zM119 0v1493h317l416 -1085v1085h260v-1493h-315l-418 1085v-1085h-260z" />
<glyph unicode="&#x144;" d="M467 1268l283 376h282l-368 -376h-197zM172 0v1120h291v-168q29 88 106 144q72 51 181 51q160 0 239 -105q82 -106 82 -315v-727h-291v682q0 121 -34.5 174t-112.5 53t-125 -71q-45 -70 -45 -197v-641h-291z" />
<glyph unicode="&#x145;" d="M430 -463l88 305h282l-178 -305h-192zM119 0v1493h317l416 -1085v1085h260v-1493h-315l-418 1085v-1085h-260z" />
<glyph unicode="&#x146;" d="M436 -463l88 305h282l-178 -305h-192zM172 0v1120h291v-168q29 88 106 144q72 51 181 51q160 0 239 -105q82 -106 82 -315v-727h-291v682q0 121 -34.5 174t-112.5 53t-125 -71q-45 -70 -45 -197v-641h-291z" />
<glyph unicode="&#x147;" d="M119 0v1493h317l416 -1085v1085h260v-1493h-315l-418 1085v-1085h-260zM281 1899h178l198 -162l199 162h178l-223 -264h-309z" />
<glyph unicode="&#x148;" d="M172 0v1120h291v-168q29 88 106 144q72 51 181 51q160 0 239 -105q82 -106 82 -315v-727h-291v682q0 121 -34.5 174t-112.5 53t-125 -71q-45 -70 -45 -197v-641h-291zM277 1638h178l198 -227l199 227h178l-256 -376h-241z" />
<glyph unicode="&#x149;" d="M332 0v1120h291v-168q29 88 106 144q72 51 181 51q160 0 239 -105q82 -106 82 -315v-727h-291v682q0 121 -34.5 174t-112.5 53t-125 -71q-45 -70 -45 -197v-641h-291zM-111 903l98 383v270h314v-270l-197 -383h-215z" />
<glyph unicode="&#x14a;" d="M106 0v1493h295v-240q37 127 127 199q88 70 215 70q188 0 284.5 -145.5t96.5 -434.5v-885q0 -264 -92 -374q-92 -109 -299 -109h-121v227h37q101 0 142 56q41 57 40 186v973q0 127 -47 184q-46 55 -153 55q-109 0 -168 -75q-61 -78 -62 -207v-973h-295z" />
<glyph unicode="&#x14b;" d="M172 0v1120h291v-168q29 88 106 144q72 51 181 51q160 0 239 -105q82 -111 82 -315v-684q0 -254 -90 -358q-90 -109 -301 -109h-121v225h39q101 0 141 56q41 57 41 186v639q0 121 -34.5 174t-112.5 53t-125 -71q-45 -70 -45 -197v-641h-291z" />
<glyph unicode="&#x14c;" d="M301 1681v189h631v-189h-631zM92 745.5q0 378.5 133 577.5q131 197 391.5 197t391.5 -197q133 -199 133 -577.5t-133 -577.5q-131 -197 -391.5 -197t-391.5 197q-133 199 -133 577.5zM399 745.5q0 -272.5 52 -389.5q53 -121 165.5 -120.5t165.5 120.5q51 117 51.5 389.5 t-51.5 389.5q-53 121 -165.5 120.5t-165.5 -120.5q-52 -117 -52 -389.5z" />
<glyph unicode="&#x14d;" d="M301 1368v188h631v-188h-631zM98 559q0 272 139.5 430t379 158t379 -158t139.5 -430t-139.5 -430t-379 -158t-379 158t-139.5 430zM391 559q0 -170 60 -258q61 -92 165.5 -92t165.5 92q59 88 59.5 258t-59.5 258q-61 92 -165.5 92t-165.5 -92q-60 -88 -60 -258z" />
<glyph unicode="&#x14e;" d="M92 745.5q0 378.5 133 577.5q131 197 391.5 197t391.5 -197q133 -199 133 -577.5t-133 -577.5q-131 -197 -391.5 -197t-391.5 197q-133 199 -133 577.5zM399 745.5q0 -272.5 52 -389.5q53 -121 165.5 -120.5t165.5 120.5q51 117 51.5 389.5t-51.5 389.5 q-53 121 -165.5 120.5t-165.5 -120.5q-52 -117 -52 -389.5zM281 1898h141q20 -59 69.5 -89.5t125 -30.5t124.5 30q47 29 68 90h143q-14 -129 -102 -196q-86 -68 -233.5 -68t-233.5 68q-88 67 -102 196z" />
<glyph unicode="&#x14f;" d="M98 559q0 272 139.5 430t379 158t379 -158t139.5 -430t-139.5 -430t-379 -158t-379 158t-139.5 430zM391 559q0 -170 60 -258q61 -92 165.5 -92t165.5 92q59 88 59.5 258t-59.5 258q-61 92 -165.5 92t-165.5 -92q-60 -88 -60 -258zM281 1606h141q12 -70 61 -107t133 -37 q82 0 131.5 37t61.5 107h143q-6 -141 -92 -220q-88 -78 -243.5 -77.5t-243.5 77.5q-86 79 -92 220z" />
<glyph unicode="&#x150;" d="M92 745.5q0 378.5 133 577.5q131 197 391.5 197t391.5 -197q133 -199 133 -577.5t-133 -577.5q-131 -197 -391.5 -197t-391.5 197q-133 199 -133 577.5zM399 745.5q0 -272.5 52 -389.5q53 -121 165.5 -120.5t165.5 120.5q51 117 51.5 389.5t-51.5 389.5 q-53 121 -165.5 120.5t-165.5 -120.5q-52 -117 -52 -389.5zM264 1634l199 264h285l-287 -264h-197zM639 1634l199 264h284l-286 -264h-197z" />
<glyph unicode="&#x151;" d="M98 559q0 272 139.5 430t379 158t379 -158t139.5 -430t-139.5 -430t-379 -158t-379 158t-139.5 430zM391 559q0 -170 60 -258q61 -92 165.5 -92t165.5 92q59 88 59.5 258t-59.5 258q-61 92 -165.5 92t-165.5 -92q-60 -88 -60 -258zM297 1262l195 376h217l-248 -376h-164z M639 1262l215 376h231l-272 -376h-174z" />
<glyph unicode="&#x152;" d="M68 745q0 434 120 592q119 156 445 156h573v-260h-332v-311h302v-260h-302v-402h343v-260h-584q-326 0 -445 156q-120 157 -120 589zM354 745q0 -315 45 -399q47 -86 170 -86h52v973h-52q-125 0 -170 -88.5t-45 -399.5z" />
<glyph unicode="&#x153;" d="M14 559q0 319 84 451q88 137 275 137q104 0 162 -29q61 -31 102 -96q27 57 92 92q63 33 158 33q176 0 249.5 -119t73.5 -422v-127h-450q0 -143 49 -219t145 -76q61 0 119 29q59 29 121 88v-244q-51 -45 -110.5 -65.5t-147.5 -20.5q-96 0 -168 37q-74 39 -119 111 q-43 -76 -110 -113q-63 -35 -166 -35q-188 0 -275 138q-84 135 -84 450zM248 559q0 -246 28 -309q31 -66 109 -66t107 68q29 70 28 307q0 240 -28 309q-27 66 -107 66q-78 0 -109 -66q-28 -63 -28 -309zM760 690h225v35q0 115 -24.5 162t-88 47t-88 -47t-24.5 -174v-23z" />
<glyph unicode="&#x154;" d="M469 1637l199 264h284l-286 -264h-197zM133 0v1493h426q287 0 414 -102q125 -100 125 -332q0 -154 -74 -246q-72 -90 -217 -108q45 -10 76 -41q35 -35 80 -127l270 -537h-324l-180 377q-8 16 -20 45q-80 168 -187 168h-94v-590h-295zM428 838h139q121 0 174 47 q51 45 52 157q0 111 -52 156q-53 47 -174 47h-139v-407z" />
<glyph unicode="&#x155;" d="M623 1268l283 376h282l-368 -376h-197zM291 0v1120h293v-174q43 94 133 147.5t207 53.5q63 0 118.5 -14.5t108.5 -42.5v-279q-51 45 -113 66q-68 23 -141 22q-94 0 -162 -33q-74 -35 -108 -94q-23 -35 -33 -92q-10 -61 -10 -164v-516h-293z" />
<glyph unicode="&#x156;" d="M500 -463l88 305h282l-178 -305h-192zM133 0v1493h426q287 0 414 -102q125 -100 125 -332q0 -154 -74 -246q-72 -90 -217 -108q45 -10 76 -41q35 -35 80 -127l270 -537h-324l-180 377q-8 16 -20 45q-80 168 -187 168h-94v-590h-295zM428 838h139q121 0 174 47 q51 45 52 157q0 111 -52 156q-53 47 -174 47h-139v-407z" />
<glyph unicode="&#x157;" d="M252 -463l88 305h282l-178 -305h-192zM291 0v1120h293v-174q43 94 133 147.5t207 53.5q63 0 118.5 -14.5t108.5 -42.5v-279q-51 45 -113 66q-68 23 -141 22q-94 0 -162 -33q-74 -35 -108 -94q-23 -35 -33 -92q-10 -61 -10 -164v-516h-293z" />
<glyph unicode="&#x158;" d="M133 0v1493h426q287 0 414 -102q125 -100 125 -332q0 -154 -74 -246q-72 -90 -217 -108q45 -10 76 -41q35 -35 80 -127l270 -537h-324l-180 377q-8 16 -20 45q-80 168 -187 168h-94v-590h-295zM428 838h139q121 0 174 47q51 45 52 157q0 111 -52 156q-53 47 -174 47h-139 v-407zM209 1899h178l198 -162l199 162h178l-223 -264h-309z" />
<glyph unicode="&#x159;" d="M291 0v1120h293v-174q43 94 133 147.5t207 53.5q63 0 118.5 -14.5t108.5 -42.5v-279q-51 45 -113 66q-68 23 -141 22q-94 0 -162 -33q-74 -35 -108 -94q-23 -35 -33 -92q-10 -61 -10 -164v-516h-293zM342 1638h178l198 -227l199 227h178l-256 -376h-241z" />
<glyph unicode="&#x15a;" d="M500 1637l199 264h284l-286 -264h-197zM129 1085q0 203 129 320q127 115 358 115q109 0 205 -23q106 -25 205 -70v-288q-98 70 -192 102q-100 35 -195 35q-106 0 -163.5 -43t-57.5 -123q0 -63 41 -102q45 -43 174 -90l127 -48q172 -61 264 -176q86 -109 86 -274 q0 -227 -133 -338t-404 -111q-117 0 -223 27q-119 31 -215 78v305q123 -88 227 -125q113 -41 220 -41q109 0 170 49q59 47 59 139q0 66 -41 117q-45 55 -115 80l-145 55q-219 84 -301 179q-80 91 -80 251z" />
<glyph unicode="&#x15b;" d="M467 1268l283 376h282l-368 -376h-197zM172 805q0 163 117 252q119 90 329 90q86 0 189 -17q100 -16 184 -45v-256q-72 47 -168 78q-82 27 -176 27q-96 0 -147 -28.5t-51 -84.5q0 -82 215 -131l10 -2l84 -20q162 -37 235.5 -123t73.5 -228q0 -174 -113 -260 q-115 -86 -342 -86q-111 0 -206 17q-100 16 -216 53v256q104 -59 197 -84q104 -29 195 -29q106 0 155 29q53 31 54 88q0 55 -37 86q-35 29 -179 64l-81 18q-164 35 -244 119q-78 82 -78 217z" />
<glyph unicode="&#x15c;" d="M240 1635l221 264h309l223 -264h-178l-199 161l-198 -161h-178zM129 1085q0 203 129 320q127 115 358 115q109 0 205 -23q106 -25 205 -70v-288q-98 70 -192 102q-100 35 -195 35q-106 0 -163.5 -43t-57.5 -123q0 -63 41 -102q45 -43 174 -90l127 -48q172 -61 264 -176 q86 -109 86 -274q0 -227 -133 -338t-404 -111q-117 0 -223 27q-119 31 -215 78v305q123 -88 227 -125q113 -41 220 -41q109 0 170 49q59 47 59 139q0 66 -41 117q-45 55 -115 80l-145 55q-219 84 -301 179q-80 91 -80 251z" />
<glyph unicode="&#x15d;" d="M240 1262l256 376h241l256 -376h-178l-199 225l-198 -225h-178zM172 805q0 163 117 252q119 90 329 90q86 0 189 -17q100 -16 184 -45v-256q-72 47 -168 78q-82 27 -176 27q-96 0 -147 -28.5t-51 -84.5q0 -82 215 -131l10 -2l84 -20q162 -37 235.5 -123t73.5 -228 q0 -174 -113 -260q-115 -86 -342 -86q-111 0 -206 17q-100 16 -216 53v256q104 -59 197 -84q104 -29 195 -29q106 0 155 29q53 31 54 88q0 55 -37 86q-35 29 -179 64l-81 18q-164 35 -244 119q-78 82 -78 217z" />
<glyph unicode="&#x15e;" d="M367 -219q41 -16 88 -27q39 -8 77 -8q55 0 91 23q33 20 32 63q0 29 -20 68q-20 37 -68 100h140q53 -55 84 -115q29 -53 28 -100q0 -95 -61 -141q-59 -45 -189 -45q-49 0 -98 6q-37 4 -104 20v156zM129 1085q0 203 129 320q127 115 358 115q109 0 205 -23q106 -25 205 -70 v-288q-98 70 -192 102q-100 35 -195 35q-106 0 -163.5 -43t-57.5 -123q0 -63 41 -102q45 -43 174 -90l127 -48q172 -61 264 -176q86 -109 86 -274q0 -227 -133 -338t-404 -111q-117 0 -223 27q-119 31 -215 78v305q123 -88 227 -125q113 -41 220 -41q109 0 170 49 q59 47 59 139q0 66 -41 117q-45 55 -115 80l-145 55q-219 84 -301 179q-80 91 -80 251z" />
<glyph unicode="&#x15f;" d="M367 -219q41 -16 88 -27q39 -8 77 -8q55 0 91 23q33 20 32 63q0 29 -20 68q-20 37 -68 100h140q53 -55 84 -115q29 -53 28 -100q0 -95 -61 -141q-59 -45 -189 -45q-49 0 -98 6q-37 4 -104 20v156zM172 805q0 163 117 252q119 90 329 90q86 0 189 -17q100 -16 184 -45 v-256q-72 47 -168 78q-82 27 -176 27q-96 0 -147 -28.5t-51 -84.5q0 -82 215 -131l10 -2l84 -20q162 -37 235.5 -123t73.5 -228q0 -174 -113 -260q-115 -86 -342 -86q-111 0 -206 17q-100 16 -216 53v256q104 -59 197 -84q104 -29 195 -29q106 0 155 29q53 31 54 88 q0 55 -37 86q-35 29 -179 64l-81 18q-164 35 -244 119q-78 82 -78 217z" />
<glyph unicode="&#x160;" d="M129 1085q0 203 129 320q127 115 358 115q109 0 205 -23q106 -25 205 -70v-288q-98 70 -192 102q-100 35 -195 35q-106 0 -163.5 -43t-57.5 -123q0 -63 41 -102q45 -43 174 -90l127 -48q172 -61 264 -176q86 -109 86 -274q0 -227 -133 -338t-404 -111q-117 0 -223 27 q-119 31 -215 78v305q123 -88 227 -125q113 -41 220 -41q109 0 170 49q59 47 59 139q0 66 -41 117q-45 55 -115 80l-145 55q-219 84 -301 179q-80 91 -80 251zM240 1899h178l198 -162l199 162h178l-223 -264h-309z" />
<glyph unicode="&#x161;" d="M172 805q0 163 117 252q119 90 329 90q86 0 189 -17q100 -16 184 -45v-256q-72 47 -168 78q-82 27 -176 27q-96 0 -147 -28.5t-51 -84.5q0 -82 215 -131l10 -2l84 -20q162 -37 235.5 -123t73.5 -228q0 -174 -113 -260q-115 -86 -342 -86q-111 0 -206 17q-100 16 -216 53 v256q104 -59 197 -84q104 -29 195 -29q106 0 155 29q53 31 54 88q0 55 -37 86q-35 29 -179 64l-81 18q-164 35 -244 119q-78 82 -78 217zM240 1638h178l198 -227l199 227h178l-256 -376h-241z" />
<glyph unicode="&#x162;" d="M367 -219q41 -16 88 -27q39 -8 77 -8q55 0 91 23q33 20 32 63q0 29 -20 68q-20 37 -68 100h140q53 -55 84 -115q29 -53 28 -100q0 -95 -61 -141q-59 -45 -189 -45q-49 0 -98 6q-37 4 -104 20v156zM90 1235v258h1053v-258h-379v-1235h-295v1235h-379z" />
<glyph unicode="&#x163;" d="M547 -219q41 -16 88 -27q39 -8 77 -8q55 0 91 23q33 20 32 63q0 29 -20 68q-20 37 -68 100h140q53 -55 84 -115q29 -53 28 -100q0 -95 -61 -141q-59 -45 -189 -45q-49 0 -98 6q-37 4 -104 20v156zM111 895v225h286v318h293v-318h383v-225h-383v-530q0 -74 37 -107 q35 -33 121 -33h225v-225h-246q-254 0 -342 80t-88 299v516h-286z" />
<glyph unicode="&#x164;" d="M90 1235v258h1053v-258h-379v-1235h-295v1235h-379zM234 1911h178l198 -162l199 162h178l-223 -264h-309z" />
<glyph unicode="&#x165;" d="M111 895v225h286v318h293v-318h383v-225h-383v-530q0 -74 37 -107q35 -33 121 -33h225v-225h-246q-254 0 -342 80t-88 299v516h-286zM834 1311l76 376h282l-161 -376h-197z" />
<glyph unicode="&#x166;" d="M90 1235v258h1053v-258h-379v-506h248v-190h-248v-539h-295v539h-248v190h248v506h-379z" />
<glyph unicode="&#x167;" d="M111 895v225h286v318h293v-318h383v-225h-383v-141h184v-193h-184v-196q0 -78 35 -107q35 -33 123 -33h225v-225h-246q-254 0 -342 80t-88 299v182h-178v193h178v141h-286z" />
<glyph unicode="&#x168;" d="M268 1635v30q0 109 54 170q55 66 143 66q37 0 74 -12q41 -14 75 -37l60 -39q18 -12 41 -21q25 -8 35 -8q37 0 55 31q20 35 20 86h140v-15q0 -4 -1 -9t-1 -7q0 -104 -53.5 -169.5t-141.5 -65.5q-35 0 -72 12q-43 14 -78 37l-55 35q-4 2 -10 6q-49 27 -74 26q-29 0 -51 -30 q-20 -29 -20 -80v-6h-140zM106 551v942h295v-1016q0 -113 57.5 -176t158 -63t157.5 63.5t57 175.5v1016h295v-942q0 -303 -120 -442q-119 -137 -390 -138q-266 0 -389 138q-121 135 -121 442z" />
<glyph unicode="&#x169;" d="M268 1309q0 139 51 211q53 74 146 73q29 0 72 -14q39 -12 77 -43l62 -43q14 -10 39 -23q16 -8 35 -8q37 0 55 31q20 35 20 90v8h140q0 -139 -52 -211q-53 -74 -145 -73q-35 0 -70 12q-31 10 -80 45l-55 37l-4 2q-4 2 -8 6q-45 29 -70 29q-37 0 -55 -31t-18 -90v-8h-140z M160 391v729h293v-684q0 -121 34 -174q33 -51 113 -51t123 70q45 74 45 196v643h293v-1120h-293v166q-29 -88 -106 -143q-72 -51 -179 -52q-160 0 -241.5 106.5t-81.5 313.5z" />
<glyph unicode="&#x16a;" d="M301 1681v189h631v-189h-631zM106 551v942h295v-1016q0 -113 57.5 -176t158 -63t157.5 63.5t57 175.5v1016h295v-942q0 -303 -120 -442q-119 -137 -390 -138q-266 0 -389 138q-121 135 -121 442z" />
<glyph unicode="&#x16b;" d="M301 1368v188h631v-188h-631zM160 391v729h293v-684q0 -121 34 -174q33 -51 113 -51t123 70q45 74 45 196v643h293v-1120h-293v166q-29 -88 -106 -143q-72 -51 -179 -52q-160 0 -241.5 106.5t-81.5 313.5z" />
<glyph unicode="&#x16c;" d="M106 551v942h295v-1016q0 -113 57.5 -176t158 -63t157.5 63.5t57 175.5v1016h295v-942q0 -303 -120 -442q-119 -137 -390 -138q-266 0 -389 138q-121 135 -121 442zM281 1898h141q20 -59 69.5 -89.5t125 -30.5t124.5 30q47 29 68 90h143q-14 -129 -102 -196 q-86 -68 -233.5 -68t-233.5 68q-88 67 -102 196z" />
<glyph unicode="&#x16d;" d="M160 391v729h293v-684q0 -121 34 -174q33 -51 113 -51t123 70q45 74 45 196v643h293v-1120h-293v166q-29 -88 -106 -143q-72 -51 -179 -52q-160 0 -241.5 106.5t-81.5 313.5zM281 1606h141q12 -70 61 -107t133 -37q82 0 131.5 37t61.5 107h143q-6 -141 -92 -220 q-88 -78 -243.5 -77.5t-243.5 77.5q-86 79 -92 220z" />
<glyph unicode="&#x16e;" d="M106 551v942h295v-1016q0 -113 57.5 -176t158 -63t157.5 63.5t57 175.5v1016h295v-942q0 -303 -120 -442q-119 -137 -390 -138q-266 0 -389 138q-121 135 -121 442zM336 1870q0 117 84 201t200.5 84t200.5 -84t84 -201t-84 -201t-200.5 -84t-200.5 84t-84 201zM489 1870 q0 -55 39 -92q43 -39 92 -39q53 0 92.5 39t39.5 92t-39 92t-92.5 39t-92.5 -39t-39 -92z" />
<glyph unicode="&#x16f;" d="M160 391v729h293v-684q0 -121 34 -174q33 -51 113 -51t123 70q45 74 45 196v643h293v-1120h-293v166q-29 -88 -106 -143q-72 -51 -179 -52q-160 0 -241.5 106.5t-81.5 313.5zM332 1534q0 117 84 201t200.5 84t200.5 -84t84 -201t-84 -201t-200.5 -84t-200.5 84t-84 201z M485 1534q0 -55 39 -92q43 -39 92 -39q53 0 92.5 39t39.5 92t-39 92t-92.5 39t-92.5 -39t-39 -92z" />
<glyph unicode="&#x170;" d="M106 551v942h295v-1016q0 -113 57.5 -176t158 -63t157.5 63.5t57 175.5v1016h295v-942q0 -303 -120 -442q-119 -137 -390 -138q-266 0 -389 138q-121 135 -121 442zM264 1634l199 264h285l-287 -264h-197zM639 1634l199 264h284l-286 -264h-197z" />
<glyph unicode="&#x171;" d="M160 391v729h293v-684q0 -121 34 -174q33 -51 113 -51t123 70q45 74 45 196v643h293v-1120h-293v166q-29 -88 -106 -143q-72 -51 -179 -52q-160 0 -241.5 106.5t-81.5 313.5zM297 1262l195 376h217l-248 -376h-164zM639 1262l215 376h231l-272 -376h-174z" />
<glyph unicode="&#x172;" d="M106 551v942h295v-1016q0 -113 57.5 -176t158 -63t157.5 63.5t57 175.5v1016h295v-942q0 -303 -120 -442q-119 -137 -390 -138q-266 0 -389 138q-121 135 -121 442zM434 -239q0 55 27 108q25 49 84 115h141q-51 -70 -71 -106q-18 -33 -19 -60q0 -39 31 -63.5t80 -24.5 q23 0 76 8q35 6 79 23v-156q-31 -6 -102 -16q-47 -6 -88 -6q-113 0 -176 47q-62 47 -62 131z" />
<glyph unicode="&#x173;" d="M160 391v729h293v-684q0 -121 34 -174q33 -51 113 -51t123 70q45 74 45 196v643h293v-1120h-293v166q-29 -88 -106 -143q-72 -51 -179 -52q-160 0 -241.5 106.5t-81.5 313.5zM800 -223q0 55 27 108q25 49 84 115h141q-51 -70 -71 -106q-18 -33 -19 -60q0 -39 31 -63.5 t80 -24.5q23 0 76 8q35 6 79 23v-156q-31 -6 -102 -16q-47 -6 -88 -6q-113 0 -176 47q-62 47 -62 131z" />
<glyph unicode="&#x174;" d="M240 1643l221 264h309l223 -264h-178l-199 161l-198 -161h-178zM0 1493h258l107 -1096l129 709h245l150 -709l84 1096h260l-172 -1493h-275l-170 784l-159 -784h-273z" />
<glyph unicode="&#x175;" d="M240 1268l256 376h241l256 -376h-178l-199 225l-198 -225h-178zM0 1120h244l133 -858l121 565h237l119 -565l135 858h244l-203 -1120h-278l-136 582l-135 -582h-278z" />
<glyph unicode="&#x176;" d="M240 1643l221 264h309l223 -264h-178l-199 161l-198 -161h-178zM8 1493h318l290 -600l291 600h318l-461 -905v-588h-295v588z" />
<glyph unicode="&#x177;" d="M240 1268l256 376h241l256 -376h-178l-199 225l-198 -225h-178zM59 1120h308l256 -727l245 727h308l-465 -1241q-59 -158 -142 -231q-80 -72 -200 -72h-242v223h119q90 0 133 31q41 29 84 141l22 60z" />
<glyph unicode="&#x178;" d="M8 1493h318l290 -600l291 600h318l-461 -905v-588h-295v588zM301 1653v246h236v-246h-236zM696 1653v246h236v-246h-236z" />
<glyph unicode="&#x179;" d="M500 1637l199 264h284l-286 -264h-197zM115 0v244l671 989h-649v260h1010v-244l-692 -989h706v-260h-1046z" />
<glyph unicode="&#x17a;" d="M467 1268l283 376h282l-368 -376h-197zM162 0v229l590 672h-566v219h895v-229l-589 -672h589v-219h-919z" />
<glyph unicode="&#x17b;" d="M115 0v244l671 989h-649v260h1010v-244l-692 -989h706v-260h-1046zM528 1653v245h275v-245h-275z" />
<glyph unicode="&#x17c;" d="M162 0v229l590 672h-566v219h895v-229l-589 -672h589v-219h-919zM479 1339v246h275v-246h-275z" />
<glyph unicode="&#x17d;" d="M115 0v244l671 989h-649v260h1010v-244l-692 -989h706v-260h-1046zM240 1899h178l198 -162l199 162h178l-223 -264h-309z" />
<glyph unicode="&#x17e;" d="M162 0v229l590 672h-566v219h895v-229l-589 -672h589v-219h-919zM240 1638h178l198 -227l199 227h178l-256 -376h-241z" />
<glyph unicode="&#x17f;" d="M174 895v225h272v78q0 203 84 280.5t312 77.5h241v-225h-229q-66 0 -90 -24q-20 -20 -25 -88v-1219h-293v895h-272z" />
<glyph unicode="&#x180;" d="M12 1270v164h138v122h292v-122h297v-164h-297v-309q57 94 125 139q72 47 162 47q199 0 307 -152q106 -150 107 -436q0 -283 -107 -434q-106 -154 -297 -154q-102 0 -176 49q-76 51 -121 146v-166h-292v1270h-138zM442 557q0 -162 55.5 -254t149.5 -92t150 92 q53 88 53 254t-53 254q-55 92 -149.5 92t-150 -92t-55.5 -254z" />
<glyph unicode="&#x181;" d="M0 1077v60q0 203 84 280.5t311 77.5h277q248 0 372 -94q127 -96 127 -283q0 -145 -73 -225q-76 -82 -217 -94q172 -18 256 -115q88 -100 88 -274q0 -213 -131 -314q-127 -96 -422 -96h-330v1217q-68 0 -92.5 -25t-24.5 -88v-27h-225zM627 236h45q141 0 196 49 q57 51 58 166q0 121 -59.5 174t-194.5 53h-45v-442zM627 913h45q115 0 159 39q47 41 48 133q0 90 -50 134q-47 41 -157 41h-45v-347z" />
<glyph unicode="&#x182;" d="M162 0v1493h930v-260h-635v-299h110q309 0 444.5 -110.5t135.5 -356.5t-135 -356.5t-445 -110.5h-405zM457 248h121q147 0 204.5 49t57.5 170t-57.5 170t-204.5 49h-121v-438z" />
<glyph unicode="&#x183;" d="M150 0v1556h798v-208h-506v-387q106 186 287 186q203 0 309 -156q104 -152 105 -432q0 -283 -107 -434q-106 -154 -297 -154q-205 0 -297 195v-166h-292zM442 557q0 -162 55.5 -254t149.5 -92t150 92q53 88 53 254t-53 254q-55 92 -149.5 92t-150 -92t-55.5 -254z" />
<glyph unicode="&#x184;" d="M43 1067l457 426v-559h110q309 0 444.5 -110.5t135.5 -356.5t-135 -356.5t-445 -110.5h-405v934zM500 248h121q145 0 204 49q57 49 57.5 170t-57.5 170q-59 49 -204 49h-121v-438z" />
<glyph unicode="&#x185;" d="M45 1067l442 489v-595q57 94 125 139q72 47 162 47q199 0 307 -152q106 -150 107 -436q0 -283 -107 -434q-106 -154 -297 -154q-102 0 -176 49q-76 51 -121 146v-166h-292v934zM487 557q0 -162 55.5 -254t149.5 -92t150 92q53 88 53 254t-53 254q-55 92 -149.5 92 t-150 -92t-55.5 -254z" />
<glyph unicode="&#x186;" d="M152 43v328q72 -66 147 -103q68 -33 147 -32q163 0 246 129q82 127 82 380.5t-82 380.5q-83 129 -246 129q-80 0 -147 -32q-76 -37 -147 -103v328q59 33 147 53q78 18 162 19q301 0 460.5 -199t159.5 -575.5t-159.5 -575.5t-460.5 -199q-84 0 -162 19q-84 20 -147 53z " />
<glyph unicode="&#x187;" d="M152 745q0 549 325 711q125 63 295 64q47 0 92 -7q90 129 318 129h96v-225h-14q-94 0 -142 -53q-41 -47 -41 -188v-56q-147 135 -295 135q-163 0 -245 -129q-82 -127 -82 -381q0 -479 289 -507q12 -2 38 -2q147 0 295 135v-328q-143 -72 -309 -72q-301 0 -460.5 198.5 t-159.5 575.5z" />
<glyph unicode="&#x188;" d="M168 559q0 276 147 434q147 156 406 156q37 0 53 -2q14 213 88 301q90 109 299 108h121v-225h-39q-92 0 -139 -55q-35 -45 -41 -186l-2 -27v-268q-133 115 -299 114q-172 0 -246 -127q-51 -84 -51 -223q0 -268 186 -332q47 -16 111 -16q166 0 299 115v-269 q-147 -86 -342 -86q-258 0 -406 156q-145 153 -145 432z" />
<glyph unicode="&#x189;" d="M0 664v237h137v592h316q369 0 528 -174q160 -175 160 -571.5t-160 -571.5q-160 -176 -528 -176h-316v664h-137zM432 266h80q176 0 248 109q74 111 74 373q0 264 -74 370q-74 109 -248 109h-80v-326h211v-237h-211v-398z" />
<glyph unicode="&#x18a;" d="M-29 1065v76q0 151 49 221q74 109 211 127q33 4 52 4h235q367 0 526 -174q162 -178 162 -571.5t-162 -571.5q-160 -176 -526 -176h-235v1206q-29 0 -41 -39q-14 -49 -15 -80v1v-1v-1v-1v-20h-256zM578 266q176 0 247 109q74 111 74 373q0 264 -74 370q-74 109 -247 109 v-961z" />
<glyph unicode="&#x18b;" d="M125 410v18q2 174 76 256q2 2 9 11.5l13 17.5l43 51q141 147 412 149h196v347h-667v233h952v-1493h-481q-295 0 -422 96q-131 101 -131 314zM424 451q0 -115 57 -166q55 -49 197 -49h196v442h-196q-135 0 -194.5 -53t-59.5 -174z" />
<glyph unicode="&#x18c;" d="M150 559q0 281 104 432q106 156 309 156q182 0 289 -186v387h-508v208h799v-1556h-291v166q-92 -195 -297 -195q-190 0 -299 154q-106 151 -106 434zM442 557q0 -162 55.5 -254t147.5 -92q96 0 151.5 92t55.5 254t-55.5 254t-151.5 92q-92 0 -147.5 -92t-55.5 -254z" />
<glyph unicode="&#x18d;" d="M96 559q0 270 142 430q139 158 378 158q238 0 377 -158q141 -160 142 -430q0 -264 -142 -430q-63 -74 -88 -76q145 -66 146 -215q0 -135 -127 -213q-125 -76 -349 -76q-100 0 -184 13q-2 0 -4 1t-4 1q-43 4 -154 33v215l13.5 -4.5l13.5 -4.5q94 -31 133 -36 q94 -16 170 -17q104 0 164 35l20 14q35 25 35 70q0 102 -162 102q-240 0 -378 158q-142 160 -142 430zM389 559q0 -166 61.5 -258t165.5 -92q102 0 164 92t62 258t-61.5 258t-164.5 92q-104 0 -165.5 -92t-61.5 -258z" />
<glyph unicode="&#x18e;" d="M168 0v260h635v391h-576v260h576v322h-635v260h930v-1493h-930z" />
<glyph unicode="&#x18f;" d="M92 745v95h739v6q0 188 -55 298.5t-174 110.5q-80 0 -147 -32q-76 -37 -148 -103v328q63 33 148 53q78 18 161 19q260 0 392 -197q133 -199 133 -577.5t-133 -577.5q-131 -197 -391.5 -197t-391.5 197q-133 198 -133 577zM406 580q12 -176 63 -260t149 -84q102 0 148 88 q47 90 61 256h-421z" />
<glyph unicode="&#x190;" d="M125 416q0 162 84 262q84 98 244 127q-139 25 -217 110q-76 84 -76 218q0 180 133 284q129 102 366 103q84 0 193 -17q88 -12 203 -47v-268q-106 41 -199 61q-90 20 -180 21q-106 0 -170 -47q-61 -46 -62 -129q0 -80 61.5 -123t170.5 -43h158v-260h-158q-127 0 -199 -62 q-70 -61 -69 -178q0 -94 69 -149q71 -55 191 -56q123 0 229 25q104 25 203 71v-274q-104 -37 -209 -55q-111 -18 -223 -19q-264 0 -403.5 115t-139.5 330z" />
<glyph unicode="&#x191;" d="M109 -199q104 0 145 56q37 49 37 186v125v1325h833v-260h-538v-322h481v-260h-481v-483v-125v-43q-8 -213 -92 -315q-90 -109 -299 -109h-86v225z" />
<glyph unicode="&#x192;" d="M90 -199h236q100 0 139 56q41 57 41 186v852h-273v225h273v78q0 203 84 280.5t311 77.5h242v-225h-230q-113 0 -114 -112v-99h344v-225h-344v-895q-6 -215 -90 -315q-92 -109 -301 -109h-318v225z" />
<glyph unicode="&#x193;" d="M39 745q0 541 319 707q129 68 299 68q59 0 121 -13q4 6 21 29q88 106 299 106h96v-225h-14q-94 0 -142 -53q-41 -47 -41 -188v-82l-2 4q-127 158 -315 157q-315 0 -334 -454q0 -10 -1 -28.5t-1 -27.5q0 -412 213 -491q45 -18 100 -18q90 0 136 34v285h-201v248h459v-684 q-172 -147 -408 -148q-291 0 -446 201q-158 204 -158 573z" />
<glyph unicode="&#x194;" d="M33 1493h321l262 -481l261 481h323l-397 -731q205 -375 209 -776q2 -135 -98.5 -205t-303.5 -72q-401 -6 -405 277q-4 352 225 776zM473 127q0 -127 137 -127q139 0 140 129q0 154 -134 381q-145 -270 -143 -383zM616 510z" />
<glyph unicode="&#x195;" d="M12 0v1556h232v-604q25 90 86 144q59 51 143 51q129 0 193 -105q66 -109 65 -315v-266q4 -174 8 -182q27 -51 58 -48l12 2q88 12 131 97q49 96 49 229v377h232v-367q4 -256 -101 -411q-98 -156 -258 -158l-88 -2q-135 -4 -205 119q-72 127 -71 344v266q-2 76 -29 127 q-29 53 -88 53q-63 0 -100 -71q-37 -70 -37 -195v-641h-232z" />
<glyph unicode="&#x196;" d="M172 1233h297v-770q0 -224 111 -344q109 -119 315 -119h233v260h-186q-102 0 -139 47q-39 49 -39 189v737h297v260h-889v-260z" />
<glyph unicode="&#x197;" d="M172 0v260h297v279h-248v190h248v504h-297v260h889v-260h-297v-504h248v-190h-248v-279h297v-260h-889z" />
<glyph unicode="&#x198;" d="M20 0v1493h295v-590l256 328q172 219 308 248q133 25 270 -86l63 -52l-139 -176q-76 61 -145 45q-53 -12 -164 -149l-125 -156l489 -905h-327l-355 672l-131 -166v-506h-295z" />
<glyph unicode="&#x199;" d="M174 0v965v125q0 254 90 358q90 109 301 108h121v-225h-39q-98 0 -141 -55q-41 -53 -41 -186h2v-351l352 381h355l-424 -418l448 -702h-324l-307 524l-100 -96v-428h-293z" />
<glyph unicode="&#x19a;" d="M90 1331v225h590v-802h10h184v-193h-184h-10v-94q0 -129 41 -186q41 -55 139 -56h234v-225h-316q-209 0 -301 109q-90 104 -90 358v94h-168v193h168v577h-297z" />
<glyph unicode="&#x19b;" d="M80 0l362 965l-28 69l-211 -149l-101 162l236 165l-148 344h297l78 -182l203 144l102 -160l-229 -164l512 -1194h-297l-256 596l-223 -596h-297z" />
<glyph unicode="&#x19c;" d="M82 489v1004h240v-1092q0 -121 20 -168q18 -41 67.5 -40.5t69.5 43.5q20 41 21 165v1092h237v-1092q0 -125 21 -165q20 -43 69 -43q51 0 70 40q18 43 18 168v1092h240v-1493h-213v117q-25 -65 -80 -105q-53 -39 -123 -39q-68 0 -125 41q-55 40 -67 99q-37 -76 -84 -107 q-51 -33 -125 -33q-145 0 -201 101q-55 102 -55 415z" />
<glyph unicode="&#x19d;" d="M31 -201h59q59 0 103 74q18 29 18 168v1452h315l416 -1085v1085h260v-1493h-313l-420 1085v-1085q-10 -285 -158 -375q-82 -51 -233 -51h-47v225z" />
<glyph unicode="&#x19e;" d="M172 0v1120h291v-168q29 88 106 144q72 51 181 51q160 0 239 -105q82 -106 82 -315v-1153h-291v1108q0 121 -34.5 174t-112.5 53t-125 -71q-45 -70 -45 -197v-641h-291z" />
<glyph unicode="&#x19f;" d="M92 745q0 629 348 748q78 27 176 27q260 0 392 -197q133 -199 133 -578q0 -641 -365 -751q-78 -23 -160 -23q-369 0 -479 391q-45 156 -45 383zM401 651q9 -200 50 -295q53 -121 165.5 -120.5t165.5 120.5q40 92 49 295h-430zM406 911h421q-18 199 -75 277 q-51 68 -136 67q-145 0 -192 -215q-9 -49 -18 -129z" />
<glyph unicode="&#x1a0;" d="M828 1237v141q76 -55 104 -69q37 -18 62 -19q41 0 63 29q25 31 25 80q0 23 -8 75q-6 35 -23 80h156q6 -31 16 -102q6 -45 6 -88q0 -113 -47 -176q-45 -61 -131 -62q-53 0 -107 27q-59 31 -116 84zM4 745.5q0 378.5 133 577.5q131 197 391.5 197t391.5 -197 q133 -199 133 -577.5t-133 -577.5q-131 -197 -391.5 -197t-391.5 197q-133 199 -133 577.5zM311 745.5q0 -272.5 52 -389.5q53 -121 165.5 -120.5t165.5 120.5q51 117 51.5 389.5t-51.5 389.5q-53 121 -165.5 120.5t-165.5 -120.5q-52 -117 -52 -389.5z" />
<glyph unicode="&#x1a1;" d="M824 850v141q76 -55 104 -69q37 -18 62 -19q41 0 63 29q25 31 25 80q0 23 -8 75q-6 35 -23 80h156q6 -31 16 -102q6 -45 6 -88q0 -113 -47 -176q-45 -61 -131 -62q-53 0 -107 27q-59 31 -116 84zM10 559q0 272 139.5 430t379 158t379 -158t139.5 -430t-139.5 -430 t-379 -158t-379 158t-139.5 430zM303 559q0 -170 60 -258q61 -92 165.5 -92t165.5 92q59 88 59.5 258t-59.5 258q-61 92 -165.5 92t-165.5 -92q-60 -88 -60 -258z" />
<glyph unicode="&#x1a2;" d="M31 745q0 639 323 752q72 23 148 23q209 0 325 -154l93 127h282v-1493h-233v1137l-115 -160v-809q-121 -197 -352 -197q-330 0 -432 391q-39 156 -39 383zM305 745q0 -352 86 -456q43 -53 111 -53q102 0 149 120v779q-47 121 -149 120q-143 0 -180 -243 q-17 -111 -17 -267z" />
<glyph unicode="&#x1a3;" d="M18 559q0 272 139.5 430t379.5 158q154 0 282 -123l131 100h283v-1550h-234v1231l-147 -115v-561q-139 -158 -315 -158q-240 0 -379.5 158t-139.5 430zM311 559q0 -170 60 -258q61 -92 166 -92q41 0 102 92v514q-63 94 -102 94q-104 0 -166 -92q-60 -88 -60 -258z" />
<glyph unicode="&#x1a4;" d="M20 1065v76q0 154 48 221q74 109 211 127q33 4 51 4h303q309 0 444 -110.5t135 -356.5t-135 -356.5t-444 -110.5h-8v-559h-295v1206q-27 0 -39 -39q-16 -55 -17 -80v-22h-254zM625 807h18q147 0 204.5 49t57.5 170t-57 170t-205 49h-18v-438z" />
<glyph unicode="&#x1a5;" d="M150 -426l2 1489h-2l2 27q8 258 90 358q90 109 301 108h121v-225h-39q-95 0 -142 -55q-35 -45 -41 -186v-138q92 195 297 195q190 0 297 -154q106 -152 107 -434q0 -426 -232 -547q-76 -41 -182 -41q-180 0 -287 187v-584h-292zM442 561q0 -162 55.5 -254t149.5 -92 t150 92q53 88 53 254t-53 254q-55 92 -149.5 92t-150 -92t-55.5 -254z" />
<glyph unicode="&#x1a6;" d="M133 0v1493h295v-238h131q287 0 414 -102q125 -100 125 -332q0 -154 -74 -246q-72 -90 -217 -108q43 -8 78 -41q25 -25 78 -127l270 -537h-324l-180 377l-20 43q-80 170 -187 170h-94v-352h-295zM428 600h139q121 0 174 47q51 45 52 158q0 111 -52 156q-53 47 -174 47 h-139v-408z" />
<glyph unicode="&#x1a7;" d="M129 420q0 170 84 274q90 115 266 176l127 48q129 47 174 90q41 39 41 102q0 80 -57 123q-59 43 -164 43q-94 0 -194 -35q-94 -33 -193 -102v288q98 45 205 70q96 23 205 23q231 0 358 -115q129 -117 129 -320q0 -160 -80 -251q-82 -94 -301 -179l-145 -55 q-70 -25 -115 -80q-41 -51 -41 -117q0 -92 59 -139q61 -49 170 -49q104 0 217 41q109 39 230 125v-305q-96 -47 -215 -78q-106 -27 -223 -27q-272 0 -404 111q-133 111 -133 338z" />
<glyph unicode="&#x1a8;" d="M172 317q0 141 73.5 227.5t235.5 123.5l84 20l10 2q215 49 216 131q0 55 -51.5 84t-147.5 29q-94 0 -176 -27q-96 -31 -168 -78v256q84 29 184 45q102 16 189 17q211 0 329 -90q117 -89 117 -252q0 -135 -78 -217q-80 -84 -244 -119l-81 -18q-143 -35 -179 -64 q-37 -31 -36 -86q0 -57 53 -88q49 -29 155 -29q90 0 195 29q92 25 197 84v-256q-115 -37 -215 -53q-96 -16 -207 -17q-229 0 -342 86t-113 260z" />
<glyph unicode="&#x1a9;" d="M98 0h1047v260h-707l402 488l-402 485h707v260h-1047v-258l402 -487l-402 -488v-260z" />
<glyph unicode="&#x1aa;" d="M59 1264q-2 141 72 213.5t225 76.5v2h52q209 0 301 -108q76 -92 88 -250h137q45 0 102.5 -1t69.5 -1v-209h-168h-139v-1073q0 -63 24.5 -88t89.5 -25h230v-225h-242q-227 0 -311 78t-84 280v1053h-135q-310 1 -312 277zM264 1274q0 -78 107 -78h125q-14 59 -31 80 q-39 55 -137 55q-64 -6 -64 -57zM328 1331h28h-28z" />
<glyph unicode="&#x1ab;" d="M111 895v225h286v318h293v-318h383v-225h-383v-530q0 -74 37 -107q35 -33 121 -33h225v-182v-43h-2q-6 -217 -90 -315q-90 -109 -301 -109h-121v225h39q98 0 141 56q33 41 39 143q-209 6 -293 80q-88 80 -88 299v516h-286z" />
<glyph unicode="&#x1ac;" d="M20 1065h256v45q6 74 33 107q16 20 62 20h18l80 -2v-1235h295v1235h379v258l-754 2q27 -3 1 -4h-56q-123 0 -213 -78q-33 -27 -51 -51q-49 -63 -50 -221v-76z" />
<glyph unicode="&#x1ad;" d="M111 895v225h288q0 223 90 328q82 96 259 106q6 0 20 1t23 1h120v-225h-39q-98 0 -141 -55q-41 -53 -41 -156h383v-225h-383v-530q0 -74 37 -107q35 -33 121 -33h225v-225h-246q-254 0 -342 80t-88 299v516h-286z" />
<glyph unicode="&#x1ae;" d="M90 1235v258h1053v-258h-379v-1194q0 -133 43 -188q41 -53 139 -54h39v-225h-127q-209 0 -295 104q-88 106 -94 322v1235h-379z" />
<glyph unicode="&#x1af;" d="M828 1237v141q76 -55 104 -69q37 -18 62 -19q41 0 63 29q25 31 25 80q0 23 -8 75q-6 35 -23 80h156q6 -31 16 -102q6 -45 6 -88q0 -113 -47 -176q-45 -61 -131 -62q-53 0 -107 27q-59 31 -116 84zM6 551v942h295v-1016q0 -113 57.5 -176t158 -63t157.5 63.5t57 175.5 v1016h295v-942q0 -303 -120 -442q-119 -137 -390 -138q-266 0 -389 138q-121 135 -121 442z" />
<glyph unicode="&#x1b0;" d="M824 850v141q76 -55 104 -69q37 -18 62 -19q41 0 63 29q25 31 25 80q0 23 -8 75q-6 35 -23 80h156q6 -31 16 -102q6 -45 6 -88q0 -113 -47 -176q-45 -61 -131 -62q-53 0 -107 27q-59 31 -116 84zM8 391v729h293v-684q0 -121 34 -174q33 -51 113 -51t123 70q45 74 45 196 v643h293v-1120h-293v166q-29 -88 -106 -143q-72 -51 -179 -52q-160 0 -241.5 106.5t-81.5 313.5z" />
<glyph unicode="&#x1b1;" d="M90 1249v211h471v-268q-82 -82 -121 -196.5t-39 -282.5q0 -209 58 -330q55 -117 157 -117q104 0 159.5 117t55.5 330q0 168 -38.5 284.5t-122.5 194.5v268h473v-211h-238q117 -104 174 -245q53 -131 54 -326q0 -309 -140 -496q-137 -182 -374.5 -182t-376.5 182 q-141 184 -142 496q0 195 54 326q57 141 174 245h-238z" />
<glyph unicode="&#x1b2;" d="M117 1233v260h295v-997q0 -139 39 -189q37 -47 139 -47q152 0 198 250q16 94 17 197q0 332 -162 481v55h236q117 -106 174 -244q53 -131 53 -325q0 -313 -139 -496q-135 -178 -424 -178q-254 0 -359 176q-66 113 -65 287z" />
<glyph unicode="&#x1b3;" d="M2 1493h303l277 -600l96 211q147 319 188 348q133 92 303 14l62 -26l-64 -215q-33 18 -84 16q-47 -2 -149 -215l-207 -438v-588h-295v588z" />
<glyph unicode="&#x1b4;" d="M29 1120h293l243 -727l113 350q94 285 172 340q84 59 301 23l53 -10l-59 -215q-94 33 -141 -45q-39 -68 -76 -172l-279 -785q-106 -303 -342 -303h-241v223h118q90 0 133 31q41 29 84 141l23 60z" />
<glyph unicode="&#x1b5;" d="M115 0v244l198 295h-92v190h223l342 504h-649v260h1010v-244l-363 -520h228v-190h-363l-194 -279h706v-260h-1046z" />
<glyph unicode="&#x1b6;" d="M158 0v229l182 209h-111v195h283l236 268h-568v219h895v-229l-225 -258h154v-195h-324l-193 -219h588v-219h-917z" />
<glyph unicode="&#x1b7;" d="M10 438h318q0 -106 98 -164q70 -41 166 -41q236 0 276 148q8 25 9 57q0 178 -226 203q-45 4 -71 4h-256v219l372 369h-567v260h1012v-244l-402 -401q137 -8 224 -33q106 -31 180 -131q80 -111 80 -258q0 -283 -242 -391q-139 -63 -358 -64q-336 0 -469 117 q-144 129 -144 350z" />
<glyph unicode="&#x1b8;" d="M10 426q0 141 72 244q78 113 188 145q86 25 224 33l-402 401v244h1012v-260h-567l372 -369v-219h-256q-297 0 -297 -207q0 -137 140 -184q59 -20 145 -21q141 0 215 78q49 53 49 127h318q0 -221 -144 -350q-133 -117 -469 -117q-457 0 -567 275q-33 86 -33 180z" />
<glyph unicode="&#x1b9;" d="M111 12q0 145 69 246q76 111 191 145q86 25 223 33l-391 455v229h895v-219h-566l390 -448v-220h-168q-150 0 -222 -51q-76 -53 -75 -155q0 -100 73 -152q76 -53 211 -53q90 0 189 28q104 31 192 80v-297q-102 -37 -204 -55q-104 -18 -207 -18q-295 0 -449 116 q-151 113 -151 336z" />
<glyph unicode="&#x1ba;" d="M131 -127q0 143 90 209q72 55 352 92l60 8q100 12 127 29q37 18 37 55q0 43 -47 66q-47 20 -299 20h-211l485 549h-594v219h967v-219l-305 -354q117 -18 188 -66q117 -72 117 -221q0 -137 -92 -205q-89 -65 -320 -92l-59 -6q-106 -12 -138 -31q-35 -18 -34 -57 q0 -49 51 -74q45 -23 149 -22q115 0 217 20q98 20 207 66v-228q-127 -31 -229 -43q-106 -14 -219 -14q-242 0 -375 76q-125 73 -125 223z" />
<glyph unicode="&#x1bb;" d="M115 0v252l159 170l111 117h-164v190h340l60 66q76 88 108.5 153.5t32.5 130.5q0 100 -60 154q-61 55 -172 55q-80 0 -178 -31q-96 -31 -205 -92v275q94 35 209 59q96 20 197 21q238 0 373 -111t135 -301q0 -94 -29 -166q-29 -70 -102 -170q-31 -37 -35 -43h117v-190 h-248h-53l-72 -72l-205 -207h629v-260h-948z" />
<glyph unicode="&#x1bc;" d="M10 438h318q0 -94 80 -151q76 -53 184 -54q135 0 211 54q74 53 74 151q0 102 -76 156q-72 51 -221 51h-103h-153h-142v848h930v-260h-635v-352h262q113 0 256 -66q78 -33 156 -145q72 -102 72 -244q0 -225 -154 -338q-154 -117 -446 -117q-336 0 -469 117 q-144 129 -144 350z" />
<glyph unicode="&#x1bd;" d="M111 -70q96 -53 192 -80q102 -29 189 -28q135 0 210 53q74 51 74 152q0 102 -76 155q-72 51 -221 51h-168h-90v887h801v-209h-510v-458h109q137 0 256 -50q104 -43 176 -145q70 -102 69 -246q0 -223 -151 -336q-154 -117 -449 -116q-102 0 -207 18q-102 18 -204 55v297z " />
<glyph unicode="&#x1be;" d="M145 1077v195h215h5v166h321v-166h234v-195h-234v-49q168 -31 260 -125q141 -144 141 -375q0 -217 -118 -348q-188 -211 -406 -211q-162 0 -235 19q-70 16 -142 53v297q70 -43 140 -64q74 -23 143 -22q162 0 252 115q51 63 51 161q0 72 -51 148q-76 113 -272 112h-84v289 h-220z" />
<glyph unicode="&#x1bf;" d="M82 -426v1546h313v-166q80 115 154 150q92 43 262 43q178 0 248 -113q80 -125 80 -266q0 -416 -744 -899v-295h-313zM395 145q418 335 418 498q0 114 -49 178q-49 66 -162 66q-78 0 -207 -203v-539z" />
<glyph unicode="&#x1c0;" d="M483 0v1493h267v-1493h-267z" />
<glyph unicode="&#x1c1;" d="M712 0v1493h267v-1493h-267zM254 0v1493h267v-1493h-267z" />
<glyph unicode="&#x1c2;" d="M74 455v235h409v221h-409v236h409v346h267v-346h409v-236h-409v-221h409v-235h-409v-455h-267v455h-409z" />
<glyph unicode="&#x1c3;" d="M483 0v283h267v-283h-267zM483 838v655h267v-655l-33 -357h-199z" />
<glyph unicode="&#x1cd;" d="M33 0l403 1493h361l403 -1493h-295l-92 369h-395l-90 -369h-295zM477 612h279l-140 611zM240 1899h178l198 -162l199 162h178l-223 -264h-309z" />
<glyph unicode="&#x1ce;" d="M94 354q0 197 127 289q129 94 393 94h203v49q0 70 -51 107q-53 37 -152 37q-111 0 -204 -27q-104 -29 -205 -84v250q104 43 196 59q102 18 213 19q272 0 383 -110.5t111 -397.5v-639h-291v125q-53 -76 -135 -115q-80 -39 -184 -39q-190 0 -297 100.5t-107 282.5zM406 340 q0 -76 45 -121t122 -45q115 0 181 88q63 84 63 244v20h-117q-164 0 -229 -43t-65 -143zM240 1638h178l198 -227l199 227h178l-256 -376h-241z" />
<glyph unicode="&#x1cf;" d="M172 0v260h297v973h-297v260h889v-260h-297v-973h297v-260h-889zM240 1899h178l198 -162l199 162h178l-223 -264h-309z" />
<glyph unicode="&#x1d0;" d="M143 0v225h365v670h-287v225h580v-895h364v-225h-1022zM240 1638h178l198 -227l199 227h178l-256 -376h-241z" />
<glyph unicode="&#x1d1;" d="M92 745.5q0 378.5 133 577.5q131 197 391.5 197t391.5 -197q133 -199 133 -577.5t-133 -577.5q-131 -197 -391.5 -197t-391.5 197q-133 199 -133 577.5zM399 745.5q0 -272.5 52 -389.5q53 -121 165.5 -120.5t165.5 120.5q51 117 51.5 389.5t-51.5 389.5 q-53 121 -165.5 120.5t-165.5 -120.5q-52 -117 -52 -389.5zM240 1899h178l198 -162l199 162h178l-223 -264h-309z" />
<glyph unicode="&#x1d2;" d="M98 559q0 272 139.5 430t379 158t379 -158t139.5 -430t-139.5 -430t-379 -158t-379 158t-139.5 430zM391 559q0 -170 60 -258q61 -92 165.5 -92t165.5 92q59 88 59.5 258t-59.5 258q-61 92 -165.5 92t-165.5 -92q-60 -88 -60 -258zM240 1638h178l198 -227l199 227h178 l-256 -376h-241z" />
<glyph unicode="&#x1d3;" d="M106 551v942h295v-1016q0 -113 57.5 -176t158 -63t157.5 63.5t57 175.5v1016h295v-942q0 -303 -120 -442q-119 -137 -390 -138q-266 0 -389 138q-121 135 -121 442zM240 1899h178l198 -162l199 162h178l-223 -264h-309z" />
<glyph unicode="&#x1d4;" d="M160 391v729h293v-684q0 -121 34 -174q33 -51 113 -51t123 70q45 74 45 196v643h293v-1120h-293v166q-29 -88 -106 -143q-72 -51 -179 -52q-160 0 -241.5 106.5t-81.5 313.5zM240 1638h178l198 -227l199 227h178l-256 -376h-241z" />
<glyph unicode="&#x1d5;" d="M301 1526v246h236v-246h-236zM696 1526v246h236v-246h-236zM106 551v942h295v-1016q0 -113 57.5 -176t158 -63t157.5 63.5t57 175.5v1016h295v-942q0 -303 -120 -442q-119 -137 -390 -138q-266 0 -389 138q-121 135 -121 442zM301 1829v188h631v-188h-631z" />
<glyph unicode="&#x1d6;" d="M301 1683v188h631v-188h-631zM160 391v729h293v-684q0 -121 34 -174q33 -51 113 -51t123 70q45 74 45 196v643h293v-1120h-293v166q-29 -88 -106 -143q-72 -51 -179 -52q-160 0 -241.5 106.5t-81.5 313.5zM301 1339v246h236v-246h-236zM696 1339v246h236v-246h-236z" />
<glyph unicode="&#x1d7;" d="M106 551v942h295v-1016q0 -113 57.5 -176t158 -63t157.5 63.5t57 175.5v1016h295v-942q0 -303 -120 -442q-119 -137 -390 -138q-266 0 -389 138q-121 135 -121 442zM301 1526v246h236v-246h-236zM696 1526v246h236v-246h-236zM469 1801l199 264h284l-286 -264h-197z" />
<glyph unicode="&#x1d8;" d="M469 1678l283 376h282l-368 -376h-197zM160 391v729h293v-684q0 -121 34 -174q33 -51 113 -51t123 70q45 74 45 196v643h293v-1120h-293v166q-29 -88 -106 -143q-72 -51 -179 -52q-160 0 -241.5 106.5t-81.5 313.5zM301 1339v246h236v-246h-236zM696 1339v246h236v-246 h-236z" />
<glyph unicode="&#x1d9;" d="M106 551v942h295v-1016q0 -113 57.5 -176t158 -63t157.5 63.5t57 175.5v1016h295v-942q0 -303 -120 -442q-119 -137 -390 -138q-266 0 -389 138q-121 135 -121 442zM301 1526v246h236v-246h-236zM696 1526v246h236v-246h-236zM240 2065h178l198 -162l199 162h178 l-223 -264h-309z" />
<glyph unicode="&#x1da;" d="M240 2054h178l198 -227l199 227h178l-256 -376h-241zM160 391v729h293v-684q0 -121 34 -174q33 -51 113 -51t123 70q45 74 45 196v643h293v-1120h-293v166q-29 -88 -106 -143q-72 -51 -179 -52q-160 0 -241.5 106.5t-81.5 313.5zM301 1339v246h236v-246h-236zM696 1339 v246h236v-246h-236z" />
<glyph unicode="&#x1db;" d="M106 551v942h295v-1016q0 -113 57.5 -176t158 -63t157.5 63.5t57 175.5v1016h295v-942q0 -303 -120 -442q-119 -137 -390 -138q-266 0 -389 138q-121 135 -121 442zM301 1526v246h236v-246h-236zM696 1526v246h236v-246h-236zM283 2065h284l199 -264h-197z" />
<glyph unicode="&#x1dc;" d="M199 2054h282l283 -376h-197zM160 391v729h293v-684q0 -121 34 -174q33 -51 113 -51t123 70q45 74 45 196v643h293v-1120h-293v166q-29 -88 -106 -143q-72 -51 -179 -52q-160 0 -241.5 106.5t-81.5 313.5zM301 1339v246h236v-246h-236zM696 1339v246h236v-246h-236z" />
<glyph unicode="&#x1dd;" d="M92 535v118h760v11q0 127 -80 190q-76 61 -229 61q-96 0 -199 -28q-96 -27 -205 -92v268q98 41 207 63q102 20 225 21q283 0 430.5 -149.5t147.5 -434.5q0 -276 -143.5 -434t-389.5 -158q-249 0 -387 148q-137 146 -137 416zM387 432q4 -119 59 -174q59 -59 170 -59 q100 0 160 59t72 174h-461z" />
<glyph unicode="&#x1de;" d="M301 1556v246h236v-246h-236zM696 1556v246h236v-246h-236zM301 1829v188h631v-188h-631zM33 0l403 1493h361l403 -1493h-295l-92 369h-395l-90 -369h-295zM477 612h279l-140 611z" />
<glyph unicode="&#x1df;" d="M301 1683v188h631v-188h-631zM94 354q0 197 127 289q129 94 393 94h203v49q0 70 -51 107q-53 37 -152 37q-111 0 -204 -27q-104 -29 -205 -84v250q104 43 196 59q102 18 213 19q272 0 383 -110.5t111 -397.5v-639h-291v125q-53 -76 -135 -115q-80 -39 -184 -39 q-190 0 -297 100.5t-107 282.5zM406 340q0 -76 45 -121t122 -45q115 0 181 88q63 84 63 244v20h-117q-164 0 -229 -43t-65 -143zM301 1339v246h236v-246h-236zM696 1339v246h236v-246h-236z" />
<glyph unicode="&#x1e0;" d="M479 1557v245h275v-245h-275zM33 0l403 1493h361l403 -1493h-295l-92 369h-395l-90 -369h-295zM477 612h279l-140 611zM301 1829v188h631v-188h-631z" />
<glyph unicode="&#x1e1;" d="M94 354q0 197 127 289q129 94 393 94h203v49q0 70 -51 107q-53 37 -152 37q-111 0 -204 -27q-104 -29 -205 -84v250q104 43 196 59q102 18 213 19q272 0 383 -110.5t111 -397.5v-639h-291v125q-53 -76 -135 -115q-80 -39 -184 -39q-190 0 -297 100.5t-107 282.5zM406 340 q0 -76 45 -121t122 -45q115 0 181 88q63 84 63 244v20h-117q-164 0 -229 -43t-65 -143zM479 1339v246h275v-246h-275zM301 1683v188h631v-188h-631z" />
<glyph unicode="&#x1e2;" d="M444 1681v189h631v-189h-631zM0 0l358 1493h803v-260h-291v-311h260v-260h-260v-402h310v-260h-564v362h-282l-86 -362h-248zM389 598h227v635h-79z" />
<glyph unicode="&#x1e3;" d="M301 1368v188h631v-188h-631zM14 326q0 184 101 276q102 92 305 92h76v51q0 94 -39 140q-41 47 -115 47q-59 0 -125 -27q-70 -29 -141 -82v246q78 43 143 59q71 18 135 19q98 0 160 -31q66 -33 98 -96q27 59 95 94q63 33 157 33q176 0 250 -119t74 -422v-127h-451 q0 -143 49.5 -219t145.5 -76q63 0 121 29q61 31 118 88v-244q-49 -43 -112 -65q-59 -20 -146 -21q-109 0 -178 41q-74 43 -117 123q-41 -84 -106 -125q-63 -39 -164 -39q-162 0 -248 92.5t-86 262.5zM240 330q0 -70 32 -109q31 -37 93 -37q63 0 93.5 43t30.5 131v43v82h-73 q-90 0 -131 -39q-45 -40 -45 -114zM737 690h226v23q0 126 -25 172q-25 47 -88.5 47t-87.5 -47q-25 -46 -25 -172v-23z" />
<glyph unicode="&#x1e6;" d="M361 1899h178l198 -162l199 162h178l-223 -264h-309zM117 745q0 377 159.5 576t460.5 199q90 0 176 -25q88 -25 164 -74v-327q-61 80 -143 120.5t-176 40.5q-166 0 -250 -127t-84 -383q0 -250 80 -378q82 -131 233 -131q49 0 80 8q35 10 55 26v285h-202v248h460v-684 q-86 -74 -188 -111t-219 -37q-293 0 -449 201q-157 204 -157 573z" />
<glyph unicode="&#x1e7;" d="M220 1638h178l198 -227l199 227h178l-256 -376h-241zM98 571q0 266 113 422t303 156q98 0 170 -45q78 -49 119 -127v143h293v-1036q0 -270 -121 -389t-395 -119q-78 0 -183 14q-84 12 -182 41v269q82 -45 170 -68q90 -23 176 -22q123 0 182.5 59t59.5 182v121 q-41 -78 -115 -119q-70 -39 -172 -39q-193 0 -305.5 149.5t-112.5 407.5zM391 577.5q0 -149.5 58 -241.5q55 -90 147 -90q90 0 149 90q57 88 57.5 241.5t-57.5 241.5q-59 90 -149 90q-92 0 -147 -90q-58 -92 -58 -241.5z" />
<glyph unicode="&#x1e8;" d="M240 1899h178l198 -162l199 162h178l-223 -264h-309zM117 0v1493h295v-590l462 590h334l-471 -588l488 -905h-328l-354 672l-131 -166v-506h-295z" />
<glyph unicode="&#x1e9;" d="M240 1899h178l198 -162l199 162h178l-223 -264h-309zM174 0v1556h293v-817l352 381h355l-424 -418l448 -702h-324l-307 524l-100 -96v-428h-293z" />
<glyph unicode="&#x1ea;" d="M434 -239q0 55 27 108q25 49 84 115h141q-51 -70 -71 -106q-18 -33 -19 -60q0 -39 31 -63.5t80 -24.5q23 0 76 8q35 6 79 23v-156q-31 -6 -102 -16q-47 -6 -88 -6q-113 0 -176 47q-62 47 -62 131zM92 745.5q0 378.5 133 577.5q131 197 391.5 197t391.5 -197 q133 -199 133 -577.5t-133 -577.5q-131 -197 -391.5 -197t-391.5 197q-133 199 -133 577.5zM399 745.5q0 -272.5 52 -389.5q53 -121 165.5 -120.5t165.5 120.5q51 117 51.5 389.5t-51.5 389.5q-53 121 -165.5 120.5t-165.5 -120.5q-52 -117 -52 -389.5z" />
<glyph unicode="&#x1eb;" d="M434 -239q0 55 27 108q25 49 84 115h141q-51 -70 -71 -106q-18 -33 -19 -60q0 -39 31 -63.5t80 -24.5q23 0 76 8q35 6 79 23v-156q-31 -6 -102 -16q-47 -6 -88 -6q-113 0 -176 47q-62 47 -62 131zM98 559q0 272 139.5 430t379 158t379 -158t139.5 -430t-139.5 -430 t-379 -158t-379 158t-139.5 430zM391 559q0 -170 60 -258q61 -92 165.5 -92t165.5 92q59 88 59.5 258t-59.5 258q-61 92 -165.5 92t-165.5 -92q-60 -88 -60 -258z" />
<glyph unicode="&#x1ec;" d="M301 1681v189h631v-189h-631zM434 -239q0 55 27 108q25 49 84 115h141q-51 -70 -71 -106q-18 -33 -19 -60q0 -39 31 -63.5t80 -24.5q23 0 76 8q35 6 79 23v-156q-31 -6 -102 -16q-47 -6 -88 -6q-113 0 -176 47q-62 47 -62 131zM92 745.5q0 378.5 133 577.5 q131 197 391.5 197t391.5 -197q133 -199 133 -577.5t-133 -577.5q-131 -197 -391.5 -197t-391.5 197q-133 199 -133 577.5zM399 745.5q0 -272.5 52 -389.5q53 -121 165.5 -120.5t165.5 120.5q51 117 51.5 389.5t-51.5 389.5q-53 121 -165.5 120.5t-165.5 -120.5 q-52 -117 -52 -389.5z" />
<glyph unicode="&#x1ed;" d="M301 1368v188h631v-188h-631zM434 -239q0 55 27 108q25 49 84 115h141q-51 -70 -71 -106q-18 -33 -19 -60q0 -39 31 -63.5t80 -24.5q23 0 76 8q35 6 79 23v-156q-31 -6 -102 -16q-47 -6 -88 -6q-113 0 -176 47q-62 47 -62 131zM98 559q0 272 139.5 430t379 158t379 -158 t139.5 -430t-139.5 -430t-379 -158t-379 158t-139.5 430zM391 559q0 -170 60 -258q61 -92 165.5 -92t165.5 92q59 88 59.5 258t-59.5 258q-61 92 -165.5 92t-165.5 -92q-60 -88 -60 -258z" />
<glyph unicode="&#x1ee;" d="M240 1899h178l198 -162l199 162h178l-223 -264h-309zM10 438h318q0 -106 98 -164q70 -41 166 -41q236 0 276 148q8 25 9 57q0 178 -226 203q-45 4 -71 4h-256v219l372 369h-567v260h1012v-244l-402 -401q137 -8 224 -33q106 -31 180 -131q80 -111 80 -258 q0 -283 -242 -391q-139 -63 -358 -64q-336 0 -469 117q-144 129 -144 350z" />
<glyph unicode="&#x1ef;" d="M240 1638h178l198 -227l199 227h178l-256 -376h-241zM111 -70q88 -49 192 -80q98 -29 189 -28q135 0 210 53q74 51 74 152q0 102 -76 155q-72 51 -221 51h-168v220l389 448h-565v219h895v-229l-391 -455q137 -8 223 -33q115 -35 191 -145q70 -100 69 -246 q0 -223 -151 -336q-154 -117 -449 -116q-102 0 -207 18q-102 18 -204 55v297z" />
<glyph unicode="&#x1f0;" d="M256 1642h178l198 -227l199 227h178l-256 -376h-241zM143 -199h234q98 0 139 56q41 57 41 186v852h-297v225h590v-1077q0 -252 -90 -360q-88 -106 -301 -107h-316v225z" />
<glyph unicode="&#x1f4;" d="M590 1635l199 264h284l-286 -264h-197zM117 745q0 377 159.5 576t460.5 199q90 0 176 -25q88 -25 164 -74v-327q-61 80 -143 120.5t-176 40.5q-166 0 -250 -127t-84 -383q0 -250 80 -378q82 -131 233 -131q49 0 80 8q35 10 55 26v285h-202v248h460v-684 q-86 -74 -188 -111t-219 -37q-293 0 -449 201q-157 204 -157 573z" />
<glyph unicode="&#x1f5;" d="M449 1262l283 376h282l-368 -376h-197zM98 571q0 266 113 422t303 156q98 0 170 -45q78 -49 119 -127v143h293v-1036q0 -270 -121 -389t-395 -119q-78 0 -183 14q-84 12 -182 41v269q82 -45 170 -68q90 -23 176 -22q123 0 182.5 59t59.5 182v121q-41 -78 -115 -119 q-70 -39 -172 -39q-193 0 -305.5 149.5t-112.5 407.5zM391 577.5q0 -149.5 58 -241.5q55 -90 147 -90q90 0 149 90q57 88 57.5 241.5t-57.5 241.5q-59 90 -149 90q-92 0 -147 -90q-58 -92 -58 -241.5z" />
<glyph unicode="&#x1f6;" d="M25 0v1493h251v-569h222v569h252v-942v-74q0 -156 16 -188q23 -51 80 -51q68 0 90 59q20 53 20 180v447h252v-373q0 -307 -102 -442q-104 -137 -260 -138q-141 0 -246 138q-102 135 -102 442v113h-222v-664h-251z" />
<glyph unicode="&#x1f8;" d="M283 1899h284l199 -264h-197zM119 0v1493h317l416 -1085v1085h260v-1493h-315l-418 1085v-1085h-260z" />
<glyph unicode="&#x1f9;" d="M195 1640h282l283 -376h-197zM172 0v1120h291v-168q29 88 106 144q72 51 181 51q160 0 239 -105q82 -106 82 -315v-727h-291v682q0 121 -34.5 174t-112.5 53t-125 -71q-45 -70 -45 -197v-641h-291z" />
<glyph unicode="&#x1fc;" d="M688 1635l199 264h284l-286 -264h-197zM0 0l358 1493h803v-260h-291v-311h260v-260h-260v-402h310v-260h-564v362h-282l-86 -362h-248zM389 598h227v635h-79z" />
<glyph unicode="&#x1fd;" d="M469 1262l283 376h282l-368 -376h-197zM14 326q0 184 101 276q102 92 305 92h76v51q0 94 -39 140q-41 47 -115 47q-59 0 -125 -27q-70 -29 -141 -82v246q78 43 143 59q71 18 135 19q98 0 160 -31q66 -33 98 -96q27 59 95 94q63 33 157 33q176 0 250 -119t74 -422v-127 h-451q0 -143 49.5 -219t145.5 -76q63 0 121 29q61 31 118 88v-244q-49 -43 -112 -65q-59 -20 -146 -21q-109 0 -178 41q-74 43 -117 123q-41 -84 -106 -125q-63 -39 -164 -39q-162 0 -248 92.5t-86 262.5zM240 330q0 -70 32 -109q31 -37 93 -37q63 0 93.5 43t30.5 131v43v82 h-73q-90 0 -131 -39q-45 -40 -45 -114zM737 690h226v23q0 126 -25 172q-25 47 -88.5 47t-87.5 -47q-25 -46 -25 -172v-23z" />
<glyph unicode="&#x1fe;" d="M-6 51l168 238q-35 94 -53 203q-16 100 -17 253q0 379 133 578q131 197 391 197q104 0 186.5 -31t143.5 -92l113 162l162 -115l-158 -223q43 -100 59 -213q18 -119 19 -263q0 -379 -133 -577q-131 -197 -392 -197q-106 0 -190 33q-82 33 -150 100l-120 -167zM399 629 l373 524q-23 49 -65.5 75.5t-90.5 26.5q-113 0 -165 -120q-51 -117 -52 -379v-127zM451 354q25 -57 67.5 -87.5t97.5 -30.5q113 0 166 120q51 117 52 389v60q0 14 -5 84zM469 1635l199 264h284l-286 -264h-197z" />
<glyph unicode="&#x1ff;" d="M25 2l163 197q-47 74 -67 161q-23 94 -23 199q0 272 139.5 430t378.5 158q88 0 158 -21q74 -22 141 -67l148 176l139 -121l-160 -188q45 -74 70 -168q23 -84 23 -199q0 -272 -139.5 -430t-379.5 -158q-80 0 -159 23q-72 20 -142 67l-151 -178zM391 559q0 -43 2 -59l6 -51 l346 411q-23 23 -57 37q-31 12 -70 12q-106 0 -167 -92q-60 -88 -60 -258zM483 262q33 -31 64 -41q35 -12 71 -12q100 0 164 94q59 90 60 256q0 39 -2 57q-4 45 -9 60zM471 1262l283 376h282l-368 -376h-197z" />
<glyph unicode="&#x200;" d="M33 0l403 1493h361l403 -1493h-295l-92 369h-395l-90 -369h-295zM477 612h279l-140 611zM111 1898h284l199 -264h-197zM485 1898h285l199 -264h-197z" />
<glyph unicode="&#x201;" d="M94 354q0 197 127 289q129 94 393 94h203v49q0 70 -51 107q-53 37 -152 37q-111 0 -204 -27q-104 -29 -205 -84v250q104 43 196 59q102 18 213 19q272 0 383 -110.5t111 -397.5v-639h-291v125q-53 -76 -135 -115q-80 -39 -184 -39q-190 0 -297 100.5t-107 282.5zM406 340 q0 -76 45 -121t122 -45q115 0 181 88q63 84 63 244v20h-117q-164 0 -229 -43t-65 -143zM141 1638h232l215 -376h-174zM518 1638h217l195 -376h-162z" />
<glyph unicode="&#x202;" d="M33 0l403 1493h361l403 -1493h-295l-92 369h-395l-90 -369h-295zM477 612h279l-140 611zM281 1634h141q23 61 70 92q45 29 124.5 29t124.5 -28.5t68 -92.5h143q-14 129 -102 197q-86 68 -233.5 67.5t-233.5 -67.5q-88 -68 -102 -197z" />
<glyph unicode="&#x203;" d="M94 354q0 197 127 289q129 94 393 94h203v49q0 70 -51 107q-53 37 -152 37q-111 0 -204 -27q-104 -29 -205 -84v250q104 43 196 59q102 18 213 19q272 0 383 -110.5t111 -397.5v-639h-291v125q-53 -76 -135 -115q-80 -39 -184 -39q-190 0 -297 100.5t-107 282.5zM406 340 q0 -76 45 -121t122 -45q115 0 181 88q63 84 63 244v20h-117q-164 0 -229 -43t-65 -143zM281 1309q6 144 92 221q84 76 243.5 76t243.5 -76q86 -77 92 -221h-143q-12 70 -61.5 106.5t-131.5 36.5q-84 0 -133 -37t-61 -106h-141z" />
<glyph unicode="&#x204;" d="M168 0v1493h930v-260h-635v-322h575v-260h-575v-391h635v-260h-930zM111 1898h284l199 -264h-197zM485 1898h285l199 -264h-197z" />
<glyph unicode="&#x205;" d="M92 555q0 274 144 432q145 160 389 160q249 0 387 -148q137 -145 137 -415v-119h-760q0 -129 80 -197q78 -66 229 -65q96 0 199 28q96 27 205 93v-269q-98 -41 -207 -63q-102 -20 -225 -21q-283 0 -430.5 149.5t-147.5 434.5zM393 684h461q-4 121 -59 176q-59 59 -170 60 q-98 0 -160 -62q-60 -59 -72 -174zM180 1638h232l215 -376h-174zM557 1638h217l195 -376h-162z" />
<glyph unicode="&#x206;" d="M168 0v1493h930v-260h-635v-322h575v-260h-575v-391h635v-260h-930zM281 1634h141q23 61 70 92q45 29 124.5 29t124.5 -28.5t68 -92.5h143q-14 129 -102 197q-86 68 -233.5 67.5t-233.5 -67.5q-88 -68 -102 -197z" />
<glyph unicode="&#x207;" d="M92 555q0 274 144 432q145 160 389 160q249 0 387 -148q137 -145 137 -415v-119h-760q0 -129 80 -197q78 -66 229 -65q96 0 199 28q96 27 205 93v-269q-98 -41 -207 -63q-102 -20 -225 -21q-283 0 -430.5 149.5t-147.5 434.5zM393 684h461q-4 121 -59 176q-59 59 -170 60 q-98 0 -160 -62q-60 -59 -72 -174zM320 1309q6 144 92 221q84 76 243.5 76t243.5 -76q86 -77 92 -221h-143q-12 70 -61.5 106.5t-131.5 36.5q-84 0 -133 -37t-61 -106h-141z" />
<glyph unicode="&#x208;" d="M172 0v260h297v973h-297v260h889v-260h-297v-973h297v-260h-889zM111 1898h284l199 -264h-197zM485 1898h285l199 -264h-197z" />
<glyph unicode="&#x209;" d="M143 0v225h365v670h-287v225h580v-895h364v-225h-1022zM141 1638h232l215 -376h-174zM518 1638h217l195 -376h-162z" />
<glyph unicode="&#x20a;" d="M172 0v260h297v973h-297v260h889v-260h-297v-973h297v-260h-889zM281 1634h141q23 61 70 92q45 29 124.5 29t124.5 -28.5t68 -92.5h143q-14 129 -102 197q-86 68 -233.5 67.5t-233.5 -67.5q-88 -68 -102 -197z" />
<glyph unicode="&#x20b;" d="M143 0v225h365v670h-287v225h580v-895h364v-225h-1022zM281 1309q6 144 92 221q84 76 243.5 76t243.5 -76q86 -77 92 -221h-143q-12 70 -61.5 106.5t-131.5 36.5q-84 0 -133 -37t-61 -106h-141z" />
<glyph unicode="&#x20c;" d="M92 745.5q0 378.5 133 577.5q131 197 391.5 197t391.5 -197q133 -199 133 -577.5t-133 -577.5q-131 -197 -391.5 -197t-391.5 197q-133 199 -133 577.5zM399 745.5q0 -272.5 52 -389.5q53 -121 165.5 -120.5t165.5 120.5q51 117 51.5 389.5t-51.5 389.5 q-53 121 -165.5 120.5t-165.5 -120.5q-52 -117 -52 -389.5zM111 1898h284l199 -264h-197zM485 1898h285l199 -264h-197z" />
<glyph unicode="&#x20d;" d="M98 559q0 272 139.5 430t379 158t379 -158t139.5 -430t-139.5 -430t-379 -158t-379 158t-139.5 430zM391 559q0 -170 60 -258q61 -92 165.5 -92t165.5 92q59 88 59.5 258t-59.5 258q-61 92 -165.5 92t-165.5 -92q-60 -88 -60 -258zM141 1638h232l215 -376h-174zM518 1638 h217l195 -376h-162z" />
<glyph unicode="&#x20e;" d="M92 745.5q0 378.5 133 577.5q131 197 391.5 197t391.5 -197q133 -199 133 -577.5t-133 -577.5q-131 -197 -391.5 -197t-391.5 197q-133 199 -133 577.5zM399 745.5q0 -272.5 52 -389.5q53 -121 165.5 -120.5t165.5 120.5q51 117 51.5 389.5t-51.5 389.5 q-53 121 -165.5 120.5t-165.5 -120.5q-52 -117 -52 -389.5zM281 1634h141q23 61 70 92q45 29 124.5 29t124.5 -28.5t68 -92.5h143q-14 129 -102 197q-86 68 -233.5 67.5t-233.5 -67.5q-88 -68 -102 -197z" />
<glyph unicode="&#x20f;" d="M98 559q0 272 139.5 430t379 158t379 -158t139.5 -430t-139.5 -430t-379 -158t-379 158t-139.5 430zM391 559q0 -170 60 -258q61 -92 165.5 -92t165.5 92q59 88 59.5 258t-59.5 258q-61 92 -165.5 92t-165.5 -92q-60 -88 -60 -258zM281 1309q6 144 92 221q84 76 243.5 76 t243.5 -76q86 -77 92 -221h-143q-12 70 -61.5 106.5t-131.5 36.5q-84 0 -133 -37t-61 -106h-141z" />
<glyph unicode="&#x210;" d="M133 0v1493h426q287 0 414 -102q125 -100 125 -332q0 -154 -74 -246q-72 -90 -217 -108q45 -10 76 -41q35 -35 80 -127l270 -537h-324l-180 377q-8 16 -20 45q-80 168 -187 168h-94v-590h-295zM428 838h139q121 0 174 47q51 45 52 157q0 111 -52 156q-53 47 -174 47h-139 v-407zM62 1898h284l199 -264h-197zM436 1898h285l199 -264h-197z" />
<glyph unicode="&#x211;" d="M291 0v1120h293v-174q43 94 133 147.5t207 53.5q63 0 118.5 -14.5t108.5 -42.5v-279q-51 45 -113 66q-68 23 -141 22q-94 0 -162 -33q-74 -35 -108 -94q-23 -35 -33 -92q-10 -61 -10 -164v-516h-293zM241 1638h232l215 -376h-174zM618 1638h217l195 -376h-162z" />
<glyph unicode="&#x212;" d="M133 0v1493h426q287 0 414 -102q125 -100 125 -332q0 -154 -74 -246q-72 -90 -217 -108q45 -10 76 -41q35 -35 80 -127l270 -537h-324l-180 377q-8 16 -20 45q-80 168 -187 168h-94v-590h-295zM428 838h139q121 0 174 47q51 45 52 157q0 111 -52 156q-53 47 -174 47h-139 v-407zM232 1634h141q23 61 70 92q45 29 124.5 29t124.5 -28.5t68 -92.5h143q-14 129 -102 197q-86 68 -233.5 67.5t-233.5 -67.5q-88 -68 -102 -197z" />
<glyph unicode="&#x213;" d="M291 0v1120h293v-174q43 94 133 147.5t207 53.5q63 0 118.5 -14.5t108.5 -42.5v-279q-51 45 -113 66q-68 23 -141 22q-94 0 -162 -33q-74 -35 -108 -94q-23 -35 -33 -92q-10 -61 -10 -164v-516h-293zM381 1309q6 144 92 221q84 76 243.5 76t243.5 -76q86 -77 92 -221 h-143q-12 70 -61.5 106.5t-131.5 36.5q-84 0 -133 -37t-61 -106h-141z" />
<glyph unicode="&#x214;" d="M106 551v942h295v-1016q0 -113 57.5 -176t158 -63t157.5 63.5t57 175.5v1016h295v-942q0 -303 -120 -442q-119 -137 -390 -138q-266 0 -389 138q-121 135 -121 442zM111 1898h284l199 -264h-197zM485 1898h285l199 -264h-197z" />
<glyph unicode="&#x215;" d="M160 391v729h293v-684q0 -121 34 -174q33 -51 113 -51t123 70q45 74 45 196v643h293v-1120h-293v166q-29 -88 -106 -143q-72 -51 -179 -52q-160 0 -241.5 106.5t-81.5 313.5zM141 1638h232l215 -376h-174zM518 1638h217l195 -376h-162z" />
<glyph unicode="&#x216;" d="M106 551v942h295v-1016q0 -113 57.5 -176t158 -63t157.5 63.5t57 175.5v1016h295v-942q0 -303 -120 -442q-119 -137 -390 -138q-266 0 -389 138q-121 135 -121 442zM281 1634h141q23 61 70 92q45 29 124.5 29t124.5 -28.5t68 -92.5h143q-14 129 -102 197 q-86 68 -233.5 67.5t-233.5 -67.5q-88 -68 -102 -197z" />
<glyph unicode="&#x217;" d="M160 391v729h293v-684q0 -121 34 -174q33 -51 113 -51t123 70q45 74 45 196v643h293v-1120h-293v166q-29 -88 -106 -143q-72 -51 -179 -52q-160 0 -241.5 106.5t-81.5 313.5zM281 1309q6 144 92 221q84 76 243.5 76t243.5 -76q86 -77 92 -221h-143q-12 70 -61.5 106.5 t-131.5 36.5q-84 0 -133 -37t-61 -106h-141z" />
<glyph unicode="&#x218;" d="M373 -504l88 305h282l-178 -305h-192zM129 1085q0 203 129 320q127 115 358 115q109 0 205 -23q106 -25 205 -70v-288q-98 70 -192 102q-100 35 -195 35q-106 0 -163.5 -43t-57.5 -123q0 -63 41 -102q45 -43 174 -90l127 -48q172 -61 264 -176q86 -109 86 -274 q0 -227 -133 -338t-404 -111q-117 0 -223 27q-119 31 -215 78v305q123 -88 227 -125q113 -41 220 -41q109 0 170 49q59 47 59 139q0 66 -41 117q-45 55 -115 80l-145 55q-219 84 -301 179q-80 91 -80 251z" />
<glyph unicode="&#x219;" d="M373 -504l88 305h282l-178 -305h-192zM172 805q0 163 117 252q119 90 329 90q86 0 189 -17q100 -16 184 -45v-256q-72 47 -168 78q-82 27 -176 27q-96 0 -147 -28.5t-51 -84.5q0 -82 215 -131l10 -2l84 -20q162 -37 235.5 -123t73.5 -228q0 -174 -113 -260 q-115 -86 -342 -86q-111 0 -206 17q-100 16 -216 53v256q104 -59 197 -84q104 -29 195 -29q106 0 155 29q53 31 54 88q0 55 -37 86q-35 29 -179 64l-81 18q-164 35 -244 119q-78 82 -78 217z" />
<glyph unicode="&#x21a;" d="M373 -504l88 305h282l-178 -305h-192zM90 1235v258h1053v-258h-379v-1235h-295v1235h-379z" />
<glyph unicode="&#x21b;" d="M475 -504l88 305h282l-178 -305h-192zM111 895v225h286v318h293v-318h383v-225h-383v-530q0 -74 37 -107q35 -33 121 -33h225v-225h-246q-254 0 -342 80t-88 299v516h-286z" />
</font>
</defs>
</svg>
